<svg width="24" height="24" viewBox="0 0 24 24" fill="none" xmlns="http://www.w3.org/2000/svg">
<rect width="24" height="24" rx="7" fill="#862165"/>
<g clip-path="url(#clip0_1149_571)">
<path d="M34.8384 7.08067L37.6468 6.60068V16.8892H34.8384V7.08067ZM38.9401 7.08067V16.8892H41.75V6.60068L38.9401 7.08067ZM30.8378 16.8892H33.6492V9.36275H30.8378V16.8892ZM12.2714 10.4278C11.9157 10.4065 11.0942 10.3554 11.0942 9.64961C11.0942 8.79756 12.2848 8.79756 12.7224 8.79756C13.5022 8.79756 14.5083 9.01767 15.2346 9.22358C15.2346 9.22358 15.6379 9.35849 15.9787 9.49766L16.0115 9.50618V7.17156L15.9668 7.1602C15.1155 6.87618 14.1243 6.60068 12.2878 6.60068C9.12217 6.60068 8 8.36159 8 9.86972C8 10.7388 8.38993 12.7852 12.0184 13.0209C12.3265 13.0394 13.142 13.0848 13.142 13.8147C13.142 14.4168 12.4738 14.7719 11.3561 14.7719C10.2748 14.7637 9.20425 14.5659 8.19794 14.1882V16.5924C9.42314 16.881 10.6821 17.0179 11.944 17C15.0396 17 16.4267 15.3342 16.4267 13.6827C16.4267 11.811 14.8744 10.5954 12.2714 10.4278ZM29.2558 9.25482C26.6587 9.33435 25.3401 10.4449 25.3401 12.6545V16.8892H28.1678V13.437C28.1678 12.1135 28.3494 11.5454 29.994 11.4915V9.29317C29.7498 9.25775 29.5026 9.24491 29.2558 9.25482ZM21.6328 9.35565C21.2527 10.3064 20.7123 11.1914 20.0328 11.9757V6.60068L17.1336 7.14883V16.8892H20.0328V13.8772C20.8722 15.08 21.2875 16.8892 21.2875 16.8892H24.7597C24.4159 15.5259 22.9142 13.0138 22.9142 13.0138C23.8072 11.9148 24.4954 10.6773 24.9487 9.35565H21.6328ZM32.2428 8.64561C32.517 8.64589 32.7851 8.56855 33.0131 8.42338C33.2412 8.27822 33.4191 8.07175 33.5241 7.83011C33.6292 7.58847 33.6567 7.32252 33.6033 7.06592C33.5499 6.80933 33.4179 6.57362 33.224 6.38864C33.0302 6.20365 32.7831 6.07771 32.5142 6.02674C32.2453 5.97577 31.9666 6.00207 31.7133 6.10232C31.4601 6.20256 31.2437 6.37224 31.0916 6.58987C30.9394 6.80751 30.8584 7.06332 30.8587 7.32493C30.8599 7.67458 31.0062 8.00956 31.2656 8.25654C31.525 8.50352 31.8763 8.64239 32.2428 8.64277V8.64561Z" fill="white"/>
</g>
<defs>
<clipPath id="clip0_1149_571">
<rect width="9" height="11" fill="white" transform="translate(8 6)"/>
</clipPath>
</defs>
</svg>
