<svg width="188" height="87" viewBox="0 0 188 87" fill="none" xmlns="http://www.w3.org/2000/svg">
<path d="M4.35721 6.83801L0.311916 3.05222L5.68808 0.947426L5.28839 6.47344L4.35721 6.83801ZM188 69.9998L184.491 74.5848L182.275 69.2537L188 69.9998ZM7.51824 11.4944C8.47061 13.5637 9.49315 15.6639 10.588 17.7831L9.69957 18.2421C8.5976 16.1091 7.56841 13.9952 6.60983 11.9125L7.51824 11.4944ZM13.9503 23.9412C15.0967 25.9307 16.3071 27.9265 17.5831 29.9194L16.741 30.4586C15.4563 28.4523 14.2379 26.4431 13.0839 24.4405L13.9503 23.9412ZM21.4965 35.72C22.834 37.6024 24.2324 39.4736 25.6932 41.3255L24.908 41.9448C23.4366 40.0794 22.0282 38.1948 20.6813 36.2993L21.4965 35.72ZM30.1723 46.7105C31.6982 48.4498 33.2833 50.1638 34.9289 51.8451L34.2142 52.5445C32.5556 50.8499 30.9582 49.1226 29.4206 47.37L30.1723 46.7105ZM39.9582 56.7017C41.6676 58.2604 43.4348 59.7818 45.2611 61.2592L44.6321 62.0367C42.7902 60.5465 41.008 59.0123 39.2845 57.4406L39.9582 56.7017ZM50.8286 65.4894C52.7116 66.8307 54.6511 68.1247 56.6482 69.3653L56.1205 70.2148C54.1051 68.9628 52.1482 67.6571 50.2484 66.3039L50.8286 65.4894ZM62.7028 72.8623C64.7375 73.9514 66.8267 74.9855 68.9714 75.9592L68.558 76.8698C66.3932 75.8869 64.2845 74.8431 62.2309 73.744L62.7028 72.8623ZM75.4286 78.6398C77.5826 79.4525 79.7883 80.2053 82.0464 80.8936L81.7548 81.8501C79.4759 81.1555 77.2498 80.3957 75.0756 79.5754L75.4286 78.6398ZM88.7946 82.7166C91.0293 83.2448 93.3119 83.7111 95.6431 84.1114L95.4738 85.097C93.1223 84.6931 90.8195 84.2227 88.5646 83.6898L88.7946 82.7166ZM102.563 85.0867C104.841 85.3391 107.163 85.53 109.529 85.6561L109.476 86.6547C107.091 86.5276 104.75 86.3352 102.453 86.0806L102.563 85.0867ZM116.52 85.8368C118.814 85.8344 121.147 85.7725 123.52 85.6483L123.572 86.6469C121.183 86.772 118.832 86.8344 116.521 86.8368L116.52 85.8368ZM130.519 85.1103C132.8 84.88 135.117 84.5934 137.469 84.2482L137.614 85.2376C135.247 85.5849 132.916 85.8734 130.619 86.1053L130.519 85.1103ZM144.345 83.0895C146.597 82.6618 148.879 82.1816 151.194 81.6471L151.419 82.6214C149.092 83.1588 146.796 83.6418 144.531 84.072L144.345 83.0895ZM158.023 79.9347C160.233 79.3378 162.47 78.6923 164.734 77.997L165.028 78.9529C162.753 79.6516 160.505 80.3001 158.284 80.9001L158.023 79.9347ZM171.379 75.8391C173.568 75.09 175.782 74.2951 178.021 73.4532L178.373 74.3893C176.125 75.2345 173.901 76.0328 171.703 76.7852L171.379 75.8391Z" fill="#B1BBC8"/>
</svg>
