<svg width="188" height="87" viewBox="0 0 188 87" fill="none" xmlns="http://www.w3.org/2000/svg">
<path d="M4.35721 80.1615L0.311916 83.9473L5.68808 86.0521L5.28839 80.5261L4.35721 80.1615ZM188 16.9997L184.491 12.4147L182.275 17.7458L188 16.9997ZM7.51824 75.5051C8.47061 73.4358 9.49315 71.3356 10.588 69.2164L9.69957 68.7574C8.5976 70.8904 7.56841 73.0043 6.60983 75.0871L7.51824 75.5051ZM13.9503 63.0583C15.0967 61.0689 16.3071 59.073 17.5831 57.0801L16.741 56.5409C15.4563 58.5472 14.2379 60.5564 13.0839 62.559L13.9503 63.0583ZM21.4965 51.2795C22.834 49.3971 24.2324 47.5259 25.6932 45.674L24.908 45.0547C23.4366 46.9201 22.0282 48.8047 20.6813 50.7003L21.4965 51.2795ZM30.1723 40.289C31.6982 38.5497 33.2833 36.8357 34.9289 35.1544L34.2142 34.455C32.5556 36.1496 30.9582 37.877 29.4206 39.6296L30.1723 40.289ZM39.9582 30.2978C41.6676 28.7391 43.4348 27.2177 45.2611 25.7403L44.6321 24.9628C42.7902 26.453 41.008 27.9872 39.2845 29.5589L39.9582 30.2978ZM50.8286 21.5101C52.7116 20.1688 54.6511 18.8748 56.6482 17.6342L56.1205 16.7847C54.1051 18.0367 52.1482 19.3424 50.2484 20.6956L50.8286 21.5101ZM62.7028 14.1372C64.7375 13.0482 66.8267 12.0141 68.9714 11.0403L68.558 10.1298C66.3932 11.1126 64.2845 12.1564 62.2309 13.2556L62.7028 14.1372ZM75.4286 8.35972C77.5826 7.54704 79.7883 6.79421 82.0464 6.10593L81.7548 5.14937C79.4759 5.844 77.2498 6.60382 75.0756 7.4241L75.4286 8.35972ZM88.7946 4.2829C91.0293 3.75472 93.3119 3.28844 95.6431 2.88806L95.4738 1.90249C93.1223 2.30636 90.8195 2.77677 88.5646 3.30971L88.7946 4.2829ZM102.563 1.9128C104.841 1.66038 107.163 1.46949 109.529 1.34344L109.476 0.344859C107.091 0.471909 104.75 0.664349 102.453 0.918879L102.563 1.9128ZM116.52 1.16271C118.814 1.16508 121.147 1.22701 123.52 1.35125L123.572 0.352617C121.183 0.227498 118.832 0.165094 116.521 0.162709L116.52 1.16271ZM130.519 1.88919C132.8 2.11951 135.117 2.40614 137.469 2.75129L137.614 1.76189C135.247 1.41459 132.916 1.1261 130.619 0.894246L130.519 1.88919ZM144.345 3.90996C146.597 4.33768 148.879 4.81791 151.194 5.35243L151.419 4.37809C149.092 3.84066 146.796 3.35773 144.531 2.92752L144.345 3.90996ZM158.023 7.06479C160.233 7.66174 162.47 8.30717 164.734 9.00253L165.028 8.04658C162.753 7.34795 160.505 6.69936 158.284 6.0994L158.023 7.06479ZM171.379 11.1604C173.568 11.9096 175.782 12.7044 178.021 13.5463L178.373 12.6102C176.125 11.765 173.901 10.9667 171.703 10.2143L171.379 11.1604Z" fill="#B1BBC8"/>
</svg>
