<svg width="132" height="34" viewBox="0 0 132 34" fill="none" xmlns="http://www.w3.org/2000/svg">
<path d="M16.4551 8.22756C16.4551 12.7715 12.7715 16.4551 8.22756 16.4551C3.6836 16.4551 0 12.7715 0 8.22756C0 3.6836 3.6836 0 8.22756 0C12.7715 0 16.4551 3.6836 16.4551 8.22756Z" fill="#4936F5"/>
<path d="M17.5431 8.22756C17.5431 3.68361 21.2267 0 25.7706 0C30.3146 0 33.9982 3.68361 33.9982 8.22756C33.9982 12.7715 30.3146 16.4551 25.7706 16.4551H17.5431V8.22756Z" fill="#4936F5"/>
<path d="M0 25.7706C0 21.2267 3.6836 17.5431 8.22756 17.5431H16.4551V25.7706C16.4551 30.3146 12.7715 33.9982 8.22756 33.9982C3.68361 33.9982 0 30.3146 0 25.7706Z" fill="#4936F5"/>
<path d="M33.9982 25.7706C33.9982 30.3146 30.3146 33.9982 25.7706 33.9982C21.2267 33.9982 17.5431 30.3146 17.5431 25.7706C17.5431 21.2267 21.2267 17.5431 25.7706 17.5431C30.3146 17.5431 33.9982 21.2267 33.9982 25.7706Z" fill="#4936F5"/>
<path d="M60.5308 9.07174H52.8041L54.7715 6.7236V28.666H49.8689V6.7236L51.8998 9.07174H44.1255V5.26394H60.5308V9.07174ZM61.6228 28.666V11.8165H66.557V17.6234L65.5416 16.9888C65.658 16.1955 65.8695 15.4657 66.1763 14.7993C66.483 14.1329 66.8796 13.5565 67.3662 13.0699C67.8528 12.5728 68.4292 12.1867 69.0956 11.9117C69.7725 11.6367 70.5446 11.4992 71.412 11.4992C72.0889 11.4992 72.6178 11.5521 72.9986 11.6579C73.3899 11.7531 73.6332 11.8271 73.7284 11.88L72.9192 16.2907C72.824 16.2378 72.6125 16.1532 72.2846 16.0368C71.9567 15.9205 71.5336 15.8623 71.0153 15.8623C70.1692 15.8623 69.4605 16.0051 68.8893 16.2907C68.3181 16.5763 67.858 16.957 67.509 17.433C67.1705 17.8984 66.9272 18.4167 66.7792 18.9879C66.6311 19.559 66.557 20.1355 66.557 20.7172V28.666H61.6228ZM77.7962 21.7168V18.4643H88.9658L88.4898 19.2893C88.4898 19.2047 88.4898 19.1254 88.4898 19.0513C88.4898 18.9667 88.4898 18.8874 88.4898 18.8133C88.4898 18.2104 88.347 17.634 88.0614 17.084C87.7758 16.5234 87.3316 16.0686 86.7287 15.7195C86.1364 15.3599 85.3748 15.1801 84.444 15.1801C83.5132 15.1801 82.7094 15.381 82.0324 15.783C81.366 16.1743 80.8531 16.7402 80.4934 17.4806C80.1444 18.221 79.9699 19.1148 79.9699 20.1619C79.9699 21.2408 80.1391 22.1663 80.4776 22.9385C80.8266 23.7 81.3396 24.2871 82.0165 24.6996C82.7041 25.1121 83.5555 25.3183 84.5709 25.3183C85.2267 25.3183 85.7926 25.2602 86.2686 25.1438C86.7446 25.0169 87.1306 24.8582 87.4268 24.6678C87.7335 24.4774 87.9662 24.2659 88.1249 24.0332C88.2835 23.8005 88.3787 23.5731 88.4105 23.351H93.2654C93.2019 24.0596 92.9587 24.7577 92.5356 25.4453C92.1125 26.1222 91.5255 26.7357 90.7745 27.2857C90.0235 27.8251 89.1086 28.2535 88.0297 28.5708C86.9614 28.8881 85.7397 29.0468 84.3647 29.0468C82.5031 29.0468 80.8795 28.6766 79.4939 27.9362C78.1083 27.1852 77.0347 26.1539 76.2731 24.8424C75.5116 23.5202 75.1308 21.9971 75.1308 20.273C75.1308 18.5278 75.5168 16.9994 76.289 15.6878C77.0717 14.3656 78.1559 13.3396 79.5415 12.6098C80.9377 11.8694 82.5507 11.4992 84.3805 11.4992C86.2527 11.4992 87.871 11.8747 89.2355 12.6257C90.5999 13.3661 91.6524 14.4079 92.3928 15.7512C93.1332 17.084 93.5034 18.6388 93.5034 20.4158C93.5034 20.6802 93.4981 20.9341 93.4875 21.1774C93.4769 21.4206 93.4611 21.6004 93.4399 21.7168H77.7962ZM100.35 24.8106H109.489V28.666H95.0825V25.0169L103.999 15.4815L104.11 15.656H95.3998V11.8165H109.298V15.4657L100.461 24.9693L100.35 24.8106ZM120.388 29.0309C118.568 29.0309 116.966 28.6554 115.58 27.9045C114.195 27.1535 113.111 26.1222 112.328 24.8106C111.556 23.4885 111.17 21.9654 111.17 20.2413C111.17 18.5278 111.556 17.0152 112.328 15.7036C113.111 14.3815 114.195 13.3555 115.58 12.6257C116.966 11.8853 118.568 11.5151 120.388 11.5151C122.207 11.5151 123.809 11.8853 125.195 12.6257C126.581 13.3555 127.66 14.3815 128.432 15.7036C129.214 17.0152 129.606 18.5278 129.606 20.2413C129.606 21.9654 129.214 23.4885 128.432 24.8106C127.66 26.1222 126.581 27.1535 125.195 27.9045C123.809 28.6554 122.207 29.0309 120.388 29.0309ZM120.388 25.1279C121.245 25.1279 121.99 24.927 122.625 24.525C123.259 24.1231 123.751 23.5572 124.1 22.8274C124.449 22.087 124.624 21.2249 124.624 20.2413C124.624 19.2576 124.449 18.4061 124.1 17.6869C123.751 16.957 123.259 16.3965 122.625 16.0051C121.99 15.6137 121.245 15.4181 120.388 15.4181C119.542 15.4181 118.796 15.6137 118.151 16.0051C117.516 16.3965 117.024 16.957 116.675 17.6869C116.326 18.4061 116.152 19.2576 116.152 20.2413C116.152 21.2249 116.326 22.087 116.675 22.8274C117.024 23.5572 117.516 24.1231 118.151 24.525C118.796 24.927 119.542 25.1279 120.388 25.1279Z" fill="white"/>
</svg>
