<svg width="64" height="64" viewBox="0 0 64 64" fill="none" xmlns="http://www.w3.org/2000/svg">
<g clip-path="url(#clip0_1912_2532)">
<path d="M61.0499 61.5H58.3083V21.692C58.3083 19.8392 56.8008 18.3318 54.948 18.3318H48.82C46.9671 18.3318 45.4598 19.8393 45.4598 21.692V61.5H38.4983V39.7282C38.4983 37.8753 36.9909 36.3679 35.138 36.3679H29.01C27.1571 36.3679 25.6498 37.8754 25.6498 39.7282V61.5H18.6883V50.2245C18.6883 48.3717 17.1808 46.8643 15.328 46.8643H9.19988C7.34701 46.8643 5.83963 48.3718 5.83963 50.2245V61.5H2.95013C2.25976 61.5 1.70013 62.0597 1.70013 62.75C1.70013 63.4404 2.25976 64 2.95013 64H61.0499C61.7403 64 62.2999 63.4404 62.2999 62.75C62.2999 62.0597 61.7403 61.5 61.0499 61.5ZM16.188 61.5H8.33951V50.2245C8.33951 49.7502 8.72538 49.3643 9.19976 49.3643H15.3278C15.8021 49.3643 16.188 49.7502 16.188 50.2245V61.5ZM35.9981 61.5H28.1496V39.7282C28.1496 39.2538 28.5355 38.8679 29.0099 38.8679H35.1379C35.6121 38.8679 35.9981 39.2538 35.9981 39.7282V61.5ZM55.8083 61.5H47.9598V21.692C47.9598 21.2177 48.3456 20.8318 48.82 20.8318H54.948C55.4224 20.8318 55.8083 21.2177 55.8083 21.692V61.5Z" fill="#EE3E08"/>
<path d="M58.3052 1.3145C58.3227 0.973375 58.2027 0.6265 57.9422 0.366C57.6817 0.1055 57.3349 -0.014625 56.9937 0.003C56.9736 0.002125 56.9537 0 56.9332 0H49.3707C48.6804 0 48.1207 0.559625 48.1207 1.25C48.1207 1.94037 48.6804 2.5 49.3707 2.5H54.0404L41.6832 14.8573L37.0232 10.1973C36.7889 9.96288 36.4709 9.83113 36.1394 9.83113C35.8079 9.83113 35.4899 9.96288 35.2555 10.1973L12.7844 32.6685C12.2962 33.1566 12.2962 33.9481 12.7844 34.4364C13.0285 34.6802 13.3484 34.8022 13.6682 34.8022C13.9881 34.8022 14.3081 34.6803 14.5521 34.4361L36.1394 12.8488L40.7994 17.5088C41.2875 17.9969 42.079 17.9969 42.5672 17.5088L55.8082 4.26788V8.49413C55.8082 9.1845 56.3679 9.74413 57.0582 9.74413C57.7486 9.74413 58.3082 9.1845 58.3082 8.49413V1.375C58.3082 1.35462 58.3061 1.33475 58.3052 1.3145Z" fill="#EE3E08"/>
<path d="M9.45499 39.1638C10.1453 39.1638 10.705 38.6042 10.705 37.9138C10.705 37.2235 10.1453 36.6638 9.45499 36.6638C8.76463 36.6638 8.20499 37.2235 8.20499 37.9138C8.20499 38.6042 8.76463 39.1638 9.45499 39.1638Z" fill="#EE3E08"/>
</g>
<defs>
<clipPath id="clip0_1912_2532">
<rect width="64" height="64" fill="white"/>
</clipPath>
</defs>
</svg>
