<svg width="22" height="22" viewBox="0 0 22 22" fill="none" xmlns="http://www.w3.org/2000/svg">
<path d="M3.36019 10.1856C2.9805 10.1866 2.60887 10.2952 2.28829 10.4986C1.96771 10.7021 1.71129 10.9922 1.5487 11.3353C1.3861 11.6784 1.32396 12.0605 1.36949 12.4375C1.41501 12.8145 1.56632 13.1708 1.80593 13.4654L6.91374 19.7224C7.09586 19.9485 7.3293 20.128 7.59469 20.2458C7.86007 20.3636 8.14973 20.4163 8.43961 20.3997C9.05958 20.3664 9.61931 20.0348 9.97618 19.4895L20.5864 2.40172C20.5881 2.39889 20.59 2.39606 20.5918 2.39326C20.6914 2.24041 20.6591 1.93748 20.4536 1.74718C20.3971 1.69492 20.3306 1.65477 20.258 1.62921C20.1855 1.60364 20.1085 1.5932 20.0317 1.59852C19.955 1.60384 19.8801 1.62482 19.8118 1.66016C19.7435 1.6955 19.6831 1.74445 19.6344 1.804C19.6306 1.80868 19.6267 1.81329 19.6227 1.81784L8.92212 13.9079C8.88141 13.9539 8.83196 13.9913 8.77664 14.0181C8.72132 14.0448 8.66125 14.0603 8.5999 14.0636C8.53855 14.0669 8.47716 14.058 8.41928 14.0374C8.36141 14.0168 8.3082 13.9849 8.26276 13.9435L4.71145 10.7118C4.34262 10.3737 3.86054 10.186 3.36019 10.1856Z" fill="#3A4252"/>
</svg>
