<svg width="64" height="64" viewBox="0 0 64 64" fill="none" xmlns="http://www.w3.org/2000/svg">
<path d="M4.86743 23.4565L24.5867 51.1075V56.6881C24.5882 56.7504 24.5945 56.8161 24.6186 56.8755C25.296 58.1559 26.7903 60.1745 29.6845 61.3867C32.0934 62.4435 35.2559 62.2279 37.1001 61.4921C37.3457 61.4017 37.509 61.1676 37.509 60.9058V52.6792C38.4028 52.8765 39.3163 52.959 40.228 52.9159C40.3419 52.9441 40.4712 52.9335 40.5788 52.892C41.4577 52.8226 42.3294 52.6442 43.1705 52.3519L47.3117 53.566L51.9387 60.3287C53.3314 62.4395 56.4983 62.7385 58.2612 60.9163C60.0808 59.1584 59.7862 55.9864 57.6735 54.5939C57.6736 54.5939 50.9108 49.967 50.9108 49.967L49.6518 45.6727C50.6346 42.5603 50.1055 39.0781 48.011 36.3267C50.7021 32.3419 53.9928 27.492 57.1524 23.5534C57.1585 23.5463 57.1635 23.539 57.1695 23.5319C58.2067 21.9453 57.9252 20.1047 47.9251 18.6205L47.9222 16.8131C47.9217 16.564 47.7735 16.3389 47.5447 16.2402L44.771 15.0435C44.4649 13.9802 44.0376 12.9542 43.4978 11.986L44.6045 9.17359C44.6958 8.94179 44.6407 8.67786 44.4642 8.50209L41.2584 5.30654C41.0821 5.13089 40.8177 5.07571 40.5865 5.16836L37.7776 6.28384C36.8079 5.74746 35.7806 5.32351 34.7161 5.02041L33.5103 2.25051C33.4112 2.02249 33.1861 1.87501 32.9373 1.87501C32.9375 1.87464 28.4099 1.88249 28.4097 1.88221C28.1607 1.88259 27.9356 2.03089 27.8367 2.25966L26.6402 5.03334C25.5767 5.33974 24.5509 5.76686 23.5828 6.30654L20.7703 5.20009C20.5386 5.10841 20.2745 5.16409 20.099 5.34034L16.9034 8.54614C16.7276 8.72266 16.6732 8.98656 16.7652 9.21801L17.8805 12.027C17.3438 12.9972 16.92 14.0245 16.6173 15.0884L13.8473 16.2941C13.619 16.3935 13.4713 16.6191 13.4718 16.8682L13.4791 21.3947C13.4796 21.6438 13.6278 21.8689 13.8565 21.9675C14.5467 22.2643 15.9388 22.8669 16.6295 23.1652C16.8715 23.9965 17.1909 24.8031 17.567 25.5824C11.2423 24.9353 7.94863 23.9743 6.57601 23.2502C6.54488 23.2329 6.51003 23.2156 6.48048 23.1983C6.47548 23.1955 6.47068 23.1927 6.46573 23.1899C6.15458 23.0094 5.98233 22.8449 5.81378 22.6513C5.64331 22.17 6.78881 21.2811 11.5815 20.3164C11.9205 20.2511 12.1424 19.9233 12.0772 19.5845C12.0118 19.2454 11.6829 19.0241 11.3453 19.0889C8.30223 19.701 3.38048 20.7984 4.79878 23.3283C4.81678 23.3726 4.83848 23.4159 4.86743 23.4565ZM36.6445 51.1309C36.2791 50.9973 35.9208 50.8428 35.5755 50.6633V41.9207L39.74 42.7504V51.6773C38.6914 51.6761 37.6386 51.4893 36.6445 51.1309ZM34.1105 49.7174C32.6813 48.6022 31.583 46.9866 31.0675 45.2832L34.3255 42.5112V49.8788C34.2528 49.8262 34.1807 49.7732 34.1105 49.7174ZM48.4085 45.4532C47.794 47.2043 46.7033 48.7646 45.2078 49.8675V38.8166H48.0551C49.0211 40.9239 49.1325 43.2959 48.4085 45.4532ZM43.9578 50.6528C43.0341 51.1342 42.0165 51.454 40.99 51.593V42.5041L43.9578 39.6572V50.6528ZM58.2073 57.7329C58.4125 59.4692 56.814 61.0679 55.0776 60.8625C54.2229 60.783 53.4551 60.3312 52.9705 59.6229L48.5105 53.1042L50.449 51.1656L56.9678 55.6255C57.676 56.1102 58.1279 56.8782 58.2073 57.7329ZM49.6697 50.1771L47.5217 52.325L44.9111 51.5595C46.5676 50.6076 47.9763 49.1606 48.8813 47.4878L49.6697 50.1771ZM47.9273 19.8835C54.7143 20.9001 56.7042 22.1435 56.2166 22.7216C56.2081 22.7321 56.1997 22.7431 56.1912 22.7536C55.6113 23.387 52.8067 24.8037 43.7991 25.6532C44.1992 24.8383 44.5316 23.9915 44.784 23.1193L47.554 21.9136C47.7823 21.8142 47.93 21.5886 47.9295 21.3395C47.929 21.0823 47.9275 20.1235 47.9273 19.8835ZM17.3906 16.1151C17.5662 16.0385 17.6973 15.8857 17.7459 15.7003C18.0491 14.5416 18.5088 13.4273 19.1123 12.3884C19.2085 12.2227 19.2234 12.022 19.1526 11.8438L18.0781 9.13801L20.6946 6.51339L23.4038 7.57944C23.5818 7.64914 23.7827 7.63401 23.9482 7.53721C24.9846 6.93064 26.0974 6.46726 27.2558 6.15989C27.4409 6.11069 27.5935 5.97934 27.6694 5.80331L28.822 3.13156L32.5281 3.12559L33.6894 5.79381C33.7659 5.96946 33.9187 6.10034 34.104 6.14891C35.2634 6.45274 36.3777 6.91259 37.416 7.51561C37.582 7.61204 37.7824 7.62694 37.9607 7.55601L40.6665 6.48144L43.291 9.09764L42.225 11.8069C42.1547 11.9853 42.1703 12.186 42.2673 12.3514C42.874 13.388 43.3373 14.5008 43.6445 15.6589C43.6935 15.8441 43.8249 15.9966 44.0009 16.0725L46.6728 17.2253C46.6733 17.5711 46.6784 20.6841 46.6784 20.9305L44.0095 22.0919C43.8334 22.1685 43.7026 22.3217 43.6542 22.5077C43.388 23.5215 43.0044 24.5011 42.5084 25.4262C42.3575 25.7171 42.0986 26.0193 42.2479 26.3624C42.248 26.3628 42.2481 26.3631 42.2482 26.3635C42.2652 26.4128 42.3194 26.5386 42.3376 26.5895C42.4303 26.8245 42.6682 26.9855 42.9205 26.9849C47.8117 26.5357 51.095 26.0797 54.4075 25.0484C51.6706 28.6864 48.9339 32.6953 46.674 36.0887C46.5685 36.304 46.6032 36.5738 46.757 36.7571C46.9751 37.0186 47.1742 37.2895 47.3584 37.5666C47.2808 37.5832 44.3008 37.5217 44.3453 37.6139C44.2735 37.6457 44.2089 37.6888 44.1501 37.7406L40.1674 41.561L35.0778 40.547C35.0174 40.5375 34.9546 40.5284 34.8929 40.5396C34.7641 40.5472 34.6463 40.6062 34.5453 40.6828L30.7544 43.9081C30.3334 41.1615 31.2575 38.1764 33.3193 36.141C36.421 33.0392 41.2924 32.5867 44.9025 35.0664C45.1867 35.2616 45.5761 35.1897 45.7714 34.905C45.9669 34.6205 45.8947 34.2313 45.61 34.036C41.2182 30.9836 35.0723 31.8815 31.7184 36.0522C28.6471 39.6875 28.6496 45.4798 31.7245 49.1124C31.725 49.113 31.7255 49.1136 31.726 49.1143C32.909 50.5707 34.4959 51.6862 36.2589 52.3235V60.4574C32.9259 61.5682 28.5922 60.4806 26.2682 57.1671C28.8655 56.9838 31.6932 58.2256 31.7248 58.2396C32.4809 58.5567 32.9811 57.4562 32.2348 57.0984C32.0874 57.0325 28.8531 55.6076 25.8366 55.9519V50.9075C25.8366 50.7774 25.7961 50.6505 25.7204 50.5446L7.49391 24.9862C11.1558 26.2028 15.6202 26.6796 19.7981 27.0398C24.2233 27.3887 28.6683 27.5089 33.1106 27.4522C35.5239 27.4206 37.9692 27.3313 40.2671 27.1852C41.0762 27.1175 41.0238 25.9064 40.188 25.9377C38.8874 26.0201 37.555 26.0833 36.2008 26.1293C42.8222 20.9831 39.147 10.186 30.7006 10.1824C22.2539 10.2171 18.5906 20.8976 25.1665 26.1021C23.0448 26.0194 20.9881 25.8935 19.0591 25.7244C18.6293 24.9699 18.2728 24.1744 17.9976 23.3511C17.81 22.9475 17.86 22.3441 17.4002 22.1352C16.7413 21.8528 15.3815 21.2629 14.7285 20.9815C14.7282 20.064 14.7235 18.1991 14.7224 17.2764L17.3906 16.1151ZM23.0291 19.1162C23.0218 14.8819 26.4664 11.4319 30.7007 11.4323C39.0701 11.5493 41.329 22.9137 33.6282 26.1944C31.6645 26.2273 29.7047 26.2228 27.7379 26.1801C24.8785 24.9828 23.0342 22.2226 23.0291 19.1162Z" fill="#EE3E08"/>
</svg>
