<svg width="64" height="64" viewBox="0 0 64 64" fill="none" xmlns="http://www.w3.org/2000/svg">
<g clip-path="url(#clip0_1914_2574)">
<path d="M61.5214 44.1597C61.5401 44.1215 61.5568 44.0825 61.57 44.0425C65.3619 35.2909 64.6843 24.5617 59.7594 16.3612C62.3886 13.2181 58.9734 8.71705 55.2387 10.4586C54.5824 9.78791 53.8934 9.14512 53.1793 8.53734C54.5809 4.72709 49.903 1.6014 46.9897 4.44821C38.5219 0.172374 27.99 0.226524 19.569 4.5929C16.5734 1.41832 11.5424 4.82213 13.3561 8.80521C12.3174 9.7135 11.3342 10.6947 10.4277 11.7323C9.64493 12.6282 11.063 13.8562 11.8403 12.9665C12.6837 12.0013 13.5975 11.0883 14.5627 10.2421C16.4292 11.5884 19.1355 10.9025 20.1595 8.84761C23.5387 9.8203 26.7657 11.2163 29.7727 13.008C29.5209 13.9158 29.6237 14.9296 30.0557 15.7677C27.5808 17.9055 25.352 20.3239 23.4166 22.9742C21.6299 22.4343 19.6605 23.338 18.8835 25.03C14.9434 25.0512 10.9909 25.475 7.11039 26.2952C6.76773 25.6567 6.24825 25.1276 5.61846 24.7732C6.34754 21.93 7.50232 19.2254 9.05779 16.7246C9.67757 15.7279 8.1131 14.6918 7.46493 15.7338C5.81117 18.3925 4.58286 21.2677 3.806 24.2901C-0.687313 24.3664 -1.44166 30.5825 2.83593 31.7783C2.7729 40.6251 6.59791 49.2263 13.2307 55.0855C11.8471 58.823 16.339 61.906 19.3034 59.2697C27.9546 63.87 38.8882 63.8706 47.5399 59.2713C50.555 62.2531 55.3839 58.9218 53.6856 55.0237C57.1041 51.9857 59.7597 48.2698 61.5214 44.1597ZM60.3396 42.062C57.7433 39.4825 54.902 37.1426 51.8684 35.0885C52.2993 33.739 51.9248 32.2207 50.9188 31.2245C53.4697 26.9832 55.4722 22.4353 56.8819 17.6845C57.3516 17.6862 57.8032 17.5995 58.2192 17.4427C62.5386 24.7376 63.3286 34.1432 60.3396 42.062ZM17.179 52.6648C16.3897 44.9332 17.7748 37.2198 21.203 30.2492C23.3327 30.9137 25.6346 29.5132 26.0482 27.3271C32.5155 28.1243 38.7443 30.0231 44.5897 32.9801C44.3086 34.0728 44.5413 35.2777 45.211 36.1868C38.6221 44.5342 29.9247 50.8155 19.9707 54.4155C19.3675 53.4605 18.3532 52.7923 17.179 52.6648ZM46.3458 33.9305C46.3458 32.8676 47.2042 32.003 48.2593 32.003C50.7977 32.1087 50.7969 35.7527 48.2593 35.858C47.2042 35.858 46.3458 34.9934 46.3458 33.9305ZM58.8036 13.8813C58.8036 14.9442 57.9452 15.8088 56.8901 15.8088C54.3516 15.7031 54.3522 12.0591 56.8901 11.9538C57.9452 11.9538 58.8036 12.8184 58.8036 13.8813ZM53.8055 11.6763C52.5091 13.4977 53.1108 16.1308 55.0652 17.2134C53.6996 21.796 51.7638 26.1828 49.301 30.2746C48.7861 30.1265 48.2146 30.0897 47.6853 30.1708C45.1111 24.6739 41.3655 19.7227 36.7899 15.7679C37.2222 14.9294 37.3253 13.9173 37.0731 13.0083C39.9693 11.2827 43.0716 9.92285 46.3158 8.95615C47.394 11.0379 50.2865 11.6256 52.0822 10.0673C52.6773 10.5793 53.2534 11.1171 53.8055 11.6763ZM31.5093 14.0265C31.5093 12.9636 32.3677 12.099 33.4228 12.099C35.9614 12.2046 35.9606 15.8486 33.4228 15.9539C32.3677 15.9539 31.5093 15.0892 31.5093 14.0265ZM49.6512 5.22507C50.7064 5.22507 51.5648 6.08972 51.5648 7.15258C51.4595 9.70963 47.8426 9.709 47.7377 7.15258C47.7377 6.08972 48.5961 5.22507 49.6512 5.22507ZM16.7686 9.07996C15.7135 9.07996 14.8551 8.21532 14.8551 7.15245C14.9604 4.59528 18.5773 4.59615 18.6822 7.15245C18.6822 8.21532 17.8237 9.07996 16.7686 9.07996ZM20.5544 7.00864C20.5447 6.74827 20.5089 6.49478 20.4494 6.25016C28.3009 2.18992 38.1095 2.11914 46.0215 6.06133C45.9198 6.40136 45.8642 6.7609 45.8623 7.13319C42.45 8.14266 39.1871 9.56856 36.141 11.3803C34.6768 9.8657 32.1695 9.8652 30.7048 11.3801C27.5305 9.49203 24.1231 8.02435 20.5544 7.00864ZM31.2975 17.1736C32.5658 18.0392 34.2795 18.0393 35.5479 17.1737C39.9164 20.9455 43.4951 25.6671 45.9601 30.9101C45.793 31.0385 45.637 31.1807 45.4934 31.3347C39.3307 28.2089 32.7542 26.2215 25.923 25.4218C25.7386 24.8636 25.4289 24.3624 25.027 23.952C26.8603 21.4615 28.9643 19.1869 31.2975 17.1736ZM22.3261 24.6889C23.3812 24.6889 24.2396 25.5535 24.2396 26.6164C24.1343 29.1736 20.5174 29.1728 20.4125 26.6164C20.4126 25.5535 21.271 24.6889 22.3261 24.6889ZM1.85823 28.0927C1.85823 27.0298 2.71662 26.1652 3.77173 26.1652C6.31015 26.2709 6.3094 29.9148 3.77173 30.0201C2.71675 30.0202 1.85823 29.1556 1.85823 28.0927ZM4.71167 31.7775C4.71167 31.7775 7.5606 31.1562 7.5606 28.1175C7.5606 28.1175 14.871 26.9489 18.549 26.9079C18.618 27.8166 19.0061 28.6366 19.6012 29.2553C15.9461 36.6088 14.4718 44.7616 15.3204 52.9313C14.955 53.0837 14.6186 53.2919 14.3212 53.545C8.20202 48.0632 4.71167 38.8785 4.71167 31.7775ZM16.7686 58.3728C15.7135 58.3728 14.8551 57.5082 14.8551 56.4453C14.8551 55.3825 15.7135 54.5178 16.7686 54.5178C17.8096 54.5178 18.6822 55.4195 18.6822 56.4453C18.6822 57.5082 17.8237 58.3728 16.7686 58.3728ZM33.4228 60.8586C28.8706 60.8586 24.3691 59.7684 20.3457 57.6985C20.509 57.2304 20.5811 56.6972 20.5493 56.2005C30.8463 52.4889 39.8443 46.0025 46.6607 37.3777C47.2207 37.6403 47.8421 37.7609 48.4595 37.7285C48.8762 39.2751 49.2055 40.8529 49.4388 42.4306C49.6175 43.6385 51.4738 43.3686 51.2945 42.1563C51.0468 40.481 50.696 38.8055 50.2507 37.1645C50.4749 37.0249 50.6833 36.8622 50.8731 36.6803C54.003 38.8051 56.9211 41.2444 59.5647 43.944C57.9252 47.5683 55.539 50.8499 52.5072 53.5615C52.2075 53.3364 51.8732 53.1553 51.5144 53.0265C51.6987 51.2828 51.779 49.5223 51.752 47.781C51.733 46.5557 49.8573 46.5844 49.8764 47.81C49.9024 49.4838 49.8249 51.1762 49.6468 52.8523C47.4347 53.2041 45.9879 55.4979 46.5974 57.6476C42.5488 59.7503 38.0123 60.8586 33.4228 60.8586ZM50.2418 58.5359C49.1867 58.5359 48.3283 57.6713 48.3283 56.6084C48.4336 54.0512 52.0505 54.0521 52.1554 56.6084C52.1554 57.6713 51.297 58.5359 50.2418 58.5359Z" fill="#EE3E08"/>
</g>
<defs>
<clipPath id="clip0_1914_2574">
<rect width="64" height="64" fill="white"/>
</clipPath>
</defs>
</svg>
