<svg width="65" height="64" viewBox="0 0 65 64" fill="none" xmlns="http://www.w3.org/2000/svg">
<g clip-path="url(#clip0_1933_4003)">
<path d="M29.2128 33.4287C29.2128 33.9112 29.6039 34.3022 30.0863 34.3022H33.835C34.3175 34.3022 34.7085 33.9111 34.7085 33.4287V29.9666H34.7509C36.6345 29.9666 38.1672 28.4341 38.1672 26.5503C38.1672 24.6666 36.6347 23.134 34.7509 23.134H34.7085V21.2808L43.5117 21.1332L43.6832 21.7735C43.8179 22.2657 44.1362 22.6777 44.5793 22.9338C44.8763 23.1055 45.205 23.193 45.5359 23.193C45.703 23.193 45.8709 23.1707 46.0354 23.1255L47.2218 22.8077C47.7177 22.676 48.1325 22.3583 48.39 21.9136C48.6473 21.4691 48.7163 20.9521 48.5839 20.4573L44.4394 4.98572C44.166 3.96359 43.1097 3.35459 42.0858 3.62859L40.8992 3.94647C40.403 4.07834 39.988 4.39622 39.7308 4.84172C39.4739 5.28609 39.4052 5.80359 39.5373 6.30059L39.708 6.93759L24.6267 15.3081C24.276 15.5028 24.1029 15.9112 24.2069 16.2985L25.4094 20.7756C25.512 21.1577 25.8584 21.4225 26.2529 21.4225C26.2578 21.4225 26.2628 21.4223 26.2677 21.4223L29.2129 21.373V23.134H19.5915C21.5953 21.592 22.89 19.1718 22.89 16.4537C22.89 11.8088 19.1094 8.02984 14.4625 8.02984C9.81766 8.02984 6.03879 11.8087 6.03879 16.4537C6.03879 19.1802 7.34079 21.6072 9.35441 23.1486C4.46066 23.4147 0.560913 27.4778 0.560913 32.4348V50.5166C0.560913 52.4002 2.09341 53.9328 3.97716 53.9328C4.58316 53.9328 5.15241 53.7736 5.64629 53.4956V63.0638C5.64629 63.5463 6.03741 63.9373 6.51979 63.9373C7.00216 63.9373 7.39329 63.5462 7.39329 63.0638V50.5167V46.7893V45.2688H21.5319V63.0641C21.5319 63.5466 21.923 63.9376 22.4054 63.9376C22.8879 63.9376 23.2789 63.5465 23.2789 63.0641V44.3953V29.9666H29.2129V33.4287H29.2128ZM32.9615 32.5552H30.9599V29.9666H32.9615V32.5552ZM41.2434 5.71584C41.26 5.68722 41.2915 5.64997 41.348 5.63497C41.3485 5.63484 41.3492 5.63472 41.3497 5.63447L42.5374 5.31622C42.5517 5.31247 42.5662 5.31059 42.5805 5.31059C42.6575 5.31059 42.7319 5.36259 42.7519 5.43759L46.8964 20.9092C46.9112 20.9646 46.8947 21.01 46.8783 21.0383C46.8615 21.0671 46.8299 21.1043 46.7715 21.1198L45.5785 21.4395C45.526 21.4538 45.4815 21.4376 45.4534 21.4215C45.4288 21.4072 45.385 21.3742 45.3693 21.3168L41.2252 5.84997C41.2098 5.79184 41.2265 5.74497 41.2434 5.71584ZM26.071 16.5043L40.174 8.67697L43.0455 19.3937L26.9198 19.6642L26.071 16.5043ZM30.9599 21.3437L32.9615 21.3102V23.1341H30.9599V21.3437ZM16.2507 29.6355L14.4629 32.637L12.6775 29.6355L13.3869 24.8812H15.5384L16.2507 29.6355ZM7.78566 16.4538C7.78566 12.7722 10.7809 9.77709 14.4624 9.77709C18.146 9.77709 21.1428 12.7722 21.1428 16.4538C21.1428 20.1373 18.146 23.1341 14.4624 23.1341C10.7808 23.1341 7.78566 20.1373 7.78566 16.4538ZM22.4052 28.2196C21.9227 28.2196 21.5317 28.6107 21.5317 29.0931V43.5217H7.39304V38.1676C7.39304 37.6851 7.00191 37.2941 6.51954 37.2941C6.03716 37.2941 5.64604 37.6852 5.64604 38.1676V44.3952V46.7893V50.5167C5.64604 51.4371 4.89729 52.1858 3.97691 52.1858C3.05654 52.1858 2.30766 51.4371 2.30766 50.5167V32.435C2.30766 28.2697 5.69791 24.8812 9.86504 24.8812H11.6205L10.9038 29.6856C10.874 29.8847 10.914 30.088 11.0169 30.261L13.7117 34.7912C13.869 35.0558 14.1542 35.2181 14.4622 35.2182H14.4624C14.7702 35.2182 15.0554 35.0562 15.2128 34.7917L17.9112 30.2615C18.0144 30.0882 18.0544 29.8845 18.0244 29.6851L17.3047 24.8812H34.7508C35.6712 24.8812 36.4199 25.63 36.4199 26.5505C36.4199 27.4708 35.6712 28.2196 34.7508 28.2196H22.4052ZM15.3359 51.5706V63.064C15.3359 63.5465 14.9448 63.9375 14.4624 63.9375C13.98 63.9375 13.5889 63.5463 13.5889 63.064V51.5706C13.5889 51.0881 13.98 50.6971 14.4624 50.6971C14.9448 50.6971 15.3359 51.0882 15.3359 51.5706ZM48.0525 7.58259C47.7215 7.23172 47.7377 6.67884 48.0887 6.34784L54.5003 0.300466C54.8512 -0.0302845 55.4039 -0.0144095 55.735 0.33659C56.066 0.687465 56.0499 1.24034 55.6989 1.57134L49.2873 7.61884C49.1185 7.77797 48.9032 7.85697 48.6882 7.85697C48.456 7.85684 48.2244 7.76497 48.0525 7.58259ZM53.0414 17.782L60.4643 19.9073C60.928 20.0401 61.1964 20.5238 61.0635 20.9876C60.9538 21.371 60.6042 21.6207 60.2243 21.6207C60.1447 21.6207 60.0637 21.6098 59.9833 21.5868L52.5604 19.4615C52.0967 19.3287 51.8283 18.845 51.9612 18.3812C52.0939 17.9175 52.5778 17.6495 53.0414 17.782ZM50.5439 11.9936L57.7193 8.84622C58.1613 8.65222 58.6763 8.85359 58.8702 9.29534C59.0639 9.73709 58.8628 10.2523 58.421 10.4462L51.2457 13.5936C51.1315 13.6437 51.0123 13.6673 50.8953 13.6673C50.559 13.6673 50.2387 13.4722 50.0948 13.1446C49.901 12.7027 50.1022 12.1875 50.5439 11.9936ZM59.0108 49.8767H58.8402C60.1102 48.6913 60.9064 47.0045 60.9064 45.1343C60.9064 41.5581 57.9953 38.6486 54.417 38.6486C50.8408 38.6486 47.9312 41.5581 47.9312 45.1343C47.9312 47.0045 48.727 48.6913 49.9963 49.8767H49.8268C47.9198 49.8767 46.2404 50.8661 45.2719 52.3576C44.3034 50.8661 42.624 49.8767 40.7169 49.8767H40.5474C41.8168 48.6913 42.6125 47.0045 42.6125 45.1343C42.6125 41.5581 39.7029 38.6486 36.1267 38.6486C32.5484 38.6486 29.6373 41.5581 29.6373 45.1343C29.6373 47.0045 30.4335 48.6913 31.7035 49.8767H31.5364C28.5412 49.8767 26.1043 52.312 26.1043 55.3051V63.0641C26.1043 63.5466 26.4954 63.9376 26.9778 63.9376H45.2718H63.5657C64.0482 63.9376 64.4392 63.5465 64.4392 63.0641V55.3051C64.4394 52.3118 62.0042 49.8767 59.0108 49.8767ZM49.6783 45.1343C49.6783 42.5213 51.804 40.3956 54.4172 40.3956C57.032 40.3956 59.1594 42.5213 59.1594 45.1343C59.1594 47.7493 57.032 49.8767 54.4172 49.8767C51.804 49.8767 49.6783 47.7493 49.6783 45.1343ZM31.3843 45.1343C31.3843 42.5213 33.5117 40.3956 36.1265 40.3956C38.7397 40.3956 40.8654 42.5213 40.8654 45.1343C40.8654 47.7493 38.7397 49.8767 36.1265 49.8767C33.5117 49.8767 31.3843 47.7493 31.3843 45.1343ZM27.8514 55.3051C27.8514 53.2752 29.5044 51.6237 31.5364 51.6237H40.7169C42.7469 51.6237 44.3984 53.2752 44.3984 55.3051V62.1905H27.8514V55.3051ZM62.6923 62.1905H46.1454V55.3051C46.1454 53.2752 47.7969 51.6237 49.8268 51.6237H59.0108C61.0408 51.6237 62.6923 53.2752 62.6923 55.3051V62.1905Z" fill="#EC1F00"/>
</g>
<defs>
<clipPath id="clip0_1933_4003">
<rect width="64" height="64" fill="white" transform="translate(0.5)"/>
</clipPath>
</defs>
</svg>
