<svg width="65" height="64" viewBox="0 0 65 64" fill="none" xmlns="http://www.w3.org/2000/svg">
<path d="M56.5 34.8999V32.8999C57.052 32.8999 57.5 32.4522 57.5 31.8999V25.8999C57.5 25.3476 57.052 24.8999 56.5 24.8999H51.1L50.9063 24.1487C50.4641 22.4308 49.7774 20.7851 48.866 19.2628L48.466 18.5937L52.3 14.753C52.6859 14.3663 52.6859 13.7397 52.3 13.353L48.0531 9.0999C47.6609 8.72607 47.0449 8.72607 46.6527 9.0999L42.8117 12.9409L42.143 12.5409C40.6184 11.6292 38.9711 10.9425 37.2508 10.4999L36.5 10.3046V4.8999C36.5 4.34756 36.0523 3.8999 35.5 3.8999H29.5C28.9477 3.8999 28.5 4.34756 28.5 4.8999V10.2999L27.7488 10.494C26.0309 10.9358 24.3852 11.6226 22.8621 12.5327L22.193 12.9331L18.3531 9.0999C17.9605 8.72295 17.3406 8.72295 16.948 9.0999L12.7 13.3468C12.5133 13.5331 12.4082 13.7862 12.4082 14.0499C12.4082 14.314 12.5133 14.5667 12.7 14.753L16.541 18.5937L16.141 19.2628C15.2301 20.7851 14.543 22.4308 14.1012 24.1487L13.9051 24.8999H8.5C7.94766 24.8999 7.5 25.3476 7.5 25.8999V31.8999C7.5 32.4522 7.94766 32.8999 8.5 32.8999V34.8999C6.84336 34.8999 5.5 33.5565 5.5 31.8999V25.8999C5.5 24.2433 6.84336 22.8999 8.5 22.8999H12.3691C12.7816 21.5171 13.3395 20.1819 14.0332 18.9171L11.2832 16.1671C10.7207 15.6058 10.4047 14.844 10.4047 14.0499C10.4047 13.2558 10.7207 12.494 11.2832 11.9331L15.5332 7.68311C16.7172 6.5499 18.584 6.5499 19.768 7.68311L22.5172 10.4319C23.782 9.73857 25.1176 9.18193 26.5 8.76982V4.8999C26.5 3.24326 27.8434 1.8999 29.5 1.8999H35.5C37.1566 1.8999 38.5 3.24326 38.5 4.8999V8.76982C39.8828 9.18193 41.2176 9.73975 42.4828 10.4331L45.2328 7.68311C46.4172 6.5499 48.2836 6.5499 49.468 7.68311L53.7172 11.9319C54.2793 12.4933 54.5949 13.2542 54.5949 14.0487C54.5949 14.8433 54.2793 15.605 53.7172 16.1659L50.9672 18.9159C51.6606 20.1815 52.218 21.5171 52.6309 22.8999H56.5C58.1567 22.8999 59.5 24.2433 59.5 25.8999V31.8999C59.5 33.5565 58.1567 34.8999 56.5 34.8999Z" fill="#EE3E08"/>
<path d="M46.5 28.8999H44.5C44.5 22.2726 39.1273 16.8999 32.5 16.8999C25.8727 16.8999 20.5 22.2726 20.5 28.8999H18.5C18.5 21.1679 24.768 14.8999 32.5 14.8999C40.2316 14.8999 46.5 21.1679 46.5 28.8999Z" fill="#EE3E08"/>
<path d="M32.5 36.8999C29.1863 36.8999 26.5 34.2132 26.5 30.8999C26.5 27.5862 29.1863 24.8999 32.5 24.8999C35.8141 24.8999 38.5 27.5862 38.5 30.8999C38.4965 34.2124 35.8125 36.8964 32.5 36.8999ZM32.5 26.8999C30.291 26.8999 28.5 28.6909 28.5 30.8999C28.5 33.1089 30.291 34.8999 32.5 34.8999C34.709 34.8999 36.5 33.1089 36.5 30.8999C36.5 28.6909 34.709 26.8999 32.5 26.8999Z" fill="#EE3E08"/>
<path d="M49.5 40.8999C46.1863 40.8999 43.5 38.2132 43.5 34.8999C43.5 31.5862 46.1863 28.8999 49.5 28.8999C52.8137 28.8999 55.5 31.5862 55.5 34.8999C55.4965 38.2124 52.8125 40.8964 49.5 40.8999ZM49.5 30.8999C47.291 30.8999 45.5 32.6909 45.5 34.8999C45.5 37.1089 47.291 38.8999 49.5 38.8999C51.709 38.8999 53.5 37.1089 53.5 34.8999C53.5 32.6909 51.709 30.8999 49.5 30.8999Z" fill="#EE3E08"/>
<path d="M15.5 40.8999C12.1863 40.8999 9.5 38.2132 9.5 34.8999C9.5 31.5862 12.1863 28.8999 15.5 28.8999C18.8141 28.8999 21.5 31.5862 21.5 34.8999C21.4965 38.2124 18.8125 40.8964 15.5 40.8999ZM15.5 30.8999C13.291 30.8999 11.5 32.6909 11.5 34.8999C11.5 37.1089 13.291 38.8999 15.5 38.8999C17.709 38.8999 19.5 37.1089 19.5 34.8999C19.5 32.6909 17.709 30.8999 15.5 30.8999Z" fill="#EE3E08"/>
<path d="M58.5656 43.4656C57.0754 42.4414 55.3086 41.8949 53.5 41.9H45.5C45.0137 41.9043 44.5281 41.9484 44.0488 42.0316C43.409 41.0308 42.5766 40.1675 41.6 39.4906C41.4535 39.38 41.2996 39.2796 41.1391 39.191C39.7402 38.3437 38.1352 37.8976 36.5 37.9H28.5C25.4418 37.889 22.5922 39.4496 20.9539 42.0316C20.4734 41.9484 19.9871 41.9043 19.5 41.9H11.5C9.69297 41.8949 7.92656 42.4406 6.43711 43.4636C3.97539 45.1386 2.50156 47.9226 2.5 50.9V54.9C2.50352 57.6304 4.09219 60.1101 6.57227 61.2539C7.48789 61.6851 8.48828 61.9058 9.5 61.9H19.5V59.9H10.5V48.9H8.5V59.7996C8.12344 59.7242 7.75781 59.6023 7.41094 59.4379C5.63945 58.6211 4.50391 56.8504 4.5 54.9V50.9C4.50234 48.5828 5.65039 46.4168 7.56602 45.1136C8.72344 44.3191 10.0957 43.8961 11.5 43.9H19.5C19.6762 43.9 19.8461 43.9187 20.018 43.9304C19.6797 44.8843 19.5043 45.8882 19.5 46.9V56.9C19.5035 59.6601 21.7402 61.8964 24.5 61.9H27.5V45.9H25.5V59.9H24.5C22.8434 59.9 21.5 58.5566 21.5 56.9V46.9C21.5 43.0336 24.6344 39.9 28.5 39.9H36.5C37.7867 39.9007 39.0477 40.257 40.1449 40.9289C40.2465 40.9843 40.3441 41.0468 40.4367 41.1156C41.3738 41.7574 42.143 42.6148 42.6789 43.6156C43.2176 44.6265 43.5 45.7543 43.5 46.9V56.9C43.5 58.5566 42.1566 59.9 40.5 59.9H39.5V45.9H37.5V61.9H40.5C43.2602 61.8964 45.4965 59.6601 45.5 56.9V46.9C45.4953 45.8882 45.3207 44.8847 44.9828 43.9304C45.1551 43.9187 45.325 43.9 45.5 43.9H53.5C54.9051 43.8961 56.2785 44.3203 57.4367 45.1156C59.3508 46.4195 60.4973 48.5839 60.5 50.9V54.9C60.4965 56.8574 59.3524 58.6332 57.5723 59.4457C57.2305 59.6074 56.8703 59.7261 56.5 59.7996V48.9H54.5V59.9H45.5V61.9H55.5C56.5059 61.9062 57.5004 61.6882 58.4109 61.2617C60.8992 60.1214 62.4961 57.6371 62.5 54.9V50.9C62.4984 47.9238 61.0258 45.141 58.5656 43.4656Z" fill="#EE3E08"/>
<path d="M28.5 59.8999H36.5V61.8999H28.5V59.8999Z" fill="#EE3E08"/>
</svg>
