<svg width="64" height="64" viewBox="0 0 64 64" fill="none" xmlns="http://www.w3.org/2000/svg">
<g clip-path="url(#clip0_1922_29)">
<path d="M47.2765 20.7356L47.6247 17.7894L33.4141 32L47.6249 46.2108L47.2766 43.2644C47.2118 42.7159 47.6039 42.2188 48.1524 42.1539C48.7006 42.0896 49.198 42.4811 49.2629 43.0296L49.9496 48.839C49.9856 49.1431 49.8801 49.4469 49.6636 49.6635C49.475 49.8521 49.2201 49.9564 48.9566 49.9564C48.9176 49.9564 48.8785 49.9541 48.8392 49.9495L43.0298 49.2629C42.4813 49.198 42.0892 48.7009 42.154 48.1524C42.2188 47.6039 42.7152 47.2118 43.2645 47.2766L46.2108 47.6249L32 33.4141L17.7892 47.6249L20.7356 47.2766C21.2837 47.2122 21.7812 47.6039 21.8461 48.1524C21.911 48.7009 21.5189 49.198 20.9704 49.2629L15.161 49.9496C15.1219 49.9542 15.0826 49.9565 15.0436 49.9565C14.78 49.9565 14.5253 49.8522 14.3366 49.6636C14.1201 49.4471 14.0146 49.1433 14.0506 48.8391L14.7373 43.0298C14.8021 42.4813 15.2981 42.0889 15.8477 42.154C16.3962 42.2189 16.7882 42.716 16.7235 43.2645L16.3752 46.2108L30.5858 32L16.3751 17.7894L16.7234 20.7358C16.7882 21.2843 16.3961 21.7814 15.8476 21.8463C15.8079 21.851 15.7681 21.8533 15.729 21.8533C15.2291 21.8533 14.7973 21.4793 14.7371 20.9705L14.0504 15.1611C14.0144 14.857 14.1199 14.5533 14.3364 14.3366C14.5529 14.1202 14.8568 14.015 15.1609 14.0506L20.9704 14.7373C21.5189 14.8021 21.9109 15.2992 21.8461 15.8477C21.7812 16.3961 21.2844 16.788 20.7356 16.7235L17.7894 16.3752L32 30.5858L46.2106 16.3751L43.2644 16.7234C42.7161 16.7885 42.2188 16.3961 42.1539 15.8476C42.089 15.2991 42.4811 14.802 43.0296 14.7371L48.839 14.0504C49.143 14.014 49.4469 14.1198 49.6635 14.3364C49.88 14.5529 49.9855 14.8568 49.9495 15.1609L49.2629 20.9702C49.2028 21.4789 48.7707 21.853 48.271 21.853C48.2319 21.853 48.1922 21.8507 48.1524 21.846C47.6039 21.7812 47.2118 21.2841 47.2765 20.7356ZM10.4327 1V9.43275C10.4327 9.985 9.985 10.4327 9.43275 10.4327H1C0.44775 10.4327 0 9.985 0 9.43275V1C0 0.44775 0.44775 0 1 0H9.43275C9.98512 0 10.4327 0.44775 10.4327 1ZM8.43275 2H2V8.43275H8.43275V2ZM10.4327 54.5672V63C10.4327 63.5522 9.985 64 9.43275 64H1C0.44775 64 0 63.5522 0 63V54.5672C0 54.015 0.44775 53.5672 1 53.5672H9.43275C9.98512 53.5672 10.4327 54.0149 10.4327 54.5672ZM8.43275 55.5672H2V62H8.43275V55.5672ZM64 1V9.43275C64 9.985 63.5522 10.4327 63 10.4327H54.5672C54.015 10.4327 53.5672 9.985 53.5672 9.43275V1C53.5672 0.44775 54.015 0 54.5672 0H63C63.5522 0 64 0.44775 64 1ZM62 2H55.5672V8.43275H62V2ZM64 54.5672V63C64 63.5522 63.5522 64 63 64H54.5672C54.015 64 53.5672 63.5522 53.5672 63V54.5672C53.5672 54.015 54.015 53.5672 54.5672 53.5672H63C63.5522 53.5672 64 54.0149 64 54.5672ZM62 55.5672H55.5672V62H62V55.5672ZM13.4415 6.21637H17.6579C18.2101 6.21637 18.6579 5.76862 18.6579 5.21637C18.6579 4.66412 18.2101 4.21637 17.6579 4.21637H13.4415C12.8892 4.21637 12.4415 4.66412 12.4415 5.21637C12.4415 5.76862 12.8892 6.21637 13.4415 6.21637ZM21.6666 6.21637H25.883C26.4352 6.21637 26.883 5.76862 26.883 5.21637C26.883 4.66412 26.4352 4.21637 25.883 4.21637H21.6666C21.1144 4.21637 20.6666 4.66412 20.6666 5.21637C20.6666 5.76862 21.1144 6.21637 21.6666 6.21637ZM29.8918 6.21637H34.1081C34.6604 6.21637 35.1081 5.76862 35.1081 5.21637C35.1081 4.66412 34.6604 4.21637 34.1081 4.21637H29.8918C29.3395 4.21637 28.8918 4.66412 28.8918 5.21637C28.8918 5.76862 29.3395 6.21637 29.8918 6.21637ZM38.117 6.21637H42.3334C42.8856 6.21637 43.3334 5.76862 43.3334 5.21637C43.3334 4.66412 42.8856 4.21637 42.3334 4.21637H38.117C37.5648 4.21637 37.117 4.66412 37.117 5.21637C37.117 5.76862 37.5646 6.21637 38.117 6.21637ZM50.5585 4.21637H46.3421C45.7899 4.21637 45.3421 4.66412 45.3421 5.21637C45.3421 5.76862 45.7899 6.21637 46.3421 6.21637H50.5585C51.1107 6.21637 51.5585 5.76862 51.5585 5.21637C51.5585 4.66412 51.1107 4.21637 50.5585 4.21637ZM17.658 57.7836H13.4416C12.8894 57.7836 12.4416 58.2314 12.4416 58.7836C12.4416 59.3359 12.8894 59.7836 13.4416 59.7836H17.658C18.2103 59.7836 18.658 59.3359 18.658 58.7836C18.658 58.2314 18.2103 57.7836 17.658 57.7836ZM25.883 57.7836H21.6666C21.1144 57.7836 20.6666 58.2314 20.6666 58.7836C20.6666 59.3359 21.1144 59.7836 21.6666 59.7836H25.883C26.4352 59.7836 26.883 59.3359 26.883 58.7836C26.883 58.2314 26.4354 57.7836 25.883 57.7836ZM34.1082 57.7836H29.8919C29.3396 57.7836 28.8919 58.2314 28.8919 58.7836C28.8919 59.3359 29.3396 59.7836 29.8919 59.7836H34.1082C34.6605 59.7836 35.1082 59.3359 35.1082 58.7836C35.1082 58.2314 34.6605 57.7836 34.1082 57.7836ZM42.3334 57.7836H38.117C37.5648 57.7836 37.117 58.2314 37.117 58.7836C37.117 59.3359 37.5648 59.7836 38.117 59.7836H42.3334C42.8856 59.7836 43.3334 59.3359 43.3334 58.7836C43.3334 58.2314 42.8856 57.7836 42.3334 57.7836ZM50.5585 57.7836H46.3421C45.7899 57.7836 45.3421 58.2314 45.3421 58.7836C45.3421 59.3359 45.7899 59.7836 46.3421 59.7836H50.5585C51.1107 59.7836 51.5585 59.3359 51.5585 58.7836C51.5585 58.2314 51.1107 57.7836 50.5585 57.7836ZM58.7836 18.658C59.3359 18.658 59.7836 18.2103 59.7836 17.658V13.4416C59.7836 12.8894 59.3359 12.4416 58.7836 12.4416C58.2314 12.4416 57.7836 12.8894 57.7836 13.4416V17.658C57.7836 18.2103 58.2314 18.658 58.7836 18.658ZM57.7836 25.883C57.7836 26.4352 58.2314 26.883 58.7836 26.883C59.3359 26.883 59.7836 26.4352 59.7836 25.883V21.6666C59.7836 21.1144 59.3359 20.6666 58.7836 20.6666C58.2314 20.6666 57.7836 21.1144 57.7836 21.6666V25.883ZM57.7836 34.1082C57.7836 34.6605 58.2314 35.1082 58.7836 35.1082C59.3359 35.1082 59.7836 34.6605 59.7836 34.1082V29.8919C59.7836 29.3396 59.3359 28.8919 58.7836 28.8919C58.2314 28.8919 57.7836 29.3396 57.7836 29.8919V34.1082ZM57.7836 42.3334C57.7836 42.8856 58.2314 43.3334 58.7836 43.3334C59.3359 43.3334 59.7836 42.8856 59.7836 42.3334V38.117C59.7836 37.5648 59.3359 37.117 58.7836 37.117C58.2314 37.117 57.7836 37.5648 57.7836 38.117V42.3334ZM57.7836 50.5585C57.7836 51.1107 58.2314 51.5585 58.7836 51.5585C59.3359 51.5585 59.7836 51.1107 59.7836 50.5585V46.3421C59.7836 45.7899 59.3359 45.3421 58.7836 45.3421C58.2314 45.3421 57.7836 45.7899 57.7836 46.3421V50.5585ZM5.21637 18.658C5.76862 18.658 6.21637 18.2103 6.21637 17.658V13.4416C6.21637 12.8894 5.76862 12.4416 5.21637 12.4416C4.66412 12.4416 4.21637 12.8894 4.21637 13.4416V17.658C4.21637 18.2103 4.66412 18.658 5.21637 18.658ZM4.21637 25.883C4.21637 26.4352 4.66412 26.883 5.21637 26.883C5.76862 26.883 6.21637 26.4352 6.21637 25.883V21.6666C6.21637 21.1144 5.76862 20.6666 5.21637 20.6666C4.66412 20.6666 4.21637 21.1144 4.21637 21.6666V25.883ZM4.21637 34.1082C4.21637 34.6605 4.66412 35.1082 5.21637 35.1082C5.76862 35.1082 6.21637 34.6605 6.21637 34.1082V29.8919C6.21637 29.3396 5.76862 28.8919 5.21637 28.8919C4.66412 28.8919 4.21637 29.3396 4.21637 29.8919V34.1082ZM4.21637 42.3334C4.21637 42.8856 4.66412 43.3334 5.21637 43.3334C5.76862 43.3334 6.21637 42.8856 6.21637 42.3334V38.117C6.21637 37.5648 5.76862 37.117 5.21637 37.117C4.66412 37.117 4.21637 37.5648 4.21637 38.117V42.3334ZM4.21637 50.5585C4.21637 51.1107 4.66412 51.5585 5.21637 51.5585C5.76862 51.5585 6.21637 51.1107 6.21637 50.5585V46.3421C6.21637 45.7899 5.76862 45.3421 5.21637 45.3421C4.66412 45.3421 4.21637 45.7899 4.21637 46.3421V50.5585Z" fill="#EE3E08"/>
</g>
<defs>
<clipPath id="clip0_1922_29">
<rect width="64" height="64" fill="white"/>
</clipPath>
</defs>
</svg>
