<svg width="65" height="64" viewBox="0 0 65 64" fill="none" xmlns="http://www.w3.org/2000/svg">
<path d="M50.5 17.0002C49.7895 17.0017 49.0803 17.0629 48.38 17.1832C47.9371 13.2817 46.0734 9.67978 43.1445 7.06458C40.2157 4.44938 36.4265 3.00391 32.5 3.00391C28.5735 3.00391 24.7843 4.44938 21.8555 7.06458C18.9266 9.67978 17.0629 13.2817 16.62 17.1832C15.9197 17.0629 15.2105 17.0017 14.5 17.0002C11.0522 17.0002 7.74558 18.3698 5.30761 20.8078C2.86964 23.2457 1.5 26.5523 1.5 30.0002C1.5 33.448 2.86964 36.7546 5.30761 39.1925C7.74558 41.6305 11.0522 43.0002 14.5 43.0002H19.5V47.2792L14.184 49.0522C13.985 49.1184 13.8118 49.2457 13.689 49.4158C13.5663 49.5859 13.5002 49.7904 13.5 50.0002V53.1422C12.5573 53.3855 11.7358 53.9644 11.1894 54.7702C10.643 55.5759 10.4092 56.5533 10.5319 57.5192C10.6546 58.485 11.1253 59.3729 11.8558 60.0165C12.5863 60.6601 13.5264 61.0151 14.5 61.0151C15.4736 61.0151 16.4137 60.6601 17.1442 60.0165C17.8747 59.3729 18.3454 58.485 18.4681 57.5192C18.5908 56.5533 18.357 55.5759 17.8106 54.7702C17.2642 53.9644 16.4427 53.3855 15.5 53.1422V50.7212L20.816 48.9482C21.015 48.8819 21.1882 48.7546 21.3109 48.5845C21.4337 48.4144 21.4998 48.2099 21.5 48.0002V43.0002H31.5V53.1422C30.5573 53.3855 29.7358 53.9644 29.1894 54.7702C28.643 55.5759 28.4092 56.5533 28.5319 57.5192C28.6546 58.485 29.1253 59.3729 29.8558 60.0165C30.5863 60.6601 31.5264 61.0151 32.5 61.0151C33.4736 61.0151 34.4137 60.6601 35.1442 60.0165C35.8747 59.3729 36.3454 58.485 36.4681 57.5192C36.5908 56.5533 36.357 55.5759 35.8106 54.7702C35.2642 53.9644 34.4427 53.3855 33.5 53.1422V43.0002H43.5V48.0002C43.5002 48.2099 43.5663 48.4144 43.689 48.5845C43.8118 48.7546 43.985 48.8819 44.184 48.9482L49.5 50.7212V53.1422C48.5573 53.3855 47.7358 53.9644 47.1894 54.7702C46.643 55.5759 46.4092 56.5533 46.5319 57.5192C46.6546 58.485 47.1253 59.3729 47.8558 60.0165C48.5863 60.6601 49.5264 61.0151 50.5 61.0151C51.4736 61.0151 52.4137 60.6601 53.1442 60.0165C53.8747 59.3729 54.3454 58.485 54.4681 57.5192C54.5908 56.5533 54.357 55.5759 53.8106 54.7702C53.2642 53.9644 52.4427 53.3855 51.5 53.1422V50.0002C51.4998 49.7904 51.4337 49.5859 51.311 49.4158C51.1882 49.2457 51.015 49.1184 50.816 49.0522L45.5 47.2792V43.0002H50.5C53.9478 43.0002 57.2544 41.6305 59.6924 39.1925C62.1304 36.7546 63.5 33.448 63.5 30.0002C63.5 26.5523 62.1304 23.2457 59.6924 20.8078C57.2544 18.3698 53.9478 17.0002 50.5 17.0002ZM16.5 57.0002C16.5 57.3957 16.3827 57.7824 16.1629 58.1113C15.9432 58.4402 15.6308 58.6965 15.2654 58.8479C14.8999 58.9993 14.4978 59.0389 14.1098 58.9617C13.7219 58.8846 13.3655 58.6941 13.0858 58.4144C12.8061 58.1347 12.6156 57.7783 12.5384 57.3903C12.4613 57.0024 12.5009 56.6002 12.6522 56.2348C12.8036 55.8693 13.06 55.557 13.3889 55.3372C13.7178 55.1174 14.1044 55.0002 14.5 55.0002C15.0304 55.0002 15.5391 55.2109 15.9142 55.5859C16.2893 55.961 16.5 56.4697 16.5 57.0002ZM34.5 57.0002C34.5 57.3957 34.3827 57.7824 34.1629 58.1113C33.9432 58.4402 33.6308 58.6965 33.2654 58.8479C32.8999 58.9993 32.4978 59.0389 32.1098 58.9617C31.7219 58.8846 31.3655 58.6941 31.0858 58.4144C30.8061 58.1347 30.6156 57.7783 30.5384 57.3903C30.4613 57.0024 30.5009 56.6002 30.6522 56.2348C30.8036 55.8693 31.06 55.557 31.3889 55.3372C31.7178 55.1174 32.1044 55.0002 32.5 55.0002C33.0304 55.0002 33.5391 55.2109 33.9142 55.5859C34.2893 55.961 34.5 56.4697 34.5 57.0002ZM52.5 57.0002C52.5 57.3957 52.3827 57.7824 52.1629 58.1113C51.9432 58.4402 51.6308 58.6965 51.2654 58.8479C50.8999 58.9993 50.4978 59.0389 50.1098 58.9617C49.7219 58.8846 49.3655 58.6941 49.0858 58.4144C48.8061 58.1347 48.6156 57.7783 48.5384 57.3903C48.4613 57.0024 48.5009 56.6002 48.6522 56.2348C48.8036 55.8693 49.06 55.557 49.3889 55.3372C49.7178 55.1174 50.1044 55.0002 50.5 55.0002C51.0304 55.0002 51.5391 55.2109 51.9142 55.5859C52.2893 55.961 52.5 56.4697 52.5 57.0002ZM50.5 41.0002H14.5C12.9332 41.0068 11.3831 40.6787 9.95336 40.0378C8.52365 39.3968 7.24736 38.4579 6.20992 37.2837C5.17249 36.1096 4.39785 34.7274 3.93788 33.2296C3.4779 31.7319 3.34319 30.1531 3.54277 28.5991C3.74235 27.045 4.27161 25.5516 5.09513 24.2186C5.91864 22.8857 7.01741 21.7441 8.31786 20.8702C9.61832 19.9963 11.0905 19.4103 12.6357 19.1514C14.181 18.8926 15.7637 18.9668 17.278 19.3692C17.4226 19.4068 17.5738 19.4115 17.7205 19.383C17.8671 19.3545 18.0056 19.2935 18.1256 19.2045C18.2456 19.1155 18.3441 19.0007 18.4139 18.8686C18.4837 18.7365 18.5231 18.5904 18.529 18.4412C18.6658 14.8273 20.1975 11.407 22.8027 8.8986C25.4078 6.3902 28.8835 4.98885 32.5 4.98885C36.1165 4.98885 39.5922 6.3902 42.1973 8.8986C44.8025 11.407 46.3342 14.8273 46.471 18.4412C46.4769 18.5904 46.5163 18.7365 46.5861 18.8686C46.6559 19.0007 46.7544 19.1155 46.8744 19.2045C46.9944 19.2935 47.1329 19.3545 47.2795 19.383C47.4262 19.4115 47.5774 19.4068 47.722 19.3692C49.2338 18.973 50.8128 18.9038 52.3535 19.166C53.8942 19.4283 55.3613 20.0159 56.657 20.8899C57.9527 21.7638 59.0471 22.904 59.8674 24.2343C60.6877 25.5646 61.215 27.0545 61.4141 28.6046C61.6132 30.1548 61.4795 31.7295 61.022 33.2239C60.5644 34.7183 59.7936 36.098 58.7608 37.271C57.728 38.444 56.457 39.3833 55.0325 40.0264C53.6081 40.6694 52.0629 41.0014 50.5 41.0002Z" fill="#EE3E08"/>
<path d="M44.877 22.074L42.84 21.245C42.732 20.953 42.611 20.661 42.475 20.372L43.402 18.431C43.4905 18.2439 43.5188 18.034 43.483 17.8302C43.4472 17.6264 43.349 17.4387 43.202 17.293L40.202 14.293C40.0557 14.1468 39.8678 14.0496 39.664 14.0147C39.4602 13.9798 39.2506 14.0089 39.064 14.098L37.123 15.025C36.833 14.8917 36.5417 14.77 36.249 14.66L35.421 12.624C35.3465 12.4405 35.2192 12.2832 35.0553 12.1721C34.8913 12.061 34.6981 12.0011 34.5 12H30.5C30.3011 12.0001 30.1067 12.0596 29.9418 12.1707C29.7768 12.2819 29.6488 12.4397 29.574 12.624L28.746 14.66C28.454 14.7667 28.1627 14.8883 27.872 15.025L25.931 14.1C25.7444 14.0109 25.5348 13.9818 25.331 14.0167C25.1272 14.0516 24.9392 14.1488 24.793 14.295L21.793 17.295C21.646 17.4407 21.5478 17.6284 21.512 17.8322C21.4762 18.036 21.5045 18.2459 21.593 18.433L22.52 20.374C22.3867 20.664 22.265 20.9553 22.155 21.248L20.119 22.076C19.9359 22.1514 19.7794 22.2795 19.6692 22.444C19.559 22.6085 19.5001 22.802 19.5 23V27C19.5001 27.1989 19.5596 27.3933 19.6707 27.5582C19.7819 27.7232 19.9397 27.8512 20.124 27.926L22.16 28.754C22.268 29.0467 22.3897 29.338 22.525 29.628L21.6 31.569C21.5115 31.7561 21.4832 31.966 21.519 32.1698C21.5548 32.3736 21.653 32.5613 21.8 32.707L24.8 35.707C24.9457 35.854 25.1334 35.9522 25.3372 35.988C25.541 36.0238 25.7509 35.9955 25.938 35.907L27.879 34.981C28.169 35.116 28.461 35.237 28.752 35.345L29.581 37.382C29.6563 37.5641 29.7836 37.7199 29.9471 37.8298C30.1106 37.9398 30.303 37.999 30.5 38H34.5C34.6988 38 34.8931 37.9407 35.058 37.8297C35.2229 37.7187 35.3511 37.5611 35.426 37.377L36.255 35.34C36.546 35.232 36.838 35.111 37.128 34.976L39.069 35.902C39.2561 35.9905 39.466 36.0188 39.6698 35.983C39.8736 35.9472 40.0613 35.849 40.207 35.702L43.207 32.702C43.354 32.5563 43.4522 32.3686 43.488 32.1648C43.5238 31.961 43.4955 31.7511 43.407 31.564L42.48 29.623C42.6133 29.3337 42.735 29.0423 42.845 28.749L44.882 27.921C45.0644 27.8456 45.2204 27.7179 45.3304 27.554C45.4404 27.3901 45.4994 27.1974 45.5 27V23C45.5 22.8012 45.4407 22.6069 45.3297 22.442C45.2187 22.2771 45.0611 22.1489 44.877 22.074ZM43.5 26.327L41.664 27.074C41.5277 27.1295 41.4053 27.2143 41.3056 27.3225C41.2058 27.4307 41.1312 27.5596 41.087 27.7C40.9271 28.2027 40.723 28.6903 40.477 29.157C40.405 29.2947 40.366 29.4473 40.3633 29.6026C40.3605 29.758 40.3939 29.9118 40.461 30.052L41.293 31.793L39.293 33.793L37.552 32.961C37.412 32.8941 37.2583 32.8607 37.1031 32.8635C36.9479 32.8663 36.7956 32.9051 36.658 32.977C36.1907 33.2223 35.7028 33.4264 35.2 33.587C35.0596 33.6312 34.9307 33.7058 34.8225 33.8056C34.7143 33.9053 34.6295 34.0277 34.574 34.164L33.827 36H31.173L30.426 34.164C30.3705 34.0277 30.2857 33.9053 30.1775 33.8056C30.0693 33.7058 29.9404 33.6312 29.8 33.587C29.2972 33.4264 28.8093 33.2223 28.342 32.977C28.2044 32.9051 28.0521 32.8663 27.8969 32.8635C27.7417 32.8607 27.588 32.8941 27.448 32.961L25.707 33.793L23.707 31.793L24.539 30.052C24.606 29.9118 24.6395 29.758 24.6367 29.6026C24.634 29.4473 24.595 29.2947 24.523 29.157C24.2773 28.6903 24.0735 28.2027 23.914 27.7C23.8697 27.5595 23.7949 27.4306 23.695 27.3224C23.5951 27.2141 23.4725 27.1293 23.336 27.074L21.5 26.327V23.673L23.336 22.926C23.4725 22.8707 23.5951 22.7859 23.695 22.6776C23.7949 22.5694 23.8697 22.4405 23.914 22.3C24.0735 21.7973 24.2773 21.3097 24.523 20.843C24.595 20.7053 24.634 20.5527 24.6367 20.3974C24.6395 20.242 24.606 20.0882 24.539 19.948L23.707 18.207L25.707 16.207L27.448 17.039C27.588 17.1059 27.7417 17.1393 27.8969 17.1365C28.0521 17.1337 28.2044 17.0949 28.342 17.023C28.809 16.7773 29.297 16.5735 29.8 16.414C29.9405 16.3697 30.0694 16.2949 30.1776 16.195C30.2859 16.0951 30.3707 15.9725 30.426 15.836L31.173 14H33.827L34.574 15.836C34.6293 15.9725 34.7141 16.0951 34.8224 16.195C34.9306 16.2949 35.0595 16.3697 35.2 16.414C35.703 16.5735 36.191 16.7773 36.658 17.023C36.7956 17.0949 36.9479 17.1337 37.1031 17.1365C37.2583 17.1393 37.412 17.1059 37.552 17.039L39.293 16.207L41.293 18.207L40.461 19.948C40.3939 20.0882 40.3605 20.242 40.3633 20.3974C40.366 20.5527 40.405 20.7053 40.477 20.843C40.7228 21.3101 40.9269 21.798 41.087 22.301C41.1313 22.4412 41.206 22.5699 41.3057 22.6779C41.4055 22.7859 41.5278 22.8706 41.664 22.926L43.5 23.673V26.327Z" fill="#EE3E08"/>
<path d="M32.5 18C31.1155 18 29.7622 18.4105 28.611 19.1797C27.4599 19.9489 26.5627 21.0421 26.0328 22.3212C25.503 23.6003 25.3644 25.0078 25.6345 26.3656C25.9046 27.7235 26.5713 28.9708 27.5503 29.9497C28.5292 30.9287 29.7765 31.5954 31.1344 31.8655C32.4922 32.1356 33.8997 31.997 35.1788 31.4672C36.4579 30.9373 37.5511 30.0401 38.3203 28.889C39.0895 27.7378 39.5 26.3845 39.5 25C39.4979 23.1441 38.7597 21.3649 37.4474 20.0526C36.1351 18.7403 34.3559 18.0021 32.5 18ZM32.5 30C31.5111 30 30.5444 29.7068 29.7222 29.1573C28.8999 28.6079 28.259 27.827 27.8806 26.9134C27.5022 25.9998 27.4032 24.9945 27.5961 24.0245C27.789 23.0546 28.2652 22.1637 28.9645 21.4645C29.6637 20.7652 30.5546 20.289 31.5246 20.0961C32.4945 19.9031 33.4998 20.0022 34.4134 20.3806C35.3271 20.759 36.1079 21.3999 36.6574 22.2221C37.2068 23.0444 37.5 24.0111 37.5 25C37.4984 26.3256 36.9711 27.5964 36.0338 28.5338C35.0964 29.4711 33.8256 29.9984 32.5 30Z" fill="#EE3E08"/>
</svg>
