<svg width="65" height="64" viewBox="0 0 65 64" fill="none" xmlns="http://www.w3.org/2000/svg">
<path d="M61.542 41.6799C60.962 40.9339 58.752 38.6959 54.71 41.1199C53.018 42.1339 51.8 43.2139 50.726 44.1639C50.062 44.7539 49.488 45.2619 48.902 45.6679C48.448 45.9839 48.336 46.6059 48.652 47.0579C48.966 47.5159 49.59 47.6239 50.042 47.3099C50.726 46.8359 51.368 46.2659 52.05 45.6619C53.062 44.7679 54.206 43.7539 55.738 42.8339C57.344 41.8699 58.684 41.7699 59.614 42.5419C60.376 43.1759 60.54 44.1359 60.532 44.2519L51.048 53.3419L38.016 59.6239C37.23 59.9919 35.806 60.1079 34.988 59.8839L18.914 55.0199C18.82 54.9919 18.722 54.9779 18.624 54.9779H17.25V56.9779H18.476L34.43 61.8059C34.898 61.9359 35.446 61.9999 36.012 61.9999C37.018 61.9999 38.082 61.8019 38.872 61.4339L52.06 55.0799C52.156 55.0339 52.244 54.9739 52.318 54.8999L61.934 45.6859C62.78 44.8359 62.606 43.0399 61.542 41.6799Z" fill="#EE3E08"/>
<path d="M45.694 45.9098C44.496 44.6298 42.566 43.9998 39.964 43.9998H34.284C34.074 43.9998 33.882 43.4338 33.726 43.2798C32.48 42.0538 29.558 39.9858 24.024 39.9858C23.066 39.9858 22.164 40.0438 21.346 40.1658C20.8 40.2478 20.424 40.7558 20.504 41.2998C20.586 41.8458 21.094 42.2158 21.64 42.1418C22.36 42.0318 23.162 41.9778 24.022 41.9778C28.844 41.9778 31.238 43.7518 32.32 44.7078C32.876 45.1918 33.192 45.9998 34.102 45.9998H39.966C41.994 45.9998 43.43 46.4358 44.236 47.2958C44.988 48.1018 45.09 49.9998 45.074 49.9998H33.502C32.95 49.9998 32.502 50.4498 32.502 50.9998C32.502 51.5518 32.95 51.9998 33.502 51.9998H46.028C46.578 51.9998 47.028 51.5358 47.028 50.9818L47.042 50.6978C47.102 49.7618 47.244 47.5638 45.694 45.9098Z" fill="#EE3E08"/>
<path d="M17.5 58H10.5V56H16.5V42H10.5V40H17.5C18.052 40 18.5 40.414 18.5 40.964V56.964C18.5 57.52 18.052 58 17.5 58Z" fill="#EE3E08"/>
<path d="M3.5 62C2.948 62 2.5 61.552 2.5 61C2.5 60.448 2.948 60 3.5 60H10.5V42H3.5C2.948 42 2.5 41.552 2.5 41C2.5 40.448 2.948 40 3.5 40H11.5C12.052 40 12.5 40.414 12.5 40.964V60.964C12.5 61.52 12.052 62 11.5 62H3.5Z" fill="#EE3E08"/>
<path d="M44.882 39.7881C42.928 39.7881 41.406 39.3561 41.314 39.3301C40.968 39.2281 40.7 38.9501 40.618 38.5961C40.56 38.3461 39.246 32.4321 44.418 28.9381C44.874 28.6261 45.498 28.7501 45.806 29.2061C46.114 29.6641 45.994 30.2861 45.536 30.5941C42.344 32.7501 42.332 36.1761 42.474 37.5481C43.426 37.7361 45.35 37.9901 47.184 37.5141C49.644 36.8721 51.3 35.4721 52.244 33.2401C52.76 32.0181 53.724 30.9481 54.892 30.2201C53.414 29.6621 51.31 29.0861 49.174 29.3021C48.642 29.3361 48.136 28.9521 48.084 28.4021C48.03 27.8541 48.434 27.3641 48.984 27.3101C53.546 26.8841 57.762 29.3241 57.94 29.4281C58.302 29.6401 58.492 30.0561 58.416 30.4701C58.34 30.8841 58.014 31.2041 57.602 31.2761C56.108 31.5321 54.662 32.6581 54.088 34.0181C52.902 36.8221 50.75 38.6481 47.692 39.4481C46.73 39.7001 45.762 39.7881 44.882 39.7881Z" fill="#EE3E08"/>
<path d="M29.988 35.7878C29.108 35.7878 28.138 35.6998 27.172 35.4478C24.114 34.6498 21.962 32.8218 20.776 30.0178C20.202 28.6578 18.756 27.5318 17.262 27.2758C16.848 27.2038 16.522 26.8838 16.448 26.4698C16.372 26.0578 16.562 25.6418 16.924 25.4278C16.98 25.3938 18.31 24.6178 20.262 24.0018C20.79 23.8398 21.35 24.1278 21.516 24.6538C21.682 25.1818 21.39 25.7418 20.862 25.9078C20.544 26.0098 20.244 26.1158 19.966 26.2178C21.136 26.9458 22.1 28.0158 22.616 29.2398C23.56 31.4718 25.216 32.8698 27.676 33.5138C29.522 33.9918 31.44 33.7378 32.388 33.5498C32.546 32.1118 32.536 28.4518 28.858 26.3018C27.724 25.6378 26.404 25.2878 24.938 25.2598C24.386 25.2498 23.946 24.7938 23.956 24.2398C23.966 23.6898 24.436 23.2598 24.974 23.2598C26.786 23.2938 28.432 23.7358 29.866 24.5738C34.538 27.3058 34.772 32.3258 34.242 34.5978C34.16 34.9518 33.894 35.2298 33.546 35.3318C33.46 35.3578 31.94 35.7878 29.988 35.7878Z" fill="#EE3E08"/>
<path d="M37.468 22C37.136 22 36.822 21.938 36.5 21.902V44.974L38.5 44.976V21.896C38.158 21.936 37.822 22 37.468 22Z" fill="#EE3E08"/>
<path d="M37.468 23C31.954 23 27.468 18.514 27.468 13C27.468 7.486 31.954 3 37.468 3C42.982 3 47.468 7.486 47.468 13C47.468 18.514 42.982 23 37.468 23ZM37.468 5C33.058 5 29.468 8.59 29.468 13C29.468 17.41 33.058 21 37.468 21C41.878 21 45.468 17.41 45.468 13C45.468 8.59 41.878 5 37.468 5Z" fill="#EE3E08"/>
<path d="M37.2819 39.0621C37.0479 39.0621 36.8139 38.9801 36.6239 38.8141L32.6239 35.3141C32.2079 34.9501 32.1659 34.3201 32.5299 33.9041C32.8939 33.4841 33.5259 33.4461 33.9419 33.8101L37.9419 37.3101C38.3579 37.6741 38.3999 38.3041 38.0359 38.7201C37.8359 38.9481 37.5599 39.0621 37.2819 39.0621Z" fill="#EE3E08"/>
<path d="M37.622 42.7498C37.34 42.7498 37.058 42.6298 36.86 42.3978C36.502 41.9758 36.554 41.3458 36.974 40.9878L40.946 37.6098C41.364 37.2518 41.996 37.3018 42.356 37.7238C42.714 38.1458 42.662 38.7758 42.242 39.1338L38.27 42.5118C38.082 42.6718 37.85 42.7498 37.622 42.7498Z" fill="#EE3E08"/>
<path d="M49.626 7.99986C49.282 7.99986 48.944 7.81986 48.76 7.49986C48.482 7.02186 48.646 6.40986 49.126 6.13186L52.588 4.13186C53.064 3.85386 53.678 4.01786 53.954 4.49986C54.232 4.97786 54.068 5.58986 53.588 5.86786L50.126 7.86786C49.966 7.95786 49.794 7.99986 49.626 7.99986Z" fill="#EE3E08"/>
<path d="M55.5 14H51.5C50.948 14 50.5 13.552 50.5 13C50.5 12.448 50.948 12 51.5 12H55.5C56.052 12 56.5 12.448 56.5 13C56.5 13.552 56.052 14 55.5 14Z" fill="#EE3E08"/>
<path d="M23.5 14H19.5C18.948 14 18.5 13.552 18.5 13C18.5 12.448 18.948 12 19.5 12H23.5C24.052 12 24.5 12.448 24.5 13C24.5 13.552 24.052 14 23.5 14Z" fill="#EE3E08"/>
<path d="M25.376 7.99968C25.206 7.99968 25.034 7.95768 24.876 7.86768L21.414 5.86768C20.936 5.58968 20.772 4.97968 21.048 4.49968C21.324 4.01968 21.938 3.85968 22.414 4.13168L25.876 6.13168C26.354 6.40968 26.518 7.01968 26.242 7.49968C26.056 7.81968 25.718 7.99968 25.376 7.99968Z" fill="#EE3E08"/>
</svg>
