<svg width="64" height="64" viewBox="0 0 64 64" fill="none" xmlns="http://www.w3.org/2000/svg">
<g clip-path="url(#clip0_1922_32)">
<path d="M46.4038 20.625H55.5339C56.3899 21.7628 57.751 22.5 59.2814 22.5C61.8661 22.5 63.9689 20.3972 63.9689 17.8125C63.9689 15.2277 61.8661 13.125 59.2814 13.125C57.751 13.125 56.3899 13.8623 55.5339 15.0001C55.533 15.0001 55.5322 15 55.5314 15H46.4039C46.1222 14.6257 45.7855 14.2955 45.4064 14.0199V10.79L48.7589 7.4375H55.4888C56.3416 8.61038 57.7235 9.375 59.2814 9.375C61.8661 9.375 63.9689 7.27225 63.9689 4.6875C63.9689 2.10275 61.866 0 59.2812 0C57.7795 0 56.4414 0.710625 55.583 1.8125H47.5938C46.8425 1.8125 46.1362 2.105 45.605 2.63625L40.605 7.63625C40.0737 8.1675 39.7812 8.87375 39.7812 9.625V14.1143C38.3699 15.1954 37.5903 17.2382 38.1605 19.137L34.5568 23.9702C33.7408 23.7066 32.8714 23.5626 31.9688 23.5626C27.3162 23.5626 23.5312 27.3476 23.5312 32.0001C23.5312 36.6526 27.3162 40.4376 31.9688 40.4376C32.8561 40.4376 33.7115 40.2991 34.5155 40.0439L38.155 44.8823C38.0345 45.2969 37.9688 45.7345 37.9688 46.1875C37.9688 47.6893 38.6794 49.0274 39.7812 49.8857V54.375C39.7812 55.1263 40.0737 55.8325 40.605 56.3638L45.605 61.3638C46.1362 61.895 46.8425 62.1875 47.5938 62.1875H55.583C56.4415 63.2894 57.7795 64 59.2812 64C61.866 64 63.9688 61.8973 63.9688 59.3125C63.9688 56.7277 61.866 54.625 59.2812 54.625C57.7234 54.625 56.3414 55.3896 55.4886 56.5625H48.7588L45.4062 53.21V49.9801C45.7852 49.7045 46.1221 49.3742 46.4038 49H55.5339C56.3899 50.1377 57.751 50.875 59.2814 50.875C61.8661 50.875 63.9689 48.7723 63.9689 46.1875C63.9689 43.6027 61.8661 41.5 59.2814 41.5C57.751 41.5 56.3899 42.2373 55.5339 43.3751C55.533 43.3751 55.5322 43.375 55.5314 43.375H46.4039C45.5479 42.2373 44.1868 41.5 42.6564 41.5C42.6543 41.5 42.652 41.5001 42.6499 41.5001L39.0033 36.6522C39.3807 36.0834 39.6908 35.4664 39.9226 34.8125H55.5314C55.5322 34.8125 55.533 34.8124 55.5339 34.8124C56.3899 35.9502 57.7511 36.6875 59.2814 36.6875C61.8661 36.6875 63.9689 34.5848 63.9689 32C63.9689 29.4153 61.8661 27.3125 59.2814 27.3125C57.751 27.3125 56.3899 28.0498 55.5339 29.1876C55.533 29.1876 55.5322 29.1875 55.5314 29.1875H50.0897C49.572 29.1875 49.1522 29.6073 49.1522 30.125C49.1522 30.6427 49.572 31.0625 50.0897 31.0625H54.6881C54.5959 31.5446 54.5422 32.1801 54.6881 32.9375H40.3529C40.4045 32.4469 40.4352 31.8276 40.3529 31.0625H45.5938C46.1115 31.0625 46.5312 30.6427 46.5312 30.125C46.5312 29.6073 46.1115 29.1875 45.5938 29.1875H39.9225C39.6956 28.5478 39.3935 27.9437 39.027 27.3851L42.6696 22.4998C44.1945 22.4954 45.5501 21.7594 46.4038 20.625ZM59.2812 15C60.8321 15 62.0938 16.2616 62.0938 17.8125C62.0938 19.3634 60.8321 20.625 59.2812 20.625C57.7304 20.625 56.4688 19.3634 56.4688 17.8125C56.4688 16.2616 57.7304 15 59.2812 15ZM47.2494 16.875H54.688C54.5957 17.3571 54.5421 17.9926 54.688 18.75H47.2494C47.3111 18.447 47.3438 18.1335 47.3438 17.8125C47.3438 17.4915 47.3111 17.178 47.2494 16.875ZM59.2812 1.875C60.8321 1.875 62.0938 3.13663 62.0938 4.6875C62.0938 6.23837 60.8321 7.5 59.2812 7.5C57.7304 7.5 56.4688 6.23837 56.4688 4.6875C56.4688 3.13663 57.7304 1.875 59.2812 1.875ZM59.2812 56.5C60.8321 56.5 62.0938 57.7616 62.0938 59.3125C62.0938 60.8634 60.8321 62.125 59.2812 62.125C57.7304 62.125 56.4688 60.8634 56.4688 59.3125C56.4688 57.7616 57.7304 56.5 59.2812 56.5ZM59.2812 43.375C60.8321 43.375 62.0938 44.6366 62.0938 46.1875C62.0938 47.7384 60.8321 49 59.2812 49C57.7304 49 56.4688 47.7384 56.4688 46.1875C56.4688 44.6366 57.7304 43.375 59.2812 43.375ZM47.2494 45.25H54.688C54.5957 45.7321 54.5421 46.3676 54.688 47.125H47.2494C47.3416 46.6429 47.3953 46.0074 47.2494 45.25ZM59.2812 29.1875C60.8321 29.1875 62.0938 30.4491 62.0938 32C62.0938 33.5509 60.8321 34.8125 59.2812 34.8125C57.7304 34.8125 56.4688 33.5509 56.4688 32C56.4688 30.4491 57.7304 29.1875 59.2812 29.1875ZM41.6562 9.625C41.6562 9.37463 41.7537 9.13925 41.9309 8.96212L46.9309 3.96213C47.108 3.785 47.3434 3.6875 47.5938 3.6875H54.7023C54.6319 4.00987 54.5938 4.34425 54.5938 4.6875C54.5938 4.98663 54.6231 5.27887 54.6769 5.5625H48.3704C48.1218 5.5625 47.8833 5.66125 47.7075 5.83712L43.8059 9.73875C43.63 9.9145 43.5312 10.153 43.5312 10.4016V13.2081C43.0312 13.1191 42.4277 13.0771 41.6562 13.2335V9.625ZM31.9688 38.5625C28.3501 38.5625 25.4062 35.6186 25.4062 32C25.4062 28.3814 28.3501 25.4375 31.9688 25.4375C35.5874 25.4375 38.5312 28.3814 38.5312 32C38.5312 35.6186 35.5874 38.5625 31.9688 38.5625ZM47.7075 58.1629C47.8833 58.3388 48.1218 58.4375 48.3704 58.4375H54.6769C54.5879 58.9375 54.5459 59.541 54.7023 60.3125H47.5938C47.3434 60.3125 47.1079 60.215 46.9309 60.0379L41.9309 55.0379C41.7537 54.8608 41.6562 54.6254 41.6562 54.375V50.7665C42.1206 50.8639 42.8011 50.9291 43.5312 50.7919V53.5984C43.5312 53.847 43.63 54.0855 43.8059 54.2612L47.7075 58.1629ZM42.6562 43.375C44.2071 43.375 45.4688 44.6366 45.4688 46.1875C45.4688 47.7384 44.2071 49 42.6562 49C41.1054 49 39.8438 47.7384 39.8438 46.1875C39.8438 44.6366 41.1054 43.375 42.6562 43.375ZM40.6451 41.9543C40.0726 42.2274 39.5644 42.6135 39.1481 43.0834L36.2689 39.2556C36.8091 38.9342 37.31 38.5537 37.7639 38.124L40.6451 41.9543ZM37.7928 25.9036C37.3408 25.4716 36.8421 25.0882 36.3034 24.7642L39.1611 20.9316C39.5793 21.3996 40.0894 21.7833 40.6632 22.0539L37.7928 25.9036ZM39.8438 17.8125C39.8438 16.2616 41.1054 15 42.6562 15C44.2071 15 45.4688 16.2616 45.4688 17.8125C45.4688 19.3634 44.2071 20.625 42.6562 20.625C41.1054 20.625 39.8438 19.3634 39.8438 17.8125Z" fill="#EE3E08"/>
<path d="M29.7188 62.125H28.4925C27.624 62.125 26.9175 61.4185 26.9175 60.55V57.8438C26.9175 56.3535 25.9674 55.0379 24.5535 54.5701C23.4632 54.209 22.3905 53.7645 21.3651 53.2489C20.0317 52.578 18.428 52.835 17.3746 53.8885L15.4596 55.8035C15.1621 56.101 14.7665 56.2649 14.3456 56.2649C13.9248 56.2649 13.5291 56.101 13.2315 55.8034L8.227 50.8C7.61338 50.1855 7.61337 49.1856 8.22637 48.5719L10.143 46.6566C11.1965 45.603 11.4534 43.9994 10.7826 42.6662C10.2669 41.6407 9.82225 40.568 9.46125 39.478C8.99338 38.0639 7.67775 37.1138 6.1875 37.1138H3.48125C2.61275 37.1138 1.90625 36.4072 1.90625 35.5387V28.4613C1.90625 27.5928 2.61275 26.8862 3.48125 26.8862H6.1875C7.67775 26.8862 8.99338 25.9361 9.46113 24.5222C9.82225 23.432 10.2668 22.3593 10.7824 21.3339C11.4532 20.0005 11.1964 18.3969 10.1425 17.3431L8.227 15.4288C7.61338 14.8142 7.61338 13.8144 8.22663 13.2004L13.2312 8.19575C13.8459 7.582 14.8458 7.582 15.4594 8.19512L17.3746 10.1116C18.4282 11.165 20.032 11.4223 21.365 10.7513C22.3905 10.2355 23.4632 9.79088 24.5532 9.43C25.9674 8.96213 26.9175 7.6465 26.9175 6.15625V3.45C26.9175 2.5815 27.624 1.875 28.4925 1.875H35.445C36.2192 1.875 36.8889 2.451 37.0026 3.21513C37.01 3.26463 37.0034 3.318 36.9834 3.36963L36.033 5.8275C35.8463 6.3105 36.0864 6.85337 36.5692 7.04C37.0522 7.22662 37.5951 6.98662 37.7817 6.50375L38.7321 4.04588C38.8691 3.69163 38.9123 3.30875 38.8571 2.93863C38.6076 1.26325 37.1408 0 35.445 0H28.4925C26.5901 0 25.0425 1.54763 25.0425 3.45V6.15625C25.0425 6.83625 24.6093 7.4365 23.964 7.65C22.7873 8.03975 21.6294 8.51962 20.5224 9.07625C19.913 9.38288 19.1809 9.26613 18.7006 8.786L16.785 6.86912C15.4399 5.52575 13.2513 5.52575 11.9059 6.8695L6.90037 11.875C5.557 13.2201 5.557 15.4086 6.901 16.7544L8.817 18.6691C9.29738 19.1495 9.41413 19.8817 9.1075 20.4912C8.55087 21.5981 8.071 22.756 7.68113 23.933C7.46775 24.578 6.8675 25.0112 6.1875 25.0112H3.48125C1.57888 25.0112 0.03125 26.5589 0.03125 28.4613V35.5387C0.03125 37.4411 1.57888 38.9888 3.48125 38.9888H6.1875C6.8675 38.9888 7.46775 39.422 7.68125 40.0672C8.071 41.244 8.55087 42.4019 9.1075 43.5089C9.41413 44.1183 9.29738 44.8504 8.81725 45.3306L6.90037 47.2463C5.557 48.5914 5.557 50.7799 6.90088 52.1255L11.9059 57.1291C13.2511 58.4745 15.44 58.4745 16.7855 57.1291L18.7005 55.2141C19.1809 54.7338 19.9131 54.617 20.5226 54.9238C21.6295 55.4804 22.7874 55.9603 23.9644 56.3501C24.6094 56.5635 25.0426 57.1637 25.0426 57.8438V60.55C25.0426 62.4524 26.5903 64 28.4926 64H29.7189C30.2366 64 30.6564 63.5802 30.6564 63.0625C30.6564 62.5448 30.2365 62.125 29.7188 62.125Z" fill="#EE3E08"/>
<path d="M33.1414 45.3769C32.835 44.5783 32.0863 44.0291 31.2339 43.978C24.8819 43.5968 19.9061 38.308 19.9061 31.9375C19.9061 25.5659 24.8829 20.2769 31.2361 19.8969C32.086 19.846 32.834 19.299 33.1416 18.5035L36.2029 10.5869C36.3896 10.104 36.1495 9.56101 35.6666 9.37439C35.1838 9.18764 34.6407 9.42776 34.4541 9.91064L33.455 12.4945C32.9621 12.4575 32.4634 12.4376 31.9688 12.4376C21.182 12.4376 12.4062 21.2134 12.4062 32.0001C12.4062 36.4169 13.8428 40.5853 16.5604 44.0544C16.7453 44.2905 17.0207 44.4138 17.299 44.4138C17.5012 44.4138 17.705 44.3486 17.8765 44.2143C18.2841 43.8949 18.3556 43.3056 18.0364 42.8981C15.5798 39.762 14.2812 35.9935 14.2812 32C14.2812 22.2471 22.2159 14.3125 31.9688 14.3125C32.227 14.3125 32.4865 14.3183 32.7455 14.3294L31.3929 17.8273C31.3491 17.9404 31.2437 18.018 31.1244 18.0253C23.7824 18.4644 18.0312 24.5755 18.0312 31.9375C18.0312 39.2983 23.7813 45.4091 31.1216 45.8496C31.2415 45.8569 31.3472 45.935 31.3908 46.0485L32.7793 49.6683C28.6156 49.8856 24.2575 48.5058 20.9719 45.8544C20.5665 45.5321 19.9767 45.5995 19.6546 46.0049C19.3324 46.4103 19.3999 47 19.8051 47.3221C23.6582 50.3991 28.5077 51.8768 33.4836 51.5045L36.984 60.63C37.0036 60.6813 37.0101 60.7346 37.0028 60.7843C36.8894 61.5486 36.2197 62.125 35.445 62.125H34.0938C33.576 62.125 33.1562 62.5448 33.1562 63.0625C33.1562 63.5803 33.576 64 34.0938 64H35.445C37.1418 64 38.6089 62.7359 38.8575 61.0593C38.9121 60.6908 38.8696 60.31 38.7345 59.9581L33.1414 45.3769Z" fill="#EE3E08"/>
</g>
<defs>
<clipPath id="clip0_1922_32">
<rect width="64" height="64" fill="white"/>
</clipPath>
</defs>
</svg>
