<svg width="97" height="23" viewBox="0 0 97 23" fill="none" xmlns="http://www.w3.org/2000/svg">
<path fill-rule="evenodd" clip-rule="evenodd" d="M5.84291 9.27586C10.2338 7.76241 10.9812 3.81996 10.4206 0.195149C10.4206 0.0643571 10.5327 -0.0290659 10.6448 0.00830332C14.8489 2.06361 19.5761 6.54791 19.5761 13.2744C19.5761 18.4313 15.5776 22.9904 9.76667 22.9904C7.69317 23.0846 5.64732 22.4857 3.95201 21.2881C2.25671 20.0905 1.00851 18.3625 0.404416 16.3767C-0.199676 14.3909 -0.125253 12.2605 0.615938 10.3217C1.35713 8.38286 2.72288 6.74611 4.49762 5.66973C4.60972 5.595 4.7592 5.66973 4.7592 5.80053C4.81526 6.49186 5.0021 8.22952 5.76817 9.27586H5.84291Z" fill="#8695AA"/>
<path fill-rule="evenodd" clip-rule="evenodd" d="M31.9452 18.8985L32.2629 18.5248L33.2532 21.6638L33.1224 21.7946C32.375 22.4859 31.2539 22.8409 29.8152 22.8409H29.7591C28.4512 22.8409 27.4236 22.4672 26.7135 21.7759C26.0035 21.0659 25.6298 20.0009 25.6298 18.6556V10.098H23.1074V6.64138H25.6298V2.47471H29.5162V6.64138H32.5992V10.098H29.4976V17.8148C29.4976 18.1698 29.591 19.3095 30.6747 19.3095C31.2352 19.3095 31.7584 19.104 31.9452 18.8798V18.8985ZM34.0005 22.4859V6.66006H37.8869V22.4859H34.0005ZM35.9251 0.19519C36.3862 0.195205 36.837 0.331726 37.2207 0.587545C37.6043 0.843365 37.9037 1.20703 38.081 1.63272C38.2583 2.0584 38.3056 2.52704 38.217 2.97958C38.1284 3.43212 37.9078 3.8483 37.583 4.17567C37.2583 4.50304 36.8439 4.72694 36.392 4.81916C35.9402 4.91138 35.4712 4.86778 35.0441 4.69387C34.6171 4.51996 34.251 4.22351 33.9921 3.84189C33.7333 3.46028 33.5932 3.01057 33.5895 2.54945C33.5895 1.2789 34.6545 0.19519 35.9251 0.19519ZM48.3316 6.26768C51.6948 6.26768 53.5446 8.09877 53.5446 11.4433V22.4672H49.6582V12.3775C49.5835 10.5838 48.724 9.7617 46.8929 9.7617C45.2487 9.7617 43.9221 10.7707 43.2494 11.6302V22.4672H39.363V6.67874H43.2494V8.36036C44.3705 7.27665 46.1642 6.30505 48.3316 6.30505V6.26768ZM66.4744 8.3043V0.867836H70.3608V22.5046H66.4744V20.8603C65.8797 21.4876 65.1642 21.988 64.3711 22.3316C63.578 22.6752 62.7236 22.8548 61.8593 22.8596C57.6179 22.8596 54.7778 19.5337 54.7778 14.5823C54.7778 9.61223 57.6179 6.28637 61.8593 6.28637C62.7255 6.29032 63.5817 6.47137 64.3754 6.81839C65.169 7.16542 65.8833 7.67108 66.4744 8.3043ZM66.4744 11.6488C66.0412 11.0847 65.4878 10.6243 64.8543 10.3011C64.2207 9.97786 63.5231 9.79998 62.8122 9.78039C60.4019 9.78039 58.795 11.7049 58.795 14.5823C58.795 17.4411 60.4019 19.3656 62.8122 19.3656C64.2135 19.3656 65.7457 18.6182 66.4744 17.5345V11.6488ZM79.4415 6.28637C84.0379 6.28637 87.2329 9.83644 87.2329 14.8813V15.9463H75.4803C75.8727 18.1698 77.6291 19.5898 80.0207 19.5898C81.5341 19.5898 83.1971 18.9358 84.15 17.9829L84.4116 17.7587L86.2613 20.4119L86.0745 20.5801C84.3237 22.1324 82.0412 22.949 79.7031 22.8596C74.8451 22.8596 71.4258 19.4403 71.4258 14.5636C71.388 13.487 71.5682 12.4137 71.9555 11.4084C72.3428 10.4031 72.9292 9.4864 73.6796 8.71335C74.4299 7.94029 75.3288 7.32683 76.3221 6.90977C77.3155 6.49271 78.3828 6.28067 79.4602 6.28637H79.4415ZM75.4617 13.0128H83.44C83.2158 10.6399 81.2539 9.55617 79.4415 9.55617C76.7135 9.55617 75.6859 11.6115 75.4617 13.0315V13.0128ZM96.6313 6.28637H96.9116V10.2101L96.5752 10.1541C96.295 10.098 95.94 10.0607 95.585 10.0607C94.3331 10.0607 92.5954 10.9388 91.9415 11.8731V22.4672H88.0551V6.66006H91.9601V8.41641C93.2494 7.07112 94.9497 6.28637 96.6313 6.28637Z" fill="#8695AA"/>
</svg>
