<svg width="81" height="26" viewBox="0 0 81 26" fill="none" xmlns="http://www.w3.org/2000/svg">
<path d="M0 20.9739V5.16746L13.8686 0L21.4058 2.43174V23.7095L13.8686 26L0 20.9739L13.8686 22.6564V4.25572L4.8237 6.38345V18.8463L0 20.9739ZM36.1765 21.0847C33.9934 21.0847 32.2451 20.3595 30.9317 18.9089C29.6183 17.4584 28.9615 15.5714 28.9615 13.2476C28.9615 10.7507 29.6307 8.75897 30.9693 7.2725C32.3077 5.7859 34.1293 5.04266 36.4342 5.04266C38.56 5.04266 40.2724 5.76431 41.5716 7.20754C42.8706 8.65084 43.5202 10.5379 43.5202 12.8689C43.5202 15.4019 42.8546 17.4044 41.5233 18.8767C40.1919 20.3488 38.4097 21.0847 36.1765 21.0847ZM36.3053 6.68771C34.6877 6.68771 33.3742 7.27582 32.365 8.45209C31.3558 9.6284 30.8511 11.1727 30.8511 13.0851C30.8511 14.9974 31.3432 16.5364 32.3274 17.7018C33.3116 18.8673 34.5946 19.45 36.1765 19.45C37.8657 19.45 39.197 18.8943 40.1705 17.783C41.1439 16.6717 41.6306 15.1165 41.6306 13.1175C41.6306 11.0681 41.1582 9.48403 40.2134 8.36554C39.2685 7.24701 37.9659 6.68775 36.3053 6.68771ZM49.9357 4.17541C48.9409 4.17541 48.1141 4.51705 47.4484 5.19179C46.7828 5.86654 46.4497 6.78468 46.4497 7.94651V9.74179H44.5749V11.2616H46.4497V20.827H48.2022V11.2616H52.4891V20.827H54.2415V11.2616H56.8136V9.74179H54.2415V8.03195C54.2415 6.46598 54.857 5.68573 56.0881 5.68573C56.5247 5.68573 56.9128 5.77584 57.2564 5.97069V4.37485C56.9415 4.24496 56.5213 4.17541 55.9845 4.17541C54.9896 4.17541 54.1534 4.51705 53.4877 5.19175C52.8221 5.86654 52.4891 6.78464 52.4891 7.94646V9.74175H48.2022V8.03195C48.2022 6.46594 48.8177 5.68568 50.0488 5.68568C50.4854 5.68568 50.8736 5.77584 51.2171 5.97065V4.37485C50.9022 4.24496 50.4725 4.17545 49.9357 4.17541ZM59.3743 6.92433C59.0594 6.92433 58.791 6.81611 58.5691 6.5996C58.3472 6.38312 58.2362 6.10891 58.2362 5.77691C58.2362 5.44496 58.3472 5.16893 58.5691 4.94885C58.791 4.72876 59.0594 4.6187 59.3743 4.6187C59.6964 4.6187 59.9702 4.72876 60.1956 4.94885C60.4211 5.16898 60.5338 5.445 60.5339 5.77691C60.5338 6.09446 60.4211 6.36507 60.1956 6.58872C59.9702 6.81246 59.6964 6.92437 59.3743 6.92433ZM60.2332 20.8231H58.4725V9.73872H60.2332V20.8231ZM70.2366 20.3144C69.392 20.8267 68.3899 21.0829 67.2303 21.0829C65.6628 21.0829 64.3977 20.5687 63.435 19.5404C62.4723 18.5121 61.9909 17.1788 61.9909 15.5407C61.9909 13.7149 62.5098 12.2482 63.5477 11.1404C64.5855 10.0327 65.9705 9.47886 67.7027 9.47886C68.669 9.47886 69.5208 9.65927 70.258 10.0201V11.8386C69.442 11.2613 68.5688 10.9726 67.6383 10.9726C66.5145 10.9726 65.5929 11.3785 64.8736 12.1904C64.1543 13.0023 63.7946 14.0685 63.7946 15.3891C63.7946 16.6881 64.1328 17.7128 64.8092 18.4633C65.4856 19.2138 66.3928 19.5891 67.5309 19.5891C68.4901 19.5891 69.3919 19.2679 70.2365 18.6256L70.2366 20.3144ZM80.9999 15.7254H73.2375C73.2661 16.9594 73.5953 17.912 74.2252 18.583C74.8551 19.2542 75.7212 19.5897 76.8235 19.5897C78.0618 19.5897 79.1999 19.1784 80.2377 18.3557V20.0227C79.2714 20.7299 77.9938 21.0835 76.4048 21.0835C74.8515 21.0835 73.6312 20.5802 72.7436 19.5735C71.856 18.5668 71.4123 17.1506 71.4123 15.3248C71.4123 13.6001 71.8972 12.1947 72.8671 11.1086C73.837 10.0226 75.0412 9.4796 76.4799 9.4796C77.9186 9.4796 79.0317 9.94866 79.819 10.8868C80.6063 11.8249 81 13.1275 81 14.7945L80.9999 15.7254ZM79.1962 14.2208C79.1891 13.1961 78.9439 12.3987 78.4608 11.8285C77.9776 11.2585 77.3066 10.9734 76.4477 10.9734C75.6174 10.9734 74.9123 11.2729 74.3325 11.8718C73.7527 12.4708 73.3949 13.2538 73.2589 14.2208H79.1962Z" fill="#8695AA"/>
</svg>
