<svg width="159" height="20" viewBox="0 0 159 20" fill="none" xmlns="http://www.w3.org/2000/svg">
<path d="M14.3923 11.9137H3.75799V9.27506H17.4707C17.1109 8.15566 15.9515 7.11622 13.9126 7.11622H3.95788C1.6791 7.11622 0.359808 7.95577 0.359808 9.79479V11.7537C0.359808 13.3529 1.71908 14.2724 3.71801 14.2724H14.4723V17.0709H0C0.359808 18.5901 1.51919 19.3897 3.59808 19.3897H14.4323C16.7111 19.3897 17.8305 18.5101 17.8305 16.6311V14.6722C17.8305 12.9531 16.5112 12.0336 14.3923 11.9137ZM36.1007 7.1562H22.9877V19.4296H26.7057V14.7122H36.3805C39.0591 14.7122 40.5383 13.7926 40.5383 11.6338V10.2745C40.4983 8.2756 38.8192 7.1562 36.1007 7.1562ZM37.3001 11.0741C37.3001 11.9536 37.1401 12.4334 35.7009 12.4334H26.7057L26.7457 9.23509H35.541C37.1401 9.23509 37.34 9.71483 37.34 10.5544V11.0741H37.3001ZM52.8917 14.6322H44.976L43.017 16.7111H54.4509L56.4098 19.4296H60.8075L51.3326 6.63647L49.0938 9.395L52.8917 14.6322ZM67.9237 9.27506H81.8362C81.4764 7.83583 80.0772 7.11622 78.0783 7.11622H67.6838C65.8848 7.11622 64.1657 7.83583 64.1657 9.79479V16.6711C64.1657 18.6301 65.8848 19.3497 67.6838 19.3497H78.1982C80.5969 19.3497 81.4365 18.67 81.8362 17.0309H67.9237V9.27506ZM98.1475 13.3529V11.274H86.9135V19.4296H103.505V17.1109H90.6715V13.3529H98.1475ZM87.3133 7.1562H104.064V9.31504H87.3133V7.1562ZM114.379 7.1562H108.542L115.418 12.1935C116.418 11.5139 117.577 10.7943 118.617 10.1946L114.379 7.1562ZM122.854 13.4328C121.855 14.1125 120.855 14.8721 119.896 15.5917L125.093 19.3897H130.97L122.854 13.4328Z" fill="#8695AA"/>
<path d="M158.915 0C126.932 1.83902 112.14 15.5117 108.822 18.75L108.142 19.3896H114.059C130.05 3.35821 153.038 0.519722 158.915 0Z" fill="#8695AA"/>
</svg>
