<svg width="88" height="27" viewBox="0 0 88 27" fill="none" xmlns="http://www.w3.org/2000/svg">
<path d="M46.3791 6.78378C46.3791 7.75676 45.5819 8.54054 44.5922 8.54054C43.6025 8.54054 42.8053 7.75676 42.8053 6.78378C42.8053 5.81081 43.575 5.02703 44.5922 5.02703C45.6093 5.05405 46.3791 5.83784 46.3791 6.78378ZM39.0116 10.3243V10.7568C39.0116 10.7568 38.1594 9.67568 36.345 9.67568C33.3485 9.67568 31.0118 11.9189 31.0118 15.027C31.0118 18.1081 33.321 20.3784 36.345 20.3784C38.1869 20.3784 39.0116 19.2703 39.0116 19.2703V19.7297C39.0116 19.9459 39.1765 20.1081 39.3965 20.1081H41.6232V9.94595H39.3965C39.1765 9.94595 39.0116 10.1351 39.0116 10.3243ZM39.0116 16.8378C38.5992 17.4324 37.7745 17.9459 36.7848 17.9459C35.0254 17.9459 33.6784 16.8649 33.6784 15.027C33.6784 13.1892 35.0254 12.1081 36.7848 12.1081C37.747 12.1081 38.6267 12.6486 39.0116 13.2162V16.8378ZM43.2726 9.94595H45.9117V20.1081H43.2726V9.94595ZM82.6943 9.67568C80.8799 9.67568 80.0277 10.7568 80.0277 10.7568V5.05405H77.3886V20.1081H79.6153C79.8353 20.1081 80.0002 19.9189 80.0002 19.7297V19.2703C80.0002 19.2703 80.8524 20.3784 82.6668 20.3784C85.6633 20.3784 88 18.1081 88 15.027C88 11.9459 85.6633 9.67568 82.6943 9.67568ZM82.2544 17.9189C81.2373 17.9189 80.4401 17.4054 80.0277 16.8108V13.1892C80.4401 12.6486 81.3198 12.0811 82.2544 12.0811C84.0139 12.0811 85.3609 13.1622 85.3609 15C85.3609 16.8378 84.0139 17.9189 82.2544 17.9189ZM76.0141 14.0811V20.1351H73.3749V14.3784C73.3749 12.7027 72.8251 12.027 71.3406 12.027C70.5434 12.027 69.7187 12.4324 69.1964 13.027V20.1081H66.5573V9.94595H68.6466C68.8665 9.94595 69.0314 10.1351 69.0314 10.3243V10.7568C69.8012 9.97297 70.8183 9.67568 71.8355 9.67568C72.9901 9.67568 73.9523 10 74.722 10.6486C75.6567 11.4054 76.0141 12.3784 76.0141 14.0811ZM60.1519 9.67568C58.3375 9.67568 57.4853 10.7568 57.4853 10.7568V5.05405H54.8462V20.1081H57.073C57.2929 20.1081 57.4578 19.9189 57.4578 19.7297V19.2703C57.4578 19.2703 58.3101 20.3784 60.1244 20.3784C63.1209 20.3784 65.4576 18.1081 65.4576 15.027C65.4851 11.9459 63.1484 9.67568 60.1519 9.67568ZM59.7121 17.9189C58.6949 17.9189 57.8977 17.4054 57.4853 16.8108V13.1892C57.8977 12.6486 58.7774 12.0811 59.7121 12.0811C61.4715 12.0811 62.8185 13.1622 62.8185 15C62.8185 16.8378 61.4715 17.9189 59.7121 17.9189ZM52.5645 9.67568C53.3617 9.67568 53.7741 9.81081 53.7741 9.81081V12.2162C53.7741 12.2162 51.5748 11.4865 50.2003 13.027V20.1351H47.5612V9.94595H49.7879C50.0079 9.94595 50.1728 10.1351 50.1728 10.3243V10.7568C50.6676 10.1892 51.7398 9.67568 52.5645 9.67568ZM25.1563 19.1892C25.0188 18.8649 24.8814 18.5135 24.7439 18.2162C24.524 17.7297 24.3041 17.2703 24.1116 16.8378L24.0841 16.8108C22.1873 12.7568 20.153 8.64865 18.0087 4.59459L17.9262 4.43243C17.7063 4.02703 17.4864 3.59459 17.2664 3.16216C16.9915 2.67568 16.7166 2.16216 16.2768 1.67568C15.3971 0.594595 14.1325 0 12.7855 0C11.4109 0 10.1738 0.594595 9.26665 1.62162C8.85429 2.10811 8.5519 2.62162 8.27699 3.10811C8.05706 3.54054 7.83714 3.97297 7.61721 4.37838L7.53474 4.54054C5.41796 8.59459 3.35616 12.7027 1.4593 16.7568L1.43181 16.8108C1.23937 17.2432 1.01945 17.7027 0.799521 18.1892C0.662068 18.4865 0.524614 18.8108 0.387161 19.1622C0.0297816 20.1622 -0.0801812 21.1081 0.0572723 22.0811C0.35967 24.1081 1.7342 25.8108 3.63106 26.5676C4.34582 26.8649 5.08807 27 5.85781 27C6.07773 27 6.35264 26.973 6.57257 26.9459C7.47976 26.8378 8.41444 26.5405 9.32164 26.027C10.4488 25.4054 11.5209 24.5135 12.7305 23.2162C13.9401 24.5135 15.0397 25.4054 16.1393 26.027C17.0465 26.5405 17.9812 26.8378 18.8884 26.9459C19.1083 26.973 19.3832 27 19.6032 27C20.3729 27 21.1426 26.8649 21.8299 26.5676C23.7542 25.8108 25.1013 24.0811 25.4037 22.0811C25.6236 21.1351 25.5137 20.1892 25.1563 19.1892ZM12.758 20.5946C11.2735 18.7568 10.3113 17.027 9.98141 15.5676C9.84396 14.9459 9.81647 14.4054 9.89894 13.9189C9.95392 13.4865 10.1189 13.1081 10.3388 12.7838C10.8611 12.0541 11.7408 11.5946 12.758 11.5946C13.7751 11.5946 14.6823 12.027 15.1772 12.7838C15.3971 13.1081 15.562 13.4865 15.617 13.9189C15.6995 14.4054 15.672 14.973 15.5345 15.5676C15.2046 17 14.2425 18.7297 12.758 20.5946ZM23.7268 21.8649C23.5343 23.2703 22.5721 24.4865 21.2251 25.027C20.5653 25.2973 19.8506 25.3784 19.1358 25.2973C18.4485 25.2162 17.7613 25 17.0465 24.5946C16.0569 24.0541 15.0672 23.2162 13.9126 21.973C15.727 19.7838 16.8266 17.7838 17.239 16C17.4314 15.1622 17.4589 14.4054 17.3764 13.7027C17.2664 13.027 17.019 12.4054 16.6342 11.8649C15.7819 10.6486 14.3524 9.94595 12.758 9.94595C11.1635 9.94595 9.734 10.6757 8.88179 11.8649C8.49692 12.4054 8.2495 13.027 8.13954 13.7027C8.02957 14.4054 8.05706 15.1892 8.27699 16C8.68935 17.7838 9.81647 19.8108 11.6034 22C10.4762 23.2432 9.45909 24.0811 8.46942 24.6216C7.75467 25.027 7.0674 25.2432 6.38013 25.3243C5.63788 25.4054 4.92313 25.2973 4.29084 25.0541C2.9438 24.5135 1.98162 23.2973 1.78919 21.8919C1.70671 21.2162 1.7617 20.5405 2.0366 19.7838C2.11907 19.5135 2.25653 19.2432 2.39398 18.9189C2.58642 18.4865 2.80634 18.027 3.02627 17.5676L3.05376 17.5135C4.95062 13.4865 6.98493 9.37838 9.10171 5.37838L9.18418 5.21622C9.40411 4.81081 9.62403 4.37838 9.84396 3.97297C10.0639 3.54054 10.3113 3.13513 10.6137 2.78378C11.191 2.13514 11.9607 1.78378 12.813 1.78378C13.6652 1.78378 14.4349 2.13514 15.0122 2.78378C15.3146 3.13513 15.562 3.54054 15.7819 3.97297C16.0019 4.37838 16.2218 4.81081 16.4417 5.21622L16.5242 5.37838C18.6135 9.40541 20.6478 13.5135 22.5447 17.5405V17.5676C22.7646 18 22.957 18.4865 23.1769 18.9189C23.3144 19.2432 23.4519 19.5135 23.5343 19.7838C23.7542 20.4865 23.8367 21.1622 23.7268 21.8649Z" fill="#8695AA"/>
</svg>
