<svg width="117" height="23" viewBox="0 0 117 23" fill="none" xmlns="http://www.w3.org/2000/svg">
<path d="M13.5549 4.32602L6.77743 8.65204L13.5549 12.9781L6.77743 17.3041L0 12.942L6.77743 8.61599L0 4.32602L6.77743 0L13.5549 4.32602ZM6.74138 18.674L13.5188 14.348L20.2962 18.674L13.5188 23L6.74138 18.674ZM13.5549 12.942L20.3323 8.61599L13.5549 4.32602L20.2962 0L27.0737 4.32602L20.2962 8.65204L27.0737 12.9781L20.2962 17.3041L13.5549 12.942Z" fill="#8695AA"/>
<path d="M32.373 4.32597H37.8527C41.3495 4.32597 44.2335 6.34478 44.2335 10.9592V11.9326C44.2335 16.583 41.5298 18.6739 37.9608 18.6739H32.373V4.32597ZM35.4373 6.92158V16.0423H37.7806C39.7633 16.0423 41.0972 14.7445 41.0972 11.8605V11.1034C41.0972 8.21939 39.6912 6.92158 37.6724 6.92158H35.4373ZM45.8558 7.06578H48.3072L48.7038 9.76954C49.1724 7.93098 50.3621 6.95763 52.5251 6.95763H53.2821V10.0579H52.0204C49.5329 10.0579 48.9201 10.9231 48.9201 13.3746V18.71H45.8919V7.06578H45.8558ZM53.895 13.1222V12.7978C53.895 8.90434 56.3825 6.77738 59.7712 6.77738C63.232 6.77738 65.6473 8.90434 65.6473 12.7978V13.1222C65.6473 16.9435 63.3041 18.9984 59.7712 18.9984C56.0219 18.9623 53.895 16.9435 53.895 13.1222ZM62.547 13.0862V12.7978C62.547 10.6347 61.4655 9.33694 59.7351 9.33694C58.0408 9.33694 56.9232 10.5266 56.9232 12.7978V13.0862C56.9232 15.1771 58.0047 16.3667 59.7351 16.3667C61.4655 16.3307 62.547 15.1771 62.547 13.0862ZM67.2335 7.06578H69.7571L70.0455 9.26484C70.6583 7.78678 71.9561 6.77738 73.8668 6.77738C76.8229 6.77738 78.7696 8.90434 78.7696 12.8338V13.1583C78.7696 16.9796 76.6066 18.9984 73.8668 18.9984C72.0282 18.9984 70.7665 18.1692 70.1536 16.8354V22.7115H67.1975L67.2335 7.06578ZM75.7053 13.0862V12.8338C75.7053 10.5266 74.5157 9.37299 72.9295 9.37299C71.2351 9.37299 70.1176 10.6708 70.1176 12.8338V13.0501C70.1176 15.105 71.1991 16.4028 72.8934 16.4028C74.6238 16.3667 75.7053 15.2492 75.7053 13.0862ZM83.2398 16.547L82.9875 18.6739H80.3919V3.17236H83.348V9.12064C83.9969 7.60653 85.2947 6.77738 87.1332 6.77738C89.9091 6.81343 91.964 8.72409 91.964 12.5815V12.942C91.964 16.7993 90.0172 18.9984 87.0611 18.9984C85.1144 18.9623 83.8527 18.0611 83.2398 16.547ZM88.8636 12.942V12.6536C88.8636 10.5266 87.71 9.33694 86.0878 9.33694C84.4295 9.33694 83.2759 10.6708 83.2759 12.6896V12.942C83.2759 15.105 84.3934 16.3667 86.0517 16.3667C87.8182 16.3667 88.8636 15.2492 88.8636 12.942ZM93.2618 13.1222V12.7978C93.2618 8.90434 95.7492 6.77738 99.1379 6.77738C102.599 6.77738 105.014 8.90434 105.014 12.7978V13.1222C105.014 16.9435 102.635 18.9984 99.1379 18.9984C95.3887 18.9623 93.2618 16.9435 93.2618 13.1222ZM101.95 13.0862V12.7978C101.95 10.6347 100.868 9.33694 99.1379 9.33694C97.4436 9.33694 96.326 10.5266 96.326 12.7978V13.0862C96.326 15.1771 97.4075 16.3667 99.1379 16.3667C100.868 16.3307 101.95 15.1771 101.95 13.0862ZM108.98 12.6536L104.906 7.06578H108.403L110.746 10.5626L113.125 7.06578H116.586L112.44 12.6175L116.803 18.6739H113.378L110.71 14.8166L108.114 18.6739H104.545L108.98 12.6536Z" fill="#8695AA"/>
</svg>
