<svg width="48" height="48" viewBox="0 0 48 48" fill="none" xmlns="http://www.w3.org/2000/svg">
<circle cx="24" cy="24" r="24" fill="#25B003"/>
<path d="M30.1339 23.9995L32.7706 21.3628L35.4073 23.9995L32.7706 26.6362L30.1339 23.9995Z" fill="white"/>
<path d="M12.5885 23.999L15.2251 21.3624L17.8618 23.999L15.2251 26.6357L12.5885 23.999Z" fill="white"/>
<path d="M24 30.1385L19.6287 25.7672L16.9922 28.4038L24 35.4116L31.0078 28.4038L28.3712 25.7672L24 30.1385Z" fill="white"/>
<path d="M24 17.8616L28.3712 22.2328L31.0078 19.5963L24 12.5884L16.9922 19.5963L19.6287 22.2328L24 17.8616Z" fill="white"/>
<path d="M21.3921 24L23.9957 21.3964L26.5994 24L23.9957 26.6036L21.3921 24Z" fill="white"/>
</svg>
