<svg width="48" height="48" viewBox="0 0 48 48" fill="none" xmlns="http://www.w3.org/2000/svg">
<circle cx="24" cy="24" r="24" fill="#605DFF"/>
<g clip-path="url(#clip0_899_7883)">
<path d="M32.6535 24.6403C32.0495 23.8592 31.138 23.3227 29.9191 23.0311C31.4713 22.2393 32.1534 20.8955 31.9661 18.9995C31.9035 18.3119 31.7135 17.716 31.3956 17.211C31.0776 16.7058 30.6483 16.2996 30.1063 15.9924C29.5647 15.6847 28.9757 15.4506 28.3405 15.2891C27.7053 15.1277 26.9759 15.0104 26.1529 14.9376V11H23.7469V14.8282C23.3302 14.8282 22.6948 14.8386 21.8407 14.8594V11H19.4343V14.9376C19.0905 14.948 18.5853 14.9534 17.9187 14.9534L14.6062 14.9376V17.5002H16.3405C17.1322 17.5002 17.5957 17.8544 17.7311 18.5627V23.0472C17.8354 23.0472 17.9187 23.0526 17.9812 23.063H17.7311V29.3441C17.6479 29.8752 17.3458 30.1411 16.8249 30.1411H15.0908L14.6063 33.0006H17.7314C17.9294 33.0006 18.2156 33.0032 18.5908 33.0079C18.9657 33.0132 19.2469 33.0158 19.4344 33.0158V37.0002H21.8412V33.0626C22.2786 33.0733 22.914 33.0784 23.7474 33.0784V37.0002H26.1535V33.0158C27.0079 32.9742 27.7656 32.8965 28.4268 32.7815C29.0883 32.6665 29.7213 32.4871 30.3253 32.2421C30.9293 31.9975 31.4344 31.6926 31.8406 31.328C32.2471 30.9637 32.5827 30.5 32.8488 29.9374C33.114 29.3748 33.2835 28.7237 33.3562 27.9839C33.4922 26.5364 33.2577 25.4217 32.6535 24.6403ZM21.8875 17.6716C21.9605 17.6716 22.1662 17.669 22.5048 17.6637C22.8435 17.6584 23.1246 17.6532 23.3486 17.648C23.5726 17.6428 23.8747 17.6558 24.255 17.6871C24.6352 17.7183 24.9555 17.7601 25.2158 17.8121C25.4762 17.8641 25.7629 17.9501 26.0751 18.0699C26.3879 18.1895 26.6377 18.3355 26.825 18.5073C27.0127 18.6791 27.1715 18.898 27.3015 19.1637C27.4318 19.4293 27.497 19.7339 27.497 20.0776C27.497 20.3693 27.4502 20.635 27.3565 20.8747C27.2631 21.1143 27.1221 21.3149 26.9348 21.4763C26.7475 21.6378 26.5544 21.7786 26.3564 21.8983C26.1587 22.018 25.9058 22.1144 25.5987 22.1872C25.2915 22.2602 25.0233 22.3175 24.7943 22.3591C24.5651 22.4008 24.2787 22.4295 23.9349 22.4451C23.591 22.4606 23.3305 22.4712 23.1535 22.4764C22.9763 22.4815 22.7342 22.4815 22.4268 22.4764C22.1194 22.4712 21.9399 22.4685 21.8877 22.4685V17.6715L21.8875 17.6716ZM28.4582 28.3123C28.359 28.552 28.2316 28.7604 28.0754 28.9376C27.919 29.1144 27.7132 29.2708 27.4581 29.4061C27.2031 29.5417 26.9554 29.6509 26.716 29.7342C26.4763 29.8179 26.1872 29.8904 25.8489 29.9531C25.5099 30.0157 25.2133 30.0597 24.9578 30.0859C24.7027 30.112 24.3981 30.1327 24.0438 30.1485C23.6898 30.1638 23.4136 30.1718 23.2157 30.1718C23.0178 30.1718 22.7677 30.1689 22.4656 30.1638C22.1634 30.159 21.9708 30.1563 21.8874 30.1563V24.8748C21.9707 24.8748 22.2181 24.8697 22.6296 24.8591C23.0413 24.8486 23.377 24.8437 23.6375 24.8437C23.8979 24.8437 24.2574 24.8591 24.7159 24.8905C25.174 24.9216 25.5594 24.9683 25.8722 25.0308C26.1846 25.0934 26.5255 25.1896 26.8956 25.3199C27.2652 25.4501 27.5649 25.6089 27.7941 25.7964C28.0233 25.9842 28.2159 26.2234 28.3721 26.5152C28.5287 26.8068 28.6068 27.1402 28.6068 27.5153C28.6067 27.8073 28.5573 28.0725 28.4582 28.3123Z" fill="white"/>
</g>
<defs>
<clipPath id="clip0_899_7883">
<rect width="26" height="26" fill="white" transform="translate(11 11)"/>
</clipPath>
</defs>
</svg>
