<svg width="48" height="48" viewBox="0 0 48 48" fill="none" xmlns="http://www.w3.org/2000/svg">
<circle cx="24" cy="24" r="24" fill="#F7931A"/>
<g clip-path="url(#clip0_899_8310)">
<path d="M32.2607 26.6562C31.8572 25.755 31.0973 25.0193 29.9811 24.4494C31.6759 24.0447 32.6548 22.8988 32.9184 21.0119C33.0191 20.3289 32.9745 19.705 32.7843 19.1394C32.5938 18.5736 32.2721 18.0779 31.8174 17.6519C31.3633 17.2256 30.8458 16.8595 30.2664 16.5533C29.6869 16.2471 29.0055 15.9617 28.2227 15.6975L29.1482 11.8702L26.8095 11.3047L25.9098 15.0256C25.5048 14.9277 24.8848 14.7885 24.0497 14.608L24.9568 10.8567L22.6178 10.2911L21.6923 14.1184C21.3557 14.0477 20.8634 13.9342 20.2154 13.7775L16.9995 12.9836L16.3972 15.4744L18.0829 15.882C18.8524 16.0681 19.2197 16.5214 19.1848 17.2416L18.1308 21.6005C18.2322 21.6251 18.3118 21.6498 18.3702 21.6746L18.1271 21.6159L16.6508 27.721C16.4451 28.2177 16.089 28.4051 15.5827 28.2827L13.8971 27.8751L12.7541 30.5406L15.7917 31.2751C15.9841 31.3216 16.2617 31.3915 16.6253 31.4842C16.9885 31.5775 17.2611 31.6461 17.4434 31.6902L16.507 35.5629L18.8463 36.1286L19.7718 32.3014C20.1944 32.4146 20.8108 32.5688 21.6208 32.7647L20.6991 36.5766L23.0378 37.1421L23.9743 33.2694C24.8145 33.4298 25.5693 33.5323 26.239 33.576C26.909 33.6197 27.5664 33.5941 28.2111 33.4979C28.8556 33.4021 29.4183 33.2245 29.8988 32.9656C30.3794 32.707 30.8147 32.3351 31.2055 31.8508C31.5956 31.3663 31.9133 30.7733 32.1578 30.0714C32.6303 28.6963 32.6643 27.5577 32.2607 26.6562ZM23.4342 17.3524C23.5051 17.3695 23.7057 17.4153 24.036 17.4898C24.3665 17.5642 24.641 17.6253 24.8599 17.6728C25.0788 17.7204 25.3694 17.8041 25.7318 17.9239C26.094 18.0436 26.3954 18.1595 26.6363 18.2712C26.8771 18.3829 27.1356 18.5339 27.4109 18.7237C27.6868 18.9136 27.8953 19.1141 28.037 19.3252C28.179 19.5363 28.2819 19.7864 28.3458 20.0751C28.4101 20.3639 28.4018 20.6754 28.321 21.0094C28.2525 21.2929 28.1445 21.5402 27.9972 21.7512C27.85 21.9621 27.6658 22.1239 27.4459 22.2368C27.2258 22.3497 27.0051 22.4412 26.7845 22.511C26.5642 22.5809 26.2958 22.6152 25.9801 22.6138C25.6644 22.6125 25.3902 22.6051 25.1578 22.5917C24.9252 22.5784 24.6401 22.539 24.3023 22.4733C23.9644 22.4076 23.7087 22.3567 23.5355 22.3201C23.362 22.2835 23.1267 22.2266 22.8291 22.1493C22.5315 22.072 22.3577 22.0272 22.307 22.0149L23.4344 17.3524L23.4342 17.3524ZM27.3199 29.2393C27.1671 29.449 26.9943 29.6217 26.8009 29.7572C26.6073 29.8923 26.3705 29.9959 26.0907 30.0674C25.811 30.1393 25.5446 30.1872 25.2923 30.212C25.0397 30.237 24.7416 30.2395 24.3981 30.2209C24.0539 30.2021 23.7552 30.1751 23.5007 30.1405C23.2466 30.106 22.9457 30.0545 22.5976 29.9866C22.2499 29.9183 21.9795 29.8611 21.7872 29.8146C21.5948 29.768 21.3525 29.7065 21.06 29.6305C20.7674 29.5548 20.5808 29.507 20.4998 29.4874L21.7411 24.3538C21.822 24.3733 22.0637 24.4265 22.4662 24.5129C22.8688 24.5995 23.1963 24.6736 23.4495 24.7349C23.7026 24.7961 24.0484 24.8955 24.4867 25.0339C24.9246 25.1717 25.2883 25.3077 25.5776 25.4419C25.8665 25.5762 26.1753 25.7498 26.5043 25.9635C26.8331 26.1769 27.087 26.4017 27.2658 26.6378C27.4444 26.8743 27.5754 27.1521 27.6586 27.4724C27.7423 27.7926 27.7398 28.135 27.6517 28.4996C27.583 28.7834 27.4726 29.0296 27.3199 29.2393Z" fill="white"/>
</g>
<defs>
<clipPath id="clip0_899_8310">
<rect width="26" height="26" fill="white" transform="translate(14.4197 8.30872) rotate(13.5937)"/>
</clipPath>
</defs>
</svg>
