<svg width="145" height="47" viewBox="0 0 145 47" fill="none" xmlns="http://www.w3.org/2000/svg">
<g clip-path="url(#clip0_3160_3187)">
<path d="M0 5.54834H2.76036V41.4515H0V5.54834ZM4.44981 41.4515H6.00386V5.54834H4.44981V41.4515ZM7.12401 41.4515H8.67498V5.54834H7.12401V41.4515ZM10.7153 41.4515H14.1126V5.54834H10.7153V41.4515ZM16.833 41.4515H18.5317V5.54834H16.833V41.4515ZM21.1658 41.4515H28.2068V5.54834H21.1658V41.4515ZM39.5129 41.4515H41.827V5.54834H39.5129V41.4515ZM43.8457 5.54834V41.4515H47V5.54834H43.8457ZM31.0318 41.4515H32.5458V5.54834H31.0318V41.4515ZM34.7153 41.4515H36.2294V5.54834H34.7153V41.4515Z" fill="#030104"/>
</g>
<g clip-path="url(#clip1_3160_3187)">
<path d="M49 5.54834H51.7604V41.4515H49V5.54834ZM53.4498 41.4515H55.0039V5.54834H53.4498V41.4515ZM56.124 41.4515H57.675V5.54834H56.124V41.4515ZM59.7153 41.4515H63.1126V5.54834H59.7153V41.4515ZM65.833 41.4515H67.5317V5.54834H65.833V41.4515ZM70.1658 41.4515H77.2068V5.54834H70.1658V41.4515ZM88.5129 41.4515H90.827V5.54834H88.5129V41.4515ZM92.8457 5.54834V41.4515H96V5.54834H92.8457ZM80.0318 41.4515H81.5458V5.54834H80.0318V41.4515ZM83.7153 41.4515H85.2294V5.54834H83.7153V41.4515Z" fill="#030104"/>
</g>
<g clip-path="url(#clip2_3160_3187)">
<path d="M98 5.54834H100.76V41.4515H98V5.54834ZM102.45 41.4515H104.004V5.54834H102.45V41.4515ZM105.124 41.4515H106.675V5.54834H105.124V41.4515ZM108.715 41.4515H112.113V5.54834H108.715V41.4515ZM114.833 41.4515H116.532V5.54834H114.833V41.4515ZM119.166 41.4515H126.207V5.54834H119.166V41.4515ZM137.513 41.4515H139.827V5.54834H137.513V41.4515ZM141.846 5.54834V41.4515H145V5.54834H141.846ZM129.032 41.4515H130.546V5.54834H129.032V41.4515ZM132.715 41.4515H134.229V5.54834H132.715V41.4515Z" fill="#030104"/>
</g>
<defs>
<clipPath id="clip0_3160_3187">
<rect width="47" height="47" fill="white"/>
</clipPath>
<clipPath id="clip1_3160_3187">
<rect width="47" height="47" fill="white" transform="translate(49)"/>
</clipPath>
<clipPath id="clip2_3160_3187">
<rect width="47" height="47" fill="white" transform="translate(98)"/>
</clipPath>
</defs>
</svg>
