<svg width="142" height="38" viewBox="0 0 142 38" fill="none" xmlns="http://www.w3.org/2000/svg">
<path d="M18.1166 9.3428C18.1166 14.3456 14.0611 18.4011 9.05831 18.4011C4.05554 18.4011 0 14.3456 0 9.3428C0 4.34003 4.05554 0.284485 9.05831 0.284485C14.0611 0.284485 18.1166 4.34003 18.1166 9.3428Z" fill="#605DFF"/>
<path d="M19.3144 9.3428C19.3144 4.34004 23.37 0.284485 28.3727 0.284485C33.3755 0.284485 37.431 4.34003 37.431 9.3428C37.431 14.3456 33.3755 18.4011 28.3727 18.4011H19.3144V9.3428Z" fill="#605DFF"/>
<path d="M0 28.6572C0 23.6545 4.05554 19.5989 9.05831 19.5989H18.1166V28.6572C18.1166 33.66 14.0611 37.7155 9.05831 37.7155C4.05555 37.7155 0 33.66 0 28.6572Z" fill="#605DFF"/>
<path d="M37.431 28.6572C37.431 33.66 33.3755 37.7155 28.3727 37.7155C23.37 37.7155 19.3144 33.66 19.3144 28.6572C19.3144 23.6544 23.37 19.5989 28.3727 19.5989C33.3755 19.5989 37.431 23.6544 37.431 28.6572Z" fill="#605DFF"/>
<path d="M63.6637 10.4272H55.1569L57.3229 7.84201V32H51.9253V7.84201L54.1612 10.4272H45.602V6.23497H63.6637V10.4272ZM64.866 32V13.4492H70.2985V19.8424L69.1805 19.1437C69.3086 18.2703 69.5415 17.4668 69.8792 16.7331C70.217 15.9995 70.6537 15.3648 71.1893 14.8291C71.725 14.2818 72.3597 13.8568 73.0933 13.554C73.8386 13.2512 74.6887 13.0998 75.6436 13.0998C76.3889 13.0998 76.9712 13.158 77.3904 13.2745C77.8213 13.3793 78.0891 13.4608 78.1939 13.519L77.3031 18.3751C77.1983 18.3169 76.9654 18.2237 76.6044 18.0956C76.2434 17.9675 75.7775 17.9035 75.2069 17.9035C74.2753 17.9035 73.4951 18.0607 72.8662 18.3751C72.2374 18.6895 71.7308 19.1088 71.3465 19.6328C70.9739 20.1452 70.7061 20.7158 70.543 21.3446C70.38 21.9735 70.2985 22.6081 70.2985 23.2486V32H64.866ZM82.6725 24.3491V20.7682H94.9699L94.4458 21.6765C94.4458 21.5834 94.4458 21.496 94.4458 21.4145C94.4458 21.3213 94.4458 21.234 94.4458 21.1525C94.4458 20.4887 94.2886 19.854 93.9742 19.2485C93.6598 18.6313 93.1707 18.1306 92.5069 17.7463C91.8548 17.3503 91.0163 17.1524 89.9915 17.1524C88.9667 17.1524 88.0817 17.3736 87.3364 17.8161C86.6028 18.247 86.038 18.87 85.642 19.6852C85.2577 20.5004 85.0656 21.4844 85.0656 22.6372C85.0656 23.8251 85.2519 24.844 85.6246 25.6941C86.0089 26.5326 86.5737 27.1789 87.319 27.633C88.0759 28.0872 89.0133 28.3143 90.1313 28.3143C90.8533 28.3143 91.4763 28.2502 92.0003 28.1221C92.5244 27.9824 92.9494 27.8077 93.2755 27.5981C93.6132 27.3885 93.8694 27.1556 94.0441 26.8994C94.2187 26.6432 94.3235 26.3928 94.3585 26.1483H99.7036C99.6338 26.9285 99.3659 27.6971 98.9001 28.454C98.4343 29.1993 97.788 29.8747 96.9612 30.4803C96.1344 31.0742 95.1271 31.5458 93.9393 31.8952C92.7631 32.2445 91.4181 32.4192 89.9042 32.4192C87.8546 32.4192 86.0671 32.0116 84.5416 31.1965C83.016 30.3697 81.8341 29.2343 80.9956 27.7903C80.1571 26.3346 79.7379 24.6577 79.7379 22.7595C79.7379 20.8381 80.163 19.1553 81.0131 17.7113C81.8748 16.2557 83.0684 15.1261 84.594 14.3226C86.1311 13.5074 87.907 13.0998 89.9217 13.0998C91.9829 13.0998 93.7646 13.5132 95.2668 14.34C96.769 15.1552 97.9277 16.3023 98.7429 17.7812C99.5581 19.2485 99.9657 20.9603 99.9657 22.9167C99.9657 23.2079 99.9598 23.4873 99.9482 23.7552C99.9365 24.023 99.9191 24.221 99.8958 24.3491H82.6725ZM107.504 27.7553H117.565V32H101.704V27.9824L111.521 17.4842L111.643 17.6764H102.054V13.4492H117.355V17.4668L107.626 27.93L107.504 27.7553ZM129.565 32.4018C127.562 32.4018 125.797 31.9884 124.272 31.1615C122.746 30.3347 121.553 29.1993 120.691 27.7553C119.841 26.2997 119.416 24.6228 119.416 22.7246C119.416 20.8381 119.841 19.1728 120.691 17.7288C121.553 16.2731 122.746 15.1436 124.272 14.34C125.797 13.5249 127.562 13.1173 129.565 13.1173C131.568 13.1173 133.332 13.5249 134.857 14.34C136.383 15.1436 137.571 16.2731 138.421 17.7288C139.283 19.1728 139.713 20.8381 139.713 22.7246C139.713 24.6228 139.283 26.2997 138.421 27.7553C137.571 29.1993 136.383 30.3347 134.857 31.1615C133.332 31.9884 131.568 32.4018 129.565 32.4018ZM129.565 28.1047C130.508 28.1047 131.329 27.8834 132.028 27.4409C132.726 26.9984 133.268 26.3754 133.652 25.5718C134.036 24.7567 134.229 23.8076 134.229 22.7246C134.229 21.6416 134.036 20.7041 133.652 19.9123C133.268 19.1088 132.726 18.4916 132.028 18.0607C131.329 17.6298 130.508 17.4144 129.565 17.4144C128.633 17.4144 127.812 17.6298 127.102 18.0607C126.403 18.4916 125.861 19.1088 125.477 19.9123C125.093 20.7041 124.901 21.6416 124.901 22.7246C124.901 23.8076 125.093 24.7567 125.477 25.5718C125.861 26.3754 126.403 26.9984 127.102 27.4409C127.812 27.8834 128.633 28.1047 129.565 28.1047Z" fill="#23272E"/>
</svg>
