<svg width="77" height="38" viewBox="0 0 77 38" fill="none" xmlns="http://www.w3.org/2000/svg">
<path d="M5.92 35.56C5.22667 35.56 4.62667 35.16 4.12 34.36C3.61333 33.5867 3.25333 32.32 3.04 30.56C3.01333 30.4267 3 30.2667 3 30.08C3 29.8667 3 29.6533 3 29.44C3 28.56 3.05333 27.4533 3.16 26.12C3.26667 24.76 3.4 23.2667 3.56 21.64C3.72 20.0133 3.86667 18.3467 4 16.64C4.16 14.9067 4.29333 13.2133 4.4 11.56C4.50667 9.90667 4.56 8.4 4.56 7.04C4.56 5.36 4.45333 4 4.24 2.96C4.02667 1.92 3.64 1.4 3.08 1.4C2.73333 1.4 2.38667 1.6 2.04 2C1.72 2.37333 1.42667 2.8 1.16 3.28C0.92 3.73333 0.72 4.10666 0.56 4.4C0.426667 4.66667 0.346667 4.70667 0.32 4.52C0.293333 4.41333 0.266667 4.32 0.24 4.24C0.24 4.13333 0.24 4.02667 0.24 3.92C0.24 3.41333 0.36 2.88 0.6 2.32C0.84 1.76 1.17333 1.29333 1.6 0.919999C2.02667 0.519999 2.50667 0.319999 3.04 0.319999C3.14667 0.319999 3.24 0.333332 3.32 0.359999C3.4 0.359999 3.48 0.373332 3.56 0.399998C4.6 0.666665 5.30667 1.52 5.68 2.96C6.05333 4.4 6.24 6.14667 6.24 8.2C6.24 9.74667 6.16 11.3867 6 13.12C5.86667 14.8533 5.70667 16.6 5.52 18.36C5.36 20.0933 5.2 21.7467 5.04 23.32C4.90667 24.8933 4.84 26.28 4.84 27.48C4.84 27.8267 4.84 28.16 4.84 28.48C4.86667 28.7733 4.89333 29.0533 4.92 29.32C5.13333 31 5.42667 32.1733 5.8 32.84C6.17333 33.5333 6.6 33.88 7.08 33.88C7.61333 33.88 8.16 33.5867 8.72 33C9.30667 32.4133 9.88 31.68 10.44 30.8C11 29.92 11.5067 29.04 11.96 28.16C12.5733 27.0133 13.1333 25.6667 13.64 24.12C14.1467 22.5733 14.6 21 15 19.4C15.4267 17.8 15.76 16.3333 16 15C15.7333 14.5467 15.5733 14.08 15.52 13.6C15.4667 13.12 15.44 12.5067 15.44 11.76C15.44 10.96 15.5867 10.3333 15.88 9.88C16.1733 9.42667 16.48 9.2 16.8 9.2C17.28 9.2 17.6 9.6 17.76 10.4C18.0533 11.7333 18.3467 13.1467 18.64 14.64C18.9333 16.1067 19.2533 17.5467 19.6 18.96C19.9733 20.3733 20.4 21.68 20.88 22.88C21.8667 25.2533 22.7733 26.96 23.6 28C24.4267 29.0133 25.1867 29.52 25.88 29.52C26.6 29.52 27.2267 29.0667 27.76 28.16C28.32 27.2267 28.7867 26.0133 29.16 24.52C29.5333 23 29.8133 21.36 30 19.6C30.1867 17.8133 30.28 16.0667 30.28 14.36C30.28 12.9467 30.2133 11.6267 30.08 10.4C29.9733 9.17333 29.7733 8.17333 29.48 7.4C29.3733 7.08 29.2933 6.74667 29.24 6.4C29.1867 6.05333 29.16 5.73333 29.16 5.44C29.16 5.06666 29.2 4.74666 29.28 4.48C29.3867 4.21333 29.5333 4.08 29.72 4.08C29.9333 4.08 30.1467 4.24 30.36 4.56C30.6533 4.93333 30.92 5.45333 31.16 6.12C31.4267 6.76 31.6533 7.32 31.84 7.8C32.0533 8.33333 32.3333 8.98667 32.68 9.76C33.0267 10.5067 33.3867 11.2 33.76 11.84C34.16 12.4533 34.5467 12.8267 34.92 12.96C34.9733 12.9867 35 13.04 35 13.12C35 13.28 34.88 13.4133 34.64 13.52C34.4 13.6267 34.2267 13.6667 34.12 13.64C33.5067 13.3467 32.9867 13.04 32.56 12.72C32.16 12.3733 31.6933 11.7467 31.16 10.84C31.1867 11.32 31.2 11.8133 31.2 12.32C31.2 12.8 31.2 13.28 31.2 13.76C31.2 15.1467 31.1467 16.5333 31.04 17.92C30.96 19.3067 30.7867 20.7067 30.52 22.12C29.9333 25.1867 29.1867 27.3733 28.28 28.68C27.4 29.9867 26.4667 30.64 25.48 30.64C24.68 30.64 23.88 30.2933 23.08 29.6C22.3067 28.88 21.5867 27.9333 20.92 26.76C20.2533 25.5867 19.68 24.28 19.2 22.84C18.7733 21.4533 18.4133 20.1867 18.12 19.04C17.8267 17.8667 17.6 16.84 17.44 15.96C17.0133 17.88 16.4533 19.7867 15.76 21.68C15.0933 23.5733 14.3467 25.36 13.52 27.04C12.6933 28.6933 11.8267 30.16 10.92 31.44C10.04 32.72 9.16 33.72 8.28 34.44C7.42667 35.1867 6.64 35.56 5.92 35.56ZM34.6275 30.68C34.1475 30.68 33.8008 30.48 33.5875 30.08C33.3742 29.6533 33.2675 29.16 33.2675 28.6C33.2675 27.88 33.3875 27.04 33.6275 26.08C33.8942 25.12 34.2408 24.1333 34.6675 23.12C35.0942 22.08 35.5742 21.1333 36.1075 20.28C36.6675 19.4 37.2542 18.6933 37.8675 18.16C38.4808 17.6 39.0808 17.32 39.6675 17.32C40.2008 17.32 40.6542 17.56 41.0275 18.04C41.4275 18.4933 41.6275 19.0133 41.6275 19.6C41.6275 19.9467 41.5742 20.24 41.4675 20.48C41.3608 20.6933 41.2408 20.8 41.1075 20.8C41.0008 20.8 40.9075 20.72 40.8275 20.56C40.5608 19.9467 40.2675 19.5067 39.9475 19.24C39.6542 18.9733 39.3475 18.84 39.0275 18.84C38.4942 18.84 37.9608 19.1467 37.4275 19.76C36.9208 20.3467 36.5075 21.0267 36.1875 21.8C35.9208 22.3867 35.6675 23.0933 35.4275 23.92C35.2142 24.72 35.0275 25.52 34.8675 26.32C34.7342 27.0933 34.6675 27.7333 34.6675 28.24C34.6675 29.1467 34.8808 29.6 35.3075 29.6C35.8408 29.6 36.5208 29.0133 37.3475 27.84C37.9608 26.9867 38.5075 26 38.9875 24.88C39.4942 23.76 39.9208 22.7867 40.2675 21.96C40.4008 21.6933 40.5475 21.52 40.7075 21.44C40.8675 21.36 41.0142 21.32 41.1475 21.32C41.4675 21.32 41.6675 21.4533 41.7475 21.72C41.8542 21.9867 41.9075 22.2133 41.9075 22.4C41.9075 23.0933 41.8408 23.72 41.7075 24.28C41.5742 24.8133 41.5075 25.4667 41.5075 26.24C41.5075 26.8 41.5475 27.32 41.6275 27.8C41.7342 28.2533 41.9075 28.48 42.1475 28.48C42.4408 28.48 42.8142 28.1067 43.2675 27.36C43.3742 27.1467 43.5342 27.04 43.7475 27.04C43.9875 27.04 44.1075 27.16 44.1075 27.4C44.1075 27.7467 43.8675 28.12 43.3875 28.52C42.9075 28.8933 42.4275 29.08 41.9475 29.08C41.3075 29.08 40.8542 28.8133 40.5875 28.28C40.1342 27.4 39.9075 26.6133 39.9075 25.92C39.9075 25.2 39.8942 24.7067 39.8675 24.44C39.7342 24.76 39.4808 25.2667 39.1075 25.96C38.7342 26.6267 38.2942 27.3333 37.7875 28.08C37.2808 28.8 36.7475 29.4133 36.1875 29.92C35.6275 30.4267 35.1075 30.68 34.6275 30.68ZM49.8553 37.36C49.5086 37.36 49.1753 37.2267 48.8553 36.96C48.562 36.6933 48.3086 36.4267 48.0953 36.16C47.242 35.1733 46.522 33.8667 45.9353 32.24C45.3753 30.6133 44.9486 28.8267 44.6553 26.88C44.362 24.9067 44.2153 22.9067 44.2153 20.88C44.2153 18.9867 44.3353 17.1467 44.5753 15.36C44.842 13.5733 45.242 11.9467 45.7753 10.48C46.3086 9.01333 46.9753 7.84 47.7753 6.96C48.8153 5.78667 49.8153 5.2 50.7753 5.2C51.362 5.2 51.8286 5.46667 52.1753 6C52.5486 6.50667 52.7353 7.32 52.7353 8.44C52.7353 9.50667 52.522 10.8667 52.0953 12.52C51.6953 14.1467 51.002 16.0933 50.0153 18.36C49.6686 19.1067 49.2953 19.8533 48.8953 20.6C48.522 21.3467 48.122 22.1333 47.6953 22.96C47.5353 23.28 47.402 23.44 47.2953 23.44C47.242 23.44 47.2153 23.3867 47.2153 23.28C47.2153 23.0667 47.3086 22.7867 47.4953 22.44C49.922 17.88 51.1353 13.3467 51.1353 8.84C51.1353 7.05333 50.762 6.16 50.0153 6.16C49.482 6.16 48.8553 6.68 48.1353 7.72C47.1486 9.18667 46.4686 10.9333 46.0953 12.96C45.722 14.96 45.5353 16.9867 45.5353 19.04C45.5353 20.5867 45.602 22.0933 45.7353 23.56C45.8686 25 46.0286 26.3067 46.2153 27.48C46.2953 27.9867 46.4153 28.6667 46.5753 29.52C46.7353 30.3733 46.9486 31.2667 47.2153 32.2C47.482 33.16 47.7753 34.0267 48.0953 34.8C48.442 35.6 48.8153 36.1733 49.2153 36.52C49.322 36.6 49.4286 36.68 49.5353 36.76C49.6686 36.8667 49.8153 36.9333 49.9753 36.96C50.2153 36.96 50.3353 37.0267 50.3353 37.16C50.3353 37.2933 50.1753 37.36 49.8553 37.36ZM53.9341 37.4C53.6674 37.4 53.3874 37.2267 53.0941 36.88C52.8274 36.56 52.5741 36.1067 52.3341 35.52C51.9341 34.56 51.6541 33.5467 51.4941 32.48C51.3341 31.44 51.2541 30.3867 51.2541 29.32C51.2541 28.1467 51.3341 27 51.4941 25.88C51.6541 24.76 51.8274 23.7467 52.0141 22.84C52.1474 22.2 52.3074 21.52 52.4941 20.8C52.6807 20.08 52.8541 19.5067 53.0141 19.08C52.8541 19.1067 52.6007 19.2 52.2541 19.36C51.9074 19.52 51.5474 19.68 51.1741 19.84C50.8274 20 50.5207 20.08 50.2541 20.08C49.8541 20.08 49.6541 19.8533 49.6541 19.4C49.6541 19.16 49.7341 18.9467 49.8941 18.76C50.0807 18.5733 50.3074 18.4267 50.5741 18.32C51.1074 18.08 51.6941 17.9067 52.3341 17.8C52.9741 17.6667 53.4007 17.5333 53.6141 17.4L54.6541 14.76C54.7607 14.4933 54.9474 14.0667 55.2141 13.48C55.5074 12.8667 55.8407 12.2133 56.2141 11.52C56.6141 10.8267 57.0007 10.2 57.3741 9.64C57.6674 9.21333 57.9474 8.88 58.2141 8.64C58.4807 8.37333 58.7741 8.24 59.0941 8.24C59.5741 8.24 59.8141 8.42667 59.8141 8.8C59.8141 9.01333 59.7207 9.33333 59.5341 9.76C59.3741 10.1867 59.0674 10.7467 58.6141 11.44C58.1074 12.24 57.5874 13.04 57.0541 13.84C56.5474 14.6133 56.1074 15.4267 55.7341 16.28C55.7074 16.3867 55.6407 16.56 55.5341 16.8C55.4541 17.0133 55.3874 17.1467 55.3341 17.2L56.1341 17.08C56.3474 17.0533 56.5874 17.04 56.8541 17.04C57.1207 17.0133 57.4141 17 57.7341 17C58.1874 17 58.6141 17.0267 59.0141 17.08C59.4407 17.1067 59.7874 17.1733 60.0541 17.28C60.1874 17.3333 60.3074 17.4 60.4141 17.48C60.5474 17.5333 60.6141 17.5867 60.6141 17.64C60.6141 17.7467 60.2674 17.8 59.5741 17.8C59.1741 17.8 58.6007 17.8667 57.8541 18C57.1341 18.1333 56.3074 18.3467 55.3741 18.64C54.9207 18.7733 54.6141 18.96 54.4541 19.2C54.2941 19.44 54.0807 20.0133 53.8141 20.92C53.4141 22.36 53.0941 23.7467 52.8541 25.08C52.6141 26.3867 52.4274 27.72 52.2941 29.08C52.2674 29.3467 52.2407 29.6267 52.2141 29.92C52.2141 30.2133 52.2141 30.5333 52.2141 30.88C52.2141 31.7867 52.2941 32.7333 52.4541 33.72C52.6407 34.7067 52.9074 35.56 53.2541 36.28C53.3341 36.44 53.4141 36.5867 53.4941 36.72C53.6007 36.8533 53.7207 36.9467 53.8541 37C54.0407 37.08 54.1341 37.1733 54.1341 37.28C54.1341 37.36 54.0674 37.4 53.9341 37.4ZM60.7328 31.52C59.7728 31.52 58.9328 30.96 58.2128 29.84C57.5195 28.6933 57.1728 26.8933 57.1728 24.44C57.1728 22.84 57.3728 21.56 57.7728 20.6C58.1728 19.6133 58.6661 18.8933 59.2528 18.44C59.8395 17.9867 60.3995 17.76 60.9328 17.76C61.4661 17.76 61.9195 17.9467 62.2928 18.32C62.6661 18.6667 62.8528 19.1733 62.8528 19.84C62.8528 20.48 62.6661 21.16 62.2928 21.88C61.9195 22.5733 61.4661 23.2133 60.9328 23.8C60.4261 24.36 59.9195 24.7333 59.4128 24.92C59.3061 24.9733 59.1728 25 59.0128 25C58.9061 25 58.8528 24.96 58.8528 24.88C58.8528 24.6667 59.0661 24.4267 59.4928 24.16C60.0261 23.7867 60.5328 23.2267 61.0128 22.48C61.4928 21.7067 61.7328 21.0267 61.7328 20.44C61.7328 20.0933 61.6528 19.8267 61.4928 19.64C61.3328 19.4267 61.1461 19.32 60.9328 19.32C60.5328 19.32 60.0928 19.64 59.6128 20.28C59.1595 20.8933 58.8261 21.96 58.6128 23.48C58.5595 23.9067 58.5061 24.32 58.4528 24.72C58.4261 25.0933 58.4128 25.4667 58.4128 25.84C58.4128 27.3333 58.6395 28.5067 59.0928 29.36C59.5461 30.1867 60.1461 30.6 60.8928 30.6C61.5328 30.6 62.2528 30.2267 63.0528 29.48C63.8528 28.7067 64.6395 27.5067 65.4128 25.88C65.5995 25.4533 65.8128 25.24 66.0528 25.24C66.2128 25.24 66.2928 25.3467 66.2928 25.56C66.2928 25.7467 66.2395 25.9467 66.1328 26.16C65.4395 27.8667 64.5995 29.1867 63.6128 30.12C62.6261 31.0533 61.6661 31.52 60.7328 31.52ZM70.4225 33C69.5692 33 68.9158 32.6 68.4625 31.8C68.0092 31.0267 67.7825 30.1733 67.7825 29.24C67.7825 28.36 67.9292 27.44 68.2225 26.48C68.5158 25.52 68.8758 24.5733 69.3025 23.64C69.7558 22.7067 70.2225 21.8533 70.7025 21.08C70.2225 21.2667 69.7692 21.36 69.3425 21.36C69.1292 21.36 68.9425 21.3333 68.7825 21.28C68.6225 21.2267 68.4892 21.1867 68.3825 21.16C68.2492 21.48 68.0092 22.0133 67.6625 22.76C67.3425 23.5067 66.9958 24.2933 66.6225 25.12C66.2758 25.92 65.9692 26.6 65.7025 27.16C65.2758 28.0667 64.9025 28.52 64.5825 28.52C64.4225 28.52 64.3425 28.4133 64.3425 28.2C64.3425 28.04 64.4092 27.8267 64.5425 27.56C65.1558 26.4133 65.7292 25.28 66.2625 24.16C66.8225 23.04 67.3292 21.96 67.7825 20.92C67.7292 20.7867 67.6758 20.6133 67.6225 20.4C67.5692 20.16 67.5425 19.9067 67.5425 19.64C67.5425 19.3467 67.5692 19.04 67.6225 18.72C67.7025 18.3733 67.8092 18.04 67.9425 17.72C68.0225 17.5333 68.1692 17.2667 68.3825 16.92C68.5958 16.5467 68.8358 16.2133 69.1025 15.92C69.3692 15.6 69.6225 15.44 69.8625 15.44C70.3158 15.44 70.5425 15.68 70.5425 16.16C70.5425 16.6133 70.3958 17.1333 70.1025 17.72C69.8358 18.3067 69.5558 18.8533 69.2625 19.36C68.9692 19.84 68.8225 20.2 68.8225 20.44C68.8225 20.6533 68.9292 20.76 69.1425 20.76C69.4358 20.76 69.7958 20.6133 70.2225 20.32C70.6758 20 71.0358 19.7067 71.3025 19.44C71.4358 19.3067 71.6492 19.1067 71.9425 18.84C72.2358 18.5467 72.5158 18.4 72.7825 18.4C73.0492 18.4 73.2225 18.48 73.3025 18.64C73.4092 18.8 73.4625 18.9867 73.4625 19.2C73.4625 19.44 73.3558 19.7467 73.1425 20.12C72.9292 20.4667 72.6758 20.8133 72.3825 21.16C72.1158 21.5067 71.8892 21.8 71.7025 22.04C71.3292 22.6 70.9025 23.3067 70.4225 24.16C69.9425 25.0133 69.5292 25.9333 69.1825 26.92C68.8358 27.88 68.6625 28.8 68.6625 29.68C68.6625 30.2667 68.8092 30.88 69.1025 31.52C69.3958 32.16 69.7958 32.48 70.3025 32.48C70.7558 32.48 71.2358 32.24 71.7425 31.76C72.2758 31.28 72.7692 30.7067 73.2225 30.04C73.7025 29.3733 74.1158 28.7333 74.4625 28.12C74.8358 27.5067 75.0892 27.08 75.2225 26.84C75.2758 26.7067 75.3692 26.5467 75.5025 26.36C75.6358 26.1467 75.7958 26.04 75.9825 26.04C76.1425 26.04 76.2225 26.12 76.2225 26.28C76.2225 26.4133 76.1825 26.5733 76.1025 26.76C76.0492 26.92 75.9958 27.0667 75.9425 27.2C75.7025 27.76 75.4092 28.3467 75.0625 28.96C74.7158 29.5733 74.4758 29.9867 74.3425 30.2C73.9692 30.8133 73.4092 31.4267 72.6625 32.04C71.9425 32.68 71.1958 33 70.4225 33Z" fill="#23272E"/>
</svg>
