<svg width="142" height="39" viewBox="0 0 142 39" fill="none" xmlns="http://www.w3.org/2000/svg">
<path d="M18.1166 9.8428C18.1166 14.8456 14.0611 18.9011 9.05831 18.9011C4.05554 18.9011 0 14.8456 0 9.8428C0 4.84003 4.05554 0.784485 9.05831 0.784485C14.0611 0.784485 18.1166 4.84003 18.1166 9.8428Z" fill="#605DFF"/>
<path d="M19.3144 9.8428C19.3144 4.84004 23.37 0.784485 28.3727 0.784485C33.3755 0.784485 37.431 4.84003 37.431 9.8428C37.431 14.8456 33.3755 18.9011 28.3727 18.9011H19.3144V9.8428Z" fill="#605DFF"/>
<path d="M0 29.1572C0 24.1545 4.05554 20.0989 9.05831 20.0989H18.1166V29.1572C18.1166 34.16 14.0611 38.2155 9.05831 38.2155C4.05555 38.2155 0 34.16 0 29.1572Z" fill="#605DFF"/>
<path d="M37.431 29.1572C37.431 34.16 33.3755 38.2155 28.3727 38.2155C23.37 38.2155 19.3144 34.16 19.3144 29.1572C19.3144 24.1544 23.37 20.0989 28.3727 20.0989C33.3755 20.0989 37.431 24.1544 37.431 29.1572Z" fill="#605DFF"/>
<path d="M63.6637 10.9272H55.1569L57.3229 8.34201V32.5H51.9253V8.34201L54.1612 10.9272H45.602V6.73497H63.6637V10.9272ZM64.866 32.5V13.9492H70.2985V20.3424L69.1805 19.6437C69.3086 18.7703 69.5415 17.9668 69.8792 17.2331C70.217 16.4995 70.6537 15.8648 71.1893 15.3291C71.725 14.7818 72.3597 14.3568 73.0933 14.054C73.8386 13.7512 74.6887 13.5998 75.6436 13.5998C76.3889 13.5998 76.9712 13.658 77.3904 13.7745C77.8213 13.8793 78.0891 13.9608 78.1939 14.019L77.3031 18.8751C77.1983 18.8169 76.9654 18.7237 76.6044 18.5956C76.2434 18.4675 75.7775 18.4035 75.2069 18.4035C74.2753 18.4035 73.4951 18.5607 72.8662 18.8751C72.2374 19.1895 71.7308 19.6088 71.3465 20.1328C70.9739 20.6452 70.7061 21.2158 70.543 21.8446C70.38 22.4735 70.2985 23.1081 70.2985 23.7486V32.5H64.866ZM82.6725 24.8491V21.2682H94.9699L94.4458 22.1765C94.4458 22.0834 94.4458 21.996 94.4458 21.9145C94.4458 21.8213 94.4458 21.734 94.4458 21.6525C94.4458 20.9887 94.2886 20.354 93.9742 19.7485C93.6598 19.1313 93.1707 18.6306 92.5069 18.2463C91.8548 17.8503 91.0163 17.6524 89.9915 17.6524C88.9667 17.6524 88.0817 17.8736 87.3364 18.3161C86.6028 18.747 86.038 19.37 85.642 20.1852C85.2577 21.0004 85.0656 21.9844 85.0656 23.1372C85.0656 24.3251 85.2519 25.344 85.6246 26.1941C86.0089 27.0326 86.5737 27.6789 87.319 28.133C88.0759 28.5872 89.0133 28.8143 90.1313 28.8143C90.8533 28.8143 91.4763 28.7502 92.0003 28.6221C92.5244 28.4824 92.9494 28.3077 93.2755 28.0981C93.6132 27.8885 93.8694 27.6556 94.0441 27.3994C94.2187 27.1432 94.3235 26.8928 94.3585 26.6483H99.7036C99.6338 27.4285 99.3659 28.1971 98.9001 28.954C98.4343 29.6993 97.788 30.3747 96.9612 30.9803C96.1344 31.5742 95.1271 32.0458 93.9393 32.3952C92.7631 32.7445 91.4181 32.9192 89.9042 32.9192C87.8546 32.9192 86.0671 32.5116 84.5416 31.6965C83.016 30.8697 81.8341 29.7343 80.9956 28.2903C80.1571 26.8346 79.7379 25.1577 79.7379 23.2595C79.7379 21.3381 80.163 19.6553 81.0131 18.2113C81.8748 16.7557 83.0684 15.6261 84.594 14.8226C86.1311 14.0074 87.907 13.5998 89.9217 13.5998C91.9829 13.5998 93.7646 14.0132 95.2668 14.84C96.769 15.6552 97.9277 16.8023 98.7429 18.2812C99.5581 19.7485 99.9657 21.4603 99.9657 23.4167C99.9657 23.7079 99.9598 23.9873 99.9482 24.2552C99.9365 24.523 99.9191 24.721 99.8958 24.8491H82.6725ZM107.504 28.2553H117.565V32.5H101.704V28.4824L111.521 17.9842L111.643 18.1764H102.054V13.9492H117.355V17.9668L107.626 28.43L107.504 28.2553ZM129.565 32.9018C127.562 32.9018 125.797 32.4884 124.272 31.6615C122.746 30.8347 121.553 29.6993 120.691 28.2553C119.841 26.7997 119.416 25.1228 119.416 23.2246C119.416 21.3381 119.841 19.6728 120.691 18.2288C121.553 16.7731 122.746 15.6436 124.272 14.84C125.797 14.0249 127.562 13.6173 129.565 13.6173C131.568 13.6173 133.332 14.0249 134.857 14.84C136.383 15.6436 137.571 16.7731 138.421 18.2288C139.283 19.6728 139.713 21.3381 139.713 23.2246C139.713 25.1228 139.283 26.7997 138.421 28.2553C137.571 29.6993 136.383 30.8347 134.857 31.6615C133.332 32.4884 131.568 32.9018 129.565 32.9018ZM129.565 28.6047C130.508 28.6047 131.329 28.3834 132.028 27.9409C132.726 27.4984 133.268 26.8754 133.652 26.0718C134.036 25.2567 134.229 24.3076 134.229 23.2246C134.229 22.1416 134.036 21.2041 133.652 20.4123C133.268 19.6088 132.726 18.9916 132.028 18.5607C131.329 18.1298 130.508 17.9144 129.565 17.9144C128.633 17.9144 127.812 18.1298 127.102 18.5607C126.403 18.9916 125.861 19.6088 125.477 20.4123C125.093 21.2041 124.901 22.1416 124.901 23.2246C124.901 24.3076 125.093 25.2567 125.477 26.0718C125.861 26.8754 126.403 27.4984 127.102 27.9409C127.812 28.3834 128.633 28.6047 129.565 28.6047Z" fill="white"/>
</svg>
