<svg width="155" height="44" viewBox="0 0 155 44" fill="none" xmlns="http://www.w3.org/2000/svg">
<path d="M16.9325 43.3855C14.0256 41.2231 11.4147 38.6969 9.17187 35.8764L8.97443 35.6275L17.1394 27.7233L25.3302 35.6464L25.1312 35.896C22.8852 38.7079 20.2695 41.2279 17.3565 43.3855L17.1441 43.5428L16.9325 43.3855Z" fill="white"/>
<path d="M17.1394 27.2321L16.6453 27.7095L8.95631 35.1528L8.49847 35.5957L8.89495 36.095C11.1559 38.9398 13.7896 41.4872 16.7208 43.6675L17.1441 43.9829L17.5681 43.6691C20.5063 41.4919 23.1433 38.95 25.4081 36.1162L25.8069 35.6161L25.3475 35.1716L17.6334 27.7095L17.1394 27.2321ZM17.1394 28.2151L24.8534 35.6772C22.6153 38.4788 20.0193 40.973 17.1448 43.1033C14.2396 40.9425 11.6585 38.435 9.45027 35.6575L17.1394 28.2151Z" fill="white"/>
<path d="M17.1477 20.0247L5.77702 30.8903L5.55283 30.4928C3.51454 26.8842 2.05287 23.0267 1.20959 19.0299L1.1199 18.6057H33.1834L32.9835 19.5809C32.1142 23.4289 30.6959 27.1079 28.7646 30.524L28.5404 30.9207L17.1477 20.0247Z" fill="white"/>
<path d="M33.6189 18.2534H0.683792L0.863173 19.1025C1.71438 23.1345 3.18783 27.024 5.24418 30.6663L5.69181 31.4591L6.35184 30.8282L17.1474 20.5136L27.9651 30.8588L28.625 31.4888L29.0727 30.696C31.0213 27.2518 32.4523 23.5399 33.3279 19.6629L33.3868 19.3678L33.4403 19.1017L33.6189 18.2534ZM32.7472 18.9578C32.7087 19.1425 32.6756 19.324 32.6363 19.5087C31.7592 23.3936 30.3345 27.0287 28.4559 30.3509L17.1474 19.5361L5.86175 30.3203C3.86359 26.7837 2.40033 22.9576 1.55623 18.9577L32.7472 18.9578Z" fill="white"/>
<path d="M17.1408 28.7061L9.41712 36.1823L9.17327 35.8763C7.82018 34.1742 6.59925 32.3632 5.54591 30.4928L5.41217 30.2541L17.1407 19.0472L28.8914 30.2862L28.7577 30.5225C27.6964 32.4031 26.477 34.2109 25.1318 35.8959L24.8887 36.2011L17.1408 28.7061Z" fill="white"/>
<path d="M17.1408 18.559L16.6507 19.0277L5.36419 29.8128L4.9693 30.19L5.23679 30.6651C6.29957 32.5504 7.5307 34.3777 8.89634 36.0956L9.38333 36.7075L9.94582 36.1628L17.1407 29.1977L24.3608 36.1824L24.9225 36.7256L25.4095 36.1143C26.7657 34.4153 27.9961 32.591 29.0668 30.6964L29.335 30.2198L28.9401 29.8433L17.6316 19.0285L17.1408 18.559ZM17.1408 19.5365L28.4493 30.3512C27.3952 32.2186 26.1933 33.9994 24.855 35.6769L17.1407 28.2147L9.45179 35.6581C8.10967 33.9708 6.90604 32.1865 5.85429 30.3208L17.1408 19.5365Z" fill="white"/>
<path d="M17.1408 28.7061L9.41712 36.1823L9.17327 35.8763C7.82018 34.1742 6.59925 32.3632 5.54591 30.4928L5.41217 30.2541L17.1407 19.0472L28.8914 30.2862L28.7577 30.5225C27.6964 32.4031 26.477 34.2109 25.1318 35.8959L24.8887 36.2011L17.1408 28.7061Z" fill="white"/>
<path d="M17.1408 18.559L16.6507 19.0277L5.36419 29.8128L4.9693 30.19L5.23679 30.6651C6.29957 32.5504 7.5307 34.3777 8.89634 36.0956L9.38333 36.7075L9.94582 36.1628L17.1407 29.1977L24.3608 36.1824L24.9225 36.7256L25.4095 36.1143C26.7657 34.4153 27.9961 32.591 29.0668 30.6964L29.335 30.2198L28.9401 29.8433L17.6316 19.0285L17.1408 18.559ZM17.1408 19.5365L28.4493 30.3512C27.3952 32.2186 26.1933 33.9994 24.855 35.6769L17.1407 28.2147L9.45179 35.6581C8.10967 33.9708 6.90604 32.1865 5.85429 30.3208L17.1408 19.5365Z" fill="white"/>
<path d="M1.26087 19.3193L1.20186 19.0391C0.398637 15.2208 0.164238 11.3148 0.507216 7.42988L0.544994 6.99794L0.962704 7.12393C2.28429 7.52308 3.66026 7.72574 5.05189 7.72574C9.88287 7.72574 14.4039 5.21828 16.8513 1.18238L17.1541 0.681519L17.4577 1.18238C19.9013 5.21828 24.4215 7.72574 29.2533 7.72574C30.6488 7.72574 32.0255 7.52226 33.348 7.12153L33.7664 6.99479L33.8034 7.42836C34.1385 11.2827 33.897 15.1886 33.0859 19.0391L33.0277 19.3192L1.26087 19.3193Z" fill="white"/>
<path d="M17.1539 0L16.5473 1.00015C14.1645 4.93118 9.75908 7.3737 5.05163 7.3737C3.70114 7.37419 2.35796 7.17641 1.06551 6.78676L0.230092 6.53554L0.154537 7.39949C-0.191639 11.3167 0.0445386 15.2633 0.855453 19.1119L0.973477 19.6715H33.3154L33.4326 19.1119C34.2508 15.2271 34.4938 11.2859 34.1564 7.39797L34.0808 6.53082L33.2438 6.78437C31.956 7.17488 30.6132 7.3737 29.2538 7.3737C24.5447 7.3737 20.1409 4.93194 17.7604 1.00097L17.1539 0ZM17.1539 1.36487C19.5863 5.38034 24.0932 8.07804 29.2538 8.07804C30.717 8.07804 32.1251 7.8605 33.4507 7.45901C33.7771 11.2218 33.5561 15.0886 32.7395 18.9672H1.54864C0.752055 15.1864 0.51983 11.3095 0.859446 7.46135C2.18268 7.8605 3.59085 8.07804 5.0517 8.07804C10.2115 8.07804 14.7192 5.3804 17.1539 1.36487Z" fill="white"/>
<path d="M9.45026 35.6576C11.6585 38.4351 14.2395 40.9426 17.1447 43.1034C20.0193 40.9731 22.6153 38.4789 24.8534 35.6773L17.1392 28.2151L9.45026 35.6576Z" fill="#F46F1B"/>
<path d="M5.86158 30.3206L17.148 19.5364L28.4558 30.3511C30.3344 27.029 31.7598 23.3938 32.637 19.509C32.6755 19.3242 32.7086 19.1427 32.7471 18.958H1.55612C2.40023 22.9579 3.86424 26.7839 5.86158 30.3206Z" fill="#F46F1B"/>
<path d="M5.85468 30.3205C6.90649 32.1869 8.1093 33.9705 9.45135 35.6578L17.1411 28.2145L24.8545 35.6766C26.1929 33.9991 27.3948 32.2183 28.4489 30.351L17.1411 19.5363L5.85468 30.3205Z" fill="#F46F1B"/>
<path d="M17.1407 27.7235L9.48791 35.1316C8.30869 33.6212 7.23804 32.027 6.29797 30.3851L17.1407 20.025L28.0056 30.4156C27.0575 32.0671 25.9928 33.6496 24.8195 35.1512L17.1407 27.7235Z" fill="#231F20"/>
<path d="M17.1408 19.5361L5.85428 30.3203C6.90604 32.1868 8.10966 33.9704 9.45179 35.6577L17.1407 28.2152L24.8549 35.6773C26.1932 33.9996 27.3952 32.2185 28.4492 30.3509L17.1408 19.5361ZM17.1408 20.5136L27.5603 30.4785C26.7222 31.9165 25.7941 33.3007 24.7817 34.6231L17.6348 27.7096L17.1408 27.2323L16.6467 27.7096L9.52569 34.6036C8.50855 33.2724 7.57551 31.8801 6.7432 30.4487L17.1408 20.5136ZM33.4507 7.45852C32.1252 7.86083 30.717 8.07756 29.2538 8.07756C24.0932 8.07756 19.5863 5.38073 17.1539 1.36438C14.7191 5.38073 10.2115 8.07756 5.05163 8.07756C3.59079 8.07756 2.18262 7.86076 0.859384 7.46168C0.519772 11.3095 0.751996 15.1862 1.54857 18.9667H32.7396C33.5561 15.0889 33.7771 11.2213 33.4507 7.45852Z" fill="#231F20"/>
<path d="M24.8361 12.2046V10.8859H24.0258V9.95538L23.1761 9.71905H23.1148V8.92945C23.1148 8.92945 22.8221 9.27853 21.4769 9.27853C20.2041 9.27853 19.4575 8.86841 18.4443 8.86841C17.4704 8.86841 17.1722 9.42173 17.1722 9.42173V9.74105H17.1384V9.42173C17.1384 9.42173 16.834 8.86841 15.8656 8.86841C14.8531 8.86841 14.1057 9.28162 12.8337 9.28162C11.4885 9.28162 11.2564 8.93184 11.2564 8.93184V9.76293H11.2006L10.2794 9.95545V10.886H9.46593V12.2047H10.2794V14.338H9.46593V15.6591H10.2794V17.2994C10.2794 17.2994 11.6434 17.5115 12.9053 17.5115C14.3968 17.5115 15.2575 17.2971 16.2259 17.2775V17.693C16.2259 17.693 16.6161 17.8864 17.1361 17.8864C17.6615 17.8864 18.0792 17.693 18.0792 17.693V17.2775C19.0453 17.297 19.906 17.5114 21.4053 17.5114C22.6616 17.5114 24.0258 17.2994 24.0258 17.2994V15.6591H24.8361V14.338H24.0258V12.2046H24.8361Z" fill="white"/>
<path d="M23.8664 17.2142C23.5195 17.2635 22.4142 17.4067 21.386 17.4067C19.9118 17.4067 18.0938 17.1782 18.0756 17.1759L17.9167 17.1539V17.6352C17.7767 17.6877 17.4715 17.7816 17.1143 17.7816C16.7642 17.7816 16.4779 17.6876 16.3449 17.6384V17.1539L16.186 17.1759C16.168 17.1782 14.3491 17.4067 12.8835 17.4067C11.8523 17.4067 10.7462 17.2635 10.3992 17.2142V10.105C10.529 10.08 10.9153 9.99783 11.1033 9.95949V16.3987C11.1725 16.5474 11.4683 16.8887 12.8214 16.8887L14.534 16.6656L15.8431 16.4786C16.717 16.4786 16.9916 16.9411 17.0034 16.9599L17.0443 16.9379H17.2457L17.2843 16.9599C17.296 16.9411 17.5651 16.4786 18.4328 16.4786L19.7411 16.6633L21.4678 16.8886C22.839 16.8886 23.182 16.531 23.2158 16.4895L23.2425 9.92588C23.4219 9.97589 23.7515 10.0667 23.8664 10.0995V17.2142ZM11.3857 9.2356C11.6123 9.34828 12.019 9.46638 12.8214 9.46638L14.5466 9.24102L15.8541 9.05399C16.7131 9.05399 16.9868 9.51027 17.0026 9.53531V16.5607C16.7933 16.3878 16.4425 16.1976 15.8431 16.1976L14.4734 16.3901L12.8214 16.6077C11.6123 16.6077 11.3606 16.3189 11.3582 16.3166C11.3582 16.3166 11.3826 9.71451 11.3857 9.2356ZM17.2843 9.53531C17.296 9.51576 17.5651 9.05399 18.4328 9.05399L19.7411 9.23793L21.4678 9.46329C22.3041 9.46329 22.7296 9.33415 22.9656 9.22147V16.3878C22.9476 16.3518 22.6085 16.6077 21.4678 16.6077L19.8024 16.3878L18.4328 16.1976C17.8396 16.1976 17.4919 16.3878 17.2843 16.5584V9.53531ZM23.2441 9.63159L23.2481 8.62123L23.0018 8.88027C22.9986 8.8826 22.6966 9.18313 21.4678 9.18313L19.8024 8.96243L18.4328 8.77307C17.6815 8.77307 17.3071 9.07827 17.1434 9.26296C16.979 9.07827 16.6014 8.77301 15.8541 8.77301L14.486 8.96559L12.8214 9.18547C11.6123 9.18547 11.3606 8.89666 11.3582 8.89357L11.1072 8.58838L11.1033 8.97656V9.66993L10.1168 9.87651V17.4591L10.2364 17.4756C10.2497 17.4787 11.6249 17.69 12.8835 17.69C14.1249 17.69 15.5983 17.528 16.0633 17.4732V17.8168L16.1404 17.8583C16.1585 17.8669 16.5668 18.0649 17.1143 18.0649C17.665 18.0649 18.0993 17.8669 18.1173 17.8583L18.1991 17.8199V17.4732C18.6641 17.528 20.1376 17.69 21.386 17.69C22.6399 17.69 24.0166 17.4787 24.03 17.4756L24.1496 17.4592V9.88515L23.2441 9.63159Z" fill="#231F20"/>
<path d="M13.3916 10.4975C13.2807 10.5061 13.2091 10.5632 13.1761 10.6376L12.7222 11.6425C12.7222 11.6425 12.7001 11.6589 12.686 11.6589C12.6726 11.6589 12.6553 11.6425 12.6443 11.6119C12.6332 11.5767 12.5782 11.4359 12.4594 11.1611L12.3123 10.8332C12.2603 10.7119 12.2187 10.6321 12.2046 10.6079C12.1518 10.5171 12.0857 10.5084 12.0141 10.4975C12.0055 10.4866 12.0055 10.4756 12.0055 10.467C12.0055 10.456 12.0055 10.4506 12.011 10.4372H12.0858C12.1715 10.4372 12.243 10.4427 12.3068 10.4427C12.3815 10.4427 12.5058 10.4341 12.5892 10.4341H12.6387C12.6474 10.4372 12.6498 10.4536 12.6498 10.4615C12.6498 10.467 12.6498 10.4866 12.6443 10.4944C12.5892 10.5007 12.4649 10.4975 12.4649 10.5742C12.4649 10.5914 12.4673 10.6212 12.4759 10.6407L12.7748 11.3451L13.0234 10.7621C13.0457 10.7137 13.0569 10.6611 13.0565 10.6079C13.0565 10.5414 13.0101 10.5116 12.885 10.4975C12.8827 10.4889 12.8771 10.478 12.8771 10.4701C12.8771 10.4592 12.8827 10.4427 12.885 10.4342H12.9211C12.977 10.4342 13.0321 10.4427 13.1564 10.4427C13.1784 10.4427 13.2642 10.4372 13.3059 10.4372H13.3916C13.3971 10.4482 13.4026 10.4536 13.4026 10.4646C13.4026 10.4725 13.3971 10.4889 13.3916 10.4975ZM14.6561 11.6233C14.2934 11.6233 14.0976 11.6155 14.0472 11.6155C14.0087 11.6155 13.9206 11.6123 13.8757 11.6123C13.8261 11.6123 13.7098 11.6209 13.5822 11.6209L13.5107 11.6177C13.5052 11.6068 13.5052 11.6013 13.5052 11.5904C13.5052 11.5818 13.5052 11.5685 13.5076 11.5576C13.6043 11.5489 13.6743 11.5325 13.6909 11.5184C13.7098 11.4941 13.7238 11.444 13.7294 11.3368C13.7294 11.282 13.7318 11.2218 13.7318 11.1584C13.7318 11.0676 13.7294 10.9572 13.7294 10.825V10.638C13.7263 10.5088 13.6625 10.5088 13.5272 10.4924C13.5249 10.4807 13.5217 10.4697 13.5217 10.4619C13.5217 10.4533 13.5249 10.4345 13.5327 10.4314H13.5988C13.6437 10.4314 13.7624 10.4345 13.989 10.4345C14.1967 10.4345 14.3989 10.4369 14.443 10.4369C14.4705 10.4369 14.5507 10.44 14.568 10.44C14.5955 10.44 14.6065 10.4423 14.6065 10.4674L14.623 10.7366C14.6065 10.7452 14.6034 10.7483 14.5901 10.7483C14.579 10.7483 14.5704 10.7483 14.5617 10.7452C14.4822 10.6106 14.443 10.5832 14.3824 10.5386C14.3603 10.5222 14.3273 10.5112 14.2769 10.5088C14.2605 10.5088 14.2187 10.5057 14.1165 10.5057C14.0339 10.5057 13.9922 10.5088 13.9811 10.5088C13.967 10.5088 13.9702 10.5088 13.9646 10.555C13.9615 10.5832 13.9591 10.638 13.9591 10.7945V10.9486H14C14.0527 10.9486 14.1054 10.9432 14.1361 10.9354C14.1833 10.9213 14.2329 10.8884 14.2581 10.8501C14.2691 10.836 14.2801 10.7703 14.2856 10.7506C14.2934 10.7452 14.3076 10.7428 14.3242 10.7428C14.3349 10.7425 14.3456 10.7452 14.3548 10.7506C14.3517 10.8 14.3438 10.8908 14.3438 11.0066C14.3438 11.0645 14.3493 11.1913 14.3493 11.2437C14.3383 11.2515 14.3328 11.2515 14.3155 11.2515C14.3076 11.2515 14.2911 11.2515 14.2825 11.2492C14.2714 11.1475 14.2549 11.0786 14.1692 11.0426C14.122 11.023 14.0834 11.0176 14.0362 11.0176C14.011 11.0176 13.9811 11.0207 13.956 11.023V11.3345C13.956 11.4057 13.9615 11.4495 13.9724 11.4746C13.9811 11.4941 14.0087 11.5348 14.0449 11.5403C14.0614 11.5435 14.092 11.5489 14.155 11.5489H14.3273C14.3713 11.5489 14.435 11.5435 14.4571 11.5294C14.4988 11.502 14.6089 11.3837 14.6483 11.2734C14.6647 11.268 14.6727 11.268 14.6836 11.268C14.6947 11.268 14.7057 11.2711 14.7198 11.2766V11.5904C14.7198 11.6209 14.7002 11.6233 14.6561 11.6233ZM16.0948 10.8085C16.087 10.8085 16.0752 10.8053 16.0619 10.8053C16.0343 10.731 16.0005 10.6653 15.9729 10.6293C15.9234 10.569 15.8762 10.5275 15.7519 10.5142C15.7244 10.5111 15.6574 10.5111 15.6354 10.5111L15.6331 11.037C15.6331 11.1192 15.6331 11.2162 15.6354 11.3978C15.6386 11.5348 15.6992 11.5348 15.8431 11.5543C15.8518 11.5684 15.8542 11.5793 15.8542 11.5872C15.8542 11.5978 15.8515 11.6083 15.8463 11.6177H15.7936C15.7102 11.6177 15.5442 11.6122 15.4915 11.6122C15.4561 11.6122 15.2736 11.6208 15.187 11.6208C15.1792 11.6068 15.176 11.6068 15.176 11.5872C15.176 11.5793 15.1792 11.5684 15.1847 11.5575C15.3759 11.5433 15.3947 11.5073 15.4002 11.4471C15.4057 11.4088 15.4057 11.2514 15.4057 11.0918V10.6574C15.4057 10.6019 15.4034 10.5471 15.3947 10.5111C15.3586 10.5111 15.2429 10.5112 15.209 10.5252C15.1123 10.5604 15.0431 10.641 14.9691 10.7866C14.9605 10.7889 14.9463 10.7889 14.9384 10.7889C14.9274 10.7889 14.9164 10.7866 14.9109 10.7779V10.4727C14.9109 10.4454 14.9133 10.4368 14.9463 10.4368C14.9746 10.4368 15.0187 10.4399 15.0769 10.4399C15.1178 10.4399 15.2924 10.4422 15.5111 10.4422C15.7991 10.4422 16.0115 10.4344 16.0673 10.4344C16.0948 10.4344 16.1146 10.4344 16.1256 10.4454C16.1279 10.4508 16.1256 10.4727 16.1256 10.4892V10.7944C16.1201 10.8054 16.1059 10.8085 16.0948 10.8085ZM13.3336 12.6719C13.3225 12.6719 13.3139 12.6688 13.2974 12.6688C13.273 12.5952 13.2391 12.5288 13.2093 12.4927C13.1621 12.4325 13.1125 12.391 12.9874 12.3777C12.9599 12.3745 12.8938 12.3745 12.8718 12.3745L12.8686 12.9004C12.8686 12.9834 12.8686 13.0789 12.8718 13.2613C12.8742 13.399 12.9379 13.399 13.0818 13.4178C13.0875 13.4278 13.0902 13.4391 13.0897 13.4506C13.0897 13.4616 13.0897 13.4702 13.0842 13.4811H13.0322C12.9465 13.4811 12.7805 13.4757 12.7301 13.4757C12.694 13.4757 12.5115 13.4843 12.4234 13.4843C12.4178 13.4702 12.4147 13.4702 12.4147 13.4506C12.4147 13.4428 12.4178 13.4319 12.4202 13.4209C12.6114 13.4068 12.6311 13.3708 12.6389 13.3106C12.642 13.2722 12.642 13.1149 12.642 12.9552V12.5201C12.642 12.4654 12.642 12.4106 12.6334 12.3745C12.5972 12.3745 12.4784 12.3745 12.4454 12.3887C12.3486 12.4239 12.2818 12.5037 12.2078 12.65C12.196 12.6524 12.1826 12.6524 12.174 12.6524C12.1689 12.6527 12.1637 12.6519 12.159 12.65C12.1542 12.6481 12.1499 12.6452 12.1464 12.6414V12.3362C12.1464 12.3088 12.1519 12.3003 12.1826 12.3003C12.2133 12.3003 12.2543 12.3034 12.3124 12.3034C12.3573 12.3034 12.5311 12.3057 12.7498 12.3057C13.0346 12.3057 13.2502 12.2979 13.3029 12.2979C13.3336 12.2979 13.3532 12.2979 13.3611 12.3088C13.3666 12.3143 13.3643 12.3362 13.3643 12.3527V12.6579C13.3607 12.6625 13.356 12.6662 13.3506 12.6686C13.3453 12.6711 13.3395 12.6722 13.3336 12.6719ZM14.7004 13.4867C14.3409 13.4867 14.141 13.4781 14.0946 13.4781C14.0553 13.4781 13.9672 13.4758 13.92 13.4758C13.8728 13.4758 13.754 13.4836 13.6297 13.4836L13.5573 13.4813C13.5519 13.4703 13.5495 13.4649 13.5495 13.4539C13.5495 13.4453 13.5495 13.432 13.555 13.421C13.6518 13.4124 13.721 13.3959 13.7344 13.3819C13.7564 13.3576 13.7682 13.3075 13.7737 13.2003C13.7761 13.1455 13.7792 13.0845 13.7792 13.0218C13.7792 12.9311 13.776 12.8207 13.776 12.6885C13.776 12.5946 13.7737 12.5398 13.7737 12.5014C13.7705 12.3723 13.71 12.3723 13.5739 12.3551C13.5691 12.3459 13.5664 12.3357 13.566 12.3254C13.566 12.3167 13.5715 12.2972 13.5794 12.2948H13.6431C13.6903 12.2948 13.8068 12.2972 14.0333 12.2972C14.2441 12.2972 14.4431 12.3003 14.4903 12.3003C14.5148 12.3003 14.5981 12.3035 14.6115 12.3035C14.6422 12.3035 14.6532 12.3058 14.6532 12.3308L14.6673 12.6009C14.6532 12.6087 14.6477 12.6118 14.6344 12.6118C14.6257 12.6118 14.617 12.6118 14.606 12.6086C14.5289 12.4741 14.4904 12.4459 14.4266 12.402C14.4046 12.3856 14.374 12.3747 14.3236 12.3723C14.3071 12.3723 14.2662 12.3692 14.1607 12.3692C14.0805 12.3692 14.0365 12.3723 14.0278 12.3723C14.0113 12.3723 14.0145 12.3723 14.0089 12.4185C14.0089 12.4459 14.0057 12.5014 14.0057 12.658V12.8122H14.0443C14.1002 12.8122 14.1521 12.8067 14.1804 12.7989C14.23 12.7847 14.2772 12.7519 14.3046 12.7135C14.3126 12.6994 14.3267 12.6337 14.3299 12.6142C14.3419 12.6084 14.3551 12.6054 14.3684 12.6055C14.3826 12.6055 14.3936 12.6087 14.4014 12.6142C14.3991 12.6634 14.3881 12.7542 14.3881 12.87C14.3881 12.9279 14.396 13.0547 14.396 13.1071C14.3826 13.115 14.3794 13.115 14.3629 13.115C14.3519 13.115 14.3377 13.115 14.3268 13.1126C14.3157 13.0102 14.3015 12.9421 14.2134 12.9061C14.1663 12.8865 14.1277 12.881 14.0836 12.881C14.0585 12.881 14.0278 12.8842 14.0034 12.8865V13.198C14.0034 13.2692 14.0089 13.313 14.0167 13.338C14.0278 13.3576 14.0553 13.3983 14.0891 13.4038C14.1056 13.4069 14.1387 13.4124 14.1993 13.4124H14.3739C14.418 13.4124 14.4793 13.4069 14.5013 13.3929C14.5454 13.3654 14.6564 13.2473 14.6949 13.1369C14.7082 13.1314 14.7201 13.1314 14.731 13.1314C14.739 13.1314 14.7531 13.1346 14.7641 13.1401V13.4539C14.7641 13.4836 14.7444 13.4867 14.7004 13.4867ZM15.5415 13.5142C15.4415 13.5142 15.3314 13.4758 15.2645 13.4429C15.2508 13.4361 15.2358 13.4321 15.2205 13.4312C15.2071 13.4312 15.1709 13.4507 15.1316 13.4782C15.1041 13.4782 15.071 13.4649 15.0631 13.4429C15.0631 13.4179 15.0852 13.3435 15.0852 13.2966C15.0852 13.2692 15.0765 13.1346 15.0741 13.1041C15.0852 13.0877 15.1072 13.079 15.1261 13.079H15.1458C15.1709 13.1292 15.2205 13.2582 15.2567 13.3107C15.3314 13.396 15.4415 13.4343 15.5218 13.4343C15.6107 13.4343 15.6767 13.4179 15.7161 13.3764C15.7711 13.324 15.7822 13.2911 15.7822 13.2333C15.7822 13.1894 15.7743 13.1534 15.7491 13.126C15.7185 13.0877 15.6933 13.0712 15.6248 13.0383C15.5721 13.0133 15.3865 12.9663 15.3204 12.9303C15.237 12.892 15.1953 12.8591 15.1544 12.8153C15.1041 12.7519 15.0852 12.6666 15.0852 12.5978C15.0852 12.4076 15.237 12.2643 15.4526 12.2643C15.5336 12.2643 15.6437 12.273 15.7381 12.3473C15.7596 12.3228 15.7827 12.2998 15.8073 12.2784C15.8428 12.2784 15.8679 12.2972 15.8711 12.3113C15.8679 12.3387 15.8514 12.413 15.8514 12.4741C15.8514 12.5038 15.8711 12.6306 15.8711 12.6502C15.8569 12.6557 15.8428 12.6666 15.8239 12.6666C15.8184 12.6666 15.8097 12.6634 15.8018 12.6611C15.768 12.6032 15.7381 12.507 15.7019 12.4545C15.6468 12.3802 15.569 12.3528 15.4643 12.3528C15.3448 12.3528 15.248 12.4271 15.248 12.5288C15.248 12.6275 15.3283 12.6744 15.3951 12.705C15.4541 12.7281 15.5139 12.7493 15.5744 12.7683C15.6634 12.7989 15.7295 12.8208 15.7657 12.8396C15.9041 12.9115 15.9623 13.0133 15.9623 13.1534C15.9623 13.3741 15.7626 13.5142 15.5415 13.5142ZM13.815 15.3529C13.4524 15.3529 13.2557 15.3451 13.2061 15.3451C13.1676 15.3451 13.0787 15.3419 13.0346 15.3419C12.985 15.3419 12.8686 15.3505 12.7412 15.3505L12.6696 15.3474C12.6641 15.3365 12.6641 15.331 12.6641 15.32C12.6641 15.3114 12.6641 15.2981 12.6664 15.2872C12.7632 15.2786 12.8325 15.2621 12.849 15.2481C12.8686 15.2238 12.8828 15.1736 12.8883 15.0665C12.8883 15.0117 12.8906 14.9514 12.8906 14.888C12.8906 14.7972 12.8883 14.6868 12.8883 14.5546V14.3676C12.8851 14.2385 12.8214 14.2384 12.6861 14.2221C12.6831 14.2121 12.6812 14.2019 12.6806 14.1915C12.6806 14.1829 12.683 14.1641 12.6916 14.161H12.7577C12.8025 14.161 12.9213 14.1642 13.1479 14.1642C13.3556 14.1642 13.5578 14.1665 13.6018 14.1665C13.6293 14.1665 13.7096 14.1697 13.7261 14.1697C13.7544 14.1697 13.7654 14.1719 13.7654 14.197L13.7819 14.467C13.7654 14.4748 13.7623 14.4779 13.7489 14.4779C13.7379 14.4779 13.7293 14.4779 13.7206 14.4748C13.6404 14.3402 13.6018 14.3128 13.5412 14.2682C13.5192 14.2518 13.4854 14.2408 13.4358 14.2384C13.4193 14.2384 13.3776 14.2353 13.2753 14.2353C13.1927 14.2353 13.1511 14.2384 13.14 14.2384C13.1259 14.2384 13.129 14.2385 13.1235 14.2847C13.1203 14.3128 13.118 14.3676 13.118 14.5241V14.6783H13.1589C13.2116 14.6783 13.2643 14.6728 13.295 14.665C13.3422 14.6509 13.3918 14.6181 13.4162 14.5797C13.4271 14.5656 13.439 14.4999 13.4445 14.4803C13.4524 14.4749 13.4665 14.4725 13.483 14.4725C13.4938 14.4722 13.5044 14.4749 13.5137 14.4803C13.5106 14.5296 13.5027 14.6204 13.5027 14.7362C13.5027 14.7941 13.5082 14.9209 13.5082 14.9733C13.4972 14.9811 13.4909 14.9811 13.4744 14.9811C13.4665 14.9811 13.45 14.9811 13.4413 14.9788C13.4303 14.8771 13.4138 14.8082 13.3281 14.7722C13.2808 14.7527 13.2423 14.7472 13.1951 14.7472C13.1699 14.7472 13.14 14.7503 13.1148 14.7526V15.0641C13.1148 15.1354 13.1203 15.18 13.1313 15.2042C13.14 15.2238 13.1676 15.2645 13.2038 15.2699C13.2202 15.2731 13.2502 15.2786 13.3139 15.2786H13.4854C13.5302 15.2786 13.594 15.2731 13.616 15.259C13.6568 15.2316 13.7678 15.1134 13.8064 15.0031C13.8229 14.9976 13.8315 14.9976 13.8425 14.9976C13.8535 14.9976 13.8646 15.0007 13.8787 15.0062V15.32C13.8787 15.3505 13.859 15.3529 13.815 15.3529ZM15.558 14.2217C15.4361 14.2272 15.3315 14.2937 15.3315 14.4862L15.3283 15.0974C15.3283 15.1217 15.3393 15.2954 15.3393 15.3612C15.3205 15.3722 15.3008 15.3807 15.2898 15.3807C15.2843 15.3807 15.2733 15.3722 15.2591 15.3612L14.415 14.458L14.4236 14.6428L14.4268 14.9762C14.4268 15.0004 14.4323 15.0638 14.4378 15.1107C14.4433 15.1851 14.4653 15.2101 14.4984 15.2375C14.5401 15.2735 14.6093 15.2844 14.6588 15.2899C14.6641 15.2981 14.6668 15.3076 14.6667 15.3174C14.6657 15.328 14.6619 15.3383 14.6557 15.3471H14.5645C14.4874 15.3471 14.4268 15.3447 14.3465 15.3447C14.2939 15.3447 14.2191 15.3502 14.1664 15.3502H14.1279C14.1247 15.3416 14.1247 15.3283 14.1247 15.3228C14.1247 15.3174 14.1247 15.3064 14.1302 15.2923C14.1916 15.2868 14.2852 15.2594 14.3214 15.2101C14.3348 15.1796 14.341 15.1248 14.341 15.067V14.6404C14.341 14.5715 14.3379 14.5355 14.3348 14.4698C14.3324 14.4142 14.3214 14.3727 14.2939 14.3399C14.2907 14.332 14.2632 14.3046 14.2356 14.2765C14.2081 14.2546 14.1412 14.2358 14.0995 14.2186C14.0953 14.21 14.0927 14.2007 14.0917 14.1912C14.0917 14.1833 14.094 14.1693 14.0995 14.1615H14.1302C14.1554 14.1615 14.2852 14.1669 14.3851 14.1669H14.4433C14.4544 14.1724 14.4732 14.1833 14.4787 14.1912L15.1041 14.8712C15.1513 14.9237 15.2119 14.9925 15.2457 15.0364V14.5465C15.2457 14.4807 15.2426 14.4338 15.2402 14.4088C15.2347 14.3595 15.2229 14.3156 15.2041 14.282C15.1844 14.2522 15.0679 14.2358 15.0073 14.2217C15.0019 14.2108 15.0019 14.1966 15.0019 14.1857C15.0019 14.1802 15.0019 14.1724 15.0051 14.1615H15.0404C15.0986 14.1615 15.193 14.1693 15.2512 14.1693C15.3952 14.1693 15.4392 14.1638 15.5109 14.1638H15.558C15.5635 14.1748 15.5635 14.1857 15.5635 14.1943C15.5635 14.1998 15.5635 14.2131 15.558 14.2217ZM19.5009 10.492C19.3821 10.4975 19.2743 10.5632 19.2743 10.7565V11.3669C19.2743 11.392 19.2822 11.5657 19.2822 11.6315C19.2657 11.6425 19.2436 11.651 19.235 11.651C19.2271 11.651 19.2185 11.6425 19.202 11.6315L18.3578 10.7291L18.3696 10.913L18.372 11.2465C18.372 11.2707 18.3775 11.3341 18.3806 11.381C18.3885 11.4554 18.4106 11.4804 18.4412 11.5078C18.4853 11.5438 18.5545 11.5547 18.6017 11.5602C18.6069 11.5684 18.6097 11.5779 18.6096 11.5877C18.6086 11.5979 18.6059 11.6079 18.6017 11.6174H18.5073C18.4326 11.6174 18.372 11.615 18.2894 11.615C18.2367 11.615 18.1643 11.6205 18.1116 11.6205H18.073C18.0704 11.6116 18.0685 11.6024 18.0675 11.5931C18.0675 11.5877 18.0675 11.5767 18.0762 11.5626C18.1344 11.5571 18.228 11.5297 18.2642 11.4804C18.2807 11.4499 18.2839 11.3951 18.2839 11.3373V10.9107C18.2839 10.8418 18.2839 10.8058 18.2807 10.7401C18.2784 10.6845 18.2642 10.643 18.239 10.6102C18.2335 10.6023 18.2084 10.5749 18.1784 10.5468C18.1533 10.5249 18.0841 10.5061 18.0424 10.4889C18.04 10.4779 18.0368 10.4646 18.0368 10.4615C18.0375 10.4514 18.0394 10.4414 18.0424 10.4318H18.0762C18.0982 10.4318 18.228 10.4372 18.3279 10.4372H18.3862C18.3972 10.4427 18.416 10.4536 18.4247 10.4615L19.0501 11.1415C19.0973 11.194 19.1579 11.2629 19.1909 11.3067V10.8168C19.1909 10.751 19.1854 10.7041 19.183 10.6791C19.1805 10.6347 19.1682 10.5914 19.1469 10.5523C19.1272 10.5225 19.0108 10.5061 18.9533 10.492C18.9479 10.4808 18.945 10.4685 18.9447 10.456C18.9447 10.4506 18.9447 10.4427 18.9502 10.4318H18.9864C19.0446 10.4318 19.1382 10.4396 19.1964 10.4396C19.3373 10.4396 19.3844 10.4341 19.4568 10.4341H19.5009C19.506 10.4435 19.5089 10.4539 19.5095 10.4646C19.5088 10.4743 19.5058 10.4837 19.5009 10.492ZM20.5496 10.6049C20.4914 10.5282 20.4198 10.4813 20.312 10.4813C20.2121 10.4813 20.1484 10.5251 20.0901 10.6049C20.0186 10.6957 19.9792 10.8413 19.9792 11.0259C19.9792 11.2075 20.0186 11.3507 20.0847 11.4415C20.1452 11.5299 20.2144 11.5737 20.3199 11.5737C20.4473 11.5737 20.5221 11.5135 20.5803 11.411C20.633 11.3202 20.6574 11.1942 20.6574 11.029C20.6574 10.8334 20.6188 10.6957 20.5496 10.6049ZM20.7431 11.4744C20.6275 11.587 20.4662 11.6536 20.3168 11.6536C20.1759 11.6536 20.0131 11.5933 19.899 11.483C19.7747 11.3648 19.7197 11.2052 19.7197 11.029C19.7197 10.8608 19.7747 10.7011 19.899 10.5798C20.032 10.4531 20.1759 10.4014 20.3199 10.4014C20.4253 10.4014 20.5221 10.4288 20.6353 10.489C20.821 10.6072 20.9288 10.8029 20.9288 11.0173C20.9288 11.1855 20.862 11.3539 20.7431 11.4744ZM22.442 10.4975C22.3342 10.5061 22.2626 10.5632 22.2288 10.6376L21.7749 11.6425C21.7749 11.6425 21.7529 11.6589 21.7395 11.6589C21.7254 11.6589 21.7065 11.6425 21.6979 11.6119C21.6868 11.5767 21.631 11.4359 21.5098 11.1611L21.3659 10.8332C21.3132 10.7119 21.2715 10.6321 21.2581 10.6079C21.2022 10.5171 21.1385 10.5084 21.0669 10.4975C21.0559 10.4866 21.0559 10.4756 21.0559 10.467C21.0559 10.456 21.0559 10.4506 21.0637 10.4372H21.1385C21.2219 10.4372 21.2935 10.4427 21.3572 10.4427C21.432 10.4427 21.557 10.4341 21.6428 10.4341H21.6892C21.701 10.4372 21.7034 10.4536 21.7034 10.4615C21.7034 10.467 21.7034 10.4866 21.6979 10.4944C21.6396 10.5007 21.5177 10.4975 21.5177 10.5742C21.5177 10.5914 21.5177 10.6212 21.5287 10.6407L21.8253 11.3451L22.077 10.7621C22.0972 10.7132 22.1077 10.6608 22.1077 10.6079C22.1077 10.5414 22.0605 10.5116 21.9354 10.4975C21.9331 10.4889 21.9299 10.478 21.9299 10.4701C21.9299 10.4592 21.9331 10.4427 21.9354 10.4342H21.9716C22.0267 10.4342 22.0825 10.4427 22.2092 10.4427C22.2288 10.4427 22.3178 10.4372 22.3587 10.4372H22.4452C22.4507 10.4482 22.453 10.4536 22.453 10.4646C22.453 10.4725 22.4507 10.4889 22.442 10.4975ZM19.1107 12.6719C19.0997 12.6719 19.0918 12.6688 19.0745 12.6688C19.0501 12.5952 19.0163 12.5288 18.9864 12.4927C18.9392 12.4325 18.8896 12.391 18.7646 12.3777C18.737 12.3745 18.6709 12.3745 18.6489 12.3745L18.6457 12.9004C18.6457 12.9834 18.6457 13.0789 18.6489 13.2613C18.6512 13.399 18.715 13.399 18.8589 13.4178C18.8676 13.4319 18.8676 13.4428 18.8676 13.4506C18.8676 13.4616 18.8676 13.4702 18.8621 13.4811H18.8094C18.7236 13.4811 18.5576 13.4757 18.5073 13.4757C18.4719 13.4757 18.2894 13.4843 18.2005 13.4843C18.195 13.4702 18.1918 13.4702 18.1918 13.4506C18.1918 13.4428 18.195 13.4319 18.1973 13.4209C18.3885 13.4068 18.4082 13.3708 18.416 13.3106C18.4192 13.2722 18.4192 13.1149 18.4192 12.9552V12.5201C18.4192 12.4654 18.4192 12.4106 18.4106 12.3745C18.3744 12.3745 18.2556 12.3745 18.2225 12.3887C18.1258 12.4239 18.0597 12.5037 17.9849 12.65C17.9739 12.6524 17.9598 12.6524 17.9511 12.6524C17.946 12.6527 17.9409 12.6519 17.9361 12.65C17.9313 12.6481 17.9271 12.6452 17.9236 12.6414V12.3362C17.9236 12.3088 17.9291 12.3003 17.9598 12.3003C17.9904 12.3003 18.0314 12.3034 18.0896 12.3034C18.1344 12.3034 18.3083 12.3057 18.5269 12.3057C18.8117 12.3057 19.0273 12.2979 19.08 12.2979C19.1107 12.2979 19.1304 12.2979 19.1382 12.3088C19.1437 12.3143 19.1414 12.3362 19.1414 12.3527V12.6579C19.1378 12.6625 19.1331 12.6662 19.1278 12.6686C19.1224 12.6711 19.1166 12.6722 19.1107 12.6719ZM19.7888 12.5427H19.7856C19.7612 12.5896 19.7171 12.6913 19.6998 12.7352C19.6361 12.8893 19.6141 12.9418 19.6031 12.9637H19.9602C19.9327 12.8924 19.8414 12.6749 19.7888 12.5427ZM20.5439 13.4865H20.4503C20.3889 13.4865 20.3197 13.4787 20.2481 13.4787C20.1348 13.4787 19.9909 13.4865 19.935 13.4865C19.9295 13.481 19.9272 13.4701 19.9272 13.4567C19.9272 13.4482 19.9295 13.4372 19.9327 13.4285C20.0491 13.4231 20.0955 13.4043 20.0955 13.3574C20.0955 13.3378 20.0955 13.2995 20.0601 13.2032C20.024 13.1148 20.0043 13.0764 19.9964 13.0545C19.9909 13.0467 19.9878 13.0412 19.9634 13.0412H19.5866C19.5614 13.0709 19.5315 13.1539 19.4984 13.2689C19.4898 13.2995 19.4898 13.3268 19.4898 13.3378C19.4898 13.3769 19.526 13.4207 19.6589 13.4231C19.6647 13.4334 19.6674 13.445 19.6668 13.4567C19.6668 13.4646 19.6668 13.4731 19.6645 13.4842H19.6306C19.5425 13.4842 19.5173 13.4787 19.4237 13.4787C19.3624 13.4787 19.216 13.4842 19.1664 13.4842C19.1633 13.4732 19.161 13.47 19.161 13.4591C19.161 13.4512 19.161 13.4427 19.1664 13.4285C19.2381 13.4122 19.3041 13.3934 19.338 13.3409C19.3568 13.3135 19.4205 13.2032 19.4898 13.0325C19.5559 12.873 19.6361 12.6718 19.6723 12.5896C19.7226 12.4848 19.7392 12.4519 19.7557 12.4159C19.7754 12.374 19.7967 12.3327 19.8194 12.2923C19.8304 12.2781 19.8548 12.2703 19.8658 12.2703C19.8855 12.2703 19.9106 12.2813 19.9185 12.2946C19.9295 12.3165 19.9437 12.3392 19.9461 12.3525C20.0153 12.5176 20.0711 12.664 20.1569 12.8675C20.2009 12.9692 20.2229 13.0357 20.2702 13.1429C20.3032 13.2087 20.3229 13.2611 20.3559 13.3213C20.4 13.4122 20.4724 13.4122 20.5439 13.4317C20.5471 13.4403 20.555 13.4481 20.555 13.4591C20.555 13.47 20.5494 13.4755 20.5439 13.4865ZM22.3922 13.4867L21.9084 13.4813H21.7755C21.7708 13.4717 21.7678 13.4614 21.7668 13.4507C21.7668 13.4343 21.77 13.432 21.7778 13.421C21.803 13.4178 21.8667 13.421 21.8966 13.4101C21.947 13.3874 21.9666 13.3381 21.9666 13.2668V12.4106H21.9634L21.7086 12.9663C21.6811 13.0274 21.648 13.0931 21.6205 13.1589C21.5623 13.2887 21.5316 13.3764 21.5151 13.4288C21.5072 13.4507 21.4875 13.4507 21.4765 13.4507C21.46 13.4507 21.449 13.4453 21.4404 13.4179C21.4073 13.3466 21.3852 13.2997 21.3743 13.2692L20.9755 12.3966H20.9675V12.6196L20.9755 13.1761C20.9755 13.3466 21.0643 13.4265 21.1996 13.4265C21.2049 13.4349 21.2086 13.4442 21.2106 13.4539C21.2102 13.4643 21.2075 13.4744 21.2028 13.4836C21.1941 13.4836 21.1666 13.4867 21.1414 13.4867C21.1249 13.4867 21.0368 13.4781 20.9093 13.4781C20.8732 13.4781 20.7984 13.4813 20.7402 13.4813H20.66C20.6576 13.4703 20.6545 13.4617 20.6545 13.4507C20.6545 13.4484 20.6576 13.4343 20.66 13.4265C20.6938 13.4179 20.8094 13.3905 20.8346 13.3654C20.8598 13.3411 20.8818 13.2911 20.8818 13.1729V12.5617C20.8787 12.4654 20.8676 12.4271 20.8205 12.3942C20.8016 12.3802 20.7269 12.3723 20.6631 12.3637C20.658 12.3534 20.6551 12.3423 20.6545 12.3308C20.6545 12.3222 20.6576 12.3113 20.6631 12.2972C20.7103 12.2972 20.7929 12.3035 20.8763 12.3035H21.1666C21.1776 12.3112 21.1831 12.3167 21.1918 12.3332L21.5481 13.1369L21.6118 12.9772C21.6677 12.8481 21.7479 12.6525 21.8612 12.4435C21.8856 12.3966 21.9163 12.3363 21.9328 12.3058L22.3867 12.2972C22.3922 12.3089 22.3978 12.3167 22.3978 12.3277C22.3978 12.3384 22.3951 12.3489 22.3899 12.3582C22.3395 12.3669 22.2537 12.3669 22.2121 12.4349C22.1987 12.4576 22.19 12.4795 22.19 12.5758V13.151C22.19 13.3709 22.2459 13.3929 22.2703 13.4101C22.2844 13.4179 22.3537 13.4265 22.3922 13.4265C22.3978 13.4374 22.4009 13.4453 22.4009 13.4562C22.4009 13.4726 22.3953 13.4758 22.3922 13.4867ZM19.0831 14.5382C19.0721 14.5382 19.0635 14.5351 19.047 14.5351C19.0225 14.4615 18.9887 14.3951 18.9589 14.359C18.9116 14.2988 18.8621 14.2573 18.7371 14.244C18.7095 14.2408 18.6434 14.2408 18.6214 14.2408L18.6182 14.7667C18.6182 14.849 18.6182 14.9452 18.6214 15.1276C18.6237 15.2645 18.6874 15.2645 18.8314 15.2841C18.8371 15.2941 18.8398 15.3054 18.8393 15.3169C18.8393 15.3279 18.8393 15.3365 18.8338 15.3474H18.7818C18.6961 15.3474 18.5302 15.3419 18.4798 15.3419C18.4436 15.3419 18.2611 15.3506 18.173 15.3506C18.1675 15.3365 18.1643 15.3365 18.1643 15.3169C18.1643 15.3091 18.1675 15.2981 18.1698 15.2872C18.361 15.2731 18.3806 15.2371 18.3885 15.1769C18.3917 15.1385 18.3917 14.9812 18.3917 14.8215V14.3872C18.3917 14.3316 18.3917 14.2769 18.383 14.2409C18.3469 14.2409 18.228 14.2409 18.195 14.255C18.0982 14.2902 18.0313 14.37 17.9574 14.5163C17.9456 14.5187 17.9323 14.5187 17.9236 14.5187C17.9185 14.519 17.9133 14.5182 17.9086 14.5163C17.9038 14.5144 17.8995 14.5114 17.8961 14.5077V14.2025C17.8961 14.1751 17.9016 14.1666 17.9322 14.1666C17.9629 14.1666 18.0038 14.1697 18.0621 14.1697C18.1061 14.1697 18.2807 14.172 18.4994 14.172C18.7842 14.172 18.9997 14.1642 19.0525 14.1642C19.0831 14.1642 19.1028 14.1642 19.1107 14.1751C19.1162 14.1806 19.1138 14.2025 19.1138 14.219V14.5242C19.1102 14.5288 19.1056 14.5325 19.1002 14.5349C19.0949 14.5374 19.089 14.5385 19.0831 14.5382ZM20.5689 14.2272C20.4611 14.235 20.3887 14.2929 20.3557 14.3673L19.9018 15.3722C19.9018 15.3722 19.8797 15.3885 19.8663 15.3885C19.8522 15.3885 19.8325 15.3722 19.8247 15.3416C19.8137 15.3064 19.7586 15.1656 19.6366 14.8908L19.4927 14.5629C19.44 14.4416 19.3983 14.3618 19.3849 14.3376C19.3291 14.2468 19.2653 14.2381 19.1938 14.2272C19.1827 14.2163 19.1827 14.2053 19.1827 14.1967C19.1827 14.1857 19.1827 14.1802 19.1914 14.1669H19.2653C19.3487 14.1669 19.4203 14.1724 19.484 14.1724C19.5588 14.1724 19.683 14.1638 19.7696 14.1638H19.816C19.827 14.1669 19.8302 14.1833 19.8302 14.1912C19.8302 14.1967 19.8302 14.2163 19.8247 14.2241C19.7664 14.2296 19.6445 14.2272 19.6445 14.3039C19.6445 14.3211 19.6445 14.3509 19.6555 14.3704L19.9522 15.0748L20.2038 14.4917C20.2239 14.4428 20.2341 14.3904 20.2337 14.3376C20.2337 14.271 20.1873 14.2405 20.0623 14.2272C20.0599 14.2186 20.0567 14.2077 20.0567 14.1998C20.0567 14.1889 20.0599 14.1724 20.0623 14.1639H20.0984C20.1543 14.1639 20.2093 14.1724 20.3368 14.1724C20.3557 14.1724 20.4445 14.1669 20.4855 14.1669H20.572C20.5775 14.1779 20.5799 14.1833 20.5799 14.1943C20.5799 14.2022 20.5775 14.2186 20.5689 14.2272ZM22.4171 15.3529L21.9356 15.3474H21.8004C21.7948 15.3365 21.7948 15.3224 21.7948 15.3169C21.7948 15.3005 21.7948 15.2981 21.8027 15.2872C21.831 15.284 21.8916 15.2872 21.9247 15.2762C21.9718 15.2535 21.9907 15.2042 21.9907 15.133V14.4388C21.9907 14.4388 21.9939 14.3128 21.9939 14.2769H21.9884L21.7366 14.8324C21.7059 14.8935 21.6761 14.9593 21.6453 15.0258C21.5895 15.1549 21.5564 15.2426 21.54 15.295C21.5344 15.3169 21.5156 15.3169 21.5014 15.3169C21.4872 15.3169 21.4762 15.3114 21.4652 15.2841C21.4353 15.2128 21.4125 15.1658 21.4015 15.1353L21.0002 14.2627H20.9924V14.4858L21.0003 15.0422C21.0035 15.2128 21.0892 15.2926 21.2277 15.2926C21.2331 15.3005 21.2355 15.3169 21.2355 15.32C21.2355 15.3279 21.2355 15.3388 21.23 15.3505C21.219 15.3505 21.1938 15.3529 21.1662 15.3529C21.1498 15.3529 21.064 15.3451 20.9365 15.3451C20.898 15.3451 20.8233 15.3474 20.7682 15.3474H20.688C20.6825 15.3365 20.6793 15.3279 20.6793 15.3169C20.6793 15.3146 20.6825 15.3005 20.688 15.2926C20.7187 15.2841 20.8375 15.2567 20.8626 15.2316C20.8846 15.2073 20.9067 15.1573 20.9067 15.0391L20.909 14.7581L20.9067 14.4279C20.9035 14.3316 20.8957 14.2932 20.8453 14.2604C20.8264 14.2463 20.7517 14.2384 20.6903 14.2299C20.6836 14.2202 20.6798 14.2088 20.6793 14.197C20.6793 14.1884 20.6825 14.1775 20.6903 14.1641C20.7352 14.1641 20.8209 14.1696 20.9012 14.1696H21.1938C21.2024 14.1774 21.2111 14.1829 21.2166 14.1994L21.573 15.0031L21.6399 14.8434C21.6925 14.7143 21.7752 14.5187 21.8885 14.3097C21.9105 14.2627 21.9443 14.2025 21.9608 14.1719L22.4116 14.1641C22.4171 14.1751 22.4258 14.1829 22.4258 14.1939C22.4258 14.2048 22.4203 14.2134 22.4147 14.2244C22.3675 14.233 22.2818 14.233 22.2401 14.3011C22.2259 14.3238 22.2149 14.3457 22.2149 14.4419V15.0171C22.2149 15.2371 22.2708 15.259 22.2983 15.2762C22.3093 15.2841 22.3786 15.2926 22.4171 15.2926C22.4258 15.3036 22.4281 15.3114 22.4281 15.3224C22.4281 15.3388 22.4226 15.3419 22.4171 15.3529Z" fill="#231F20"/>
<path d="M49.9926 12.3259C49.9926 11.1723 49.3286 10.0962 48.3406 9.6533C47.8316 9.43575 46.9356 9.29803 45.577 9.29803C44.3867 9.29803 42.5333 9.39193 41.7168 9.39193C41.1441 9.39193 40.2795 9.32855 39.8004 9.32855C39.754 9.40523 39.7218 9.51243 39.7218 9.57347C39.7218 9.6369 39.7218 9.80432 39.7689 9.88182C40.0624 9.97495 40.5407 10.0493 40.8507 10.1291C41.1126 10.3576 41.1747 10.5588 41.2675 11.0049C41.3132 11.541 41.3447 12.2187 41.3447 13.3855C41.3447 16.6279 41.3297 18.3316 41.2826 18.701C41.222 19.1635 40.9128 19.6393 40.4022 19.7903C40.1702 19.8373 39.8295 19.9148 39.5078 19.9445C39.4861 20.0506 39.4753 20.1587 39.4755 20.267C39.4755 20.3906 39.492 20.407 39.5211 20.4845C40.0152 20.4845 41.4682 20.4212 42.0244 20.4212C43.3994 20.4212 44.8044 20.4845 45.3748 20.4845H45.7619C45.809 20.4212 45.809 20.3139 45.809 20.2396C45.809 20.1456 45.809 20.022 45.7776 19.961C45.3134 19.9007 44.6196 19.8076 44.3262 19.4687C44.1712 19.2871 44.0162 19.0226 44.0162 18.5632L43.969 15.1832C44.8957 15.2434 45.8854 15.274 46.4258 15.274C47.1362 15.274 47.738 15.1526 48.2163 14.9985C49.3129 14.5861 49.9926 13.5068 49.9926 12.3259ZM47.2298 12.2625C47.2298 13.0466 46.9506 13.7377 46.4423 14.1838C46.1174 14.4452 45.6069 14.5994 44.8351 14.5994C44.511 14.5994 44.2624 14.5861 44.1712 14.5688C44.0477 14.5524 43.969 14.5391 43.969 14.4593L43.9855 9.95849C44.1712 9.94525 44.434 9.88182 44.8824 9.88182C45.9318 9.88182 46.5808 10.1432 46.8892 10.7896C47.1039 11.2029 47.2298 11.7257 47.2298 12.2625ZM64.001 20.2232C64.001 20.1456 63.9711 19.961 63.9239 19.9007C63.7705 19.9007 63.138 19.8702 62.9059 19.6995C62.8281 19.6087 62.7054 19.4249 62.6424 19.3145C62.441 18.6102 62.2113 18.1336 61.9785 17.5506C61.6536 16.782 61.2068 16.0581 60.8362 15.72C60.6961 15.5988 60.2179 15.3976 59.6766 15.2129C59.4304 15.1221 59.2298 15.0454 59.0442 14.9679C59.2754 14.9218 59.3832 14.9046 59.6766 14.8771C60.8205 14.7371 61.0825 14.5391 61.375 14.3075C61.9942 13.8449 62.3325 13.1406 62.3325 12.3094C62.3325 11.0651 61.53 9.86775 60.4027 9.51243C60.0306 9.40523 59.3699 9.34495 58.5509 9.34495C57.3913 9.34495 55.77 9.45215 54.9983 9.45215C54.7654 9.45215 53.421 9.42163 52.8813 9.42163C52.6485 9.42163 52.0624 9.39193 51.9711 9.39193C51.9239 9.49912 51.8932 9.61962 51.8932 9.68388C51.8932 9.7441 51.909 9.89827 51.9239 9.95849C52.1867 9.98901 52.6658 10.0493 52.9128 10.0963C53.2825 10.3741 53.4068 10.5893 53.5602 10.9274C53.6397 11.4205 53.6531 12.6781 53.6531 14.8443C53.6531 16.4134 53.6695 18.2244 53.5925 18.8106C53.5468 19.1933 53.4068 19.6534 52.9584 19.8373C52.7594 19.8702 52.3873 19.9313 52.0789 19.9445C52.0317 20.022 52.001 20.1762 52.001 20.2529C52.001 20.2998 52.0317 20.4212 52.0624 20.4978C52.2811 20.4978 54.6434 20.454 55.136 20.454C56.124 20.454 56.9594 20.4978 57.8397 20.4978C57.8696 20.4376 57.9003 20.3304 57.9003 20.267C57.9003 20.1621 57.8696 20.008 57.8397 19.9445C57.5298 19.9148 57.1451 19.824 56.9751 19.7903C56.5889 19.6087 56.3096 19.2402 56.3096 18.701L56.2955 15.1526C56.4174 15.1362 56.5725 15.1362 56.6967 15.1362C56.8957 15.1362 57.1286 15.1691 57.514 15.3812C58.086 15.706 58.3653 15.9376 58.7357 16.5043C59.2298 17.272 59.5547 18.6845 59.7089 19.8076C59.7545 20.1292 59.8773 20.407 60.1722 20.4376C60.295 20.454 61.1139 20.4845 61.7008 20.4845H63.9098C63.9711 20.4212 64.001 20.2998 64.001 20.2232ZM59.5232 12.1881C59.5232 13.1406 58.8742 14.2307 58.119 14.4154C57.809 14.4922 57.4213 14.5391 56.8517 14.5391C56.6967 14.5391 56.4646 14.5391 56.279 14.5055L56.264 13.2008V10.3742C56.264 10.1902 56.3097 10.0822 56.3561 10.0361C56.4017 9.98908 56.6817 9.94525 57.0066 9.94525C58.2103 9.94525 58.7358 10.0494 59.1677 10.7733C59.4139 11.1888 59.5232 11.6653 59.5232 12.1881ZM71.9088 20.2068C71.9088 20.1293 71.8922 19.961 71.8631 19.9008C71.631 19.8844 70.9985 19.8241 70.7208 19.763C70.473 19.4688 70.3015 19.133 70.1946 18.5797C70.1796 17.8418 70.1631 16.3196 70.1631 14.8913V11.1121C70.1631 10.6966 70.3329 10.3742 70.4423 10.281C70.7358 10.0055 71.3226 9.94525 71.8175 9.88188C71.8482 9.82084 71.8631 9.65336 71.8631 9.58992C71.8631 9.49919 71.8175 9.37477 71.786 9.34501H71.3376C70.6885 9.34501 69.175 9.42169 68.6495 9.42169C68.3262 9.42169 66.8126 9.37477 66.1329 9.36147H65.7947C65.7474 9.42169 65.7168 9.48279 65.7168 9.61969C65.7168 9.68388 65.7301 9.83723 65.7474 9.91164C66.505 9.97501 66.8425 10.0494 66.9518 10.1292C67.1375 10.2669 67.3987 10.6058 67.4624 11.4338C67.4765 11.7257 67.4916 12.3565 67.5064 13.7714C67.5238 14.5391 67.5387 15.6121 67.5387 16.5043C67.5387 16.9504 67.5064 17.9498 67.4915 18.4858C67.4624 18.8552 67.3837 19.2074 67.2775 19.4085C67.0918 19.5627 66.9054 19.8373 65.7774 19.9149C65.7474 19.9751 65.7301 20.1763 65.7301 20.2396C65.7301 20.3601 65.7624 20.4212 65.7624 20.4979H66.0251C66.6435 20.4979 68.1877 20.4212 68.9901 20.4212C69.2222 20.4212 70.827 20.4681 71.3376 20.4681H71.8482C71.8922 20.3907 71.9088 20.267 71.9088 20.2068ZM87.1797 9.55947C87.1797 9.49919 87.1624 9.39199 87.1325 9.34507H86.7754C86.0036 9.34507 85.5111 9.37471 84.1195 9.37471C83.6405 9.37471 82.9293 9.34507 82.7609 9.34507H82.3597C82.3125 9.37471 82.296 9.54616 82.296 9.60638C82.296 9.68394 82.3125 9.80438 82.3762 9.86782C82.6225 9.94525 83.5634 10.0494 83.9669 10.3139C84.2438 10.6355 84.3658 11.2796 84.4122 11.8799C84.4295 12.1084 84.446 12.3393 84.446 12.97V16.1818C84.446 16.5512 84.4295 16.6718 84.4122 16.8431C84.1526 16.5512 83.7789 15.9979 83.1621 15.3069L78.0102 9.61975C77.963 9.55947 77.8717 9.48279 77.7774 9.42175C77.6546 9.42175 77.4375 9.40529 77.3155 9.40529C76.3251 9.40529 74.5346 9.36147 74.2719 9.36147C74.2412 9.42169 74.2113 9.51249 74.2113 9.57353C74.2113 9.60638 74.2412 9.82084 74.2553 9.86782C74.4875 9.92804 74.998 10.0055 75.4149 10.4516C75.6635 10.7263 76.0954 11.1121 76.2339 11.4205C76.2803 11.5277 76.296 11.6952 76.296 11.9104C76.296 12.7087 76.2503 13.8317 76.2503 14.9046V18.0264C76.2503 18.5328 76.2032 18.9319 76.156 19.1933C75.8327 19.5322 75.3386 19.7771 74.5346 19.9751C74.5039 20.0549 74.4741 20.1763 74.4741 20.2529C74.4741 20.2999 74.4874 20.4541 74.5197 20.4681H74.8131C75.1215 20.4681 75.8326 20.4212 76.296 20.4212C76.9749 20.4212 77.4375 20.4681 78.0708 20.4681H78.9928C79.0533 20.4541 79.0699 20.267 79.0699 20.2068C79.0699 20.1457 79.0534 20.022 79.0235 19.961C78.4869 19.8241 77.701 19.6997 77.1755 19.0086C77.0693 18.7777 76.9749 17.6414 76.9749 17.1014C76.9749 16.6114 76.9584 15.9377 76.9584 15.0291C76.9584 13.8152 76.9749 12.7556 76.9906 12.2188C77.0827 12.326 77.1912 12.4637 77.2684 12.5545L84.3988 20.5316C84.4759 20.6059 84.7528 20.6224 84.8307 20.6224C84.9078 20.6224 84.9549 20.6224 85.0155 20.5918C85.0462 20.5143 85.154 20.2671 85.154 19.9008C85.154 19.4547 85.1376 18.9922 85.1376 18.7645V12.3564C85.1376 10.435 86.0508 9.89821 87.116 9.85123C87.1624 9.77374 87.1797 9.63703 87.1797 9.55947ZM99.2025 18.3315C99.1561 18.1938 99.031 17.9629 98.6771 17.9629C98.6456 17.9629 98.5983 17.9793 98.5693 17.9793C97.641 19.2871 96.6215 19.777 95.4634 19.777C93.857 19.777 92.7148 18.7009 92.3435 17.7484C92.1421 17.2414 91.8652 16.1356 91.8652 14.9515C91.8652 13.8316 92.0351 12.9229 92.3285 12.2625C93.0074 10.4812 93.9955 9.92791 95.2015 9.92791C96.206 9.92791 97.0392 10.4985 97.6725 11.31C97.9352 11.6653 98.2121 12.3564 98.4583 13.1711C98.522 13.1843 98.6605 13.2149 98.799 13.2149C98.8918 13.2149 99.1089 13.1405 99.1695 13.0771C99.1561 12.9096 99.0012 11.7256 99.0012 11.357C99.0012 10.8976 99.1239 10.1431 99.1239 9.85123C99.031 9.75728 98.7226 9.69706 98.522 9.68375C98.29 9.85123 98.2121 10.0492 97.9966 10.3138C97.132 9.69706 96.328 9.22123 94.5682 9.22123C92.9468 9.22123 91.663 9.77374 90.6907 10.7434C89.6255 11.7866 89.0386 13.2313 89.0386 15.0759C89.0386 17.041 89.8725 18.6563 91.2162 19.6698C92.0674 20.2833 93.3174 20.6989 94.8144 20.6989C96.6985 20.6989 98.0737 19.9914 98.7683 19.0562C99.0452 18.6844 99.0766 18.5929 99.2025 18.3315ZM112.268 17.7947C112.268 17.5803 112.268 17.4871 112.251 17.3493C112.174 17.3024 112.143 17.3024 112.019 17.3024C111.911 17.3024 111.789 17.3024 111.678 17.3329C111.156 18.5162 110.398 19.4381 109.982 19.6831C109.75 19.824 109.395 19.8537 108.822 19.8537H107.557C107.064 19.8537 106.676 19.8075 106.537 19.777C106.305 19.7301 106.059 19.3614 105.951 19.1165C105.842 18.8551 105.78 18.8551 105.78 18.1476V14.784H106.353C106.506 14.784 106.878 14.8138 107.294 14.9984C107.681 15.169 107.835 15.3975 107.989 15.6456C108.129 15.8569 108.22 16.7053 108.251 16.9197C108.33 16.9636 108.53 16.98 108.654 16.98C108.776 16.98 108.854 16.9636 108.961 16.9033C108.961 16.4877 108.869 15.367 108.869 14.7511C108.869 13.9826 108.977 12.9229 109.023 12.3728C108.961 12.3391 108.869 12.3094 108.715 12.3094C108.607 12.3094 108.406 12.3094 108.314 12.3564C108.267 12.5708 108.097 13.2149 108.065 13.2619C107.836 13.6469 107.431 13.9388 107.017 14.0624C106.738 14.1368 106.336 14.1838 106.12 14.1838H105.797V12.7555C105.797 11.2795 105.826 10.8036 105.842 10.5258C105.857 10.3443 105.888 10.1431 105.904 10.0054C106.043 9.98901 106.12 9.97489 106.831 9.97489C107.725 9.97489 108.144 9.98895 108.282 9.98895C108.715 10.0219 109.039 10.1126 109.271 10.2973C109.858 10.7434 110.307 11.4478 110.753 12.2022C110.846 12.232 111.001 12.232 111.078 12.232C111.171 12.232 111.186 12.2022 111.31 12.1411C111.31 11.2028 111.247 9.98901 111.217 9.60626C111.2 9.45215 111.171 9.40511 110.863 9.40511C110.738 9.40511 110.151 9.37465 109.534 9.37465C108.654 9.37465 108.297 9.39186 106.953 9.39186C106.228 9.39186 104.73 9.40511 104.096 9.40511C103.171 9.40511 102.382 9.37465 101.981 9.37465H101.455C101.408 9.43569 101.379 9.55934 101.379 9.61956C101.379 9.69712 101.408 9.86769 101.455 9.92791C101.64 9.98895 102.367 9.97489 102.584 10.0962C102.8 10.2809 102.999 10.3576 103.139 11.0956C103.171 11.4203 103.185 12.3094 103.185 13.0169V16.1817C103.185 16.8258 103.171 17.7649 103.154 18.1476C103.123 18.7471 102.908 19.4687 102.817 19.6087C102.675 19.7168 102.042 19.8075 101.425 19.8373C101.379 19.9312 101.347 20.0853 101.347 20.1761C101.347 20.2669 101.379 20.3773 101.425 20.454H101.934C102.429 20.454 104.251 20.407 104.669 20.407C105.055 20.407 105.796 20.4375 106.692 20.4375C107.185 20.4375 108.638 20.5315 111.758 20.5315C111.881 20.5315 112.019 20.5447 112.174 20.4978C112.221 20.4211 112.221 20.3906 112.236 20.2528C112.268 19.9445 112.268 19.039 112.268 17.7947ZM125.579 12.8017V9.66654C125.579 9.43569 125.488 9.37459 125.256 9.37459C124.792 9.37459 122.354 9.43569 119.883 9.43569C117.966 9.43569 116.376 9.40517 115.511 9.40517H114.367C114.168 9.40517 114.105 9.45215 114.105 9.66654V12.6013C114.168 12.6475 114.274 12.6647 114.353 12.6647C114.414 12.6647 114.631 12.6647 114.692 12.631C115.386 11.2356 116.037 10.4812 116.856 10.0657C117.317 10.0219 118.228 10.0054 118.475 10.0054C118.491 10.1729 118.508 10.7129 118.521 11.357C118.537 12.4636 118.537 12.9394 118.537 15.5517C118.537 17.8119 118.521 18.8246 118.491 19.0695C118.43 19.4991 118.508 19.824 116.653 19.9006C116.606 20.0078 116.606 20.1291 116.606 20.2528C116.606 20.3138 116.606 20.4376 116.623 20.4978H117.224C117.796 20.4978 119.139 20.4375 119.697 20.4375C120.144 20.4375 121.581 20.4845 122.522 20.4845H122.954C123 20.407 123 20.2395 123 20.1621C123 20.0689 122.985 19.9609 122.94 19.8842C122.768 19.8842 121.78 19.9148 121.349 19.5923C121.302 19.4248 121.209 18.9787 121.209 18.4395C121.194 16.782 121.178 16.152 121.178 15.0454C121.178 13.6164 121.194 12.6475 121.194 9.98895C121.41 9.98895 121.905 9.97489 122.367 9.98895C123.326 10.2504 123.789 10.6056 124.206 11.1558C124.468 11.5111 124.747 12.1083 125.024 12.8322C125.117 12.8627 125.195 12.8627 125.286 12.8627C125.349 12.8627 125.549 12.8322 125.579 12.8017ZM139.156 14.737C139.156 12.5872 138.197 10.9438 136.405 9.95843C135.449 9.43569 134.491 9.17432 133.472 9.17432C131.218 9.17432 129.179 10.5118 128.266 12.034C127.679 12.9864 127.373 14.0296 127.373 15.1362C127.373 16.9033 128.237 18.6399 129.58 19.6393C130.6 20.3773 131.758 20.7428 133.102 20.7428C133.923 20.7428 134.693 20.5917 135.45 20.2998C136.299 19.975 137.024 19.4687 137.596 18.8386C138.6 17.7485 139.156 16.35 139.156 14.737ZM136.361 14.4451C136.361 16.7656 135.711 18.8105 134.832 19.5321C134.384 19.9006 133.827 20.0853 133.194 20.0853C132.331 20.0853 131.572 19.7465 131.142 19.0562C130.555 18.164 130.229 16.5041 130.229 15.0618C130.229 12.9229 130.785 11.2498 131.773 10.4351C132.299 10.0054 132.839 9.83717 133.38 9.83717C134.215 9.83717 135.018 10.2363 135.48 10.8976C136.067 11.6951 136.361 12.8485 136.361 14.4451ZM154.058 9.55934C154.058 9.49906 154.046 9.39186 154.013 9.34495H153.659C152.885 9.34495 152.394 9.37459 151.001 9.37459C150.522 9.37459 149.811 9.34495 149.643 9.34495H149.242C149.195 9.37459 149.179 9.54604 149.179 9.60626C149.179 9.68382 149.195 9.80426 149.256 9.86769C149.505 9.94513 150.446 10.0493 150.846 10.3138C151.126 10.6354 151.249 11.2795 151.296 11.8798C151.31 12.1083 151.326 12.3391 151.326 12.9699V16.1817C151.326 16.5511 151.31 16.6717 151.296 16.843C151.032 16.5511 150.662 15.9978 150.043 15.3067L144.886 9.61962C144.84 9.55934 144.746 9.48266 144.654 9.42163C144.53 9.42163 144.315 9.40517 144.193 9.40517C143.201 9.40517 141.412 9.36134 141.148 9.36134C141.118 9.42156 141.086 9.51237 141.086 9.5734C141.086 9.60626 141.118 9.82071 141.132 9.86769C141.364 9.92791 141.874 10.0054 142.292 10.4515C142.538 10.7262 142.97 11.112 143.109 11.4203C143.156 11.5275 143.172 11.6951 143.172 11.9103C143.172 12.7085 143.124 13.8316 143.124 14.9045V18.0263C143.124 18.5327 143.08 18.9318 143.032 19.1932C142.71 19.5321 142.213 19.777 141.412 19.975C141.38 20.0548 141.351 20.1761 141.351 20.2528C141.351 20.2998 141.364 20.454 141.395 20.468H141.688C141.999 20.468 142.71 20.4211 143.172 20.4211C143.851 20.4211 144.315 20.468 144.948 20.468H145.875C145.935 20.454 145.953 20.2669 145.953 20.2066C145.953 20.1456 145.935 20.0219 145.905 19.9609C145.366 19.824 144.577 19.6995 144.051 19.0085C143.943 18.7776 143.851 17.6413 143.851 17.1013C143.851 16.6113 143.836 15.9376 143.836 15.029C143.836 13.8151 143.851 12.7554 143.867 12.2186C143.961 12.3258 144.068 12.4636 144.145 12.5544L151.281 20.5315C151.357 20.6058 151.635 20.6223 151.713 20.6223C151.789 20.6223 151.835 20.6223 151.898 20.5917C151.929 20.5142 152.037 20.2669 152.037 19.9006C152.037 19.4546 152.021 18.992 152.021 18.7643V12.3564C152.021 10.435 152.932 9.89821 153.997 9.85123C154.046 9.77374 154.058 9.6369 154.058 9.55934ZM51.7385 26.7892C51.7385 26.7289 51.7078 26.635 51.6622 26.5912H51.2153C50.7355 26.5912 50.0864 26.6209 49.5303 26.6209C48.9135 26.6209 48.2189 26.5912 47.7697 26.5912H47.2143C47.1679 26.682 47.1514 26.7117 47.1514 26.7892C47.1514 26.8525 47.1678 26.9128 47.1978 26.9903C47.2615 26.9903 48.388 27.0036 48.5886 27.2822C48.7586 27.513 49.1291 28.0804 49.1905 28.4185C49.2203 28.5727 49.3147 29.2027 49.3147 30.1089C49.3147 31.4136 49.3147 32.2885 49.2998 32.751C49.2675 33.6126 49.1747 34.2873 49.0197 34.7936C48.5887 36.1311 47.5856 36.7916 45.9942 36.7916C45.3137 36.7916 44.7276 36.6546 44.1864 36.4066C43.1818 35.9166 42.7035 34.9775 42.6893 34.4711L42.6107 29.864L42.5965 27.9889C42.5965 27.6344 43.0433 27.3119 43.1975 27.128C43.3218 27.067 44.0007 27.0036 44.387 26.9739C44.4342 26.8831 44.4641 26.8361 44.4641 26.7586C44.4641 26.6819 44.4184 26.6045 44.3563 26.5606L43.7702 26.5747C43.1975 26.5911 42.4415 26.6045 41.9632 26.6045C41.2214 26.6045 40.6487 26.5912 40.1869 26.5912H39.5395C39.4758 26.635 39.4608 26.7289 39.4608 26.8056C39.4608 26.8831 39.4758 26.9433 39.5229 26.9903C40.0154 27.0505 40.3403 27.0975 40.5574 27.1413C40.8194 27.2955 41.0058 27.5569 41.0987 27.8183C41.1136 28.0194 41.1443 28.5094 41.1443 29.4782V33.1666C41.1443 34.119 41.1915 34.7936 41.2993 35.2256C41.4983 36.0239 41.931 36.6546 42.6421 37.114C43.3989 37.6063 44.3414 37.8513 45.4687 37.8513C46.5039 37.8513 47.3835 37.6368 48.1253 37.2213C48.897 36.808 49.3753 36.1311 49.6538 35.1786C49.8072 34.612 49.9017 33.9953 49.9017 33.3513V30.4008C49.9017 29.8476 49.9314 29.1565 49.9314 28.8787C49.948 28.0499 50.1644 27.5569 50.3964 27.1883C50.6426 27.1116 50.859 27.067 51.6779 26.9739C51.7078 26.9128 51.7385 26.8659 51.7385 26.7892ZM66.0403 26.7117C66.0403 26.6514 66.0254 26.6045 65.9931 26.5606H65.6391C64.8674 26.5606 64.5267 26.5912 63.1382 26.5912C62.6576 26.5912 61.948 26.5606 61.7796 26.5606H61.3753C61.3312 26.5912 61.3147 26.6984 61.3147 26.7586C61.3147 26.8361 61.3312 26.8658 61.3918 26.9269C61.6397 27.0036 62.5821 27.1116 62.9833 27.3729C63.2594 27.6977 63.3845 28.3418 63.4309 28.9413C63.4451 29.1698 63.4616 29.4015 63.4616 30.0315V34.5956C63.4616 34.9642 63.4451 35.0878 63.4309 35.2561C63.1682 34.9642 62.7205 34.3945 62.1187 33.687L56.2178 26.8361C56.1707 26.7727 56.0794 26.6984 55.9858 26.6349C55.8622 26.6349 55.7088 26.6209 55.5846 26.6209C54.5965 26.6209 53.732 26.5747 53.4676 26.5747C53.4385 26.635 53.4235 26.6655 53.4235 26.7289C53.4235 26.7586 53.4385 26.8831 53.4527 26.9269C53.6847 26.9903 54.3644 27.067 54.6437 27.3588C54.89 27.6344 55.2604 27.956 55.3989 28.2643C55.4461 28.3715 55.4626 28.5399 55.4626 28.7574C55.4626 29.5557 55.4154 31.0144 55.4154 32.0905V35.3633C55.4154 35.8697 55.369 36.2688 55.3234 36.5302C54.9977 36.8691 54.5037 37.114 53.7005 37.3151C53.6698 37.3918 53.6391 37.4223 53.6391 37.4991C53.6391 37.546 53.6532 37.6368 53.6847 37.6509H53.9782C54.2865 37.6509 54.9977 37.6063 55.4626 37.6063C56.1407 37.6063 56.4491 37.6509 57.0816 37.6509H58.0107C58.072 37.6368 58.0855 37.5131 58.0855 37.4521C58.0855 37.3918 58.072 37.359 58.0398 37.2979C57.5009 37.161 56.7134 37.0366 56.188 36.3455C56.0794 36.1147 55.9858 34.9478 55.9858 34.4109C55.9858 33.9178 55.9708 33.1196 55.9708 32.2141C55.9708 31.0003 55.9858 29.324 56.0023 28.7871C56.0951 28.8951 56.2344 29.0626 56.3414 29.1863L63.6622 37.7143C63.7385 37.791 63.7699 37.8051 63.8494 37.8051C63.9233 37.8051 63.8778 37.8051 63.9407 37.7745C63.9706 37.6971 64.0178 37.4521 64.0178 37.0835C64.0178 36.6374 64.0028 36.178 64.0028 35.9472V29.4179C64.0028 27.4966 64.9146 26.9566 65.9797 26.9128C66.0254 26.8361 66.0403 26.7892 66.0403 26.7117ZM73.0213 37.4521C73.0213 37.3754 73.0072 37.2979 72.9757 37.2377C72.7428 37.2213 72.1111 37.161 71.8319 37.0999C71.5849 36.808 71.4165 36.47 71.3056 35.9167C71.2922 35.1786 71.2764 33.5054 71.2764 32.074V28.1736C71.2764 27.758 71.4456 27.4332 71.5549 27.3425C71.8484 27.0669 72.4344 27.0036 72.9285 26.9433C72.9607 26.8831 72.9757 26.8056 72.9757 26.7453C72.9759 26.7108 72.969 26.6767 72.9555 26.6449C72.942 26.6131 72.9221 26.5844 72.8971 26.5606H72.4502C71.8011 26.5606 70.8744 26.635 70.3481 26.635C70.0264 26.635 69.0982 26.5912 68.42 26.5747H68.0794C68.033 26.635 68.0023 26.635 68.0023 26.7727C68.0023 26.8361 68.0173 26.8964 68.033 26.9739C68.789 27.0365 69.1296 27.1116 69.2358 27.1883C69.423 27.3284 69.6858 27.6649 69.7479 28.4961C69.7621 28.7871 69.7786 29.5721 69.7936 30.9839C69.8085 31.7516 69.8258 32.798 69.8258 33.687C69.8258 34.1354 69.7936 35.2867 69.7786 35.8227C69.7479 36.1921 69.6709 36.5466 69.5615 36.7446C69.3774 36.8988 69.1917 37.1743 68.0644 37.2541C68.033 37.3151 68.0173 37.4223 68.0173 37.4826C68.0173 37.6062 68.0495 37.6062 68.0495 37.6838H68.3106C68.929 37.6838 69.8864 37.6062 70.6888 37.6062C70.9208 37.6062 71.9396 37.6509 72.4502 37.6509H72.9607C73.0072 37.5765 73.0213 37.5131 73.0213 37.4521ZM86.5458 26.7453C86.5458 26.6819 86.5294 26.5912 86.468 26.5747H85.9425C85.572 26.5747 84.9851 26.6045 84.7224 26.6045C83.4715 26.6045 83.0239 26.5277 82.8382 26.5277H82.5614C82.5283 26.6045 82.4811 26.6514 82.4811 26.7289C82.4811 26.7892 82.5142 26.8361 82.5142 26.8964C82.8758 26.9396 83.2325 27.0172 83.5793 27.128C83.765 27.3119 83.9671 27.6813 83.9671 28.0968C83.9671 28.2479 83.8122 28.9718 83.5935 29.4946L81.1091 35.5777L78.0568 27.8793C78.1025 27.5131 78.3031 27.1577 78.5642 27.02C78.8254 26.9903 79.1472 26.8964 79.5649 26.8964C79.5956 26.8361 79.6255 26.7453 79.6255 26.682C79.6255 26.6209 79.6121 26.5277 79.5483 26.5137H79.1613C78.6878 26.5137 77.9632 26.5747 77.1443 26.5747C76.7895 26.5747 76.0949 26.5442 75.4144 26.5442H74.8126C74.7811 26.6045 74.752 26.635 74.752 26.7289C74.752 26.8197 74.7669 26.8525 74.7976 26.9128C75.2295 27.02 75.6472 27.1883 76.0949 27.4332C76.3883 27.8652 77.0224 29.4179 77.3622 30.2295L78.6405 33.3043C79.7033 35.8564 80.3366 37.5594 80.4145 37.8513C80.4916 37.8982 80.4145 37.9421 80.5529 37.9421C80.6914 37.9421 80.6772 37.9146 80.7079 37.838L84.6917 28.3113C84.8301 27.9724 85.0465 27.6508 85.2478 27.4332C85.4941 27.1577 86.0038 27.0505 86.4822 26.9433C86.4986 26.8831 86.5458 26.8197 86.5458 26.7453ZM97.9803 35.1317C97.9803 34.9173 97.9803 34.8233 97.9661 34.6864C97.8882 34.6394 97.8584 34.6394 97.734 34.6394C97.6255 34.6394 97.642 34.6394 97.5334 34.6723C97.1928 35.793 96.6075 36.6241 95.942 37.0233C95.7107 37.161 95.2929 37.1907 94.6305 37.1907H92.8999C92.3603 37.1743 92.0204 37.1445 91.8804 37.114C91.6491 37.0702 91.4012 36.6984 91.2951 36.4535C91.1841 36.1921 91.1235 36.1005 91.1235 35.3939V31.8893H91.6184C92.1124 31.8893 92.5136 31.9223 92.9306 32.1069C93.3176 32.2752 93.611 32.5202 93.7644 32.7651C93.9045 32.9826 93.9509 33.8271 93.9816 34.0423C94.0579 34.0885 94.1051 34.1026 94.2278 34.1026C94.3513 34.1026 94.3663 34.0885 94.4756 34.0258C94.4756 33.6126 94.3828 32.4896 94.3828 31.876C94.3828 31.1076 94.4905 30.1692 94.5362 29.6159C94.4756 29.5854 94.4441 29.5557 94.29 29.5557C94.1806 29.5557 94.1366 29.5557 94.043 29.5995C93.9973 29.817 93.8723 30.4611 93.8431 30.5081C93.6111 30.8899 93.069 31.1983 92.6537 31.3228C92.3744 31.3995 91.9732 31.4464 91.3863 31.4464H91.1401V29.9384C91.1401 28.4655 91.1708 27.8652 91.1841 27.5874C91.2006 27.4026 91.2314 27.2046 91.2478 27.067C91.3863 27.0505 91.8347 27.0365 92.5459 27.0365C93.4395 27.0365 94.1051 27.0505 94.2443 27.0505C94.6762 27.0811 95.0003 27.1741 95.2324 27.3589C95.9892 27.9427 96.1898 28.3278 96.6075 29.2637C96.7003 29.2942 96.7137 29.2942 96.7932 29.2942C96.8845 29.2942 96.9009 29.2637 97.0229 29.2027C97.0229 28.2644 96.9615 27.2047 96.9309 26.8197C96.9143 26.6655 96.8844 26.6209 96.576 26.6209C96.4525 26.6209 95.8657 26.5912 95.2489 26.5912C94.3663 26.5912 94.0123 26.6044 92.6679 26.6044C91.9425 26.6044 90.6618 26.6209 90.0277 26.6209C89.101 26.6209 88.8988 26.5912 88.4961 26.5912H87.9682C87.921 26.6514 87.8887 26.7117 87.8887 26.7727C87.8887 26.8525 87.9211 26.9269 87.9682 26.9903C88.1546 27.0505 88.8855 27.0365 89.101 27.1577C89.3166 27.3425 89.5172 27.3894 89.6572 28.1266C89.6879 28.449 89.7044 29.4946 89.7044 30.2021V33.3646C89.7044 34.0086 89.6879 35.0714 89.6721 35.4541C89.6407 36.0544 89.4243 36.808 89.3323 36.9458C89.1923 37.053 88.559 37.1445 87.9359 37.1743C87.8887 37.2682 87.8573 37.3284 87.8573 37.4223C87.8573 37.5131 87.8887 37.5593 87.9359 37.6368H88.4496C88.9461 37.6368 90.1827 37.5898 90.5981 37.5898C90.9851 37.5898 91.5098 37.6203 92.4058 37.6203C92.8999 37.6203 94.3513 37.7143 97.472 37.7143C97.5956 37.7143 97.734 37.7307 97.8882 37.6838C97.9355 37.6062 97.9354 37.5766 97.9512 37.4388C97.9803 37.1305 97.9803 36.376 97.9803 35.1317ZM110.938 37.4662C110.938 37.3918 110.909 37.2979 110.862 37.2376C110.708 37.2376 110.074 37.2071 109.842 37.0365C109.766 36.9458 109.642 36.7618 109.58 36.6546C109.379 35.9471 109.164 35.3164 108.931 34.7333C108.608 33.9648 108.159 33.2409 107.789 32.9052C107.65 32.7815 107.217 32.5804 106.676 32.3988C106.43 32.3049 106.228 32.2282 106.043 32.1508C106.275 32.107 106.383 32.0905 106.676 32.06C107.681 31.9363 108.021 31.7219 108.314 31.4903C108.931 31.0308 109.333 30.3398 109.333 29.5087C109.333 28.2643 108.53 27.0811 107.402 26.7289C107.032 26.6209 106.366 26.5606 105.549 26.5606C104.391 26.5606 103.525 26.6655 102.753 26.6655C102.523 26.6655 101.765 26.635 101.225 26.635C100.993 26.635 100.406 26.6045 100.314 26.6045C100.268 26.7117 100.236 26.7453 100.236 26.8056C100.236 26.8658 100.251 26.9566 100.268 27.02C100.53 27.0505 101.008 27.1116 101.256 27.1577C101.627 27.4332 101.751 27.6508 101.905 27.9888C101.981 28.4788 101.997 29.864 101.997 32.0302C101.997 33.5962 102.013 35.5645 101.934 36.1475C101.889 36.5302 101.751 36.9896 101.302 37.1743C101.101 37.2071 100.73 37.2682 100.421 37.2846C100.375 37.359 100.343 37.4223 100.343 37.499C100.343 37.546 100.375 37.6062 100.406 37.6838C100.622 37.6838 102.398 37.6368 102.892 37.6368C103.882 37.6368 104.128 37.6838 105.008 37.6838C105.04 37.6203 105.071 37.5766 105.071 37.5131C105.071 37.4059 105.04 37.3449 105.008 37.2846C104.701 37.2541 104.313 37.161 104.143 37.1305C103.757 36.9458 103.481 36.5771 103.481 36.0379L103.464 32.1978C103.588 32.1813 104.035 32.1813 104.158 32.1813C104.576 32.1813 104.994 32.2141 105.394 32.3988C105.982 32.6571 106.538 33.0734 106.908 33.6431C107.402 34.4109 107.727 35.8697 107.882 36.9896C107.927 37.3151 108.051 37.5899 108.345 37.6203C108.467 37.6368 108.655 37.6673 109.241 37.6673H110.846C110.909 37.6063 110.938 37.546 110.938 37.4662ZM107.696 29.324C107.696 30.3069 106.908 31.4135 105.998 31.6147C105.626 31.6913 105.086 31.7383 104.391 31.7383C104.205 31.7383 103.68 31.7383 103.448 31.7046L103.433 30.3539V27.4497C103.433 27.2485 103.481 27.1413 103.541 27.0975C103.603 27.0505 104.236 27.0036 104.622 27.0036C106.073 27.0036 106.738 27.1413 107.264 27.8958C107.557 28.3113 107.696 28.7871 107.696 29.324ZM121.363 34.6253C121.363 33.3951 120.81 32.553 119.618 31.9223C119.293 31.7383 118.723 31.5372 117.905 31.3063C116.962 31.0441 116.175 30.7389 115.665 30.4611C115.326 30.2764 114.753 29.7701 114.753 28.7871C114.753 27.805 115.758 26.9903 116.931 26.9903C117.857 26.9903 118.6 27.4497 119.047 28.0632C119.435 28.6032 119.573 28.8482 120.004 29.817C120.051 29.8303 120.112 29.8476 120.159 29.8476C120.298 29.8476 120.422 29.7701 120.5 29.6926C120.453 29.3075 120.376 28.7707 120.376 28.3113C120.376 27.9121 120.469 27.3894 120.516 27.1116C120.39 26.9269 120.252 26.8964 120.051 26.8964C119.836 27.0365 119.634 27.2485 119.448 27.4497C118.43 26.635 117.596 26.4972 116.824 26.4972C114.925 26.4972 113.566 27.758 113.566 29.4313C113.566 30.0017 113.765 30.5543 114.135 31.1216C114.476 31.5974 114.971 31.9668 115.636 32.2447C116.083 32.4263 118.089 33.0288 118.368 33.1369C119.603 33.6126 120.068 34.0258 120.068 35.1153C120.068 35.6552 119.836 36.1311 119.387 36.6679C118.986 37.161 118.352 37.3918 117.673 37.3918C116.947 37.3918 115.696 37.0835 115.078 36.2555C114.707 35.7789 114.183 34.7795 114.028 34.18C113.92 34.1495 113.92 34.1495 113.812 34.1495C113.719 34.1495 113.61 34.18 113.519 34.2403C113.519 34.4414 113.581 35.4541 113.581 35.7625C113.581 36.5138 113.441 36.8824 113.411 37.1305C113.457 37.2846 113.719 37.4388 113.906 37.4388C114.228 37.161 114.567 36.9458 114.678 36.9458C114.77 36.9458 114.908 36.9896 115.046 37.0835C116.05 37.7307 116.886 37.8513 117.628 37.8513C119.805 37.8513 121.363 36.7618 121.363 34.6253ZM128.993 37.4521C128.993 37.3754 128.977 37.2979 128.947 37.2377C128.717 37.2213 128.083 37.161 127.804 37.0999C127.558 36.808 127.388 36.47 127.28 35.9167C127.264 35.1786 127.248 33.5054 127.248 32.074V28.1736C127.248 27.758 127.419 27.4332 127.526 27.3425C127.819 27.0669 128.407 27.0036 128.9 26.9433C128.931 26.8831 128.947 26.8056 128.947 26.7453C128.947 26.6514 128.9 26.5912 128.871 26.5606H128.424C127.774 26.5606 126.847 26.635 126.321 26.635C125.997 26.635 125.07 26.5912 124.391 26.5747H124.051C124.005 26.635 123.975 26.635 123.975 26.7727C123.975 26.8361 123.99 26.8964 124.005 26.9739C124.764 27.0365 125.103 27.1116 125.21 27.1883C125.395 27.3284 125.657 27.6649 125.721 28.4961C125.736 28.7871 125.749 29.5721 125.765 30.9839C125.781 31.7516 125.796 32.798 125.796 33.687C125.796 34.1354 125.765 35.2867 125.749 35.8227C125.721 36.1921 125.641 36.5466 125.535 36.7446C125.348 36.8988 125.163 37.1743 124.036 37.2541C124.005 37.3151 123.99 37.4223 123.99 37.4826C123.99 37.6062 124.019 37.6062 124.019 37.6838H124.283C124.902 37.6838 125.859 37.6062 126.661 37.6062C126.894 37.6062 127.911 37.6509 128.424 37.6509H128.931C128.977 37.5765 128.993 37.5131 128.993 37.4521ZM141.83 29.864V26.8831C141.83 26.6514 141.735 26.5911 141.504 26.5911C141.041 26.5911 138.909 26.6514 136.438 26.6514C134.521 26.6514 133.241 26.6209 132.375 26.6209H131.233C131.033 26.6209 130.97 26.6655 130.97 26.8831V29.6629C131.033 29.7098 131.081 29.7231 131.154 29.7231C131.218 29.7231 131.279 29.7231 131.341 29.6926C131.944 28.3552 132.252 27.6508 133.287 27.128C133.75 27.0811 135.371 27.067 135.62 27.067C135.635 27.2352 135.65 27.7721 135.666 28.4185C135.682 29.5251 135.682 30.1223 135.682 32.7377C135.682 34.9947 135.666 36.1616 135.635 36.4066C135.574 36.8385 135.65 37.161 133.798 37.2376C133.75 37.3448 133.75 37.3754 133.75 37.4991C133.75 37.5593 133.75 37.6203 133.766 37.6838H134.368C134.939 37.6838 135.696 37.6203 136.253 37.6203C136.701 37.6203 137.55 37.6673 138.493 37.6673H138.925C138.971 37.5898 138.971 37.5131 138.971 37.4388C138.971 37.3448 138.955 37.2979 138.909 37.2213C138.739 37.2213 137.752 37.2541 137.318 36.9293C137.271 36.7618 137.177 36.3158 137.177 35.7789C137.165 34.119 137.148 33.3348 137.148 32.2282C137.148 30.8 137.165 29.7098 137.165 27.0505C137.38 27.0505 138.523 27.0365 138.988 27.0505C139.943 27.3119 140.314 27.6649 140.731 28.2174C141.102 28.7104 141.195 29.1565 141.425 29.8937C141.52 29.9242 141.565 29.9242 141.658 29.9242C141.718 29.9242 141.797 29.8937 141.83 29.864ZM154.306 26.6984C154.306 26.6044 154.245 26.5747 154.214 26.5137C153.581 26.5137 152.748 26.5606 152.422 26.5606C151.634 26.5606 150.678 26.4972 150.261 26.4972C150.213 26.5912 150.198 26.6044 150.198 26.682C150.198 26.7446 150.208 26.8067 150.229 26.8658C150.678 26.9566 151.326 27.067 151.45 27.2822C151.558 27.4802 151.589 27.6344 151.589 27.8794C151.589 28.0632 151.575 28.2479 151.496 28.449C151.357 28.8318 151.064 29.4312 150.647 30.2764C149.936 31.7046 149.488 32.5968 149.24 32.949C148.84 32.2752 147.944 30.494 147.729 30.0315L146.862 28.1571C146.832 28.0968 146.801 27.8793 146.801 27.7416C146.801 27.5436 146.832 27.4027 146.862 27.3424C147.002 27.067 147.481 27.0365 148.129 26.9566C148.159 26.8831 148.175 26.7892 148.175 26.7289C148.175 26.6209 148.129 26.6514 148.083 26.5747H147.805C146.77 26.5747 147.078 26.6209 145.302 26.6209C144.547 26.6209 143.634 26.5747 143.512 26.5747C143.45 26.6819 143.418 26.6984 143.418 26.8056C143.418 26.8658 143.434 26.9128 143.482 26.9903C144.515 27.2352 144.823 27.4191 144.932 27.6203L147.635 32.8887C147.897 33.3818 148.052 33.7637 148.129 34.0423C148.237 34.4711 148.255 35.102 148.255 35.8837C148.255 36.5466 148.022 36.8988 147.758 37.0702C147.651 37.1304 146.877 37.2376 146.523 37.2682C146.461 37.3754 146.444 37.4059 146.444 37.4826C146.444 37.5593 146.477 37.6062 146.492 37.6673C147.28 37.6673 148.099 37.6509 148.562 37.6509C148.886 37.6509 149.38 37.6673 150.291 37.6837C150.816 37.6971 151.218 37.7143 151.496 37.7143C151.527 37.6509 151.575 37.5898 151.575 37.5131C151.575 37.4388 151.558 37.3918 151.511 37.3151C151.017 37.2541 150.324 37.161 150.169 37.0068C149.92 36.7446 149.799 36.6241 149.766 36.0239L149.643 33.7176C149.627 33.5493 149.689 33.3951 149.705 33.3513C149.75 33.1807 149.811 33.0429 149.872 32.9193L152.252 28.2338C152.467 27.8347 152.932 27.3894 153.241 27.2047C153.459 27.067 153.937 26.9739 154.245 26.8964C154.278 26.8197 154.306 26.7586 154.306 26.6984Z" fill="black"/>
</svg>
