<svg width="142" height="29" viewBox="0 0 142 29" fill="none" xmlns="http://www.w3.org/2000/svg">
<path d="M5.34983 18.635C5.34983 20.2594 5.70823 21.5065 6.17668 22.2611C6.79087 23.2493 7.70695 23.668 8.64087 23.668C9.84546 23.668 10.9474 23.3706 13.0711 20.4488C14.7724 18.1068 16.777 14.8195 18.1259 12.7586L20.4101 9.26718C21.9969 6.84239 23.8335 4.14686 25.9393 2.31975C27.6584 0.828484 29.5129 0 31.3793 0C34.5127 0 37.4973 1.80639 39.7816 5.1943C42.2815 8.90472 43.495 13.5783 43.495 18.4012C43.495 21.2684 42.9269 23.3751 41.9603 25.0394C41.0263 26.6491 39.2061 28.2572 36.1441 28.2572V23.668C38.7659 23.668 39.4202 21.2713 39.4202 18.5284C39.4202 14.6198 38.5041 10.2821 36.4861 7.18266C35.054 4.98422 33.198 3.64089 31.1562 3.64089C28.9478 3.64089 27.1706 5.29786 25.1734 8.25229C24.1116 9.82197 23.0215 11.7349 21.7976 13.8934L20.4503 16.2679C17.7437 21.042 17.0581 22.1294 15.7048 23.9239C13.3328 27.0663 11.3073 28.2572 8.64087 28.2572C5.47773 28.2572 3.47752 26.8947 2.23873 24.8412C1.22748 23.168 0.730774 20.9725 0.730774 18.4707L5.34983 18.635Z" fill="#0081FB"/>
<path d="M4.37277 5.51829C6.49046 2.27093 9.54653 0 13.0517 0C15.0817 0 17.0997 0.597692 19.207 2.3094C21.5121 4.18088 23.9688 7.26255 27.0338 12.3414L28.1328 14.1641C30.7859 18.561 32.2953 20.823 33.1787 21.8897C34.3149 23.2597 35.1105 23.668 36.144 23.668C38.7659 23.668 39.4202 21.2713 39.4202 18.5284L43.495 18.4012C43.495 21.2684 42.9269 23.3751 41.9602 25.0394C41.0263 26.6491 39.2061 28.2572 36.144 28.2572C34.2405 28.2572 32.5541 27.8459 30.6892 26.0958C29.2556 24.7524 27.5796 22.3661 26.2902 20.2209L22.4549 13.8475C20.5306 10.649 18.7653 8.26412 17.7437 7.18414C16.6447 6.02278 15.2319 4.62028 12.9774 4.62028C11.1526 4.62028 9.60304 5.89407 8.30626 7.84249L4.37277 5.51829Z" fill="url(#paint0_linear_1804_12481)"/>
<path d="M12.9774 4.62028C11.1527 4.62028 9.60306 5.89407 8.30627 7.84249C6.47262 10.5957 5.34983 14.6967 5.34983 18.635C5.34983 20.2594 5.70823 21.5065 6.17668 22.2611L2.23873 24.8412C1.22748 23.168 0.730774 20.9725 0.730774 18.4707C0.730774 13.9215 1.98592 9.17989 4.37278 5.51829C6.49047 2.27093 9.54654 0 13.0517 0L12.9774 4.62028Z" fill="url(#paint1_linear_1804_12481)"/>
<path d="M52.4744 0.893555H57.8177L66.9026 17.2443L75.989 0.893555H81.2163V27.7601H76.8575V7.16932L68.8894 21.4281H64.7998L56.8332 7.16932V27.7601H52.4744V0.893555ZM94.8742 10.9108C91.7483 10.9108 89.8655 13.2513 89.4149 16.1495H100.024C99.8056 13.164 98.0745 10.9108 94.8742 10.9108ZM85.0933 17.8005C85.0933 11.7023 89.055 7.264 94.9501 7.264C100.748 7.264 104.21 11.6461 104.21 18.126V19.317H89.4149C89.9399 22.4696 92.0427 24.5941 95.4334 24.5941C98.1385 24.5941 99.8294 23.773 101.433 22.2714L103.748 25.0927C101.566 27.0884 98.7914 28.2394 95.2787 28.2394C88.8974 28.2394 85.0933 23.6103 85.0933 17.8005ZM109.496 11.2955H105.483V7.74482H109.496V1.87294H113.701V7.74482H119.797V11.2955H113.701V20.2949C113.701 23.3677 114.689 24.4595 117.116 24.4595C118.224 24.4595 118.859 24.3648 119.797 24.2095V27.7216C118.628 28.0501 117.513 28.201 116.305 28.201C111.765 28.201 109.496 25.7333 109.496 20.7934V11.2955ZM137.506 14.7485C136.661 12.627 134.777 11.0647 132.008 11.0647C128.409 11.0647 126.106 13.6049 126.106 17.7428C126.106 21.7773 128.226 24.4402 131.836 24.4402C134.673 24.4402 136.699 22.7981 137.506 20.755V14.7485ZM141.712 27.7601H137.583V24.958C136.429 26.6076 134.33 28.2394 130.928 28.2394C125.459 28.2394 121.803 23.6843 121.803 17.7428C121.803 11.7452 125.546 7.264 131.16 7.264C133.935 7.264 136.113 8.36766 137.583 10.3161V7.74482H141.712V27.7601Z" fill="#192830"/>
<defs>
<linearGradient id="paint0_linear_1804_12481" x1="9.80232" y1="17.3094" x2="39.2469" y2="18.8042" gradientUnits="userSpaceOnUse">
<stop stop-color="#0064E1"/>
<stop offset="0.4" stop-color="#0064E1"/>
<stop offset="0.83" stop-color="#0073EE"/>
<stop offset="1" stop-color="#0082FB"/>
</linearGradient>
<linearGradient id="paint1_linear_1804_12481" x1="7.42291" y1="20.5641" x2="7.42291" y2="9.76427" gradientUnits="userSpaceOnUse">
<stop stop-color="#0082FB"/>
<stop offset="1" stop-color="#0064E0"/>
</linearGradient>
</defs>
</svg>
