<svg width="123" height="41" viewBox="0 0 123 41" fill="none" xmlns="http://www.w3.org/2000/svg">
<path d="M52.9106 21.1224C52.9106 26.8971 48.393 31.1523 42.849 31.1523C37.305 31.1523 32.7875 26.8971 32.7875 21.1224C32.7875 15.3071 37.305 11.0925 42.849 11.0925C48.393 11.0925 52.9106 15.3071 52.9106 21.1224ZM48.5061 21.1224C48.5061 17.5138 45.8878 15.0448 42.849 15.0448C39.8102 15.0448 37.1919 17.5138 37.1919 21.1224C37.1919 24.6948 39.8102 27.2001 42.849 27.2001C45.8878 27.2001 48.5061 24.6903 48.5061 21.1224Z" fill="#EA4335"/>
<path d="M74.6164 21.1224C74.6164 26.8971 70.0989 31.1523 64.5549 31.1523C59.0109 31.1523 54.4933 26.8971 54.4933 21.1224C54.4933 15.3116 59.0109 11.0925 64.5549 11.0925C70.0989 11.0925 74.6164 15.3071 74.6164 21.1224ZM70.212 21.1224C70.212 17.5138 67.5937 15.0448 64.5549 15.0448C61.5161 15.0448 58.8978 17.5138 58.8978 21.1224C58.8978 24.6948 61.5161 27.2001 64.5549 27.2001C67.5937 27.2001 70.212 24.6903 70.212 21.1224Z" fill="#FBBC05"/>
<path d="M95.4179 11.6985V29.7053C95.4179 37.1124 91.0496 40.1376 85.8854 40.1376C81.0242 40.1376 78.0984 36.8863 76.995 34.2273L80.8297 32.631C81.5126 34.2635 83.1857 36.1899 85.8809 36.1899C89.1865 36.1899 91.235 34.1504 91.235 30.3112V28.8687H91.0812C90.0954 30.0851 88.1961 31.1478 85.7995 31.1478C80.7845 31.1478 76.1901 26.7795 76.1901 21.1586C76.1901 15.497 80.7845 11.0925 85.7995 11.0925C88.1916 11.0925 90.0909 12.1552 91.0812 13.3355H91.235V11.703H95.4179V11.6985ZM91.547 21.1586C91.547 17.6269 89.191 15.0448 86.1929 15.0448C83.1541 15.0448 80.6082 17.6269 80.6082 21.1586C80.6082 24.6541 83.1541 27.2001 86.1929 27.2001C89.191 27.2001 91.547 24.6541 91.547 21.1586Z" fill="#4285F4"/>
<path d="M102.314 1.14404V30.5373H98.018V1.14404H102.314Z" fill="#34A853"/>
<path d="M119.055 24.4236L122.473 26.7028C121.37 28.3352 118.711 31.1479 114.116 31.1479C108.419 31.1479 104.163 26.7435 104.163 21.118C104.163 15.1535 108.455 11.0881 113.624 11.0881C118.828 11.0881 121.374 15.2303 122.206 17.4687L122.663 18.6083L109.255 24.1614C110.282 26.1737 111.878 27.2002 114.116 27.2002C116.359 27.2002 117.915 26.0968 119.055 24.4236ZM108.532 20.8151L117.494 17.0934C117.002 15.8408 115.518 14.968 113.773 14.968C111.534 14.968 108.419 16.9442 108.532 20.8151Z" fill="#EA4335"/>
<path d="M16.5263 18.5132V14.258H30.8657C31.0059 14.9996 31.0782 15.8769 31.0782 16.8265C31.0782 20.0191 30.2055 23.9668 27.3927 26.7795C24.6569 29.6284 21.1614 31.1478 16.5308 31.1478C7.94796 31.1478 0.730774 24.1568 0.730774 15.5739C0.730774 6.99108 7.94796 0 16.5308 0C21.2789 0 24.6614 1.86308 27.2028 4.29142L24.2002 7.29406C22.3778 5.58472 19.9088 4.25524 16.5263 4.25524C10.2587 4.25524 5.35682 9.30637 5.35682 15.5739C5.35682 21.8415 10.2587 26.8926 16.5263 26.8926C20.5916 26.8926 22.9069 25.2601 24.3901 23.7769C25.593 22.574 26.3843 20.8557 26.6964 18.5087L16.5263 18.5132Z" fill="#4285F4"/>
</svg>
