<svg width="171" height="36" viewBox="0 0 171 36" fill="none" xmlns="http://www.w3.org/2000/svg">
<path d="M49.0647 3.00981C48.5473 2.75688 48.3245 3.23888 48.022 3.48374C47.9184 3.56273 47.8309 3.66539 47.7433 3.76016C46.9871 4.56584 46.1036 5.09527 44.9493 5.03198C43.2617 4.93712 41.8209 5.46655 40.5472 6.75423C40.2766 5.16637 39.3771 4.21823 38.0079 3.61007C37.2916 3.29403 36.5672 2.97798 36.0656 2.29066C35.7154 1.80103 35.6199 1.25591 35.4447 0.718671C35.3332 0.394822 35.2218 0.0629096 34.8476 0.00767756C34.4417 -0.0555315 34.2825 0.284011 34.1232 0.568669C33.4864 1.72993 33.2397 3.00972 33.2635 4.30529C33.3192 7.22045 34.5531 9.54288 37.0048 11.1941C37.2834 11.3837 37.355 11.5731 37.2675 11.8498C37.1003 12.4186 36.9013 12.9715 36.7262 13.5403C36.6147 13.9038 36.4475 13.9828 36.0575 13.8247C34.7122 13.2639 33.55 12.4343 32.5231 11.4311C30.7798 9.74838 29.2037 7.8919 27.2376 6.43827C26.7824 6.1026 26.3151 5.78374 25.8365 5.48233C23.8305 3.53906 26.0992 1.94314 26.6246 1.75369C27.1738 1.55617 26.8156 0.876651 25.0405 0.884714C23.2653 0.892518 21.6414 1.48507 19.5718 2.27505C19.2694 2.39358 18.9508 2.48038 18.6245 2.55147C16.7459 2.19606 14.7956 2.1169 12.7578 2.34615C8.92089 2.77275 5.8563 4.58179 3.60355 7.6708C0.897126 11.3837 0.260325 15.602 1.04044 20.0024C1.86037 24.6395 4.23244 28.4789 7.8783 31.481C11.6595 34.5934 16.0137 36.1182 20.9809 35.8259C23.9979 35.6521 27.3571 35.2493 31.1462 32.0498C32.1013 32.5238 33.1044 32.7133 34.7681 32.8555C36.0497 32.974 37.2836 32.7924 38.2388 32.5949C39.7353 32.2789 39.6319 30.8964 39.0906 30.6436C34.7045 28.6055 35.6676 29.4349 34.792 28.7634C37.0209 26.1328 40.3802 23.3993 41.6936 14.5435C41.797 13.8404 41.7095 13.3979 41.6936 12.8291C41.6856 12.4816 41.7652 12.3474 42.1632 12.3078C43.2617 12.1814 44.3284 11.8813 45.3075 11.344C48.1494 9.79572 49.2956 7.25192 49.5662 4.20254C49.6061 3.73641 49.5583 3.25449 49.0647 3.00981ZM24.3003 30.454C20.0496 27.1204 17.9879 26.0222 17.1361 26.0696C16.3401 26.117 16.4834 27.0255 16.6584 27.6182C16.8416 28.2026 17.0804 28.6056 17.4147 29.1191C17.6455 29.4587 17.8048 29.9642 17.1839 30.3435C15.8147 31.1889 13.4346 30.0591 13.323 30.0038C10.553 28.3763 8.23654 26.2275 6.60461 23.2889C5.02847 20.4605 4.11311 17.4271 3.9618 14.1882C3.922 13.4061 4.15283 13.1295 4.93295 12.9874C5.95981 12.7978 7.01857 12.7581 8.04543 12.9082C12.3839 13.5403 16.0774 15.4758 19.1738 18.5409C20.941 20.2868 22.2783 22.3725 23.6555 24.4106C25.1202 26.5751 26.6963 28.6371 28.7023 30.3277C29.4107 30.9201 29.9759 31.3704 30.5172 31.7023C28.8854 31.884 26.163 31.9236 24.3003 30.454ZM26.3381 17.3797C26.3381 17.0321 26.6168 16.7557 26.9671 16.7557C27.0467 16.7557 27.1183 16.7713 27.182 16.7949C27.2697 16.8267 27.3493 16.8741 27.4129 16.945C27.5244 17.0557 27.588 17.2136 27.588 17.3796C27.588 17.7273 27.3095 18.0036 26.9593 18.0036C26.6091 18.0036 26.3381 17.7273 26.3381 17.3797ZM32.6666 20.6187C32.2606 20.7846 31.8547 20.9267 31.4646 20.9425C30.8596 20.9741 30.1989 20.7292 29.8408 20.429C29.2836 19.9628 28.8855 19.7024 28.7184 18.8885C28.6467 18.5409 28.6865 18.0037 28.7503 17.6957C28.8935 17.0321 28.7343 16.6056 28.2647 16.2183C27.8826 15.9023 27.397 15.8155 26.8636 15.8155C26.6646 15.8155 26.4816 15.7285 26.3462 15.6574C26.1233 15.5469 25.9403 15.2704 26.1154 14.9307C26.1711 14.8202 26.4418 14.5515 26.5055 14.5041C27.2299 14.0932 28.0658 14.2276 28.8379 14.5357C29.5544 14.828 30.0957 15.3652 30.8757 16.1236C31.6717 17.0399 31.815 17.2929 32.2687 17.98C32.6271 18.5173 32.9534 19.0702 33.1762 19.7023C33.3116 20.0973 33.1363 20.4211 32.6666 20.6187Z" fill="#4D6BFE"/>
<path d="M104.555 12.8565C103.428 12.8565 102.293 13.1031 101.556 13.7973C101.492 13.8566 101.432 13.9205 101.373 13.9845H100.833V12.8565H97.8709V30.6131H100.833V19.5792C100.833 18.442 101.08 17.3003 101.767 16.5558C102.453 15.8069 103.506 15.542 104.555 15.542C105.598 15.542 106.656 15.8069 107.342 16.5558C108.029 17.3003 108.276 18.442 108.276 19.5793C108.276 20.7118 108.029 21.8536 107.342 22.598C106.656 23.3469 105.598 23.6118 104.555 23.6118H102.87V26.2972H104.555C106.299 26.2972 108.052 25.8542 109.196 24.612C110.341 23.3697 110.748 21.4699 110.748 19.5791C110.748 17.6883 110.341 15.784 109.196 14.5417C108.052 13.2995 106.299 12.8565 104.555 12.8565ZM63.1802 20.045C63.1802 21.1821 62.933 22.3239 62.2463 23.0684C61.5597 23.8128 60.5068 24.0822 59.4585 24.0822C58.4102 24.0822 57.3572 23.8127 56.6706 23.0684C55.9839 22.3239 55.7368 21.1821 55.7368 20.045C55.7368 18.9123 55.9839 17.7661 56.6706 17.0216C57.3573 16.2771 58.4102 16.0123 59.4585 16.0123H61.1431V13.3268H59.4585C57.7143 13.3268 55.961 13.7699 54.8165 15.012C53.6721 16.2543 53.2646 18.1541 53.2646 20.0449C53.2646 21.9357 53.6721 23.8401 54.8165 25.0823C55.961 26.3245 57.7143 26.7675 59.4585 26.7675C60.5846 26.7675 61.7153 26.5163 62.4569 25.8267C62.5199 25.7677 62.5795 25.7052 62.6355 25.6395H63.1802V26.7675H66.1421V9.00654H63.1802V20.045ZM74.5698 12.8565C72.757 12.8565 70.935 13.3178 69.7447 14.6011C68.5591 15.8845 68.1333 17.8529 68.1333 19.8122C68.1333 21.7668 68.5591 23.7397 69.7447 25.0231C70.935 26.3064 72.7569 26.7677 74.5698 26.7677C76.3827 26.7677 78.2046 26.3064 79.3949 25.0231C80.0037 24.3609 80.4157 23.5205 80.6721 22.5889H77.7423C77.6599 22.7129 77.5681 22.8305 77.4677 22.9405C76.7535 23.7124 75.6594 23.9864 74.57 23.9864C73.4851 23.9864 72.3909 23.7124 71.6768 22.9405C70.9626 22.1687 70.7062 20.9858 70.7062 19.8122C70.7062 18.6385 70.9626 17.4556 71.6768 16.6838C72.3909 15.9119 73.4851 15.6379 74.57 15.6379C75.6595 15.6379 76.7536 15.9119 77.4677 16.6838C77.9621 17.2182 78.2368 17.9443 78.3604 18.7344H73.1233V20.89H81.0109V19.8123C81.0109 17.853 80.5851 15.8845 79.3949 14.6012C78.2093 13.3179 76.3827 12.8565 74.5698 12.8565ZM89.4385 12.8565C87.6303 12.8565 85.8037 13.3178 84.6181 14.6011C83.4278 15.8845 83.0021 17.8529 83.0021 19.8122C83.0021 21.7668 83.4279 23.7397 84.6181 25.0231C85.8037 26.3064 87.6303 26.7677 89.4385 26.7677C91.2513 26.7677 93.0733 26.3064 94.2636 25.0231C94.877 24.3609 95.2845 23.5205 95.5408 22.5889H92.6111C92.5287 22.7129 92.4368 22.8305 92.3364 22.9405C91.6223 23.7124 90.5281 23.9864 89.4432 23.9864C88.3537 23.9864 87.2596 23.7124 86.5454 22.9405C85.8313 22.1687 85.575 20.9858 85.575 19.8122C85.575 18.6385 85.8314 17.4556 86.5454 16.6838C87.2596 15.9119 88.3537 15.6379 89.4432 15.6379C90.5281 15.6379 91.6223 15.9119 92.3364 16.6838C92.8309 17.2182 93.1055 17.9443 93.2291 18.7344H87.9921V20.89H95.8796V19.8123C95.8796 17.853 95.4539 15.8845 94.2637 14.6012C93.078 13.3179 91.2514 12.8565 89.4385 12.8565ZM124.001 19.5837C122.816 18.8255 120.989 18.5562 119.181 18.5562H119.245C118.471 18.5562 117.693 18.4511 117.185 18.1543C116.677 17.8621 116.498 17.4098 116.498 16.9623C116.498 16.5149 116.677 16.0626 117.185 15.7703C117.693 15.4735 118.471 15.3685 119.245 15.3685C120.018 15.3685 120.797 15.4781 121.3 15.7703C121.808 16.0626 121.992 16.5148 121.992 16.9623H125.008C125.008 15.8069 124.619 14.6468 123.543 13.8887C122.468 13.1306 120.82 12.8566 119.181 12.8566C117.542 12.8566 115.894 13.1306 114.818 13.8887C113.742 14.6469 113.358 15.8069 113.358 16.9623C113.358 18.1178 113.742 19.2823 114.818 20.0359C115.894 20.794 117.542 21.068 119.181 21.068C120.032 21.068 120.966 21.173 121.525 21.4653C122.088 21.7622 122.289 22.2143 122.289 22.6619C122.289 23.1094 122.088 23.5615 121.525 23.8538C120.966 24.1461 120.105 24.2511 119.249 24.2511C118.398 24.2511 117.537 24.1462 116.974 23.8538C116.416 23.5569 116.214 23.1094 116.214 22.6619H112.74C112.74 23.8127 113.165 24.9774 114.356 25.7354C115.546 26.4936 117.368 26.763 119.181 26.763C120.989 26.763 122.816 26.4935 124.001 25.7355C125.191 24.9773 125.617 23.8127 125.617 22.6619C125.617 21.5064 125.191 20.3418 124.001 19.5837ZM134.049 12.8565C132.237 12.8565 130.415 13.3178 129.224 14.6011C128.039 15.8845 127.608 17.8529 127.608 19.8122C127.608 21.7668 128.039 23.7397 129.224 25.0231C130.415 26.3064 132.237 26.7677 134.049 26.7677C135.862 26.7677 137.684 26.3064 138.874 25.0231C139.483 24.3609 139.895 23.5205 140.147 22.5889H137.222C137.139 22.7129 137.048 22.8305 136.947 22.9405C136.233 23.7124 135.139 23.9864 134.049 23.9864C132.964 23.9864 131.866 23.7124 131.156 22.9405C130.442 22.1687 130.186 20.9858 130.186 19.8122C130.186 18.6385 130.442 17.4556 131.156 16.6838C131.866 15.9119 132.964 15.6379 134.049 15.6379C135.139 15.6379 136.233 15.9119 136.947 16.6838C137.442 17.2182 137.716 17.9443 137.84 18.7344H132.598V20.89H140.49V19.8123C140.49 17.853 140.065 15.8845 138.874 14.6012C137.684 13.3179 135.862 12.8565 134.049 12.8565ZM148.918 12.8565C147.105 12.8565 145.283 13.3178 144.093 14.6011C142.908 15.8845 142.477 17.8529 142.477 19.8122C142.477 21.7668 142.908 23.7397 144.093 25.0231C145.283 26.3064 147.105 26.7677 148.918 26.7677C150.731 26.7677 152.553 26.3064 153.743 25.0231C154.352 24.3609 154.764 23.5205 155.021 22.5889H152.091C152.008 22.7129 151.916 22.8305 151.816 22.9405C151.102 23.7124 150.008 23.9864 148.918 23.9864C147.833 23.9864 146.735 23.7124 146.025 22.9405C145.311 22.1687 145.055 20.9858 145.055 19.8122C145.055 18.6385 145.311 17.4556 146.025 16.6838C146.735 15.9119 147.833 15.6379 148.918 15.6379C150.008 15.6379 151.102 15.9119 151.816 16.6838C152.311 17.2182 152.585 17.9443 152.709 18.7344H147.472V20.89H155.359V19.8123C155.359 17.853 154.934 15.8845 153.743 14.6012C152.553 13.3179 150.731 12.8565 148.918 12.8565ZM157.346 8.38538H160.308V26.7677H157.346V8.38538ZM166.557 13.4731L161.695 19.3965L166.557 26.7677H170.228L165.366 19.3965L170.228 13.4731H166.557Z" fill="#4D6BFE"/>
</svg>
