<svg width="195" height="24" viewBox="0 0 195 24" fill="none" xmlns="http://www.w3.org/2000/svg">
<path d="M18.3089 14.5164H5.32057V11.3014H22.0687C21.6292 9.9374 20.2132 8.67086 17.7229 8.67086H5.56471C2.7815 8.67086 1.17017 9.69384 1.17017 11.9346V14.3216C1.17017 16.2701 2.83033 17.3905 5.27174 17.3905H18.4065V20.8004H0.730713C1.17017 22.6515 2.58619 23.6258 5.12525 23.6258H18.3577C21.1409 23.6258 22.5081 22.5541 22.5081 20.2646V17.8776C22.5081 15.783 20.8968 14.6626 18.3089 14.5164ZM44.8226 8.71957H28.807V23.6745H33.348V17.9263H45.1644C48.4359 17.9263 50.2426 16.8059 50.2426 14.1754V12.5192C50.1937 10.0835 48.1429 8.71957 44.8226 8.71957ZM46.2875 13.4935C46.2875 14.5651 46.0922 15.1497 44.3343 15.1497H33.348L33.3968 11.2527H44.139C46.0922 11.2527 46.3363 11.8372 46.3363 12.8602V13.4935H46.2875ZM65.3305 17.8289H55.6625L53.2699 20.362H67.2348L69.6274 23.6745H74.9985L63.4262 8.0863L60.6918 11.4475L65.3305 17.8289ZM83.6899 11.3014H100.682C100.243 9.5477 98.5337 8.67086 96.0923 8.67086H83.3969C81.1997 8.67086 79.1 9.5477 79.1 11.9346V20.3133C79.1 22.7002 81.1997 23.5771 83.3969 23.5771H96.2388C99.1685 23.5771 100.194 22.7489 100.682 20.7517H83.6899V11.3014ZM120.604 16.2701V13.737H106.883V23.6745H127.147V20.8491H111.473V16.2701H120.604ZM107.372 8.71957H127.831V11.3501H107.372V8.71957ZM140.428 8.71957H133.299L141.698 14.8574C142.919 14.0293 144.335 13.1525 145.604 12.4218L140.428 8.71957ZM150.78 16.3675C149.559 17.1956 148.338 18.1212 147.167 18.998L153.514 23.6258H160.692L150.78 16.3675Z" fill="black"/>
<path d="M194.823 0C155.76 2.2408 137.694 18.9007 133.641 22.8464L132.811 23.6258H140.038C159.569 4.0919 187.645 0.63327 194.823 0Z" fill="black"/>
</svg>
