<svg width="151" height="40" viewBox="0 0 151 40" fill="none" xmlns="http://www.w3.org/2000/svg">
<g clip-path="url(#clip0_1804_12497)">
<mask id="mask0_1804_12497" style="mask-type:luminance" maskUnits="userSpaceOnUse" x="1" y="0" width="150" height="37">
<path d="M1.18396 36.1946H150.469V0.993984H1.18396V36.1946Z" fill="white"/>
</mask>
<g mask="url(#mask0_1804_12497)">
<path fill-rule="evenodd" clip-rule="evenodd" d="M43.7451 9.10492C43.5576 6.56474 42.7681 7.33627 40.835 6.56476C39.2762 6.26347 39.1447 5.13456 40.6847 5.07846C43.4638 5.28457 44.8528 5.3224 47.1627 4.96501C48.2145 5.13456 48.6649 5.5676 49.0587 6.58304C50.9937 10.6851 53.8093 16.8376 55.7443 20.9391C56.0815 21.6734 56.2696 21.8234 56.7018 20.8824L62.4098 6.26346C63.0483 5.02174 63.7428 4.72107 65.7337 4.90953C69.1696 4.965 70.0145 4.87045 71.7048 4.68324C73.1692 4.73997 73.0755 5.86825 71.6299 6.26346C69.4137 6.28237 68.2494 7.03436 67.9116 8.69019L68.2311 25.4742C68.5878 27.9759 69.8837 28.0516 72.2118 28.6542C73.2629 29.1244 73.0377 29.8581 72.1363 30.1033C67.2731 29.5385 65.5828 29.575 60.7573 30.0465C59.3677 30.1782 59.274 28.9737 60.7761 28.6542C62.5602 28.2589 63.0112 27.9381 63.405 26.9977L63.0483 10.8169C62.9923 10.1771 62.5973 10.1771 62.3532 10.9303L55.5374 27.9948C54.8989 29.4439 54.617 29.4439 53.9226 28.3157L45.8675 10.8358C45.6228 10.2332 45.3227 10.4223 45.285 10.798L45.3605 26.2262C45.5851 28.0138 46.8249 28.1272 49.3405 28.917C50.0545 29.1433 50.0923 29.7446 49.5098 30.1209C44.5899 29.7068 43.8017 29.7068 39.2385 30.2905C38.5251 30.2905 38.1873 29.2366 39.2951 29.0866C41.7176 28.3913 42.3744 28.3535 42.731 26.9599L43.7451 9.10492ZM71.4607 21.4849C72.1923 14.1096 78.296 12.3782 81.4306 12.3592C85.1496 12.4727 86.3322 13.6955 86.3687 14.9372C86.4065 16.1796 85.5251 16.8376 84.5671 16.5735C82.5208 16.0478 82.9146 13.8827 80.1926 13.7144C77.1122 14.1657 75.2533 17.628 75.7798 21.7667C76.3044 25.9066 80.3046 28.9926 85.1873 26.4714C86.3687 26.2073 86.4637 27.1861 85.5063 27.8631C76.5309 33.3954 71.0851 25.5114 71.4607 21.4849ZM88.3408 16.9322C89.1674 8.06996 94.839 4.36243 102.818 3.70438C111.231 3.7611 112.432 4.32587 112.32 9.02928C112.375 10.7229 111.25 11.1175 110.461 9.19821C109.559 7.46799 108.807 6.47085 106.668 5.58651C99.4191 3.94958 94.0508 8.6158 93.7306 16.5552C93.2236 27.7509 105.729 31.0241 108.32 26.8477C108.865 25.7566 108.865 22.8584 108.79 20.4695C108.34 18.8893 106.836 19.0393 105.373 18.9813C103.795 19.0948 103.232 17.3072 105.354 17.3261C107.401 17.3261 111.344 17.5146 116.414 17.045C117.916 17.1017 118.029 18.4746 116.189 18.6819C115.4 18.832 113.728 18.8131 113.503 20.1298C113.314 26.941 114.892 27.5996 109.766 29.4628C103.232 31.0052 96.1902 30.2904 92.2089 26.4335C90.4261 24.8533 88.1904 21.2221 88.3408 16.9322ZM120.92 18.8509C120.827 17.8354 120.696 17.045 119.531 16.7059C118.705 16.6303 118.309 15.8783 119.493 15.4263C121.859 14.6548 122.197 14.5231 124.018 13.0551C124.582 12.7557 125.238 12.9984 124.92 14.0151C124.788 14.786 124.808 15.1446 124.751 15.9722L124.77 26.3585C124.863 28.0516 126.177 28.3346 127.022 28.6718C127.867 29.0116 127.942 30.0087 126.947 30.0276C123.267 29.5183 122.46 29.4629 118.912 30.1783C117.727 30.1965 117.464 29.2945 118.929 28.7663C120.395 28.24 120.883 27.9948 120.957 26.7342L120.92 18.8509ZM131.566 26.6964C131.473 27.6374 131.041 28.259 129.276 28.7474C127.886 29.2 128.056 29.9337 129.464 29.9898C133.257 29.4439 134.441 29.5385 137.839 29.9148C139.172 29.8959 138.946 29.0304 138.119 28.6352C136.13 27.8631 135.81 27.8442 135.416 25.8701L135.265 5.92499C135.265 4.77718 135.698 3.44027 134.477 3.7422C132.205 4.64544 132.017 4.7211 129.952 5.43525C128.863 5.90609 129.276 6.43303 130.064 6.69588C131.171 7.14781 131.266 7.82539 131.322 8.63472L131.566 26.6964ZM143.246 26.8098C143.152 27.7509 142.72 28.3724 140.956 28.8603C139.566 29.3122 139.735 30.0465 141.144 30.1033C144.937 29.5574 146.119 29.6507 149.518 30.0276C150.851 30.0087 150.626 29.1433 149.8 28.7474C147.809 27.9759 147.49 27.957 147.096 25.9822L146.946 6.03717C146.946 4.88936 147.377 3.55373 146.157 3.85565C143.885 4.75826 143.697 4.83392 141.631 5.5487C140.542 6.01891 140.956 6.54586 141.744 6.80933C142.852 7.26063 142.946 7.93759 143.002 8.74628L143.246 26.8098ZM122.948 4.04412C124.112 4.04412 125.088 5.00283 125.088 6.18782C125.088 7.37407 124.112 8.35234 122.948 8.35234C121.784 8.35234 120.827 7.37407 120.827 6.18782C120.827 5.00283 121.784 4.04412 122.948 4.04412ZM1.92343 17.1794C0.6584 12.6676 1.39881 8.49307 1.39881 3.44235C5.90538 1.19843 10.3679 0.994839 15.2035 0.994839C19.3854 0.994839 25.3156 1.53564 28.8874 3.43604C29.2535 8.19618 29.4642 12.3865 28.2438 17.7953C27.0247 23.2046 23.4749 30.6751 15.3815 36.1954C6.54888 30.3946 3.66152 23.3824 1.92343 17.1794Z" fill="#ED1B2F"/>
</g>
<mask id="mask1_1804_12497" style="mask-type:luminance" maskUnits="userSpaceOnUse" x="-8" y="-12" width="175" height="69">
<path d="M-7.26929 56.3274H166.771V-12.0001H-7.26929V56.3274Z" fill="white"/>
</mask>
<g mask="url(#mask1_1804_12497)">
<path fill-rule="evenodd" clip-rule="evenodd" d="M6.14415 10.5631L1.79297 15.3044C2.76864 19.8509 5.47862 29.3774 15.3504 35.806C25.1329 29.0591 27.7548 19.813 28.3461 15.201L24.1163 10.5518L19.4324 15.3075L15.1177 10.5928L10.818 15.2489L6.14415 10.5631ZM4.8721 6.89786L4.53995 7.37125L5.2835 7.3L4.8721 6.89786ZM6.10944 6.37284L6.64478 7.28553H5.59738L6.10944 6.37284ZM4.52233 8.05261C4.65946 8.05261 4.77143 8.16353 4.77143 8.30599C4.77143 8.44213 4.65946 8.55559 4.52233 8.55559C4.38582 8.55559 4.27576 8.44213 4.27576 8.30599C4.27576 8.16353 4.38582 8.05261 4.52233 8.05261ZM5.31241 7.88938C5.3812 7.88938 5.44719 7.91672 5.4959 7.9654C5.5446 8.01408 5.57206 8.08013 5.57223 8.14906C5.57223 8.29971 5.45646 8.41001 5.31241 8.41001C5.18345 8.41001 5.05828 8.29971 5.05828 8.14906C5.05828 8.00661 5.18345 7.88938 5.31241 7.88938ZM6.11321 7.84525C6.25223 7.84525 6.36987 7.9606 6.36987 8.10305C6.36987 8.2455 6.25223 8.36273 6.11321 8.36273C5.97859 8.36273 5.85719 8.2455 5.85719 8.10305C5.85719 7.9606 5.97859 7.84525 6.11321 7.84525ZM6.11635 9.28047C5.13125 9.28299 4.39716 9.18655 4.39716 9.06364C4.39716 8.94136 5.12559 8.81783 6.11635 8.81531C7.10775 8.81468 7.83559 8.93884 7.83559 9.06049C7.83559 9.18214 7.10146 9.27858 6.11635 9.28047ZM7.73242 8.05261C7.59655 8.05261 7.48267 8.16353 7.48267 8.30599C7.48267 8.44213 7.59655 8.55559 7.73242 8.55559C7.86767 8.55559 7.97838 8.44213 7.97838 8.30599C7.97838 8.16353 7.86767 8.05261 7.73242 8.05261ZM6.94295 7.88938C6.79701 7.88938 6.67937 8.00661 6.67937 8.14906C6.67937 8.29971 6.79701 8.41001 6.94295 8.41001C7.07443 8.41001 7.19582 8.29971 7.19582 8.14906C7.19582 8.00661 7.07443 7.88938 6.94295 7.88938ZM7.38326 6.89786L7.71415 7.37125L6.97063 7.3L7.38326 6.89786ZM6.11574 8.60979C6.62905 8.6079 7.43234 8.66025 7.91672 8.81215C8.03561 8.56003 8.24634 8.13771 8.36083 7.9669C7.94628 7.71918 6.67369 7.6448 6.11697 7.64732C5.56025 7.64795 4.28707 7.72232 3.87315 7.97067C3.98701 8.14085 4.19898 8.56381 4.31473 8.81531C4.79973 8.6634 5.60243 8.61106 6.11574 8.60979ZM6.11574 7.42418C6.82028 7.42166 8.16141 7.5288 8.47908 7.7595C8.59043 7.58112 9.40318 6.05577 9.48118 5.61834C9.18867 5.5074 8.91881 5.89315 8.80117 5.92214C8.59359 5.60068 8.38976 5.60068 8.29037 5.61518C8.11612 5.66687 8.20922 5.72612 8.27905 5.74818C9.37361 6.67474 7.75379 7.59376 7.47261 6.66341C6.07987 6.77876 6.4416 5.65552 6.80016 5.51496C7.03669 5.44437 6.84479 5.40781 6.77056 5.38197C6.68186 5.36369 6.50889 5.35106 6.48625 5.42544C6.50889 4.87328 6.44159 4.44721 6.11259 4.26253C5.78234 4.44784 5.72257 4.87771 5.74585 5.42986C5.72257 5.35549 5.55148 5.36621 5.46215 5.38512C5.38918 5.41096 5.19668 5.44751 5.43132 5.51873C5.79177 5.65929 6.15285 6.78253 4.75949 6.66718C4.4783 7.5969 2.86035 6.67789 3.9524 5.75133C4.02348 5.73053 4.11786 5.67004 3.94487 5.61772C3.84045 5.60385 3.64166 5.60384 3.43219 5.9253C3.3133 5.89631 3.0434 5.51056 2.75026 5.62149C2.83141 6.05956 3.64416 7.58429 3.75236 7.76204C4.07129 7.53197 5.4112 7.42481 6.11574 7.42418ZM22.8663 6.89786L22.5329 7.37125L23.2765 7.3L22.8663 6.89786ZM24.1024 6.37284L24.639 7.28553H23.5904L24.1024 6.37284ZM22.516 8.05261C22.6525 8.05261 22.7644 8.16353 22.7644 8.30599C22.7644 8.44213 22.6525 8.55559 22.516 8.55559C22.3795 8.55559 22.2694 8.44213 22.2694 8.30599C22.2694 8.16353 22.3795 8.05261 22.516 8.05261ZM23.306 7.88938C23.3748 7.88938 23.4408 7.91672 23.4895 7.9654C23.5382 8.01408 23.5657 8.08013 23.5659 8.14906C23.5659 8.29971 23.4501 8.41001 23.306 8.41001C23.1765 8.41001 23.0519 8.29971 23.0519 8.14906C23.0519 8.00661 23.1765 7.88938 23.306 7.88938ZM24.1068 7.84525C24.2459 7.84525 24.3635 7.9606 24.3635 8.10305C24.3635 8.2455 24.2459 8.36273 24.1068 8.36273C23.9716 8.36273 23.8508 8.2455 23.8508 8.10305C23.8508 7.9606 23.9716 7.84525 24.1068 7.84525ZM24.1106 9.28047C23.1249 9.28299 22.3908 9.18655 22.3908 9.06364C22.3908 8.94136 23.1192 8.81783 24.1106 8.81531C25.1007 8.81468 25.8286 8.93884 25.8286 9.06049C25.8286 9.18214 25.0951 9.27858 24.1106 9.28047ZM25.726 8.05261C25.5908 8.05261 25.4763 8.16353 25.4763 8.30599C25.4763 8.44213 25.5908 8.55559 25.726 8.55559C25.8606 8.55559 25.9714 8.44213 25.9714 8.30599C25.9714 8.16353 25.8606 8.05261 25.726 8.05261ZM24.9365 7.88938C24.79 7.88938 24.6724 8.00661 24.6724 8.14906C24.6724 8.29971 24.79 8.41001 24.9365 8.41001C25.068 8.41001 25.1888 8.29971 25.1888 8.14906C25.1888 8.00661 25.068 7.88938 24.9365 7.88938ZM25.3769 6.89786L25.7078 7.37125L24.9642 7.3L25.3769 6.89786ZM24.1087 8.60979C24.622 8.6079 25.426 8.66025 25.9103 8.81215C26.0286 8.56003 26.2393 8.13771 26.3545 7.9669C25.9399 7.71918 24.6673 7.6448 24.1106 7.64732C23.5533 7.64795 22.2807 7.72232 21.8667 7.97067C21.98 8.14085 22.1926 8.56381 22.3084 8.81531C22.7934 8.6634 23.596 8.61106 24.1087 8.60979ZM24.1093 7.42418C24.8132 7.42166 26.1538 7.5288 26.4733 7.7595C26.584 7.58112 27.3968 6.05577 27.4742 5.61834C27.1823 5.5074 26.9124 5.89315 26.7935 5.92214C26.5872 5.60068 26.3834 5.60068 26.284 5.61518C26.1098 5.66687 26.2029 5.72612 26.2727 5.74818C27.3672 6.67474 25.748 7.59376 25.4669 6.66341C24.0729 6.77876 24.4358 5.65552 24.7944 5.51496C25.0303 5.44437 24.8378 5.40781 24.7642 5.38197C24.6755 5.36369 24.5019 5.35106 24.4792 5.42544C24.5019 4.87328 24.4358 4.44721 24.1062 4.26253C23.7759 4.44784 23.7162 4.87771 23.7388 5.42986C23.7162 5.35549 23.5445 5.36621 23.4551 5.38512C23.3828 5.41096 23.1903 5.44751 23.425 5.51873C23.7854 5.65929 24.1452 6.78253 22.7531 6.66718C22.4713 7.5969 20.854 6.67789 21.9454 5.75133C22.0171 5.73053 22.1121 5.67004 21.9379 5.61772C21.8341 5.60385 21.6359 5.60384 21.4252 5.9253C21.3069 5.89631 21.037 5.51056 20.7439 5.62149C20.8244 6.05956 21.6384 7.58429 21.746 7.76204C22.0656 7.53197 23.4048 7.42481 24.1093 7.42418Z" fill="white"/>
<path fill-rule="evenodd" clip-rule="evenodd" d="M6.6246 17.2189C6.70575 17.2189 6.7718 17.2838 6.7718 17.3658C6.7718 17.4465 6.70575 17.512 6.6246 17.512C6.54408 17.512 6.47743 17.4465 6.47743 17.3658C6.47743 17.2838 6.54408 17.2189 6.6246 17.2189ZM5.57093 19.3355C5.63761 19.1912 5.793 18.7455 5.85905 18.6018C5.793 18.4461 5.6376 18.3012 5.50424 18.3012C5.57092 18.1568 5.82256 17.9671 5.77412 17.8379C5.72631 17.7081 5.6112 17.72 5.35266 17.5858C5.44513 17.4011 5.63384 17.3046 5.77097 17.2788C5.90748 17.2523 5.91065 17.0494 6.15158 16.9195C6.39188 16.789 6.61076 16.7557 6.96051 16.7746C7.31153 16.7935 8.46586 17.1118 8.1658 18.4461C8.83134 19.7799 11.1387 18.0005 11.9603 18.0005C11.8049 18.3012 11.5828 18.6019 11.4388 18.8899C11.6608 19.0462 11.9603 18.8899 12.1817 18.8899C11.9603 19.6236 11.5168 19.9243 11.1387 20.2243C11.5168 21.4124 12.8844 20.9535 14.1117 20.813C13.9601 21.2208 13.4461 21.2573 13.2241 21.5567C13.6417 21.9992 14.1117 22.5911 14.4111 23.1912C13.86 22.825 12.7026 22.4474 12.3258 22.3031C11.5829 22.0011 10.0964 22.0011 9.35284 22.3031C9.50822 22.5911 9.79693 22.7474 10.0303 22.8918C9.65225 23.6356 8.90933 23.1912 8.46585 23.0468C8.08841 23.3361 7.39397 23.3582 7.20148 23.1912C7.20148 23.1912 7.20147 23.0058 7.4229 22.8438C7.5745 22.6321 6.97938 22.5911 6.82463 22.3031C6.82778 22.0282 7.11277 22.2986 7.27884 22.0011C6.90204 21.2574 5.34951 21.1124 5.57093 19.3355ZM17.1059 17.4326C17.1889 17.4326 17.2563 17.502 17.2563 17.5833C17.2563 17.6031 17.2525 17.6228 17.245 17.6412C17.2375 17.6596 17.2264 17.6763 17.2125 17.6904C17.1985 17.7045 17.1819 17.7157 17.1636 17.7234C17.1453 17.7311 17.1257 17.7351 17.1059 17.7352C17.0861 17.7351 17.0664 17.7311 17.0482 17.7234C17.0299 17.7157 17.0133 17.7045 16.9993 17.6904C16.9854 17.6763 16.9743 17.6596 16.9668 17.6412C16.9593 17.6228 16.9555 17.6031 16.9555 17.5833C16.9555 17.502 17.0229 17.4326 17.1059 17.4326ZM16.0724 19.5492C16.139 19.4049 16.2944 18.9611 16.3611 18.8168C16.2944 18.6605 16.139 18.5161 16.0057 18.5161C16.0723 18.3718 16.324 18.1827 16.2755 18.0529C16.2277 17.923 16.1133 17.9343 15.8541 17.8013C15.9466 17.616 16.1353 17.5196 16.2718 17.4937C16.4089 17.4685 16.4127 17.2637 16.6523 17.1351C16.8933 17.0053 17.1116 16.9719 17.4619 16.9908C17.8129 17.0091 18.9673 17.328 18.6678 18.6605C19.3334 19.9948 21.6401 18.2167 22.4611 18.2167C22.3057 18.5161 22.0843 18.8168 21.9396 19.1049C22.1623 19.2612 22.461 19.1049 22.6831 19.1049C22.461 19.8385 22.0176 20.1392 21.6402 20.4386C22.0176 21.628 23.3858 21.1691 24.6124 21.0286C24.4608 21.4351 23.9475 21.4729 23.7261 21.7723C24.1432 22.2136 24.6124 22.806 24.9125 23.4061C24.3614 23.0393 23.204 22.6611 22.8272 22.5167C22.0842 22.2167 20.5978 22.2167 19.8549 22.5167C20.0096 22.806 20.2977 22.9617 20.5311 23.1055C20.1537 23.8505 19.4108 23.4061 18.9673 23.2618C18.5898 23.5511 17.8947 23.5731 17.7029 23.4061C17.7029 23.4061 17.7029 23.2208 17.9249 23.0576C18.0765 22.8477 17.4808 22.806 17.3254 22.5167C17.3292 22.2432 17.6142 22.5136 17.7803 22.2167C17.4035 21.4729 15.8503 21.3286 16.0724 19.5492ZM12.087 24.8826C12.1631 24.8826 12.2247 24.9457 12.2247 25.0207C12.2247 25.0963 12.1631 25.1593 12.087 25.1593C12.0108 25.1593 11.9492 25.0963 11.9492 25.0207C11.9492 24.9457 12.0108 24.8826 12.087 24.8826ZM11.0421 26.9992C11.1094 26.8549 11.2648 26.4105 11.3309 26.2655C11.2648 26.1098 11.1094 25.9661 10.976 25.9661C11.0421 25.8212 11.2937 25.6327 11.2459 25.5028C11.1975 25.373 11.083 25.3837 10.8245 25.2501C10.9169 25.0648 11.105 24.9683 11.2421 24.9431C11.3793 24.9173 11.3824 24.7137 11.6227 24.5832C11.863 24.454 12.0819 24.4206 12.4323 24.4383C12.7827 24.4572 13.9377 24.7755 13.6376 26.1098C14.3038 27.4436 16.6105 25.6655 17.4314 25.6655C17.2767 25.9661 17.054 26.2655 16.9099 26.5548C17.132 26.7099 17.4314 26.5548 17.6535 26.5548C17.4314 27.2885 16.988 27.5879 16.6105 27.8879C16.988 29.078 18.3555 28.6179 19.5834 28.4779C19.4312 28.8851 18.9179 28.9217 18.6959 29.2223C19.1136 29.6629 19.5835 30.2561 19.8823 30.8561C19.3318 30.4893 18.1744 30.1111 17.7969 29.9667C17.054 29.6667 15.5675 29.6667 14.824 29.9667C14.98 30.2561 15.2681 30.4111 15.5015 30.5555C15.1241 31.3005 14.3805 30.8561 13.9377 30.7118C13.5596 31.0005 12.8651 31.0225 12.6732 30.8561C12.6732 30.8561 12.6732 30.6708 12.8947 30.5076C13.0463 30.2958 12.4512 30.2561 12.2958 29.9667C12.2996 29.6919 12.5845 29.9623 12.7506 29.6667C12.3738 28.9217 10.8207 28.7773 11.0421 26.9992Z" fill="#ED1B2F"/>
<path fill-rule="evenodd" clip-rule="evenodd" d="M12.1308 2.92761C12.1308 2.92761 12.7857 3.20114 13.3808 2.94208C14.0281 2.66032 14.6112 2.56389 15.078 2.77126V8.46934C14.6747 8.27646 14.2306 8.35082 13.6028 8.50273C12.9737 8.65464 12.6039 8.6477 12.1384 8.57017L12.1308 2.92761ZM11.9383 2.97551L11.447 3.44193V9.09207L11.9383 8.6288V2.97551ZM11.5942 9.20741L12.1119 8.75045C12.4969 8.9074 13.3279 8.73282 13.7242 8.65781C14.386 8.53238 14.6565 8.4504 15.0918 8.64769C14.8553 8.7851 14.7075 8.97674 14.7188 9.21122L11.5942 9.20741ZM18.8158 9.20303L18.2981 8.74791C17.9131 8.90297 17.0815 8.72966 16.6858 8.65465C16.024 8.52796 15.7542 8.44728 15.3176 8.64331C15.5548 8.78071 15.7026 8.97356 15.6913 9.20741L18.8158 9.20303ZM18.4384 2.93077L18.9303 3.39781V9.04795L18.4384 8.58467V2.93077ZM18.2459 2.92761C18.2459 2.92761 17.5992 3.20114 17.0041 2.94208C16.3568 2.66032 15.7724 2.56389 15.3069 2.77126V8.46934C15.7095 8.27646 16.153 8.35082 16.7821 8.50273C17.4099 8.65464 17.7804 8.6477 18.2459 8.57017V2.92761ZM15.1956 8.76934C14.9849 8.95906 14.9043 9.02907 14.9515 9.21753H15.4812C15.5063 9.01016 15.4284 8.92944 15.1956 8.76934Z" fill="white"/>
<path fill-rule="evenodd" clip-rule="evenodd" d="M13.9797 7.07702C13.9797 7.21443 14.0275 7.35059 14.1904 7.35059C14.3194 7.35059 14.3898 7.24784 14.3898 7.1098C14.3898 7.02912 14.3747 6.86212 14.1904 6.86212C14.1086 6.86212 13.9979 6.89171 13.9797 7.07702ZM13.8281 7.1325C13.813 6.92512 13.9426 6.70706 14.1904 6.71778C14.3823 6.71778 14.5603 6.85074 14.5414 7.11799C14.5339 7.28755 14.4452 7.48485 14.1829 7.49178C13.9161 7.48485 13.8356 7.26865 13.8281 7.1325ZM13.0587 7.54726V6.80284H13.2103L13.5173 7.30647V6.80284H13.6689V7.54726H13.5173L13.2179 7.04363V7.54726H13.0587ZM12.726 6.89551H12.8851V7.63928H12.726V6.89551ZM13.9646 5.84667V5.10163H14.1904L14.3275 5.66578L14.4641 5.10163H14.6855V5.84667H14.5339V5.25356L14.4049 5.84667H14.2451L14.1162 5.25356V5.84667H13.9646ZM13.2588 5.48046C13.2588 5.61724 13.3066 5.75338 13.4695 5.75338C13.5985 5.75338 13.6689 5.65063 13.6689 5.51385C13.6689 5.43191 13.6538 5.26552 13.4695 5.26552C13.3877 5.26552 13.277 5.29452 13.2588 5.48046ZM13.1065 5.53594C13.0927 5.32856 13.2217 5.11047 13.4695 5.12056C13.662 5.12056 13.8388 5.25352 13.8205 5.52078C13.813 5.69096 13.7243 5.88762 13.4613 5.89518C13.1953 5.88762 13.1141 5.67271 13.1065 5.53594ZM12.541 5.89518H12.6926C12.8958 5.89518 12.9109 5.40986 12.6857 5.40986H12.541V5.89518ZM12.7517 6.02191H12.3894V5.2756H12.7404C13.1361 5.32413 13.0549 5.98409 12.7517 6.02191ZM13.3034 4.35786V3.61283H13.4544L13.7614 4.11707V3.61283H13.913V4.35786H13.7614L13.4613 3.85297V4.35786H13.3034ZM12.9738 3.70235H13.133V4.44612H12.9738V3.70235ZM16.9224 7.21002C16.9224 7.34743 16.9702 7.48486 17.1331 7.48486C17.2621 7.48486 17.3332 7.3796 17.3332 7.24345C17.3332 7.16214 17.3181 6.99512 17.1331 6.99512C17.052 6.99512 16.9406 7.02597 16.9224 7.21002ZM16.7708 7.26549C16.7563 7.05812 16.8853 6.83943 17.1331 6.85077C17.3256 6.85077 17.5024 6.98374 17.4848 7.25099C17.4772 7.42181 17.3879 7.61785 17.1256 7.62478C16.8595 7.61785 16.7784 7.4029 16.7708 7.26549ZM16.1575 7.36952H16.3085C16.5123 7.36952 16.5267 6.88417 16.3015 6.88417H16.1575V7.36952ZM16.3682 7.49494H16.0053V6.75117H16.3569C16.7525 6.7997 16.6708 7.45838 16.3682 7.49494ZM16.93 5.2756H17.0891V6.02191H16.93V5.2756ZM16.2267 5.93996V5.19427H16.7526V5.32854H16.3827V5.49812H16.711V5.62796H16.3827V5.93996H16.2267ZM17.1885 4.52741V3.78364H17.3401L17.6471 4.28662V3.78364H17.7987V4.52741H17.6471L17.3476 4.02505V4.52741H17.1885ZM16.4676 4.04963C16.4676 4.18704 16.5154 4.32447 16.679 4.32447C16.8079 4.32447 16.8777 4.21983 16.8777 4.08368C16.8777 4.00174 16.8633 3.83535 16.679 3.83535C16.5966 3.83535 16.4865 3.86558 16.4676 4.04963ZM16.316 4.10572C16.3015 3.89898 16.4305 3.679 16.679 3.69035C16.8708 3.69035 17.0476 3.82336 17.0294 4.09187C17.0224 4.26143 16.9331 4.4587 16.6708 4.46501C16.4047 4.4587 16.3235 4.2425 16.316 4.10572ZM15.5882 3.97965C15.5951 3.74581 15.7247 3.61283 15.9354 3.61283C16.1204 3.61283 16.2386 3.71684 16.2455 3.88324H16.0939C16.0939 3.82778 16.053 3.74582 15.9423 3.74582C15.8285 3.74582 15.7391 3.85298 15.7391 4.01308C15.7391 4.12717 15.8058 4.25449 15.9241 4.25449C16.0052 4.25449 16.087 4.22362 16.0939 4.10953H16.2455C16.2644 4.23875 16.1204 4.39441 15.9354 4.39441C15.7391 4.39441 15.58 4.25447 15.5882 3.97965Z" fill="#ED1B2F"/>
</g>
</g>
<defs>
<clipPath id="clip0_1804_12497">
<rect width="150" height="40" fill="white" transform="translate(0.730713)"/>
</clipPath>
</defs>
</svg>
