<svg width="24" height="24" viewBox="0 0 24 24" fill="none" xmlns="http://www.w3.org/2000/svg">
<g clip-path="url(#clip0_899_8672)">
<path d="M12 22.875C18.0061 22.875 22.875 18.0061 22.875 12C22.875 5.9939 18.0061 1.125 12 1.125C5.9939 1.125 1.125 5.9939 1.125 12C1.125 18.0061 5.9939 22.875 12 22.875Z" fill="#64B5F6"/>
<path d="M12 21.375C17.1777 21.375 21.375 17.1777 21.375 12C21.375 6.82233 17.1777 2.625 12 2.625C6.82233 2.625 2.625 6.82233 2.625 12C2.625 17.1777 6.82233 21.375 12 21.375Z" fill="#42A5F5"/>
<path d="M6.69739 10.4072L8.28838 11.9982L6.69739 13.5892L5.1064 11.9982L6.69739 10.4072Z" fill="#FFD54F"/>
<path d="M12 10.4066L13.591 11.9976L12 13.5886L10.409 11.9976L12 10.4066Z" fill="#FFD54F"/>
<path d="M17.3026 10.406L18.8936 11.997L17.3026 13.588L15.7116 11.997L17.3026 10.406Z" fill="#FFD54F"/>
<path d="M12 5.10565L16.2427 9.3484L14.6516 10.9395L12 8.2879L9.34833 10.9395L7.7572 9.3484L12 5.10565Z" fill="#FFD54F"/>
<path d="M12 18.8944L7.7572 14.6516L9.34833 13.0605L12 15.7121L14.6516 13.0605L16.2427 14.6516L12 18.8944Z" fill="#FFD54F"/>
<path d="M12 0.75C9.77497 0.75 7.59989 1.4098 5.74984 2.64597C3.89979 3.88213 2.45785 5.63914 1.60636 7.69481C0.754875 9.75048 0.532087 12.0125 0.966171 14.1948C1.40025 16.3771 2.47171 18.3816 4.04505 19.955C5.61839 21.5283 7.62295 22.5998 9.80524 23.0338C11.9875 23.4679 14.2495 23.2451 16.3052 22.3936C18.3609 21.5422 20.1179 20.1002 21.354 18.2502C22.5902 16.4001 23.25 14.225 23.25 12C23.2466 9.01735 22.0603 6.15783 19.9512 4.04878C17.8422 1.93972 14.9827 0.753375 12 0.75ZM12 21C10.22 21 8.47992 20.4722 6.99987 19.4832C5.51983 18.4943 4.36628 17.0887 3.68509 15.4442C3.0039 13.7996 2.82567 11.99 3.17294 10.2442C3.5202 8.49836 4.37737 6.89471 5.63604 5.63604C6.89472 4.37737 8.49836 3.5202 10.2442 3.17293C11.99 2.82567 13.7996 3.0039 15.4442 3.68508C17.0887 4.36627 18.4943 5.51983 19.4832 6.99987C20.4722 8.47991 21 10.22 21 12C20.9972 14.3861 20.0481 16.6737 18.3609 18.3609C16.6737 20.0481 14.3861 20.9972 12 21ZM20.622 7.455L21.2723 7.08C21.586 7.66822 21.8427 8.28517 22.0388 8.92237L21.3143 9.11625C21.1356 8.54219 20.9039 7.98603 20.622 7.455ZM20.247 6.80625C19.9262 6.29864 19.5594 5.82163 19.1513 5.38125L19.6815 4.851C20.1356 5.33848 20.5425 5.86784 20.8969 6.432L20.247 6.80625ZM18.621 4.85025C18.1806 4.44206 17.7036 4.07526 17.196 3.7545L17.571 3.10463C18.1352 3.45897 18.6645 3.86591 19.152 4.32L18.621 4.85025ZM16.545 3.378C16.0141 3.09614 15.4581 2.86438 14.8841 2.68575L15.078 1.96125C15.7152 2.15729 16.3322 2.41397 16.9204 2.72775L16.545 3.378ZM14.1593 2.49375C13.573 2.36073 12.9757 2.28227 12.375 2.25938V1.50938C13.0411 1.53287 13.7035 1.61989 14.3531 1.76925L14.1593 2.49375ZM11.625 2.25938C11.0243 2.28227 10.427 2.36073 9.84076 2.49375L9.64688 1.76925C10.2965 1.61989 10.9589 1.53287 11.625 1.50938V2.25938ZM9.11588 2.68575C8.54194 2.86438 7.98591 3.09614 7.455 3.378L7.08 2.72775C7.66811 2.41399 8.28493 2.15732 8.922 1.96125L9.11588 2.68575ZM6.80625 3.7545C6.29865 4.07526 5.82164 4.44206 5.38126 4.85025L4.85026 4.32C5.33773 3.86591 5.86709 3.45897 6.43125 3.10463L6.80625 3.7545ZM4.85026 5.3805C4.44207 5.82088 4.07527 6.29789 3.75451 6.8055L3.10463 6.4305C3.45897 5.86634 3.86591 5.33698 4.32001 4.8495L4.85026 5.3805ZM3.37801 7.455C3.09614 7.98591 2.86439 8.54194 2.68576 9.11588L1.96126 8.922C2.1573 8.28479 2.41397 7.66785 2.72776 7.07963L3.37801 7.455ZM2.49376 9.84075C2.36074 10.427 2.28228 11.0243 2.25938 11.625H1.50938C1.53288 10.9589 1.6199 10.2965 1.76926 9.64688L2.49376 9.84075ZM2.25938 12.375C2.28228 12.9757 2.36074 13.573 2.49376 14.1593L1.76926 14.3531C1.6199 13.7035 1.53288 13.0411 1.50938 12.375H2.25938ZM2.68576 14.8841C2.86439 15.4581 3.09614 16.0141 3.37801 16.545L2.72776 16.92C2.41399 16.3319 2.15732 15.7151 1.96126 15.078L2.68576 14.8841ZM3.75451 17.1937C4.07527 17.7014 4.44207 18.1784 4.85026 18.6188L4.32001 19.1497C3.86591 18.6623 3.45897 18.1329 3.10463 17.5687L3.75451 17.1937ZM5.3805 19.1497C5.82089 19.5579 6.2979 19.9247 6.80551 20.2455L6.43051 20.8954C5.86634 20.541 5.33698 20.1341 4.8495 19.68L5.3805 19.1497ZM7.455 20.622C7.98591 20.9039 8.54194 21.1356 9.11588 21.3143L8.922 22.0387C8.2848 21.8427 7.66785 21.586 7.07963 21.2723L7.455 20.622ZM9.84076 21.5062C10.427 21.6393 11.0243 21.7177 11.625 21.7406V22.4906C10.9589 22.4671 10.2965 22.3801 9.64688 22.2308L9.84076 21.5062ZM12.375 21.7406C12.9757 21.7177 13.573 21.6393 14.1593 21.5062L14.3531 22.2308C13.7035 22.3801 13.0411 22.4671 12.375 22.4906V21.7406ZM14.8841 21.3143C15.4581 21.1356 16.0141 20.9039 16.545 20.622L16.92 21.2723C16.3318 21.586 15.7148 21.8427 15.0776 22.0387L14.8841 21.3143ZM17.1938 20.2455C17.7014 19.9247 18.1784 19.5579 18.6188 19.1497L19.149 19.68C18.6615 20.1341 18.1322 20.541 17.568 20.8954L17.1938 20.2455ZM19.1498 18.6195C19.5579 18.1791 19.9247 17.7021 20.2455 17.1945L20.8954 17.5695C20.541 18.1337 20.1341 18.663 19.68 19.1505L19.1498 18.6195ZM20.622 16.545C20.9039 16.0141 21.1356 15.4581 21.3143 14.8841L22.0388 15.078C21.8427 15.7152 21.586 16.3322 21.2723 16.9204L20.622 16.545ZM21.5063 14.1593C21.6393 13.573 21.7177 12.9757 21.7406 12.375H22.4906C22.4671 13.0411 22.3801 13.7035 22.2308 14.3531L21.5063 14.1593ZM21.7406 11.625C21.7177 11.0243 21.6393 10.427 21.5063 9.84075L22.2308 9.64688C22.3801 10.2965 22.4671 10.9589 22.4906 11.625H21.7406Z" fill="#0D47A0"/>
<path d="M8.55301 11.7349L6.96188 10.1437C6.89156 10.0734 6.79619 10.0339 6.69676 10.0339C6.59732 10.0339 6.50196 10.0734 6.43163 10.1437L4.84051 11.7349C4.77021 11.8052 4.73071 11.9005 4.73071 12C4.73071 12.0994 4.77021 12.1948 4.84051 12.2651L6.43163 13.8562C6.50196 13.9265 6.59732 13.966 6.69676 13.966C6.79619 13.966 6.89156 13.9265 6.96188 13.8562L8.55301 12.2651C8.62331 12.1948 8.6628 12.0994 8.6628 12C8.6628 11.9005 8.62331 11.8052 8.55301 11.7349ZM6.69676 13.0609L5.63588 12L6.69676 10.9391L7.75763 12L6.69676 13.0609Z" fill="#0D47A0"/>
<path d="M11.7349 10.1437L10.1437 11.7349C10.0734 11.8052 10.0339 11.9005 10.0339 12C10.0339 12.0994 10.0734 12.1948 10.1437 12.2651L11.7349 13.8562C11.8052 13.9265 11.9005 13.966 12 13.966C12.0994 13.966 12.1948 13.9265 12.2651 13.8562L13.8562 12.2651C13.9265 12.1948 13.966 12.0994 13.966 12C13.966 11.9005 13.9265 11.8052 13.8562 11.7349L12.2651 10.1437C12.1948 10.0734 12.0994 10.0339 12 10.0339C11.9005 10.0339 11.8052 10.0734 11.7349 10.1437ZM12 13.0609L10.9391 12L12 10.9391L13.0609 12L12 13.0609Z" fill="#0D47A0"/>
<path d="M19.1595 11.7349L17.5683 10.1437C17.498 10.0734 17.4026 10.0339 17.3032 10.0339C17.2038 10.0339 17.1084 10.0734 17.0381 10.1437L15.447 11.7349C15.3767 11.8052 15.3372 11.9005 15.3372 12C15.3372 12.0994 15.3767 12.1948 15.447 12.2651L17.0381 13.8562C17.1084 13.9265 17.2038 13.966 17.3032 13.966C17.4026 13.966 17.498 13.9265 17.5683 13.8562L19.1595 12.2651C19.2298 12.1948 19.2692 12.0994 19.2692 12C19.2692 11.9005 19.2298 11.8052 19.1595 11.7349ZM17.3032 13.0609L16.2423 12L17.3032 10.9391L18.3641 12L17.3032 13.0609Z" fill="#0D47A0"/>
<path d="M9.08324 11.2043C9.15357 11.2746 9.24893 11.3141 9.34837 11.3141C9.44781 11.3141 9.54317 11.2746 9.61349 11.2043L12 8.81813L14.3865 11.2043C14.4568 11.2746 14.5522 11.3141 14.6516 11.3141C14.7511 11.3141 14.8464 11.2746 14.9167 11.2043L16.5079 9.61351C16.5782 9.54318 16.6177 9.44782 16.6177 9.34838C16.6177 9.24895 16.5782 9.15358 16.5079 9.08326L12.2651 4.84051C12.1948 4.77021 12.0994 4.73071 12 4.73071C11.9006 4.73071 11.8052 4.77021 11.7349 4.84051L7.49212 9.08326C7.42182 9.15358 7.38232 9.24895 7.38232 9.34838C7.38232 9.44782 7.42182 9.54318 7.49212 9.61351L9.08324 11.2043ZM12 5.63588L15.7125 9.34838L14.652 10.4089L12.2655 8.02276C12.1952 7.95246 12.0998 7.91296 12.0004 7.91296C11.9009 7.91296 11.8056 7.95246 11.7352 8.02276L9.34874 10.4089L8.28749 9.34838L12 5.63588Z" fill="#0D47A0"/>
<path d="M14.9167 12.7958C14.8464 12.7255 14.7511 12.686 14.6516 12.686C14.5522 12.686 14.4568 12.7255 14.3865 12.7958L12 15.1819L9.61349 12.7958C9.54185 12.728 9.44698 12.6903 9.34837 12.6903C9.24976 12.6903 9.15489 12.728 9.08324 12.7958L7.49212 14.3865C7.42182 14.4568 7.38232 14.5522 7.38232 14.6516C7.38232 14.7511 7.42182 14.8464 7.49212 14.9168L11.7349 19.1595C11.8052 19.2298 11.9006 19.2693 12 19.2693C12.0994 19.2693 12.1948 19.2298 12.2651 19.1595L16.5079 14.9168C16.5782 14.8464 16.6177 14.7511 16.6177 14.6516C16.6177 14.5522 16.5782 14.4568 16.5079 14.3865L14.9167 12.7958ZM12 18.3641L8.28749 14.6516L9.34799 13.5911L11.7345 15.9773C11.8048 16.0476 11.9002 16.0871 11.9996 16.0871C12.0991 16.0871 12.1944 16.0476 12.2647 15.9773L14.6512 13.5911L15.7125 14.6516L12 18.3641Z" fill="#0D47A0"/>
</g>
<defs>
<clipPath id="clip0_899_8672">
<rect width="24" height="24" fill="white"/>
</clipPath>
</defs>
</svg>
