<svg width="22" height="22" viewBox="0 0 22 22" fill="none" xmlns="http://www.w3.org/2000/svg">
<g clip-path="url(#clip0_899_8637)">
<path d="M21.6698 13.661C20.2006 19.5538 14.2322 23.1401 8.33864 21.6706C2.44752 20.2015 -1.1388 14.2327 0.331048 8.34014C1.79953 2.4466 7.768 -1.14006 13.6598 0.329105C19.553 1.79829 23.139 7.76779 21.6698 13.661Z" fill="#F7931A"/>
<path d="M7.38175 12.8525C7.32194 13.001 7.17035 13.2238 6.82865 13.1392C6.84071 13.1567 5.95143 12.9202 5.95143 12.9202L5.35229 14.3017L6.92285 14.6933C7.21503 14.7665 7.50139 14.8431 7.78326 14.9153L7.28377 16.9208L8.4893 17.2215L8.98395 15.2374C9.31328 15.3268 9.63294 15.4093 9.94575 15.487L9.45281 17.4618L10.6597 17.7626L11.1592 15.7609C13.2172 16.1504 14.7647 15.9933 15.4161 14.1319C15.941 12.6332 15.39 11.7687 14.3072 11.2049C15.0958 11.0231 15.6897 10.5044 15.8482 9.43291C16.0672 7.96923 14.9527 7.1824 13.4289 6.65749L13.9232 4.67474L12.7163 4.37396L12.2351 6.30444C11.9178 6.22538 11.5919 6.15078 11.2681 6.07687L11.7528 4.13365L10.5466 3.83287L10.0519 5.81491C9.7893 5.7551 9.53153 5.69595 9.28126 5.63375L9.28262 5.62755L7.6182 5.21196L7.29712 6.50102C7.29712 6.50102 8.19259 6.70624 8.17368 6.71895C8.6625 6.84098 8.75083 7.16443 8.73607 7.4209L7.38175 12.8525ZM13.0907 13.2997C12.7177 14.7984 10.1943 13.9882 9.37616 13.7851L10.0389 11.1283C10.857 11.3324 13.4805 11.7367 13.0907 13.2997ZM13.464 9.41126C13.1237 10.7746 11.0234 10.0819 10.3421 9.91211L10.943 7.50243C11.6243 7.67224 13.8184 7.98917 13.464 9.41126Z" fill="white"/>
</g>
<defs>
<clipPath id="clip0_899_8637">
<rect width="22" height="22" fill="white"/>
</clipPath>
</defs>
</svg>
