<svg width="24" height="24" viewBox="0 0 24 24" fill="none" xmlns="http://www.w3.org/2000/svg">
<path d="M12 0.333313C9.6926 0.333313 7.43697 1.01755 5.51839 2.2995C3.59982 3.58145 2.10447 5.40353 1.22145 7.53534C0.338429 9.66714 0.10739 12.0129 0.557551 14.276C1.00771 16.5391 2.11885 18.6179 3.75047 20.2496C5.38208 21.8812 7.46088 22.9923 9.72399 23.4425C11.9871 23.8926 14.3329 23.6616 16.4647 22.7786C18.5965 21.8956 20.4186 20.4002 21.7005 18.4816C22.9825 16.5631 23.6667 14.3074 23.6667 12C23.6667 10.4679 23.3649 8.9508 22.7786 7.53534C22.1923 6.11987 21.333 4.83375 20.2496 3.7504C19.1663 2.66705 17.8802 1.80769 16.4647 1.22139C15.0492 0.63508 13.5321 0.333313 12 0.333313ZM15.4254 14.5666L12.525 18.7316C12.4655 18.8154 12.3868 18.8838 12.2955 18.9309C12.2041 18.9781 12.1028 19.0027 12 19.0027C11.8973 19.0027 11.796 18.9781 11.7046 18.9309C11.6133 18.8838 11.5346 18.8154 11.475 18.7316L8.57471 14.5666C8.54837 14.5263 8.53515 14.4789 8.53686 14.4307C8.53858 14.3826 8.55514 14.3362 8.58428 14.2978C8.61342 14.2595 8.65371 14.2311 8.69962 14.2166C8.74553 14.202 8.79482 14.2021 8.84071 14.2166L11.72 15.1733C11.9015 15.2355 12.0986 15.2355 12.28 15.1733L15.1605 14.2166C15.2064 14.2024 15.2555 14.2027 15.3011 14.2173C15.3468 14.232 15.3869 14.2604 15.4158 14.2987C15.4448 14.337 15.4612 14.3832 15.4629 14.4312C15.4646 14.4791 15.4515 14.5264 15.4254 14.5666ZM15.8384 12.1283L12 13.4233L8.16288 12.133C8.11424 12.1168 8.06976 12.09 8.03258 12.0547C7.99541 12.0194 7.96645 11.9763 7.94775 11.9286C7.92905 11.8809 7.92107 11.8296 7.92438 11.7784C7.92769 11.7272 7.94219 11.6774 7.96688 11.6325L11.44 5.33248C11.4967 5.2341 11.5783 5.1524 11.6767 5.09559C11.775 5.03877 11.8865 5.00886 12 5.00886C12.1136 5.00886 12.2251 5.03877 12.3234 5.09559C12.4217 5.1524 12.5034 5.2341 12.56 5.33248L16.0332 11.6383C16.0569 11.6829 16.0706 11.7322 16.0734 11.7826C16.0762 11.833 16.0681 11.8835 16.0496 11.9305C16.0311 11.9775 16.0026 12.0199 15.9662 12.0549C15.9297 12.0898 15.8861 12.1165 15.8384 12.133V12.1283Z" fill="black"/>
</svg>
