<svg width="24" height="24" viewBox="0 0 24 24" fill="none" xmlns="http://www.w3.org/2000/svg">
<g clip-path="url(#clip0_899_8744)">
<path d="M11.9999 23.6666C18.4432 23.6666 23.6666 18.4432 23.6666 11.9999C23.6666 5.5566 18.4432 0.333252 11.9999 0.333252C5.5566 0.333252 0.333252 5.5566 0.333252 11.9999C0.333252 18.4432 5.5566 23.6666 11.9999 23.6666Z" fill="#FFD54F"/>
<path d="M12 21.3332C17.1546 21.3332 21.3333 17.1546 21.3333 11.9999C21.3333 6.84524 17.1546 2.66656 12 2.66656C6.8453 2.66656 2.66663 6.84524 2.66663 11.9999C2.66663 17.1546 6.8453 21.3332 12 21.3332Z" fill="#F0A62D"/>
<path d="M11.9999 20.7499C16.8324 20.7499 20.7499 16.8324 20.7499 11.9999C20.7499 7.16745 16.8324 3.24994 11.9999 3.24994C7.16739 3.24994 3.24988 7.16745 3.24988 11.9999C3.24988 16.8324 7.16739 20.7499 11.9999 20.7499Z" fill="#FEC107"/>
<path d="M9.23216 14.4209H17.4834L15.2346 17.0459H6.9834L9.23216 14.4209Z" fill="#F0A62D"/>
<path d="M15.2346 10.9209L17.4834 13.5459H9.23216L6.9834 10.9209H15.2346Z" fill="#F0A62D"/>
<path d="M15.2346 10.0459H6.9834L9.23216 7.4209H17.4834L15.2346 10.0459Z" fill="#F0A62D"/>
<path d="M8.99876 14.1875H17.25L15.0012 16.8125H6.75L8.99876 14.1875Z" fill="white"/>
<path d="M15.0012 10.6875L17.25 13.3125H8.99876L6.75 10.6875H15.0012Z" fill="white"/>
<path d="M15.0012 9.8125H6.75L8.99876 7.1875H17.25L15.0012 9.8125Z" fill="white"/>
</g>
<defs>
<clipPath id="clip0_899_8744">
<rect width="24" height="24" fill="white"/>
</clipPath>
</defs>
</svg>
