<svg width="22" height="22" viewBox="0 0 22 22" fill="none" xmlns="http://www.w3.org/2000/svg">
<g clip-path="url(#clip0_899_8701)">
<path d="M11 22C17.0751 22 22 17.0751 22 11C22 4.92487 17.0751 0 11 0C4.92487 0 0 4.92487 0 11C0 17.0751 4.92487 22 11 22Z" fill="black"/>
<path d="M12.1418 9.64589V8.34679H15.0975V6.29749H6.89478V8.34679H9.85819V9.64589C7.37549 9.76579 5.51208 10.2641 5.51208 10.8559C5.51208 11.4477 7.37329 11.9482 9.85819 12.0659V16.3559H12.1418V12.0659C14.6245 11.9471 16.4879 11.4488 16.4879 10.8559C16.4879 10.263 14.63 9.76579 12.1418 9.64589ZM11 11.6875C8.31158 11.6875 6.13248 11.2717 6.13248 10.7712C6.13248 10.3411 7.71978 9.97918 9.85598 9.88239V11.3498C10.2234 11.3663 10.6051 11.3762 10.9978 11.3762C11.3905 11.3762 11.7744 11.3663 12.1396 11.3498V9.88239C14.2758 9.97918 15.8631 10.3411 15.8631 10.7712C15.8675 11.2772 13.6884 11.6875 11 11.6875Z" fill="white"/>
</g>
<defs>
<clipPath id="clip0_899_8701">
<rect width="22" height="22" fill="white"/>
</clipPath>
</defs>
</svg>
