<svg width="22" height="22" viewBox="0 0 22 22" fill="none" xmlns="http://www.w3.org/2000/svg">
<g clip-path="url(#clip0_899_8721)">
<path d="M11 20.9688C16.5056 20.9688 20.9688 16.5056 20.9688 11C20.9688 5.49441 16.5056 1.03125 11 1.03125C5.49441 1.03125 1.03125 5.49441 1.03125 11C1.03125 16.5056 5.49441 20.9688 11 20.9688Z" fill="#64B5F6"/>
<path d="M11 19.5938C15.7462 19.5938 19.5938 15.7462 19.5938 11C19.5938 6.2538 15.7462 2.40625 11 2.40625C6.2538 2.40625 2.40625 6.2538 2.40625 11C2.40625 15.7462 6.2538 19.5938 11 19.5938Z" fill="#42A5F5"/>
<path d="M16.2044 6.53125L13.4303 9.30531C13.1113 9.62461 12.7324 9.8779 12.3154 10.0507C11.8984 10.2235 11.4514 10.3125 11 10.3125C10.5486 10.3125 10.1017 10.2235 9.68466 10.0507C9.26765 9.8779 8.88879 9.62461 8.56972 9.30531L5.79565 6.53125H7.74128L9.54253 8.3325C9.73372 8.52428 9.96088 8.67645 10.211 8.78027C10.4611 8.88409 10.7292 8.93754 11 8.93754C11.2708 8.93754 11.539 8.88409 11.7891 8.78027C12.0392 8.67645 12.2663 8.52428 12.4575 8.3325L14.2588 6.53125H16.2044Z" fill="#FFD54F"/>
<path d="M16.2044 15.4687H14.2588L12.4575 13.6675C12.2663 13.4757 12.0392 13.3235 11.7891 13.2197C11.539 13.1159 11.2708 13.0624 11 13.0624C10.7292 13.0624 10.4611 13.1159 10.211 13.2197C9.96088 13.3235 9.73372 13.4757 9.54253 13.6675L7.74128 15.4687H5.79565L8.56972 12.6947C8.88879 12.3754 9.26765 12.1221 9.68466 11.9493C10.1017 11.7764 10.5486 11.6875 11 11.6875C11.4514 11.6875 11.8984 11.7764 12.3154 11.9493C12.7324 12.1221 13.1113 12.3754 13.4303 12.6947L16.2044 15.4687Z" fill="#FFD54F"/>
<path d="M11 0.6875C8.96038 0.6875 6.96657 1.29232 5.27069 2.42547C3.5748 3.55862 2.25303 5.16921 1.4725 7.05358C0.691968 8.93794 0.487746 11.0114 0.885656 13.0119C1.28357 15.0123 2.26574 16.8498 3.70797 18.292C5.1502 19.7343 6.98771 20.7164 8.98814 21.1143C10.9886 21.5123 13.0621 21.308 14.9464 20.5275C16.8308 19.747 18.4414 18.4252 19.5745 16.7293C20.7077 15.0334 21.3125 13.0396 21.3125 11C21.3094 8.2659 20.2219 5.64468 18.2886 3.71138C16.3553 1.77808 13.7341 0.690593 11 0.6875ZM11 19.25C9.36831 19.25 7.77326 18.7661 6.41655 17.8596C5.05984 16.9531 4.00242 15.6646 3.378 14.1571C2.75358 12.6496 2.5902 10.9908 2.90853 9.3905C3.22685 7.79016 4.01259 6.32015 5.16637 5.16637C6.32016 4.01259 7.79017 3.22685 9.39051 2.90852C10.9909 2.59019 12.6497 2.75357 14.1571 3.37799C15.6646 4.00242 16.9531 5.05984 17.8596 6.41655C18.7662 7.77325 19.25 9.3683 19.25 11C19.2475 13.1873 18.3774 15.2842 16.8308 16.8308C15.2842 18.3774 13.1873 19.2475 11 19.25ZM18.9035 6.83375L19.4996 6.49C19.7872 7.0292 20.0225 7.59474 20.2022 8.17884L19.5381 8.35656C19.3743 7.83034 19.1619 7.32053 18.9035 6.83375ZM18.5598 6.23906C18.2657 5.77376 17.9295 5.3365 17.5553 4.93281L18.0414 4.44675C18.4576 4.8936 18.8307 5.37885 19.1555 5.896L18.5598 6.23906ZM17.0693 4.44606C16.6656 4.07189 16.2283 3.73566 15.763 3.44163L16.1068 2.84591C16.6239 3.17072 17.1091 3.54375 17.556 3.96L17.0693 4.44606ZM15.1663 3.0965C14.6796 2.83812 14.1699 2.62568 13.6438 2.46194L13.8215 1.79781C14.4056 1.97752 14.9711 2.2128 15.5103 2.50044L15.1663 3.0965ZM12.9793 2.28594C12.4419 2.16401 11.8944 2.09209 11.3438 2.07109V1.38359C11.9544 1.40513 12.5616 1.4849 13.157 1.62181L12.9793 2.28594ZM10.6563 2.07109C10.1056 2.09209 9.55808 2.16401 9.02069 2.28594L8.84297 1.62181C9.43845 1.4849 10.0456 1.40513 10.6563 1.38359V2.07109ZM8.35622 2.46194C7.83012 2.62568 7.32042 2.83812 6.83375 3.0965L6.49 2.50044C7.0291 2.21282 7.59452 1.97754 8.1785 1.79781L8.35622 2.46194ZM6.23907 3.44163C5.77376 3.73566 5.3365 4.07189 4.93282 4.44606L4.44607 3.96C4.89292 3.54375 5.37817 3.17072 5.89532 2.84591L6.23907 3.44163ZM4.44607 4.93213C4.07189 5.33581 3.73566 5.77307 3.44163 6.23838L2.84591 5.89463C3.17072 5.37748 3.54375 4.89223 3.96 4.44537L4.44607 4.93213ZM3.0965 6.83375C2.83813 7.32042 2.62569 7.83011 2.46194 8.35622L1.79782 8.1785C1.97752 7.59439 2.21281 7.02886 2.50044 6.48966L3.0965 6.83375ZM2.28594 9.02069C2.16401 9.55808 2.09209 10.1056 2.0711 10.6562H1.3836C1.40514 10.0456 1.48491 9.43844 1.62182 8.84297L2.28594 9.02069ZM2.0711 11.3438C2.09209 11.8944 2.16401 12.4419 2.28594 12.9793L1.62182 13.157C1.48491 12.5616 1.40514 11.9544 1.3836 11.3438H2.0711ZM2.46194 13.6438C2.62569 14.1699 2.83813 14.6796 3.0965 15.1662L2.50044 15.51C2.21283 14.9709 1.97754 14.4055 1.79782 13.8215L2.46194 13.6438ZM3.44163 15.7609C3.73566 16.2262 4.07189 16.6635 4.44607 17.0672L3.96 17.5539C3.54375 17.1071 3.17072 16.6218 2.84591 16.1047L3.44163 15.7609ZM4.93213 17.5539C5.33581 17.9281 5.77307 18.2643 6.23838 18.5584L5.89463 19.1541C5.37748 18.8293 4.89223 18.4563 4.44538 18.04L4.93213 17.5539ZM6.83375 18.9035C7.32042 19.1619 7.83012 19.3743 8.35622 19.5381L8.1785 20.2022C7.5944 20.0225 7.02886 19.7872 6.48966 19.4996L6.83375 18.9035ZM9.02069 19.7141C9.55808 19.836 10.1056 19.9079 10.6563 19.9289V20.6164C10.0456 20.5949 9.43845 20.5151 8.84297 20.3782L9.02069 19.7141ZM11.3438 19.9289C11.8944 19.9079 12.4419 19.836 12.9793 19.7141L13.157 20.3782C12.5616 20.5151 11.9544 20.5949 11.3438 20.6164V19.9289ZM13.6438 19.5381C14.1699 19.3743 14.6796 19.1619 15.1663 18.9035L15.51 19.4996C14.9708 19.7872 14.4053 20.0225 13.8212 20.2022L13.6438 19.5381ZM15.7609 18.5584C16.2262 18.2643 16.6635 17.9281 17.0672 17.5539L17.5533 18.04C17.1064 18.4563 16.6212 18.8293 16.104 19.1541L15.7609 18.5584ZM17.5539 17.0679C17.9281 16.6642 18.2643 16.2269 18.5584 15.7616L19.1541 16.1054C18.8293 16.6225 18.4563 17.1078 18.04 17.5546L17.5539 17.0679ZM18.9035 15.1662C19.1619 14.6796 19.3743 14.1699 19.5381 13.6438L20.2022 13.8215C20.0225 14.4056 19.7872 14.9711 19.4996 15.5103L18.9035 15.1662ZM19.7141 12.9793C19.836 12.4419 19.9079 11.8944 19.9289 11.3438H20.6164C20.5949 11.9544 20.5151 12.5616 20.3782 13.157L19.7141 12.9793ZM19.9289 10.6562C19.9079 10.1056 19.836 9.55808 19.7141 9.02069L20.3782 8.84297C20.5151 9.43844 20.5949 10.0456 20.6164 10.6562H19.9289Z" fill="#0D47A0"/>
<path d="M16.2043 6.1875H14.2587C14.1675 6.18752 14.0801 6.22375 14.0157 6.28822L12.2134 8.0905C12.0541 8.25018 11.8649 8.37686 11.6566 8.4633C11.4483 8.54974 11.225 8.59423 10.9994 8.59423C10.7739 8.59423 10.5506 8.54974 10.3423 8.4633C10.134 8.37686 9.94476 8.25018 9.78549 8.0905L7.98424 6.28925C7.95241 6.25714 7.91456 6.23163 7.87286 6.21417C7.83115 6.19671 7.78642 6.18764 7.74121 6.1875H5.79558C5.7276 6.18751 5.66116 6.20768 5.60464 6.24546C5.54813 6.28323 5.50408 6.33691 5.47807 6.39971C5.45206 6.46252 5.44525 6.53162 5.45851 6.59829C5.47176 6.66496 5.50449 6.72621 5.55255 6.77428L8.32661 9.54834C8.67758 9.89959 9.09433 10.1782 9.55303 10.3683C10.0117 10.5584 10.5034 10.6563 11 10.6563C11.4965 10.6563 11.9882 10.5584 12.4469 10.3683C12.9056 10.1782 13.3223 9.89959 13.6733 9.54834L16.4474 6.77428C16.4954 6.72621 16.5281 6.66496 16.5414 6.59829C16.5547 6.53162 16.5479 6.46252 16.5218 6.39971C16.4958 6.33691 16.4518 6.28323 16.3953 6.24546C16.3388 6.20768 16.2723 6.18751 16.2043 6.1875ZM13.1872 9.06228C12.6071 9.64227 11.8203 9.96809 11 9.96809C10.1796 9.96809 9.39284 9.64227 8.81267 9.06228L6.62539 6.875H7.59889L9.29839 8.5745C9.52154 8.7985 9.78672 8.97624 10.0787 9.09751C10.3707 9.21879 10.6838 9.28122 11 9.28122C11.3161 9.28122 11.6292 9.21879 11.9212 9.09751C12.2132 8.97624 12.4784 8.7985 12.7015 8.5745L14.401 6.875H15.3745L13.1872 9.06228Z" fill="#0D47A0"/>
<path d="M13.6733 12.4516C13.3223 12.1004 12.9056 11.8218 12.4469 11.6316C11.9882 11.4415 11.4965 11.3437 11 11.3437C10.5034 11.3437 10.0117 11.4415 9.55303 11.6316C9.09433 11.8218 8.67758 12.1004 8.32661 12.4516L5.55255 15.2257C5.50449 15.2738 5.47176 15.335 5.45851 15.4017C5.44525 15.4684 5.45206 15.5375 5.47807 15.6003C5.50408 15.6631 5.54813 15.7168 5.60464 15.7545C5.66116 15.7923 5.7276 15.8125 5.79558 15.8125H7.74121C7.83237 15.8125 7.91979 15.7762 7.98424 15.7118L9.78652 13.9095C9.94579 13.7498 10.135 13.6231 10.3433 13.5367C10.5516 13.4502 10.7749 13.4058 11.0005 13.4058C11.226 13.4058 11.4493 13.4502 11.6576 13.5367C11.8659 13.6231 12.0552 13.7498 12.2144 13.9095L14.0157 15.7107C14.0475 15.7428 14.0854 15.7684 14.1271 15.7858C14.1688 15.8033 14.2135 15.8123 14.2587 15.8125H16.2043C16.2723 15.8125 16.3388 15.7923 16.3953 15.7545C16.4518 15.7168 16.4958 15.6631 16.5218 15.6003C16.5479 15.5375 16.5547 15.4684 16.5414 15.4017C16.5281 15.335 16.4954 15.2738 16.4474 15.2257L13.6733 12.4516ZM14.401 15.125L12.7015 13.4255C12.4784 13.2015 12.2132 13.0237 11.9212 12.9025C11.6292 12.7812 11.3161 12.7188 11 12.7188C10.6838 12.7188 10.3707 12.7812 10.0787 12.9025C9.78672 13.0237 9.52154 13.2015 9.29839 13.4255L7.59889 15.125H6.62539L8.81267 12.9377C9.39284 12.3577 10.1796 12.0319 11 12.0319C11.8203 12.0319 12.6071 12.3577 13.1872 12.9377L15.3745 15.125H14.401Z" fill="#0D47A0"/>
</g>
<defs>
<clipPath id="clip0_899_8721">
<rect width="22" height="22" fill="white"/>
</clipPath>
</defs>
</svg>
