<svg width="55" height="55" viewBox="0 0 55 55" fill="none" xmlns="http://www.w3.org/2000/svg">
<mask id="mask0_545_12156" style="mask-type:alpha" maskUnits="userSpaceOnUse" x="0" y="0" width="55" height="55">
<rect width="55" height="55" fill="#D9D9D9"/>
</mask>
<g mask="url(#mask0_545_12156)">
<path d="M19.7083 35.75L11.4583 27.5L19.7083 19.25L22.9167 22.5156L17.9323 27.5L22.9167 32.4844L19.7083 35.75ZM35.2917 35.75L32.0833 32.4844L37.0677 27.5L32.0833 22.5156L35.2917 19.25L43.5417 27.5L35.2917 35.75ZM11.4583 48.125C10.1979 48.125 9.11892 47.6762 8.22135 46.7786C7.32378 45.8811 6.875 44.8021 6.875 43.5417V34.375H11.4583V43.5417H20.625V48.125H11.4583ZM34.375 48.125V43.5417H43.5417V34.375H48.125V43.5417C48.125 44.8021 47.6762 45.8811 46.7786 46.7786C45.8811 47.6762 44.8021 48.125 43.5417 48.125H34.375ZM6.875 20.625V11.4583C6.875 10.1979 7.32378 9.11892 8.22135 8.22135C9.11892 7.32378 10.1979 6.875 11.4583 6.875H20.625V11.4583H11.4583V20.625H6.875ZM43.5417 20.625V11.4583H34.375V6.875H43.5417C44.8021 6.875 45.8811 7.32378 46.7786 8.22135C47.6762 9.11892 48.125 10.1979 48.125 11.4583V20.625H43.5417Z" fill="#9135E8"/>
</g>
</svg>
