<svg width="109" height="29" viewBox="0 0 109 29" fill="none" xmlns="http://www.w3.org/2000/svg">
<path d="M13.585 7.67416C13.585 11.4256 10.5439 14.4667 6.79249 14.4667C3.0411 14.4667 0 11.4256 0 7.67416C0 3.92277 3.0411 0.881668 6.79249 0.881668C10.5439 0.881668 13.585 3.92277 13.585 7.67416Z" fill="#EE3E08"/>
<path d="M14.4832 7.67417C14.4832 3.92278 17.5243 0.881668 21.2757 0.881668C25.0271 0.881668 28.0682 3.92277 28.0682 7.67416C28.0682 11.4256 25.0271 14.4667 21.2757 14.4667H14.4832V7.67417Z" fill="#EE3E08"/>
<path d="M0 22.1573C0 18.4059 3.0411 15.3648 6.79249 15.3648H13.585V22.1573C13.585 25.9087 10.5439 28.9498 6.79249 28.9498C3.0411 28.9498 0 25.9087 0 22.1573Z" fill="#EE3E08"/>
<path d="M28.0682 22.1573C28.0682 25.9087 25.0271 28.9498 21.2757 28.9498C17.5243 28.9498 14.4832 25.9087 14.4832 22.1573C14.4832 18.4059 17.5243 15.3648 21.2757 15.3648C25.0271 15.3648 28.0682 18.4059 28.0682 22.1573Z" fill="#EE3E08"/>
<path d="M49.9729 8.38308H43.5939L45.2182 6.4445V24.5597H41.1707V6.4445L42.8473 8.38308H36.4291V5.23944H49.9729V8.38308ZM50.8744 24.5597V10.6491H54.9481V15.4432L54.1098 14.9192C54.2058 14.2643 54.3805 13.6618 54.6337 13.1116C54.8869 12.5615 55.2144 12.0856 55.6161 11.6839C56.0178 11.2735 56.4937 10.9547 57.0438 10.7277C57.6027 10.5007 58.2402 10.3871 58.9562 10.3871C59.5151 10.3871 59.9517 10.4308 60.266 10.5181C60.5891 10.5967 60.79 10.6578 60.8686 10.7015L60.2006 14.3429C60.122 14.2992 59.9473 14.2294 59.6766 14.1333C59.4059 14.0372 59.0566 13.9892 58.6287 13.9892C57.9302 13.9892 57.3451 14.1071 56.8735 14.3429C56.402 14.5787 56.0221 14.893 55.734 15.286C55.4545 15.6702 55.2537 16.0981 55.1314 16.5696C55.0092 17.0412 54.9481 17.5171 54.9481 17.9974V24.5597H50.8744ZM64.2269 18.8226V16.1374H73.4482L73.0553 16.8185C73.0553 16.7486 73.0553 16.6831 73.0553 16.622C73.0553 16.5522 73.0553 16.4867 73.0553 16.4255C73.0553 15.9278 72.9374 15.4519 72.7016 14.9978C72.4658 14.535 72.0991 14.1595 71.6013 13.8713C71.1123 13.5744 70.4836 13.426 69.7152 13.426C68.9467 13.426 68.2831 13.5919 67.7242 13.9237C67.1741 14.2468 66.7505 14.714 66.4536 15.3253C66.1655 15.9365 66.0214 16.6744 66.0214 17.5389C66.0214 18.4296 66.1611 19.1937 66.4405 19.8311C66.7287 20.4599 67.1522 20.9445 67.7111 21.2851C68.2787 21.6256 68.9817 21.7959 69.82 21.7959C70.3614 21.7959 70.8285 21.7479 71.2215 21.6518C71.6144 21.547 71.9332 21.4161 72.1777 21.2589C72.4309 21.1017 72.623 20.927 72.754 20.7349C72.885 20.5428 72.9636 20.3551 72.9898 20.1717H76.9979C76.9455 20.7568 76.7447 21.3331 76.3954 21.9007C76.0461 22.4596 75.5614 22.966 74.9415 23.4201C74.3215 23.8655 73.5661 24.2191 72.6754 24.4811C71.7935 24.7431 70.7849 24.8741 69.6497 24.8741C68.1128 24.8741 66.7724 24.5684 65.6284 23.9572C64.4845 23.3372 63.5982 22.4858 62.9695 21.403C62.3407 20.3114 62.0264 19.054 62.0264 17.6306C62.0264 16.1898 62.3451 14.9279 62.9825 13.8451C63.6287 12.7536 64.5238 11.9066 65.6677 11.304C66.8204 10.6928 68.1521 10.3871 69.6628 10.3871C71.2084 10.3871 72.5444 10.6971 73.6709 11.3171C74.7974 11.9284 75.6662 12.7885 76.2775 13.8975C76.8888 14.9978 77.1944 16.2815 77.1944 17.7485C77.1944 17.9668 77.19 18.1764 77.1813 18.3772C77.1726 18.5781 77.1595 18.7265 77.142 18.8226H64.2269ZM82.8468 21.3768H90.3915V24.5597H78.4981V21.547L85.8594 13.6749L85.9511 13.8189H78.7601V10.6491H90.2343V13.6618L82.9385 21.5077L82.8468 21.3768ZM99.3895 24.861C97.8876 24.861 96.5646 24.551 95.4207 23.931C94.2768 23.311 93.3817 22.4596 92.7355 21.3768C92.0981 20.2852 91.7793 19.0278 91.7793 17.6044C91.7793 16.1898 92.0981 14.941 92.7355 13.8582C93.3817 12.7667 94.2768 11.9197 95.4207 11.3171C96.5646 10.7059 97.8876 10.4002 99.3895 10.4002C100.892 10.4002 102.214 10.7059 103.358 11.3171C104.502 11.9197 105.393 12.7667 106.03 13.8582C106.677 14.941 107 16.1898 107 17.6044C107 19.0278 106.677 20.2852 106.03 21.3768C105.393 22.4596 104.502 23.311 103.358 23.931C102.214 24.551 100.892 24.861 99.3895 24.861ZM99.3895 21.6387C100.097 21.6387 100.712 21.4728 101.236 21.141C101.76 20.8092 102.166 20.342 102.455 19.7395C102.743 19.1282 102.887 18.4165 102.887 17.6044C102.887 16.7923 102.743 16.0893 102.455 15.4955C102.166 14.893 101.76 14.4302 101.236 14.1071C100.712 13.784 100.097 13.6225 99.3895 13.6225C98.691 13.6225 98.0753 13.784 97.5427 14.1071C97.0187 14.4302 96.6127 14.893 96.3245 15.4955C96.0363 16.0893 95.8923 16.7923 95.8923 17.6044C95.8923 18.4165 96.0363 19.1282 96.3245 19.7395C96.6127 20.342 97.0187 20.8092 97.5427 21.141C98.0753 21.4728 98.691 21.6387 99.3895 21.6387Z" fill="#23272E"/>
</svg>
