<svg width="20" height="20" viewBox="0 0 20 20" fill="none" xmlns="http://www.w3.org/2000/svg">
<path d="M9.67912 4.83956C9.67912 7.51237 7.51237 9.67912 4.83956 9.67912C2.16674 9.67912 0 7.51237 0 4.83956C0 2.16674 2.16674 0 4.83956 0C7.51237 0 9.67912 2.16674 9.67912 4.83956Z" fill="#605DFF"/>
<path d="M10.3191 4.83956C10.3191 2.16675 12.4858 0 15.1586 0C17.8314 0 19.9982 2.16675 19.9982 4.83956C19.9982 7.51237 17.8314 9.67912 15.1586 9.67912H10.3191V4.83956Z" fill="#605DFF"/>
<path d="M0 15.1586C0 12.4858 2.16674 10.3191 4.83956 10.3191H9.67912V15.1586C9.67912 17.8314 7.51237 19.9982 4.83956 19.9982C2.16675 19.9982 0 17.8314 0 15.1586Z" fill="#605DFF"/>
<path d="M19.9982 15.1586C19.9982 17.8314 17.8314 19.9982 15.1586 19.9982C12.4858 19.9982 10.3191 17.8314 10.3191 15.1586C10.3191 12.4858 12.4858 10.3191 15.1586 10.3191C17.8314 10.3191 19.9982 12.4858 19.9982 15.1586Z" fill="#605DFF"/>
</svg>
