<svg width="132" height="34" viewBox="0 0 132 34" fill="none" xmlns="http://www.w3.org/2000/svg">
<path d="M16.4551 8.22753C16.4551 12.7715 12.7715 16.4551 8.22756 16.4551C3.6836 16.4551 0 12.7715 0 8.22753C0 3.68358 3.6836 -2.67029e-05 8.22756 -2.67029e-05C12.7715 -2.67029e-05 16.4551 3.68358 16.4551 8.22753Z" fill="#605DFF"/>
<path d="M17.5431 8.22754C17.5431 3.68358 21.2267 -2.67029e-05 25.7706 -2.67029e-05C30.3146 -2.67029e-05 33.9982 3.68358 33.9982 8.22753C33.9982 12.7715 30.3146 16.4551 25.7706 16.4551H17.5431V8.22754Z" fill="#605DFF"/>
<path d="M0 25.7706C0 21.2266 3.6836 17.543 8.22756 17.543H16.4551V25.7706C16.4551 30.3145 12.7715 33.9982 8.22756 33.9982C3.68361 33.9982 0 30.3145 0 25.7706Z" fill="#605DFF"/>
<path d="M33.9982 25.7706C33.9982 30.3146 30.3146 33.9982 25.7706 33.9982C21.2267 33.9982 17.5431 30.3146 17.5431 25.7706C17.5431 21.2266 21.2267 17.543 25.7706 17.543C30.3146 17.543 33.9982 21.2266 33.9982 25.7706Z" fill="#605DFF"/>
<path d="M60.5308 9.07205H52.8041L54.7715 6.7239V28.6663H49.8689V6.7239L51.8998 9.07205H44.1255V5.26425H60.5308V9.07205ZM61.6228 28.6663V11.8168H66.557V17.6237L65.5416 16.9891C65.658 16.1958 65.8695 15.466 66.1763 14.7996C66.483 14.1332 66.8796 13.5568 67.3662 13.0702C67.8528 12.5731 68.4292 12.187 69.0956 11.912C69.7725 11.637 70.5446 11.4995 71.412 11.4995C72.0889 11.4995 72.6178 11.5524 72.9986 11.6582C73.3899 11.7534 73.6332 11.8274 73.7284 11.8803L72.9192 16.291C72.824 16.2381 72.6125 16.1535 72.2846 16.0371C71.9567 15.9208 71.5336 15.8626 71.0153 15.8626C70.1692 15.8626 69.4605 16.0054 68.8893 16.291C68.3181 16.5766 67.858 16.9574 67.509 17.4333C67.1705 17.8987 66.9272 18.417 66.7792 18.9882C66.6311 19.5593 66.557 20.1358 66.557 20.7176V28.6663H61.6228ZM77.7962 21.7171V18.4646H88.9658L88.4898 19.2896C88.4898 19.205 88.4898 19.1257 88.4898 19.0516C88.4898 18.967 88.4898 18.8877 88.4898 18.8137C88.4898 18.2108 88.347 17.6343 88.0614 17.0843C87.7758 16.5237 87.3316 16.0689 86.7287 15.7198C86.1364 15.3602 85.3748 15.1804 84.444 15.1804C83.5132 15.1804 82.7094 15.3813 82.0324 15.7833C81.366 16.1746 80.8531 16.7405 80.4934 17.4809C80.1444 18.2213 79.9699 19.1151 79.9699 20.1622C79.9699 21.2411 80.1391 22.1666 80.4776 22.9388C80.8266 23.7003 81.3396 24.2874 82.0165 24.6999C82.7041 25.1124 83.5555 25.3186 84.5709 25.3186C85.2267 25.3186 85.7926 25.2605 86.2686 25.1441C86.7446 25.0172 87.1306 24.8585 87.4268 24.6681C87.7335 24.4777 87.9662 24.2662 88.1249 24.0335C88.2835 23.8008 88.3787 23.5734 88.4105 23.3513H93.2654C93.2019 24.06 92.9587 24.758 92.5356 25.4456C92.1125 26.1225 91.5255 26.736 90.7745 27.286C90.0235 27.8254 89.1086 28.2538 88.0297 28.5711C86.9614 28.8884 85.7397 29.0471 84.3647 29.0471C82.5031 29.0471 80.8795 28.6769 79.4939 27.9365C78.1083 27.1855 77.0347 26.1542 76.2731 24.8427C75.5116 23.5205 75.1308 21.9974 75.1308 20.2733C75.1308 18.5281 75.5168 16.9997 76.289 15.6881C77.0717 14.3659 78.1559 13.3399 79.5415 12.6101C80.9377 11.8697 82.5507 11.4995 84.3805 11.4995C86.2527 11.4995 87.871 11.875 89.2355 12.626C90.5999 13.3664 91.6524 14.4082 92.3928 15.7516C93.1332 17.0843 93.5034 18.6391 93.5034 20.4161C93.5034 20.6805 93.4981 20.9344 93.4875 21.1777C93.4769 21.4209 93.4611 21.6007 93.4399 21.7171H77.7962ZM100.35 24.8109H109.489V28.6663H95.0825V25.0172L103.999 15.4818L104.11 15.6564H95.3998V11.8168H109.298V15.466L100.461 24.9696L100.35 24.8109ZM120.388 29.0312C118.568 29.0312 116.966 28.6557 115.58 27.9048C114.195 27.1538 113.111 26.1225 112.328 24.8109C111.556 23.4888 111.17 21.9657 111.17 20.2416C111.17 18.5281 111.556 17.0155 112.328 15.704C113.111 14.3818 114.195 13.3558 115.58 12.626C116.966 11.8856 118.568 11.5154 120.388 11.5154C122.207 11.5154 123.809 11.8856 125.195 12.626C126.581 13.3558 127.66 14.3818 128.432 15.704C129.214 17.0155 129.606 18.5281 129.606 20.2416C129.606 21.9657 129.214 23.4888 128.432 24.8109C127.66 26.1225 126.581 27.1538 125.195 27.9048C123.809 28.6557 122.207 29.0312 120.388 29.0312ZM120.388 25.1282C121.245 25.1282 121.99 24.9273 122.625 24.5253C123.259 24.1234 123.751 23.5575 124.1 22.8277C124.449 22.0873 124.624 21.2253 124.624 20.2416C124.624 19.2579 124.449 18.4064 124.1 17.6872C123.751 16.9574 123.259 16.3968 122.625 16.0054C121.99 15.614 121.245 15.4184 120.388 15.4184C119.542 15.4184 118.796 15.614 118.151 16.0054C117.516 16.3968 117.024 16.9574 116.675 17.6872C116.326 18.4064 116.152 19.2579 116.152 20.2416C116.152 21.2253 116.326 22.0873 116.675 22.8277C117.024 23.5575 117.516 24.1234 118.151 24.5253C118.796 24.9273 119.542 25.1282 120.388 25.1282Z" fill="#23272E"/>
</svg>
