<svg width="64" height="66" viewBox="0 0 64 66" fill="none" xmlns="http://www.w3.org/2000/svg">
<g opacity="0.3">
<path d="M24.3332 8.978C24.3332 19.002 16.2072 27.128 6.1832 27.128C-3.84076 27.128 -11.9668 19.002 -11.9668 8.978C-11.9668 -1.04597 -3.84076 -9.172 6.1832 -9.172C16.2072 -9.172 24.3332 -1.04597 24.3332 8.978Z" fill="#FFAA72"/>
<path d="M26.7332 8.97801C26.7332 -1.04595 34.8592 -9.172 44.8832 -9.172C54.9072 -9.172 63.0332 -1.04596 63.0332 8.978C63.0332 19.002 54.9072 27.128 44.8832 27.128H26.7332V8.97801Z" fill="#FFAA72"/>
<path d="M-11.9668 47.678C-11.9668 37.654 -3.84077 29.528 6.18319 29.528H24.3332V47.678C24.3332 57.702 16.2072 65.828 6.1832 65.828C-3.84076 65.828 -11.9668 57.702 -11.9668 47.678Z" fill="#FFAA72"/>
<path d="M63.0332 47.678C63.0332 57.702 54.9072 65.828 44.8832 65.828C34.8592 65.828 26.7332 57.702 26.7332 47.678C26.7332 37.654 34.8592 29.528 44.8832 29.528C54.9072 29.528 63.0332 37.654 63.0332 47.678Z" fill="#FFAA72"/>
</g>
</svg>
