<svg width="60" height="60" viewBox="0 0 60 60" fill="none" xmlns="http://www.w3.org/2000/svg">
<path d="M34.848 17.424C34.848 27.047 27.047 34.848 17.424 34.848C7.80099 34.848 0 27.047 0 17.424C0 7.80099 7.80099 0 17.424 0C27.047 0 34.848 7.80099 34.848 17.424Z" fill="#3A4252"/>
<path d="M37.152 17.424C37.152 7.801 44.953 0 54.576 0C64.199 0 72 7.80099 72 17.424C72 27.047 64.199 34.848 54.576 34.848H37.152V17.424Z" fill="#3A4252"/>
<path d="M0 54.576C0 44.953 7.80098 37.152 17.424 37.152H34.848V54.576C34.848 64.199 27.047 72 17.424 72C7.80099 72 0 64.199 0 54.576Z" fill="#3A4252"/>
<path d="M72 54.576C72 64.199 64.199 72 54.576 72C44.953 72 37.152 64.199 37.152 54.576C37.152 44.953 44.953 37.152 54.576 37.152C64.199 37.152 72 44.953 72 54.576Z" fill="#3A4252"/>
</svg>
