<svg width="60" height="60" viewBox="0 0 60 60" fill="none" xmlns="http://www.w3.org/2000/svg">
<g opacity="0.3">
<path d="M22.848 17.424C22.848 27.047 15.047 34.848 5.424 34.848C-4.19901 34.848 -12 27.047 -12 17.424C-12 7.80099 -4.19901 0 5.424 0C15.047 0 22.848 7.80099 22.848 17.424Z" fill="#FFAA72"/>
<path d="M25.152 17.424C25.152 7.801 32.953 0 42.576 0C52.199 0 60 7.80099 60 17.424C60 27.047 52.199 34.848 42.576 34.848H25.152V17.424Z" fill="#FFAA72"/>
<path d="M-12 54.576C-12 44.953 -4.19902 37.152 5.42399 37.152H22.848V54.576C22.848 64.199 15.047 72 5.424 72C-4.19901 72 -12 64.199 -12 54.576Z" fill="#FFAA72"/>
<path d="M60 54.576C60 64.199 52.199 72 42.576 72C32.953 72 25.152 64.199 25.152 54.576C25.152 44.953 32.953 37.152 42.576 37.152C52.199 37.152 60 44.953 60 54.576Z" fill="#FFAA72"/>
</g>
</svg>
