<svg width="26" height="26" viewBox="0 0 26 26" fill="none" xmlns="http://www.w3.org/2000/svg">
<path d="M11.0035 11.7194C11.4536 11.0189 11.7105 10.1833 11.6957 9.2873C11.6559 6.88973 9.66056 4.98444 7.26259 4.98444H0.567818C0.254248 4.98444 0 5.23868 0 5.55225V20.2748C0 20.5884 0.254248 20.8427 0.567818 20.8427H8.04614C10.8218 20.8427 13.121 18.618 13.1323 15.8424C13.1393 14.1413 12.2958 12.6332 11.0035 11.7194ZM2.93703 7.92147H7.31975C8.11346 7.92147 8.75926 8.56721 8.75926 9.36098C8.75926 10.1547 8.11352 10.8005 7.31975 10.8005H2.93703V7.92147ZM8.11136 17.9056H2.93703V13.7375H7.31975H8.11131C9.26044 13.7375 10.1954 14.6724 10.1954 15.8216C10.1954 16.9707 9.2605 17.9056 8.11136 17.9056Z" fill="#0067FF"/>
<path d="M25.9999 14.7984C25.9999 11.3702 23.298 8.58124 19.9768 8.58124C16.6556 8.58124 13.9536 11.3702 13.9536 14.7984C13.9536 18.2265 16.6556 21.0155 19.9768 21.0155C21.992 21.0155 23.8646 19.9824 24.986 18.2519C25.1258 18.0362 25.2527 17.8108 25.3654 17.5784C25.4472 17.4097 25.3231 17.2135 25.1356 17.213L22.1748 17.2056C22.1093 17.2055 22.0472 17.2322 22.0003 17.2779C21.4412 17.8215 20.7557 18.0785 19.9768 18.0785C18.5053 18.0785 17.2719 16.9779 16.9648 15.5108H25.4105C25.7361 15.5108 25.9999 15.2469 25.9999 14.9214V14.7984ZM19.9768 11.5183C21.0545 11.5183 22.0043 12.1088 22.5565 13.0011H17.3972C17.9493 12.1088 18.8992 11.5183 19.9768 11.5183Z" fill="#0067FF"/>
<path d="M22.4796 7.85144H17.1374C16.8881 7.85144 16.686 7.64937 16.686 7.40011V6.05991C16.686 5.81065 16.8881 5.60858 17.1374 5.60858H22.4796C22.7289 5.60858 22.931 5.81065 22.931 6.05991V7.40011C22.931 7.64942 22.7289 7.85144 22.4796 7.85144Z" fill="#0067FF"/>
</svg>
