<svg width="40" height="40" viewBox="0 0 40 40" fill="none" xmlns="http://www.w3.org/2000/svg">
<path fill-rule="evenodd" clip-rule="evenodd" d="M11.6 36.8667C8.26668 36.8667 5.46668 34.5333 4.86668 31.4L3.26668 30.8667C3.06668 30.7333 2.93335 30.5333 2.93335 30.3333V9.33333C2.93335 9.06666 3.06668 8.86666 3.26668 8.79999L19.8 3.13333C19.9334 3.06666 20.0667 3.06666 20.2 3.13333L36.7334 8.86666C36.9334 8.93333 37.0667 9.13333 37.0667 9.33333V30.3333C37.0667 30.5333 36.9334 30.7333 36.7334 30.8667C35.2 31.3333 22.5334 35.7333 20.3334 36.4667C19.9334 36.6 20 36.6 19.6 36.4667C18.7334 36.2 16.4667 35.4 16.0667 35.2667C14.8667 36.2667 13.2667 36.8667 11.6 36.8667ZM4.00002 10.0667V13.3333L10.4667 15.5333C11.1334 15.8 10.8 16.8 10.1333 16.5333L4.00002 14.4667V29.9333L4.73335 30.2C4.60002 26.3333 7.73335 23.1333 11.6 23.1333C17.4 23.1333 20.5334 29.9333 16.8667 34.4L19.4667 35.2667V15.4L4.00002 10.0667ZM20.5334 15.4V35.2667L36 29.9333V10.0667L30.6 11.9333V27.8C30.6 28 30.4667 28.2 30.2667 28.2667L26.3334 29.6C26.0667 29.6 25.8 29.4 25.8 29.0667V13.6L20.5334 15.4ZM29.5334 12.2667L26.8667 13.2V28.3333L29.5334 27.4V12.2667ZM5.13335 9.33333L20 14.4667L24.8 12.8L10.9334 7.33333L5.13335 9.33333ZM26.4 12.2667L28.5334 11.5333L14.6667 5.99999L12.5334 6.79999L26.4 12.2667ZM30.1334 11L34.8667 9.33333L20 4.19999L16.2667 5.46666L30.1334 11ZM5.93335 31.2C6.46668 33.8667 8.80002 35.8 11.6 35.8C14.8 35.8 17.4 33.2 17.4 30C17.4 26.8 14.8 24.2 11.6 24.2C7.93335 24.2 5.13335 27.6667 5.93335 31.2ZM10 33.9333C9.06668 33.9333 8.26668 33.1333 8.40002 32.1333L8.53335 31.1333C7.93335 30.4667 7.13335 29.8667 7.46668 28.8C7.86668 27.7333 8.80002 27.7333 9.73335 27.6C10.1333 26.7333 10.4667 25.8667 11.6 25.8667C12.7334 25.8667 13 26.7333 13.4667 27.6C14.4 27.7333 15.3334 27.7333 15.6667 28.8C16.0667 29.8667 15.2667 30.4667 14.6 31.1333C14.7334 32.0667 15.0667 33 14.1334 33.6667C13.2 34.3333 12.4667 33.7333 11.6 33.3333C11.0667 33.6 10.4667 33.9333 10 33.9333ZM11.6 26.9333C11.4 26.9333 11.2667 27 11.1334 27.2C10.2667 28.8 10.7334 28.4667 8.86668 28.8C8.46668 28.8667 8.33335 29.4 8.60002 29.6667C9.86668 31 9.73335 30.4667 9.46668 32.3333C9.40002 32.7333 9.86668 33 10.2 32.8C11.8667 32.0667 11.3334 32 13 32.8C13.3334 33 13.7334 32.7333 13.7334 32.3333C13.4667 30.4667 13.2667 31 14.5334 29.6667C14.8667 29.4 14.6667 28.8667 14.2667 28.8C12.5334 28.4667 12.8667 28.8 12.0667 27.2C11.9334 27 11.8 26.9333 11.6 26.9333Z" fill="#2D1616"/>
<path fill-rule="evenodd" clip-rule="evenodd" d="M9.46671 32.3333C9.40004 32.7333 9.86671 33 10.2 32.8C11.8667 32.0667 11.3334 32 13 32.8C13.3334 33 13.7334 32.7333 13.7334 32.3333C13.4667 30.4667 13.2667 31 14.5334 29.6667C14.8667 29.4 14.6667 28.8667 14.2667 28.8C12.5334 28.4667 12.8667 28.8 12.0667 27.2C11.9334 27 11.8 26.9333 11.6 26.9333C11.4 26.9333 11.2667 27 11.1334 27.2C10.2667 28.8 10.7334 28.4667 8.86671 28.8C8.46671 28.8667 8.33337 29.4 8.60004 29.6667C9.86671 31 9.73337 30.4667 9.46671 32.3333Z" fill="white"/>
<path fill-rule="evenodd" clip-rule="evenodd" d="M11.6 25.8667C12.7334 25.8667 13 26.7333 13.4667 27.6C14.4 27.7333 15.3334 27.7333 15.6667 28.8C16.0667 29.8667 15.2667 30.4667 14.6 31.1333C14.7334 32.0667 15.0667 33 14.1334 33.6667C13.2 34.3333 12.4667 33.7333 11.6 33.3333C11.0667 33.6 10.4667 33.9333 10 33.9333C9.0667 33.9333 8.2667 33.1333 8.40003 32.1333L8.53336 31.1333C7.93336 30.4667 7.13336 29.8667 7.4667 28.8C7.8667 27.7333 8.80003 27.7333 9.73336 27.6C10.1334 26.7333 10.4667 25.8667 11.6 25.8667ZM11.6 24.2C7.93336 24.2 5.13336 27.6667 5.93336 31.2C6.4667 33.8667 8.80003 35.8 11.6 35.8C14.8 35.8 17.4 33.2 17.4 30C17.4 26.8 14.8 24.2 11.6 24.2Z" fill="#FFD946"/>
<path fill-rule="evenodd" clip-rule="evenodd" d="M11.6 23.1333C17.4 23.1333 20.5333 29.9333 16.8667 34.4L19.4667 35.2667V15.4L4 10.0667V13.3333L10.4667 15.5333C11.1333 15.8 10.8 16.8 10.1333 16.5333L4 14.4667V29.9333L4.73333 30.2C4.6 26.3333 7.73333 23.1333 11.6 23.1333Z" fill="#FF8300"/>
<path fill-rule="evenodd" clip-rule="evenodd" d="M5.1333 9.33333L20 14.4667L24.8 12.8L10.9333 7.33333L5.1333 9.33333Z" fill="#FF8300"/>
<path fill-rule="evenodd" clip-rule="evenodd" d="M12.5333 6.8L26.4 12.2667L28.5333 11.5333L14.6667 6L12.5333 6.8Z" fill="white"/>
<path fill-rule="evenodd" clip-rule="evenodd" d="M16.2667 5.46666L30.1334 11L34.8667 9.33333L20.0001 4.2L16.2667 5.46666Z" fill="#FF8300"/>
<path fill-rule="evenodd" clip-rule="evenodd" d="M30.6 11.9333V27.8C30.6 28 30.4667 28.2 30.2667 28.2667L26.3333 29.6C26.0667 29.6 25.8 29.4 25.8 29.0667V13.6L20.5333 15.4V35.2667L36 29.9333V10.0667L30.6 11.9333Z" fill="#FF8300"/>
<path fill-rule="evenodd" clip-rule="evenodd" d="M29.5334 27.4V12.2667L26.8667 13.2V28.3333L29.5334 27.4Z" fill="white"/>
</svg>
