<svg width="20" height="6" viewBox="0 0 20 6" fill="none" xmlns="http://www.w3.org/2000/svg">
<g clip-path="url(#clip0_164_5209)">
<path d="M3 5.75C1.48 5.75 0.25 4.52 0.25 3C0.25 1.48 1.48 0.25 3 0.25C4.52 0.25 5.75 1.48 5.75 3C5.75 4.52 4.52 5.75 3 5.75ZM3 1.75C2.31 1.75 1.75 2.31 1.75 3C1.75 3.69 2.31 4.25 3 4.25C3.69 4.25 4.25 3.69 4.25 3C4.25 2.31 3.69 1.75 3 1.75Z" fill="#64748B"/>
<path d="M17 5.75C15.48 5.75 14.25 4.52 14.25 3C14.25 1.48 15.48 0.25 17 0.25C18.52 0.25 19.75 1.48 19.75 3C19.75 4.52 18.52 5.75 17 5.75ZM17 1.75C16.31 1.75 15.75 2.31 15.75 3C15.75 3.69 16.31 4.25 17 4.25C17.69 4.25 18.25 3.69 18.25 3C18.25 2.31 17.69 1.75 17 1.75Z" fill="#64748B"/>
<path d="M10 5.75C8.48 5.75 7.25 4.52 7.25 3C7.25 1.48 8.48 0.25 10 0.25C11.52 0.25 12.75 1.48 12.75 3C12.75 4.52 11.52 5.75 10 5.75ZM10 1.75C9.31 1.75 8.75 2.31 8.75 3C8.75 3.69 9.31 4.25 10 4.25C10.69 4.25 11.25 3.69 11.25 3C11.25 2.31 10.69 1.75 10 1.75Z" fill="#64748B"/>
</g>
<defs>
<clipPath id="clip0_164_5209">
<rect width="5.5" height="19.5" fill="white" transform="matrix(0 -1 1 0 0.25 5.75)"/>
</clipPath>
</defs>
</svg>
