<svg width="39" height="40" viewBox="0 0 39 40" fill="none" xmlns="http://www.w3.org/2000/svg">
<g clip-path="url(#clip0_1283_1394)">
<path d="M32.0243 39.3182C23.7013 40.2289 15.3075 40.2289 6.98452 39.3182C5.36827 39.1431 3.85936 38.4052 2.70935 37.2273C1.55933 36.0495 0.837692 34.5029 0.664747 32.8455C-0.22321 24.3091 -0.22321 15.7 0.664747 7.16364C0.835424 5.50595 1.55494 3.95835 2.70335 2.77885C3.85175 1.59934 5.35965 0.859203 6.97566 0.681823C15.2986 -0.228902 23.6924 -0.228902 32.0154 0.681823C33.6317 0.856876 35.1406 1.59484 36.2906 2.7727C37.4406 3.95055 38.1623 5.49711 38.3352 7.15455C39.2232 15.6909 39.2232 24.3 38.3352 32.8364C38.1645 34.494 37.445 36.0416 36.2966 37.2212C35.1482 38.4007 33.6403 39.1408 32.0243 39.3182Z" fill="url(#paint0_linear_1283_1394)"/>
<path opacity="0.29" d="M39 19.3409C39.0218 23.8311 38.7999 28.3191 38.3352 32.7841C38.1612 34.4372 37.4402 35.9792 36.2922 37.1533C35.1443 38.3274 33.6388 39.0625 32.0265 39.2364C27.6622 39.7141 23.2752 39.9417 18.8862 39.9182L9.44417 30.2591L8.55781 19.9704C8.24315 10.3727 12.9165 9.68408 12.9165 9.68408H29.558L39 19.3409Z" fill="#4C2838"/>
<path d="M24.426 7.5H14.574C12.6489 7.50241 10.8032 8.28785 9.44194 9.68405C8.08065 11.0802 7.31485 12.9732 7.3125 14.9477V25.0523C7.31485 27.0268 8.08065 28.9198 9.44194 30.316C10.8032 31.7122 12.6489 32.4976 14.574 32.5H24.426C26.3511 32.4976 28.1968 31.7122 29.5581 30.316C30.9193 28.9198 31.6852 27.0268 31.6875 25.0523V14.9477C31.6852 12.9732 30.9193 11.0802 29.5581 9.68405C28.1968 8.28785 26.3511 7.50241 24.426 7.5ZM29.2345 25.0523C29.2348 25.7 29.1106 26.3415 28.8691 26.94C28.6275 27.5384 28.2733 28.0822 27.8268 28.5403C27.3802 28.9983 26.85 29.3615 26.2665 29.6093C25.6829 29.857 25.0575 29.9844 24.426 29.9841H14.574C13.9425 29.9844 13.3171 29.857 12.7335 29.6093C12.15 29.3615 11.6198 28.9983 11.1732 28.5403C10.7267 28.0822 10.3725 27.5384 10.1309 26.94C9.8894 26.3415 9.76522 25.7 9.76551 25.0523V14.9477C9.76551 13.6397 10.2721 12.3853 11.1739 11.4604C12.0757 10.5355 13.2987 10.0159 14.574 10.0159H24.426C25.7013 10.0159 26.9243 10.5355 27.8261 11.4604C28.7279 12.3853 29.2345 13.6397 29.2345 14.9477V25.0523Z" fill="white"/>
<path d="M19.4999 13.5341C18.2531 13.5341 17.0342 13.9133 15.9975 14.6238C14.9608 15.3343 14.1527 16.3441 13.6756 17.5256C13.1984 18.7071 13.0736 20.0072 13.3168 21.2615C13.5601 22.5157 14.1605 23.6678 15.0422 24.5721C15.9238 25.4764 17.0471 26.0922 18.27 26.3417C19.493 26.5912 20.7605 26.4631 21.9125 25.9737C23.0644 25.4844 24.049 24.6556 24.7417 23.5923C25.4345 22.529 25.8042 21.2789 25.8042 20C25.8019 18.2859 25.1369 16.6427 23.9551 15.4306C22.7734 14.2185 21.1712 13.5365 19.4999 13.5341ZM19.4999 23.9523C18.7378 23.9523 17.9928 23.7205 17.3591 23.2862C16.7254 22.8519 16.2315 22.2347 15.9398 21.5125C15.6481 20.7903 15.5718 19.9956 15.7205 19.229C15.8692 18.4623 16.2362 17.7581 16.7751 17.2053C17.314 16.6526 18.0007 16.2762 18.7482 16.1237C19.4957 15.9712 20.2705 16.0495 20.9746 16.3486C21.6787 16.6477 22.2806 17.1543 22.704 17.8043C23.1274 18.4542 23.3534 19.2183 23.3534 20C23.3528 21.0481 22.9466 22.053 22.2241 22.794C21.5016 23.5351 20.5218 23.9517 19.4999 23.9523Z" fill="white"/>
<path d="M25.8398 15.1318C26.7001 15.1318 27.3976 14.4165 27.3976 13.5341C27.3976 12.6517 26.7001 11.9363 25.8398 11.9363C24.9794 11.9363 24.282 12.6517 24.282 13.5341C24.282 14.4165 24.9794 15.1318 25.8398 15.1318Z" fill="white"/>
</g>
<defs>
<linearGradient id="paint0_linear_1283_1394" x1="2.90282" y1="37.0227" x2="36.2785" y2="4.48146" gradientUnits="userSpaceOnUse">
<stop stop-color="#E09B3D"/>
<stop offset="0.3" stop-color="#C74C4D"/>
<stop offset="0.6" stop-color="#C21975"/>
<stop offset="1" stop-color="#7024C4"/>
</linearGradient>
<clipPath id="clip0_1283_1394">
<rect width="39" height="40" fill="white"/>
</clipPath>
</defs>
</svg>
