<svg width="17" height="17" viewBox="0 0 17 17" fill="none" xmlns="http://www.w3.org/2000/svg">
<g clip-path="url(#clip0_1038_293)">
<path d="M16.0101 5.38492C15.9734 4.58066 15.8456 4.03143 15.6589 3.5509C15.4692 3.04675 15.1718 2.59009 14.7874 2.21263C14.4101 1.82826 13.9533 1.5307 13.4491 1.34094C12.9685 1.15428 12.4194 1.02666 11.6151 0.990112C10.8094 0.95322 10.5519 0.944458 8.50001 0.944458C6.44811 0.944458 6.19067 0.95322 5.38491 0.989882C4.58066 1.02666 4.03154 1.1544 3.5509 1.34117C3.04675 1.53082 2.59009 1.82826 2.21263 2.21263C1.82826 2.58997 1.5307 3.04663 1.34094 3.55079C1.15428 4.03143 1.02666 4.58066 0.990112 5.3848C0.95322 6.19067 0.944458 6.44799 0.944458 8.4999C0.944458 10.5519 0.95322 10.8094 0.990112 11.6151C1.02677 12.4193 1.15451 12.9685 1.34128 13.4491C1.53093 13.9532 1.82838 14.4099 2.21275 14.7873C2.59009 15.1717 3.04686 15.4691 3.55102 15.6587C4.03154 15.8456 4.58078 15.9733 5.38503 16.01C6.1909 16.0468 6.44822 16.0555 8.50013 16.0555C10.552 16.0555 10.8095 16.0468 11.6152 16.01C12.4195 15.9733 12.9686 15.8456 13.4492 15.6587C14.4641 15.2663 15.2664 14.464 15.6589 13.4491C15.8457 12.9685 15.9734 12.4193 16.0101 11.6151C16.0468 10.8092 16.0556 10.5519 16.0556 8.50001C16.0556 6.44799 16.0468 6.19067 16.0101 5.38492ZM14.6501 11.5532C14.6165 12.2899 14.4934 12.6899 14.39 12.9562C14.1358 13.6151 13.615 14.1359 12.956 14.3901C12.6898 14.4935 12.2898 14.6167 11.5531 14.6502C10.7566 14.6866 10.5176 14.6942 8.50001 14.6942C6.48235 14.6942 6.24347 14.6866 5.44682 14.6502C4.71025 14.6167 4.31019 14.4935 4.04388 14.3901C3.71577 14.2689 3.4189 14.0758 3.17518 13.8249C2.92419 13.5811 2.73109 13.2844 2.60992 12.9562C2.5065 12.6899 2.38338 12.2899 2.34983 11.5532C2.31351 10.7566 2.30579 10.5176 2.30579 8.50013C2.30579 6.48258 2.31351 6.2437 2.34983 5.44694C2.38349 4.71025 2.5065 4.31019 2.60992 4.04399C2.73109 3.71577 2.92431 3.4189 3.17518 3.17518C3.4189 2.92419 3.71577 2.73109 4.04399 2.61003C4.31019 2.5065 4.71025 2.38349 5.44694 2.34983C6.24358 2.31351 6.48258 2.30579 8.50001 2.30579H8.4999C10.5173 2.30579 10.7563 2.31351 11.5531 2.34994C12.2898 2.38349 12.6897 2.50662 12.956 2.61003C13.2841 2.7312 13.581 2.92431 13.8247 3.17518C14.0757 3.4189 14.2688 3.71577 14.3899 4.04399C14.4934 4.31019 14.6165 4.71025 14.6501 5.44694C14.6864 6.24359 14.6941 6.48258 14.6941 8.50001C14.6941 10.5176 14.6865 10.7564 14.6501 11.5532Z" fill="url(#paint0_linear_1038_293)"/>
<path d="M8.49993 4.62009C6.35717 4.62009 4.62012 6.35726 4.62012 8.50001C4.62012 10.6428 6.35717 12.3798 8.49993 12.3798C10.6428 12.3798 12.3798 10.6428 12.3798 8.50001C12.3798 6.35726 10.6428 4.62009 8.49993 4.62009ZM8.49993 11.0185C7.10908 11.0184 5.98145 9.89085 5.98156 8.4999C5.98156 7.10905 7.10908 5.98141 8.50004 5.98141C9.891 5.98153 11.0185 7.10905 11.0185 8.4999C11.0185 9.89085 9.89088 11.0185 8.49993 11.0185Z" fill="url(#paint1_linear_1038_293)"/>
<path d="M13.4397 4.46686C13.4397 4.96756 13.0338 5.37349 12.5331 5.37349C12.0323 5.37349 11.6263 4.96756 11.6263 4.46686C11.6263 3.96605 12.0323 3.56012 12.5331 3.56012C13.0338 3.56012 13.4397 3.96605 13.4397 4.46686Z" fill="url(#paint2_linear_1038_293)"/>
</g>
<defs>
<linearGradient id="paint0_linear_1038_293" x1="2.21256" y1="14.7873" x2="14.7875" y2="2.21244" gradientUnits="userSpaceOnUse">
<stop stop-color="#FFD600"/>
<stop offset="0.5" stop-color="#FF0100"/>
<stop offset="1" stop-color="#D800B9"/>
</linearGradient>
<linearGradient id="paint1_linear_1038_293" x1="5.75652" y1="11.2434" x2="11.2435" y2="5.75648" gradientUnits="userSpaceOnUse">
<stop stop-color="#FF6400"/>
<stop offset="0.5" stop-color="#FF0100"/>
<stop offset="1" stop-color="#FD0056"/>
</linearGradient>
<linearGradient id="paint2_linear_1038_293" x1="11.892" y1="5.10791" x2="13.1741" y2="3.82572" gradientUnits="userSpaceOnUse">
<stop stop-color="#F30072"/>
<stop offset="1" stop-color="#E50097"/>
</linearGradient>
<clipPath id="clip0_1038_293">
<rect width="17" height="17" fill="white"/>
</clipPath>
</defs>
</svg>
