<svg width="40" height="40" viewBox="0 0 40 40" fill="none" xmlns="http://www.w3.org/2000/svg">
<g clip-path="url(#clip0_1285_2936)">
<path d="M32.8452 39.3179C24.3088 40.2287 15.6998 40.2287 7.1634 39.3179C5.50571 39.1429 3.95811 38.4049 2.7786 37.2271C1.5991 36.0492 0.858959 34.5027 0.681578 32.8452C-0.229146 24.3088 -0.229146 15.6998 0.681578 7.1634C0.856632 5.50571 1.5946 3.95811 2.77245 2.7786C3.9503 1.5991 5.49687 0.858959 7.1543 0.681578C15.6907 -0.229146 24.2997 -0.229146 32.8361 0.681578C34.4938 0.856632 36.0414 1.5946 37.2209 2.77245C38.4004 3.9503 39.1406 5.49687 39.3179 7.1543C40.2287 15.6907 40.2287 24.2997 39.3179 32.8361C39.1429 34.4938 38.4049 36.0414 37.2271 37.2209C36.0492 38.4004 34.5027 39.1406 32.8452 39.3179Z" fill="#0B66C3"/>
<path d="M39.834 26.325C39.7204 28.5007 39.5477 30.6742 39.3159 32.8454C39.1389 34.5012 38.4004 36.0464 37.2232 37.224C36.046 38.4016 34.5011 39.1407 32.8454 39.3182C27.354 39.9039 21.829 40.1135 16.309 39.9454L8.51131 32.1454L12.3363 17.0591L8.35449 13.0773L13.6363 8.75226L22.9295 18.0432L30.4863 16.9773L39.834 26.325Z" fill="#0A4C8F"/>
<path d="M14.4091 10.9091C14.4091 11.5833 14.2092 12.2425 13.8346 12.8031C13.46 13.3637 12.9276 13.8007 12.3046 14.0587C11.6817 14.3167 10.9963 14.3842 10.335 14.2527C9.67366 14.1211 9.06621 13.7965 8.58944 13.3197C8.11267 12.8429 7.78799 12.2355 7.65645 11.5742C7.52491 10.9129 7.59242 10.2274 7.85045 9.60449C8.10847 8.98156 8.54542 8.44913 9.10605 8.07454C9.66667 7.69994 10.3258 7.5 11 7.5C11.9042 7.5 12.7713 7.85917 13.4106 8.4985C14.05 9.13783 14.4091 10.0049 14.4091 10.9091Z" fill="white"/>
<path d="M13.6364 16.5909V31.6523C13.637 31.7634 13.6157 31.8735 13.5736 31.9764C13.5315 32.0792 13.4694 32.1727 13.3911 32.2515C13.3127 32.3302 13.2196 32.3928 13.117 32.4354C13.0144 32.4781 12.9044 32.5 12.7933 32.5H9.20007C9.08896 32.5003 8.97889 32.4787 8.87618 32.4363C8.77347 32.3939 8.68014 32.3316 8.60158 32.2531C8.52301 32.1745 8.46075 32.0812 8.41836 31.9785C8.37598 31.8758 8.35432 31.7657 8.35462 31.6546V16.5909C8.35462 16.3667 8.44369 16.1517 8.60225 15.9931C8.7608 15.8346 8.97584 15.7455 9.20007 15.7455H12.7933C13.0171 15.7461 13.2316 15.8354 13.3896 15.9939C13.5477 16.1524 13.6364 16.3671 13.6364 16.5909Z" fill="white"/>
<path d="M32.4183 24.4318V31.7228C32.4186 31.8249 32.3987 31.9261 32.3597 32.0206C32.3208 32.115 32.2635 32.2008 32.1913 32.273C32.119 32.3453 32.0332 32.4025 31.9388 32.4415C31.8444 32.4804 31.7432 32.5003 31.641 32.5H27.7774C27.6752 32.5003 27.574 32.4804 27.4796 32.4415C27.3851 32.4025 27.2993 32.3453 27.2271 32.273C27.1548 32.2008 27.0976 32.115 27.0586 32.0206C27.0197 31.9261 26.9998 31.8249 27.0001 31.7228V24.6568C27.0001 23.6023 27.3092 20.0387 24.2433 20.0387C21.8683 20.0387 21.3842 22.4773 21.2887 23.5728V31.7228C21.2887 31.9269 21.2084 32.1229 21.0651 32.2684C20.9218 32.4138 20.727 32.497 20.5228 32.5H16.791C16.689 32.5 16.5881 32.4799 16.4939 32.4408C16.3997 32.4017 16.3142 32.3444 16.2422 32.2722C16.1702 32.2 16.1131 32.1143 16.0743 32.02C16.0355 31.9257 16.0157 31.8247 16.016 31.7228V16.525C16.0157 16.4231 16.0355 16.322 16.0743 16.2278C16.1131 16.1335 16.1702 16.0478 16.2422 15.9756C16.3142 15.9033 16.3997 15.8461 16.4939 15.807C16.5881 15.7679 16.689 15.7478 16.791 15.7478H20.5228C20.729 15.7478 20.9267 15.8296 21.0724 15.9754C21.2182 16.1212 21.3001 16.3189 21.3001 16.525V17.8387C22.1819 16.5159 23.4887 15.4955 26.2774 15.4955C32.4546 15.4955 32.4183 21.2637 32.4183 24.4318Z" fill="white"/>
</g>
<defs>
<clipPath id="clip0_1285_2936">
<rect width="40" height="40" fill="white"/>
</clipPath>
</defs>
</svg>
