<svg width="17" height="18" viewBox="0 0 17 18" fill="none" xmlns="http://www.w3.org/2000/svg">
<path d="M15.5458 7.0018C15.5012 6.87066 15.4193 6.75544 15.31 6.67034C15.2008 6.58525 15.069 6.53402 14.9309 6.52297L10.8927 6.20209L9.14527 2.33389C9.08962 2.2093 8.9991 2.10348 8.88463 2.0292C8.77017 1.95492 8.63666 1.91536 8.50021 1.91528C8.36376 1.91521 8.2302 1.95463 8.11565 2.02878C8.00111 2.10293 7.91047 2.20865 7.85469 2.33318L6.10723 6.20209L2.06902 6.52297C1.93334 6.53372 1.80363 6.58333 1.69541 6.66586C1.58719 6.7484 1.50504 6.86036 1.45879 6.98836C1.41253 7.11637 1.40413 7.25498 1.4346 7.38763C1.46506 7.52028 1.5331 7.64135 1.63056 7.73634L4.61477 10.6455L3.55935 15.2156C3.52731 15.354 3.53758 15.4987 3.58883 15.6312C3.64009 15.7636 3.72996 15.8776 3.8468 15.9583C3.96363 16.039 4.10202 16.0827 4.24402 16.0838C4.38601 16.0849 4.52506 16.0433 4.6431 15.9643L8.49998 13.3931L12.3569 15.9643C12.4775 16.0445 12.6198 16.0857 12.7646 16.0825C12.9094 16.0793 13.0497 16.0319 13.1668 15.9466C13.2838 15.8613 13.3719 15.7422 13.4192 15.6053C13.4665 15.4684 13.4708 15.3203 13.4314 15.1809L12.1359 10.6476L15.3489 7.75618C15.5592 7.56634 15.6364 7.27026 15.5458 7.0018Z" fill="#FFA534"/>
</svg>
