<svg width="32" height="34" viewBox="0 0 32 34" fill="none" xmlns="http://www.w3.org/2000/svg">
<g clip-path="url(#clip0_1173_10724)">
<path d="M18.7033 33.1827C17.8638 34.2662 16.1617 33.6726 16.1415 32.2891L15.8457 12.0542H29.1212C31.5258 12.0542 32.8668 14.9006 31.3716 16.8307L18.7033 33.1827Z" fill="url(#paint0_linear_1173_10724)"/>
<path d="M18.7033 33.1827C17.8638 34.2662 16.1617 33.6726 16.1415 32.2891L15.8457 12.0542H29.1212C31.5258 12.0542 32.8668 14.9006 31.3716 16.8307L18.7033 33.1827Z" fill="url(#paint1_linear_1173_10724)" fill-opacity="0.2"/>
<path d="M13.3037 0.623077C14.1432 -0.46053 15.8453 0.133209 15.8656 1.5167L15.9952 21.7516H2.8858C0.481176 21.7516 -0.859926 18.9052 0.63534 16.9751L13.3037 0.623077Z" fill="#3ECF8E"/>
</g>
<defs>
<linearGradient id="paint0_linear_1173_10724" x1="15.8457" y1="16.5408" x2="27.7298" y2="21.4039" gradientUnits="userSpaceOnUse">
<stop stop-color="#249361"/>
<stop offset="1" stop-color="#3ECF8E"/>
</linearGradient>
<linearGradient id="paint1_linear_1173_10724" x1="10.6147" y1="9.2004" x2="16.2048" y2="19.4678" gradientUnits="userSpaceOnUse">
<stop/>
<stop offset="1" stop-opacity="0"/>
</linearGradient>
<clipPath id="clip0_1173_10724">
<rect width="32" height="34" fill="white"/>
</clipPath>
</defs>
</svg>
