<svg width="40" height="40" viewBox="0 0 40 40" fill="none" xmlns="http://www.w3.org/2000/svg">
<g clip-path="url(#clip0_1285_2946)">
<path d="M32.8455 39.3181C24.3091 40.2289 15.7 40.2289 7.16364 39.3181C5.50595 39.1431 3.95835 38.4051 2.77885 37.2273C1.59934 36.0494 0.859203 34.5028 0.681823 32.8454C-0.228902 24.309 -0.228902 15.7 0.681823 7.16358C0.856877 5.50589 1.59484 3.95829 2.7727 2.77879C3.95055 1.59928 5.49711 0.859142 7.15455 0.681762C15.6909 -0.228963 24.3 -0.228963 32.8364 0.681762C34.4941 0.856816 36.0417 1.59478 37.2212 2.77263C38.4007 3.95049 39.1408 5.49705 39.3182 7.15449C40.2289 15.6909 40.2289 24.2999 39.3182 32.8363C39.1431 34.494 38.4052 36.0416 37.2273 37.2211C36.0495 38.4006 34.5029 39.1407 32.8455 39.3181Z" fill="#0C0C0C"/>
<path d="M39.9729 22.5114C39.9017 25.9568 39.6827 29.4015 39.3161 32.8455C39.142 34.5022 38.4044 36.049 37.2266 37.2272C36.0489 38.4054 34.5023 39.1435 32.8456 39.3182C28.9926 39.7303 25.1373 39.9576 21.2797 40L10.6433 29.3636C9.56833 20.55 18.932 16.5455 18.932 16.5455L22.2729 19.8773L24.9615 7.5L39.9729 22.5114Z" fill="black"/>
<path d="M16.9841 32.5C14.8684 32.5 12.8394 31.6595 11.3433 30.1635C9.8473 28.6675 9.00684 26.6384 9.00684 24.5227C9.00684 22.407 9.8473 20.378 11.3433 18.8819C12.8394 17.3859 14.8684 16.5455 16.9841 16.5455H18.9318V20.4386H16.9841C16.175 20.4386 15.3841 20.6786 14.7113 21.1281C14.0386 21.5776 13.5142 22.2165 13.2046 22.964C12.895 23.7115 12.814 24.5341 12.9718 25.3276C13.1297 26.1212 13.5193 26.8501 14.0914 27.4223C14.6635 27.9944 15.3925 28.384 16.186 28.5418C16.9796 28.6997 17.8021 28.6187 18.5496 28.3091C19.2971 27.9994 19.9361 27.4751 20.3856 26.8023C20.8351 26.1296 21.075 25.3387 21.075 24.5295V7.5H24.9682V9.44545C24.9682 10.5304 25.3992 11.571 26.1664 12.3382C26.9336 13.1054 27.9741 13.5364 29.0591 13.5364H31.0068V17.4227H29.0455C27.6036 17.4248 26.1888 17.0318 24.9546 16.2864V24.5227C24.9528 26.6367 24.1127 28.6637 22.6185 30.1591C21.1243 31.6546 19.0981 32.4964 16.9841 32.5Z" fill="white"/>
</g>
<defs>
<clipPath id="clip0_1285_2946">
<rect width="40" height="40" fill="white"/>
</clipPath>
</defs>
</svg>
