<svg width="41" height="41" viewBox="0 0 41 41" fill="none" xmlns="http://www.w3.org/2000/svg">
<g clip-path="url(#clip0_899_8552)">
<path d="M9.58125 8.31326L25.926 3.85184L25.0604 2.10226C24.4941 0.96503 23.1129 0.495406 21.9756 1.06172L7.34363 8.31326H9.58125Z" fill="#FFAA72"/>
<path d="M30.9998 3.98075C30.7972 3.98075 30.5946 4.00838 30.392 4.06363L26.5522 5.11337L14.8254 8.31326H28.136H33.9372L33.219 5.67968C32.9427 4.65296 32.0127 3.98075 30.9998 3.98075Z" fill="#FFAA72"/>
<path d="M36.336 9.92471H35.8111H35.0975H34.3838H28.9371H8.92285H6.29848H4.08849H3.67872H2.30668C1.57923 9.92471 0.930039 10.2608 0.506457 10.7903C0.313083 11.0343 0.16575 11.3152 0.0828748 11.6236C0.0322291 11.817 0 12.0196 0 12.2268V12.503V15.1274V37.8765C0 39.1473 1.03133 40.1786 2.30208 40.1786H36.3314C37.6022 40.1786 38.6335 39.1473 38.6335 37.8765V31.4537H24.9729C22.8136 31.4537 21.0594 29.6996 21.0594 27.5402V25.4315V24.7179V24.0042V22.4204C21.0594 21.3614 21.4829 20.3992 22.169 19.6948C22.7768 19.0686 23.5917 18.645 24.5033 18.5391C24.6553 18.5207 24.8118 18.5115 24.9683 18.5115H36.7181H37.4318H38.1454H38.6335V12.2268C38.6381 10.956 37.6067 9.92471 36.336 9.92471Z" fill="#FFAA72"/>
<path d="M40.2495 20.7123C40.0193 20.5005 39.7477 20.3393 39.4438 20.2334C39.2089 20.1552 38.9604 20.1092 38.6979 20.1092H38.6381H38.592H37.8784H35.3047H24.9729C23.7022 20.1092 22.6709 21.1404 22.6709 22.4112V23.5576V24.2713V24.9849V27.5356C22.6709 28.8064 23.7022 29.8377 24.9729 29.8377H38.6381H38.6979C38.9604 29.8377 39.209 29.7916 39.4438 29.7134C39.7477 29.6121 40.0193 29.4463 40.2495 29.2345C40.7099 28.8156 41 28.2078 41 27.5357V22.4112C41 21.739 40.7099 21.1312 40.2495 20.7123ZM29.7797 25.4315C29.7797 26.0669 29.264 26.5825 28.6286 26.5825H27.8644C27.229 26.5825 26.7133 26.0669 26.7133 25.4315V24.6672C26.7133 24.2989 26.8837 23.9719 27.1553 23.7648C27.3533 23.6128 27.5974 23.5162 27.8644 23.5162H28.0577H28.6286C29.264 23.5162 29.7797 24.0318 29.7797 24.6672V25.4315Z" fill="#FFAA72"/>
</g>
<defs>
<clipPath id="clip0_899_8552">
<rect width="41" height="41" fill="white"/>
</clipPath>
</defs>
</svg>
