<svg width="40" height="40" viewBox="0 0 40 40" fill="none" xmlns="http://www.w3.org/2000/svg">
<g clip-path="url(#clip0_1289_2989)">
<path d="M32.8455 39.3181C24.3091 40.2289 15.7 40.2289 7.16364 39.3181C5.50595 39.1431 3.95835 38.4051 2.77885 37.2273C1.59934 36.0494 0.859203 34.5028 0.681823 32.8454C-0.228902 24.309 -0.228902 15.7 0.681823 7.16358C0.856877 5.50589 1.59484 3.95829 2.7727 2.77879C3.95055 1.59928 5.49711 0.859142 7.15455 0.681762C15.6909 -0.228963 24.3 -0.228963 32.8364 0.681762C34.4941 0.856816 36.0417 1.59478 37.2212 2.77263C38.4007 3.95049 39.1408 5.49705 39.3182 7.15449C40.2289 15.6909 40.2289 24.2999 39.3182 32.8363C39.1431 34.494 38.4052 36.0416 37.2273 37.2211C36.0495 38.4006 34.5029 39.1407 32.8455 39.3181Z" fill="#0C0C0C"/>
<path d="M39.9728 22.5114C39.9015 25.9568 39.6826 29.4015 39.3159 32.8455C39.1419 34.5022 38.4043 36.049 37.2265 37.2272C36.0487 38.4054 34.5022 39.1435 32.8455 39.3182C28.9924 39.7303 25.1371 39.9576 21.2796 40L10.6432 29.3636C9.5682 20.55 18.9318 16.5455 18.9318 16.5455L22.2727 19.8773L24.9614 7.5L39.9728 22.5114Z" fill="black"/>
<path d="M21.8115 18.3155L29.8253 9H27.9263L20.9679 17.0885L15.4102 9H9L17.4043 21.2313L9 31H10.8991L18.2475 22.4583L24.1168 31H30.5269L21.811 18.3155H21.8115ZM19.2103 21.339L18.3588 20.1211L11.5834 10.4296H14.5004L19.9682 18.2509L20.8197 19.4689L27.9272 29.6354H25.0102L19.2103 21.3395V21.339Z" fill="white"/>
</g>
<defs>
<clipPath id="clip0_1289_2989">
<rect width="40" height="40" fill="white"/>
</clipPath>
</defs>
</svg>
