<svg width="40" height="40" viewBox="0 0 40 40" fill="none" xmlns="http://www.w3.org/2000/svg">
<g clip-path="url(#clip0_1285_2960)">
<path d="M32.8455 39.3182C24.3091 40.2289 15.7 40.2289 7.16364 39.3182C5.50595 39.1431 3.95835 38.4052 2.77885 37.2273C1.59934 36.0495 0.859203 34.5029 0.681823 32.8455C-0.228902 24.3091 -0.228902 15.7 0.681823 7.16364C0.856876 5.50595 1.59484 3.95835 2.7727 2.77885C3.95055 1.59934 5.49711 0.859203 7.15455 0.681823C15.6909 -0.228902 24.3 -0.228902 32.8364 0.681823C34.494 0.856876 36.0416 1.59484 37.2212 2.7727C38.4007 3.95055 39.1408 5.49711 39.3182 7.15455C40.2289 15.6909 40.2289 24.3 39.3182 32.8364C39.1431 34.494 38.4052 36.0416 37.2273 37.2212C36.0495 38.4007 34.5029 39.1408 32.8455 39.3182Z" fill="#E60000"/>
<path d="M39.9999 21.6296C39.9499 25.3705 39.7226 29.1091 39.3181 32.8455C39.1415 34.5017 38.4028 36.0474 37.225 37.2251C36.0473 38.4029 34.5016 39.1416 32.8453 39.3182C29.0923 39.7182 25.3363 39.9455 21.5772 40L9.0908 27.5C8.1658 10.5864 30.6249 12.2727 30.6249 12.2727L39.9999 21.6296Z" fill="#B50000"/>
<path d="M31.916 13.9864C31.416 12.4477 29.7614 11.5159 28.2387 11.3023C22.7617 10.7204 17.2385 10.7204 11.7614 11.3023C10.2387 11.5159 8.57962 12.4386 8.08416 13.9864C7.30463 17.9583 7.30463 22.044 8.08416 26.0159C8.58416 27.5523 10.2387 28.4864 11.7614 28.7C17.2385 29.2818 22.7617 29.2818 28.2387 28.7C29.7614 28.4864 31.4205 27.5636 31.916 26.0159C32.6955 22.044 32.6955 17.9583 31.916 13.9864ZM17.0092 24.7909V15.2091L24.8092 20C22.1796 21.6159 19.6273 23.1818 17.0092 24.7909Z" fill="white"/>
</g>
<defs>
<clipPath id="clip0_1285_2960">
<rect width="40" height="40" fill="white"/>
</clipPath>
</defs>
</svg>
