<svg width="16" height="16" viewBox="0 0 16 16" fill="none" xmlns="http://www.w3.org/2000/svg">
<g clip-path="url(#clip0_899_6613)">
<path d="M15.4132 5.00043H8.0002C6.34343 4.99881 4.99902 6.34056 4.99737 7.99733C4.99687 8.51193 5.12874 9.01801 5.38032 9.46689L1.67383 3.10718C4.37349 -0.386887 9.39451 -1.03086 12.8886 1.6688C14.0107 2.53579 14.882 3.68565 15.4132 5.00043Z" fill="#F44336"/>
<path d="M15.9998 8.0003C15.9962 12.4168 12.4168 15.9962 8.0002 15.9999C7.66571 16.0012 7.33157 15.9789 7.00024 15.9333L10.6001 9.50023C11.4251 8.06392 10.9333 6.23084 9.50013 5.40041C9.04637 5.13771 8.53118 4.99968 8.00686 5.00043H15.4132C15.8025 5.95258 16.0018 6.97165 15.9998 8.0003Z" fill="#FFC107"/>
<path d="M10.6002 9.50023L7.00032 15.9333H6.99366C2.61299 15.3798 -0.489562 11.3799 0.0639131 6.99919C0.243061 5.58128 0.799005 4.23731 1.6739 3.10718L5.38039 9.46689L5.40039 9.50023C6.22695 10.9361 8.06099 11.4301 9.49686 10.6035C9.95553 10.3395 10.3362 9.95887 10.6002 9.50023Z" fill="#4CAF50"/>
<path d="M10.6001 9.50023C9.77352 10.9361 7.93948 11.43 6.5036 10.6035C6.04497 10.3395 5.66433 9.95886 5.40031 9.50023L5.38031 9.46689C4.57032 8.02161 5.08536 6.19335 6.53063 5.38335C6.97955 5.13177 7.48562 4.9999 8.00019 5.0004H8.00685C8.53117 4.99965 9.04636 5.13767 9.50013 5.40038C10.9333 6.23084 11.4251 8.06392 10.6001 9.50023Z" fill="#F44336"/>
<path d="M10.6001 9.50023C9.77352 10.9361 7.93948 11.43 6.5036 10.6035C6.04497 10.3395 5.66433 9.95886 5.40031 9.50023L5.38031 9.46689C4.57032 8.02161 5.08536 6.19335 6.53063 5.38335C6.97955 5.13177 7.48562 4.9999 8.00019 5.0004H8.00685C8.53117 4.99965 9.04636 5.13767 9.50013 5.40038C10.9333 6.23084 11.4251 8.06392 10.6001 9.50023Z" fill="#2196F3"/>
<path d="M7.98888 11.3335C7.40772 11.3334 6.83681 11.1803 6.33361 10.8895C5.82623 10.5961 5.40484 10.1745 5.11167 9.66692C4.19124 8.07268 4.73746 6.03415 6.3317 5.11372C6.83896 4.82086 7.41447 4.66683 8.00022 4.66715C9.84108 4.66571 11.3346 6.15689 11.336 7.99775C11.3364 8.58372 11.1824 9.15944 10.8894 9.66692C10.2887 10.6997 9.18364 11.3346 7.98888 11.3335ZM8.00619 5.33377C7.04958 5.32868 6.16393 5.83781 5.68695 6.66706C4.95061 7.94387 5.38875 9.57589 6.66556 10.3122C7.94238 11.0486 9.5744 10.6104 10.3107 9.33362C11.0471 8.05824 10.6101 6.42741 9.33472 5.69104C8.93093 5.45792 8.47308 5.33474 8.00685 5.3338L8.00619 5.33377Z" fill="#FAFAFA"/>
</g>
<defs>
<clipPath id="clip0_899_6613">
<rect width="16" height="16" fill="white"/>
</clipPath>
</defs>
</svg>
