<svg width="16" height="16" viewBox="0 0 16 16" fill="none" xmlns="http://www.w3.org/2000/svg">
<g clip-path="url(#clip0_899_6711)">
<path d="M9.84163 15.7944C11.9236 15.3128 13.6943 14.0185 14.8017 12.2636C14.9368 12.0495 14.6986 11.7934 14.4754 11.9131C13.6241 12.3698 12.6136 12.6344 11.5298 12.6344C8.52563 12.6344 6.08441 10.6024 6.03407 8.07951C6.01707 7.22701 6.52585 6.47332 7.26416 6.15826L7.26366 6.15791C6.82719 6.31069 6.33638 6.37385 5.95679 6.63701C4.51707 7.63501 3.6431 9.48163 3.78232 11.1418C3.91744 12.7527 4.90254 14.6404 6.60647 15.4838C7.49757 15.9249 8.64707 15.8531 9.84163 15.7944Z" fill="url(#paint0_linear_899_6711)"/>
<path d="M9.76944 10.4193C10.3092 10.6162 10.9044 10.7253 11.5299 10.7253C13.981 10.7253 15.968 9.04998 15.9681 6.98332C15.9681 2.88616 12.1467 0.0370364 8.10625 0.000380109C3.70106 -0.0396511 0.0725957 3.52029 0.0324707 7.92548C0.0324707 7.92548 1.1346 4.52172 5.07153 4.52172C7.73547 4.52172 9.598 6.10301 9.90394 7.29835C9.98581 7.51669 10.0308 7.75307 10.0308 8.00001C10.0308 8.51782 9.83387 8.98963 9.51084 9.34466C9.19078 9.69641 9.32266 10.2562 9.76944 10.4193Z" fill="url(#paint1_linear_899_6711)"/>
<path d="M9.90379 7.29834C9.59788 6.103 8.57907 3.7995 5.26963 3.7995C0.180884 3.7995 0.0323216 7.92547 0.0323216 7.92547C-0.00820963 12.3779 3.58888 16 8.03198 16C8.65438 16 9.26013 15.9289 9.84163 15.7944C3.38807 16.1113 2.72526 7.74653 7.2637 6.15791L7.2642 6.15825C7.49373 6.06031 7.74516 6.00428 8.01023 6.00144C8.87651 5.99222 9.61723 6.53428 9.90379 7.29834Z" fill="url(#paint2_linear_899_6711)"/>
</g>
<defs>
<linearGradient id="paint0_linear_899_6711" x1="3.76786" y1="10.9981" x2="14.8411" y2="10.9981" gradientUnits="userSpaceOnUse">
<stop stop-color="#00376F"/>
<stop offset="1" stop-color="#004E99"/>
</linearGradient>
<linearGradient id="paint1_linear_899_6711" x1="3.30399" y1="2.82132" x2="12.5681" y2="8.30149" gradientUnits="userSpaceOnUse">
<stop stop-color="#00C2DD"/>
<stop offset="1" stop-color="#00D34F"/>
</linearGradient>
<linearGradient id="paint2_linear_899_6711" x1="4.17148" y1="4.42987" x2="6.66692" y2="15.8795" gradientUnits="userSpaceOnUse">
<stop offset="0.0016" stop-color="#006393"/>
<stop offset="0.4" stop-color="#0086DE"/>
<stop offset="1" stop-color="#006393"/>
</linearGradient>
<clipPath id="clip0_899_6711">
<rect width="16" height="16" fill="white"/>
</clipPath>
</defs>
</svg>
