<svg width="16" height="16" viewBox="0 0 16 16" fill="none" xmlns="http://www.w3.org/2000/svg">
<g clip-path="url(#clip0_899_6722)">
<path d="M15.1841 5.36678C14.8472 4.55633 14.1648 3.68138 13.629 3.40485C14.0651 4.25984 14.3175 5.11751 14.4139 5.75759C14.4139 5.75884 14.4144 5.76196 14.4155 5.77049C13.5389 3.5856 12.0525 2.70459 10.8387 0.786281C10.7774 0.689283 10.716 0.592035 10.6561 0.489505C10.6256 0.437163 10.5971 0.383664 10.5708 0.329134C10.5203 0.231761 10.4815 0.128856 10.4549 0.0224835C10.4552 0.0120462 10.4476 0.00304634 10.4372 0.00170262C10.4325 0.000327644 10.4274 0.000327644 10.4227 0.00170262C10.4216 0.00207761 10.42 0.00335883 10.4188 0.00379632C10.4171 0.00448381 10.4054 0.0114212 10.4059 0.0107962C8.45852 1.1513 7.80832 3.25292 7.7476 4.30849C6.96996 4.36196 6.22644 4.64845 5.61401 5.13066C5.54989 5.07651 5.48286 5.02589 5.41321 4.97904C5.23652 4.36087 5.22899 3.70657 5.39146 3.08449C4.5951 3.4471 3.97567 4.02028 3.52537 4.52639H3.52177C3.21447 4.13715 3.23612 2.85312 3.25365 2.58503C3.24997 2.5684 3.02441 2.70212 2.99485 2.72227C2.72366 2.91583 2.47014 3.13302 2.23724 3.37129C1.97221 3.64004 1.73006 3.93044 1.51331 4.23943C1.51331 4.23981 1.51309 4.24027 1.51297 4.24065C1.51297 4.24024 1.51319 4.23981 1.51331 4.23943C1.01482 4.94585 0.661268 5.74406 0.473115 6.58795C0.469396 6.60476 0.466271 6.62217 0.462678 6.6391C0.448084 6.70735 0.395585 7.04878 0.386398 7.12297C0.385679 7.12869 0.385367 7.13416 0.384679 7.13987C0.316774 7.49287 0.274744 7.85033 0.258869 8.20945C0.258869 8.22267 0.258057 8.23576 0.258057 8.24904C0.258244 12.53 3.72915 16.0004 8.0105 16.0004C11.8448 16.0004 15.0285 13.2169 15.6517 9.56083C15.6649 9.46161 15.6754 9.36186 15.6869 9.26177C15.841 7.93242 15.6699 6.5352 15.1841 5.36678ZM6.24897 11.4342C6.28522 11.4515 6.31928 11.4705 6.35653 11.4871C6.35809 11.4882 6.36022 11.4894 6.36178 11.4903C6.32388 11.4722 6.28628 11.4535 6.24897 11.4342ZM14.4161 5.7724L14.415 5.76487C14.4154 5.76762 14.4159 5.77049 14.4163 5.77321L14.4161 5.7724Z" fill="url(#paint0_linear_899_6722)"/>
<path d="M15.1841 5.36639C14.8471 4.55594 14.1647 3.68099 13.6289 3.40446C14.065 4.25945 14.3174 5.11712 14.4138 5.7572C14.4138 5.75532 14.4142 5.75876 14.415 5.76448C14.4154 5.76723 14.4159 5.77011 14.4163 5.77282C15.1477 7.75569 14.7492 9.77206 14.175 11.0042C13.2867 12.9106 11.1359 14.8645 7.76948 14.7691C4.13226 14.6662 0.927981 11.9674 0.329837 8.43271C0.220839 7.87531 0.329837 7.59229 0.384679 7.1397C0.317868 7.4886 0.292431 7.58938 0.258869 8.20928C0.258869 8.2225 0.258057 8.23559 0.258057 8.24887C0.25815 12.5297 3.72905 16 8.01041 16C11.8447 16 15.0284 13.2166 15.6516 9.56044C15.6648 9.46122 15.6753 9.36147 15.6869 9.26138C15.8409 7.93203 15.6698 6.53481 15.1841 5.36639Z" fill="url(#paint1_radial_899_6722)"/>
<path d="M15.1841 5.36639C14.8471 4.55594 14.1647 3.68099 13.6289 3.40446C14.065 4.25945 14.3174 5.11712 14.4138 5.7572C14.4138 5.75532 14.4142 5.75876 14.415 5.76448C14.4154 5.76723 14.4159 5.77011 14.4163 5.77282C15.1477 7.75569 14.7492 9.77206 14.175 11.0042C13.2867 12.9106 11.1359 14.8645 7.76948 14.7691C4.13226 14.6662 0.927981 11.9674 0.329837 8.43271C0.220839 7.87531 0.329837 7.59229 0.384679 7.1397C0.317868 7.4886 0.292431 7.58938 0.258869 8.20928C0.258869 8.2225 0.258057 8.23559 0.258057 8.24887C0.25815 12.5297 3.72905 16 8.01041 16C11.8447 16 15.0284 13.2166 15.6516 9.56044C15.6648 9.46122 15.6753 9.36147 15.6869 9.26138C15.8409 7.93203 15.6698 6.53481 15.1841 5.36639Z" fill="url(#paint2_radial_899_6722)"/>
<path d="M11.4169 6.27757C11.4338 6.28945 11.4491 6.30126 11.465 6.31304C11.2705 5.96774 11.0282 5.65162 10.7453 5.37397C8.33557 2.96448 10.4074 0.0100702 10.408 0.00944519C8.46057 1.14995 7.80852 3.25244 7.7478 4.30799C7.83811 4.30174 7.92821 4.29414 8.02011 4.29414C9.47333 4.29417 10.7391 5.09319 11.4169 6.27757Z" fill="url(#paint3_radial_899_6722)"/>
<path d="M8.02504 6.75869C8.01235 6.95153 7.33106 7.61652 7.09281 7.61652C4.88835 7.61652 4.53052 8.9499 4.53052 8.9499C4.62817 10.0728 5.40988 10.9975 6.35664 11.4867C6.39982 11.509 6.44354 11.5292 6.48729 11.5491C6.56229 11.5823 6.63823 11.6134 6.71501 11.6422C7.03962 11.7572 7.37965 11.8227 7.72374 11.8368C11.5875 12.018 12.3361 7.21768 9.54773 5.82371C10.2618 5.69952 11.003 5.9867 11.4169 6.27748C10.7391 5.09319 9.47342 4.29414 8.02023 4.29414C7.92829 4.29414 7.83826 4.30174 7.74792 4.30799C6.97028 4.36146 6.22677 4.64795 5.61434 5.13016C5.73253 5.23016 5.86596 5.36384 6.14705 5.64074C6.67291 6.15901 8.02217 6.69572 8.02504 6.75869Z" fill="url(#paint4_radial_899_6722)"/>
<path d="M8.02504 6.75869C8.01235 6.95153 7.33106 7.61652 7.09281 7.61652C4.88835 7.61652 4.53052 8.9499 4.53052 8.9499C4.62817 10.0728 5.40988 10.9975 6.35664 11.4867C6.39982 11.509 6.44354 11.5292 6.48729 11.5491C6.56229 11.5823 6.63823 11.6134 6.71501 11.6422C7.03962 11.7572 7.37965 11.8227 7.72374 11.8368C11.5875 12.018 12.3361 7.21768 9.54773 5.82371C10.2618 5.69952 11.003 5.9867 11.4169 6.27748C10.7391 5.09319 9.47342 4.29414 8.02023 4.29414C7.92829 4.29414 7.83826 4.30174 7.74792 4.30799C6.97028 4.36146 6.22677 4.64795 5.61434 5.13016C5.73253 5.23016 5.86596 5.36384 6.14705 5.64074C6.67291 6.15901 8.02217 6.69572 8.02504 6.75869Z" fill="url(#paint5_radial_899_6722)"/>
<path d="M5.25254 4.87232C5.30654 4.90716 5.3601 4.94263 5.41323 4.97875C5.23654 4.36058 5.22901 3.70628 5.39148 3.0842C4.59512 3.44682 3.97569 4.01999 3.52539 4.52611C3.56264 4.52508 4.68712 4.50483 5.25254 4.87232Z" fill="url(#paint6_radial_899_6722)"/>
<path d="M0.329851 8.43272C0.927996 11.9674 4.13228 14.6662 7.76949 14.7692C11.1359 14.8645 13.2867 12.9105 14.1751 11.0042C14.7492 9.77201 15.1478 7.75589 14.4163 5.77287L14.416 5.77202L14.415 5.76452C14.4142 5.75877 14.4137 5.75537 14.4139 5.75724C14.4139 5.75849 14.4144 5.76162 14.4154 5.77015C14.6904 7.56564 13.777 9.30505 12.3493 10.4812L12.345 10.4913C9.56296 12.7565 6.90076 11.858 6.36174 11.4902C6.32386 11.4719 6.28621 11.4532 6.24883 11.4339C4.62686 10.6588 3.95681 9.18114 4.10047 7.91389C2.7309 7.91389 2.26391 6.75879 2.26391 6.75879C2.26391 6.75879 3.49354 5.88205 5.11413 6.64457C6.61507 7.35077 8.02467 6.75885 8.02483 6.75879C8.02195 6.69582 6.6727 6.15911 6.14671 5.64087C5.86565 5.36397 5.73219 5.23047 5.614 5.13029C5.54988 5.07613 5.48285 5.02551 5.41319 4.97867C5.36001 4.9426 5.30644 4.90714 5.25251 4.87223C4.68711 4.50474 3.5626 4.52499 3.52535 4.52596H3.52176C3.21445 4.13671 3.23611 2.85268 3.25364 2.58456C3.24995 2.56793 3.02439 2.70165 2.99483 2.7218C2.72365 2.91536 2.47012 3.13258 2.23722 3.37082C1.97219 3.63963 1.73004 3.93009 1.5133 4.23915C1.5133 4.23952 1.51308 4.23999 1.51295 4.24037C1.51295 4.23996 1.51317 4.23952 1.5133 4.23915C1.01481 4.94557 0.661251 5.74378 0.473099 6.58766C0.46938 6.60441 0.194042 7.8083 0.329851 8.43272Z" fill="url(#paint7_radial_899_6722)"/>
<path d="M10.7454 5.37396C11.0283 5.65161 11.2705 5.96773 11.4651 6.31304C11.5078 6.3451 11.5477 6.37707 11.5815 6.40825C13.3389 8.02757 12.4181 10.3179 12.3494 10.4811C13.7772 9.30498 14.6905 7.56554 14.4155 5.77005C13.5389 3.58519 12.0526 2.70417 10.8388 0.785867C10.7775 0.688869 10.7161 0.591621 10.6562 0.489091C10.6257 0.436749 10.5972 0.38325 10.5708 0.32872C10.5204 0.231347 10.4815 0.128442 10.4549 0.0220695C10.4553 0.0116322 10.4477 0.00263237 10.4373 0.00128865C10.4326 -8.63227e-05 10.4298 -0.000617562 10.425 0.00075741C10.4239 0.0011324 10.42 0.00294487 10.4189 0.00338236C10.4172 0.00406984 10.415 0.00566356 10.4132 0.00660104C10.118 0.158536 8.33563 2.96448 10.7454 5.37396Z" fill="url(#paint8_radial_899_6722)"/>
<path d="M11.5813 6.40826C11.5474 6.37707 11.5076 6.34511 11.4649 6.31304C11.4491 6.30117 11.4337 6.28936 11.4168 6.27758C11.0028 5.9868 10.2616 5.69962 9.54754 5.8238C12.3359 7.21778 11.5873 12.0181 7.72354 11.8369C7.37946 11.8228 7.03943 11.7573 6.71481 11.6423C6.63803 11.6134 6.56213 11.5824 6.4871 11.5492C6.44335 11.5293 6.39966 11.5091 6.35645 11.4868C6.35801 11.4879 6.36013 11.4891 6.3617 11.49C6.90072 11.8578 9.56291 12.7564 12.345 10.4911L12.3492 10.4811C12.4179 10.318 13.3387 8.02764 11.5813 6.40826Z" fill="url(#paint9_radial_899_6722)"/>
<path d="M4.53031 8.94989C4.53031 8.94989 4.88815 7.61651 7.0926 7.61651C7.33091 7.61651 8.01224 6.95152 8.02484 6.75868C8.03746 6.56584 6.61518 7.35067 5.11414 6.64446C3.49355 5.88195 2.26392 6.75868 2.26392 6.75868C2.26392 6.75868 2.73091 7.91378 4.10047 7.91378C3.95682 9.18104 4.62687 10.6589 6.24884 11.4338C6.28509 11.4512 6.31915 11.4701 6.35637 11.4867C5.4097 10.9974 4.62796 10.0728 4.53031 8.94989Z" fill="url(#paint10_radial_899_6722)"/>
<path d="M15.1842 5.36643C14.8473 4.55598 14.1649 3.68103 13.629 3.4045C14.0652 4.25948 14.3176 5.11715 14.414 5.75724C14.414 5.75849 14.4145 5.76161 14.4155 5.77014C13.5389 3.58525 12.0526 2.70423 10.8388 0.785928C10.7775 0.68893 10.7161 0.591682 10.6562 0.489153C10.6257 0.43681 10.5972 0.383311 10.5708 0.328781C10.5204 0.231408 10.4815 0.128503 10.4549 0.0221305C10.4553 0.0116932 10.4477 0.00269341 10.4373 0.00134969C10.4326 -2.52875e-05 10.4298 -0.000556527 10.425 0.000818446C10.4239 0.00119344 10.42 0.0030059 10.4189 0.00344339C10.4172 0.00413088 10.411 0.00766206 10.4103 0.00809955C8.40764 1.20683 7.8084 3.2526 7.74768 4.30814C7.83799 4.30189 7.92805 4.2943 8.01999 4.2943C9.47327 4.2943 10.739 5.09331 11.4167 6.27763C11.0028 5.98686 10.2616 5.69967 9.54749 5.82386C12.3359 7.21783 11.5873 12.0181 7.7235 11.8369C7.37941 11.8229 7.03938 11.7573 6.71477 11.6424C6.63799 11.6135 6.56208 11.5825 6.48705 11.5493C6.4433 11.5294 6.39962 11.5092 6.3564 11.4869C6.35796 11.488 6.36009 11.4892 6.36165 11.4901C6.32377 11.4719 6.28612 11.4532 6.24874 11.4339C6.28499 11.4512 6.31906 11.4702 6.3563 11.4868C5.40954 10.9975 4.62781 10.0728 4.53018 8.94995C4.53018 8.94995 4.88802 7.61657 7.09248 7.61657C7.33078 7.61657 8.01212 6.95159 8.02471 6.75875C8.02183 6.69578 6.67258 6.15907 6.14659 5.64083C5.86553 5.36393 5.73207 5.23043 5.61388 5.13025C5.54976 5.07609 5.48273 5.02547 5.41307 4.97863C5.23639 4.36045 5.22886 3.70615 5.39132 3.08407C4.59496 3.44669 3.97554 4.01986 3.52524 4.52598H3.52164C3.21434 4.13674 3.23599 2.8527 3.25352 2.58458C3.24984 2.56796 3.02428 2.70167 2.99472 2.72183C2.72353 2.91539 2.47001 3.13257 2.23711 3.37085C1.97217 3.63965 1.73008 3.93005 1.5134 4.23908C1.5134 4.23945 1.51318 4.23992 1.51306 4.2403C1.51306 4.23989 1.51328 4.23945 1.5134 4.23908C1.01491 4.9455 0.661355 5.7437 0.473203 6.58759C0.469484 6.60441 0.466359 6.62181 0.462765 6.63875C0.448172 6.707 0.38258 7.05337 0.373423 7.12765C0.372705 7.13336 0.374111 7.12196 0.373423 7.12765C0.313581 7.48554 0.275425 7.84673 0.259113 8.20925C0.259113 8.22247 0.258301 8.23556 0.258301 8.24884C0.258301 12.5297 3.7292 16 8.01055 16C11.8449 16 15.0285 13.2166 15.6518 9.56044C15.6649 9.46122 15.6754 9.36148 15.687 9.26138C15.8411 7.93207 15.6699 6.53484 15.1842 5.36643ZM14.4152 5.76452C14.4156 5.76727 14.416 5.77014 14.4165 5.77286L14.4162 5.77202L14.4152 5.76452Z" fill="url(#paint11_linear_899_6722)"/>
</g>
<defs>
<linearGradient id="paint0_linear_899_6722" x1="13.7633" y1="2.47557" x2="1.31562" y2="14.4873" gradientUnits="userSpaceOnUse">
<stop offset="0.05" stop-color="#FFF339"/>
<stop offset="0.37" stop-color="#FF9800"/>
<stop offset="0.53" stop-color="#FF3346"/>
<stop offset="0.7" stop-color="#FF0D8A"/>
</linearGradient>
<radialGradient id="paint1_radial_899_6722" cx="0" cy="0" r="1" gradientUnits="userSpaceOnUse" gradientTransform="translate(13.8401 3.40529) scale(15.8554 16.1224)">
<stop offset="0.13" stop-color="#FFBD44"/>
<stop offset="0.28" stop-color="#FF9800"/>
<stop offset="0.47" stop-color="#FF3450"/>
<stop offset="0.78" stop-color="#FF027B"/>
<stop offset="0.86" stop-color="#FF0083"/>
</radialGradient>
<radialGradient id="paint2_radial_899_6722" cx="0" cy="0" r="1" gradientUnits="userSpaceOnUse" gradientTransform="translate(7.84442 8.44843) scale(16.2517 16.1224)">
<stop offset="0.3" stop-color="#AF0611"/>
<stop offset="0.35" stop-color="#CE1223" stop-opacity="0.74"/>
<stop offset="0.43" stop-color="#FD243B" stop-opacity="0.34"/>
<stop offset="0.5" stop-color="#FF304B" stop-opacity="0.09"/>
<stop offset="0.53" stop-color="#FF3450" stop-opacity="0"/>
</radialGradient>
<radialGradient id="paint3_radial_899_6722" cx="0" cy="0" r="1" gradientUnits="userSpaceOnUse" gradientTransform="translate(9.5319 -0.746657) scale(5.20388 8.8349)">
<stop offset="0.13" stop-color="#FFF339"/>
<stop offset="0.53" stop-color="#FF9800"/>
</radialGradient>
<radialGradient id="paint4_radial_899_6722" cx="0" cy="0" r="1" gradientUnits="userSpaceOnUse" gradientTransform="translate(6.09744 12.6067) scale(6.88669 7.5479)">
<stop offset="0.35" stop-color="#008EE9"/>
<stop offset="0.67" stop-color="#A059FF"/>
<stop offset="1" stop-color="#DF36EA"/>
</radialGradient>
<radialGradient id="paint5_radial_899_6722" cx="0" cy="0" r="1" gradientUnits="userSpaceOnUse" gradientTransform="translate(7.7533 6.78365) scale(3.65649 4.45284)">
<stop offset="0.21" stop-color="#A059FF" stop-opacity="0"/>
<stop offset="0.97" stop-color="#80008E" stop-opacity="0.6"/>
</radialGradient>
<radialGradient id="paint6_radial_899_6722" cx="0" cy="0" r="1" gradientUnits="userSpaceOnUse" gradientTransform="translate(7.48995 1.18942) scale(5.47481 5.49427)">
<stop offset="0.1" stop-color="#FFE200"/>
<stop offset="0.79" stop-color="#FF7232"/>
</radialGradient>
<radialGradient id="paint7_radial_899_6722" cx="0" cy="0" r="1" gradientUnits="userSpaceOnUse" gradientTransform="translate(12.4884 -2.4137) scale(26.138 21.9414)">
<stop offset="0.11" stop-color="#FFF339"/>
<stop offset="0.46" stop-color="#FF9800"/>
<stop offset="0.72" stop-color="#FF3346"/>
<stop offset="0.9" stop-color="#FF0D8A"/>
</radialGradient>
<radialGradient id="paint8_radial_899_6722" cx="0" cy="0" r="1" gradientUnits="userSpaceOnUse" gradientTransform="translate(10.2783 -1.98467) rotate(83.9544) scale(17.1836 17.3122)">
<stop stop-color="#FFF339"/>
<stop offset="0.3" stop-color="#FF9800"/>
<stop offset="0.57" stop-color="#FF3346"/>
<stop offset="0.74" stop-color="#FF0D8A"/>
</radialGradient>
<radialGradient id="paint9_radial_899_6722" cx="0" cy="0" r="1" gradientUnits="userSpaceOnUse" gradientTransform="translate(7.5459 3.16569) scale(15.0067 14.7431)">
<stop offset="0.14" stop-color="#FFF339"/>
<stop offset="0.48" stop-color="#FF9800"/>
<stop offset="0.66" stop-color="#FF3346"/>
<stop offset="0.9" stop-color="#FF0D8A"/>
</radialGradient>
<radialGradient id="paint10_radial_899_6722" cx="0" cy="0" r="1" gradientUnits="userSpaceOnUse" gradientTransform="translate(11.4414 4.0269) scale(18.0376 16.1368)">
<stop offset="0.09" stop-color="#FFF339"/>
<stop offset="0.63" stop-color="#FF9800"/>
</radialGradient>
<linearGradient id="paint11_linear_899_6722" x1="13.0003" y1="2.56666" x2="3.04488" y2="13.4442" gradientUnits="userSpaceOnUse">
<stop offset="0.17" stop-color="#FFF339" stop-opacity="0.8"/>
<stop offset="0.6" stop-color="#FFF339" stop-opacity="0"/>
</linearGradient>
<clipPath id="clip0_899_6722">
<rect width="16" height="16" fill="white"/>
</clipPath>
</defs>
</svg>
