<svg width="16" height="16" viewBox="0 0 16 16" fill="none" xmlns="http://www.w3.org/2000/svg">
<g clip-path="url(#clip0_899_6742)">
<path d="M5.36698 12.5084C4.48255 11.4644 3.90958 9.9207 3.87067 8.18851C3.87055 8.18405 3.87055 7.81608 3.87067 7.81161C3.90958 6.07946 4.48252 4.53583 5.36692 3.49177C6.51467 2.0014 8.23701 1.41556 10.1421 1.41556C11.3141 1.41556 13.3322 2.03646 13.3322 2.03646C11.9239 0.776498 10.067 0.00790623 8.03045 0.000374999C8.02035 0.000343749 8.01032 0 8.00023 0C3.58196 0 0.000244141 3.58171 0.000244141 8.00002C0.000244141 12.2905 3.37789 15.7918 7.61923 15.9907C7.74554 15.9967 7.87248 16 8.00023 16C10.0484 16 11.9164 15.23 13.3316 13.9641C13.3316 13.9641 11.3905 14.4059 10.2187 14.4059C8.31351 14.4059 6.51467 13.9988 5.36698 12.5084Z" fill="url(#paint0_linear_899_6742)"/>
<path d="M5.3667 3.49178C6.10073 2.62525 7.04907 2.10262 8.08489 2.10262C10.4137 2.10262 12.3016 4.74303 12.3016 8.00009C12.3016 11.2572 10.4137 13.8975 8.08489 13.8975C7.04911 13.8975 6.10076 13.3749 5.36676 12.5084C6.51445 13.9987 8.22048 14.9437 10.1256 14.9437C11.2974 14.9437 12.3938 14.586 13.3314 13.964C14.969 12.4992 16 10.3701 16 8C16 5.63012 14.9693 3.50131 13.3319 2.03644C12.3942 1.41425 11.2976 1.05637 10.1256 1.05637C8.22048 1.0564 6.51442 2.00144 5.3667 3.49178Z" fill="url(#paint1_linear_899_6742)"/>
</g>
<defs>
<linearGradient id="paint0_linear_899_6742" x1="6.66619" y1="0.260865" x2="6.66619" y2="15.7671" gradientUnits="userSpaceOnUse">
<stop offset="0.3" stop-color="#FF1B2D"/>
<stop offset="0.4381" stop-color="#FA1A2C"/>
<stop offset="0.5939" stop-color="#ED1528"/>
<stop offset="0.7581" stop-color="#D60E21"/>
<stop offset="0.9272" stop-color="#B70519"/>
<stop offset="1" stop-color="#A70014"/>
</linearGradient>
<linearGradient id="paint1_linear_899_6742" x1="10.6833" y1="1.17481" x2="10.6833" y2="14.8894" gradientUnits="userSpaceOnUse">
<stop stop-color="#9C0000"/>
<stop offset="0.7" stop-color="#FF4B4B"/>
</linearGradient>
<clipPath id="clip0_899_6742">
<rect width="16" height="16" fill="white"/>
</clipPath>
</defs>
</svg>
