<svg width="16" height="16" viewBox="0 0 16 16" fill="none" xmlns="http://www.w3.org/2000/svg">
<g clip-path="url(#clip0_899_6753)">
<path d="M8 0C7.82878 0 7.65881 0.005375 7.49025 0.0159687L0.829781 4.44803C0.298625 5.51822 0 6.72425 0 8C0 10.3399 1.00453 12.4451 2.60591 13.908C2.60591 13.908 5.21309 15.7013 8 15.7013C11.7289 15.7013 15.6079 12.4183 15.6079 8C15.6079 2.76128 10.6235 0.440094 10.6235 0.440094C9.80166 0.154938 8.91891 0 8 0Z" fill="#008CDF"/>
<path d="M15.9217 6.87619L13.9823 6.65482C13.9823 11.0731 10.4006 14.6548 5.98227 14.6548C4.77561 14.6548 3.63193 14.3864 2.60596 13.908C3.22708 14.4754 3.93802 14.9462 4.71496 15.2966L5.18602 15.2703L5.78336 15.6888C6.48727 15.8914 7.23099 16 8.00008 16C12.4184 16 16.0001 12.4183 16.0001 8C16.0001 7.61853 15.9734 7.24335 15.9217 6.87619Z" fill="#0069D0"/>
<path d="M11.3847 0.749031C11.1376 0.633531 10.8835 0.530281 10.6234 0.440094L9.91587 1.06234C9.72209 1.22803 9.67574 1.51384 9.81828 1.73522C9.95531 1.94803 10.2323 2.02228 10.4655 1.92381L10.6087 1.86331C10.7845 1.78906 10.9905 1.81594 11.1331 1.94291C11.385 2.16734 11.3411 2.564 11.0584 2.73128L9.3969 3.71444C9.07237 3.90647 8.86624 4.25556 8.87299 4.63259C8.87999 5.02422 9.09943 5.34319 9.54043 5.38381C10.453 5.46788 10.3216 4.501 10.8576 4.501H12.6959C12.9757 4.501 13.2184 4.71022 13.2427 4.989C13.2703 5.30662 13.0206 5.57297 12.7087 5.57297H10.5044C9.64696 5.57297 8.89928 6.23369 8.87353 7.09072C8.84693 7.97753 9.55787 8.70478 10.4387 8.70478H10.6629C11.0905 8.70478 11.4371 9.05141 11.4371 9.47897V12.2302C11.4371 12.3118 11.4514 12.3924 11.4784 12.4675L12.1258 12.4536L14.1417 9.17531L14.4008 7.2965L15.058 6.34497C15.058 6.345 13.7876 1.87225 11.3847 0.749031Z" fill="#98DB7C"/>
<path d="M15.9216 6.87619C15.5397 4.15634 13.7842 1.87328 11.3848 0.749062C12.9793 2.2115 13.9822 4.32062 13.9822 6.65481C13.9822 8.94569 13.0217 11.0091 11.4785 12.4675C11.5731 12.7378 11.8414 12.9255 12.1531 12.8809C12.352 12.8525 12.5208 12.7188 12.6199 12.5441L14.5292 9.17731C14.6982 8.87928 14.7418 8.52625 14.6502 8.19606L14.5022 7.66209C14.4535 7.48662 14.597 7.31731 14.7781 7.33653L14.8834 7.34769C15.1668 7.37775 15.45 7.28828 15.6646 7.10084L15.9216 6.87619Z" fill="#77CC7D"/>
<path d="M7.92537 0.707281L7.4903 0.0159683C4.56418 0.199531 2.0668 1.95431 0.829834 4.44803L1.33396 7.93066C1.39052 8.32156 1.62302 8.66503 1.96493 8.86281C2.16162 8.97656 2.24768 9.21553 2.16871 9.42856L1.99658 9.89291C1.84171 10.3107 1.97243 10.7807 2.32074 11.0586L2.7804 11.4253C2.93762 11.5507 3.06337 11.7112 3.14755 11.8939L4.34196 14.4858L5.04008 14.9784L5.53305 14.6423L5.35427 13.8952C5.25343 13.4737 5.30746 13.0301 5.50649 12.6451L6.28174 11.1458C6.49527 10.7329 6.29927 10.2262 5.8634 10.0644L5.22649 9.82806C5.02418 9.753 4.88996 9.55997 4.88996 9.34422V9.2945C4.88996 9.00944 4.65887 8.77837 4.37383 8.77837H3.26662C2.99527 8.77837 2.72874 8.70709 2.49362 8.57162L2.22352 8.41603C2.01837 8.29781 1.8788 8.092 1.84493 7.85766L1.82768 7.73828C1.78424 7.43797 1.9203 7.13997 2.17565 6.976L2.33437 6.87409C2.52665 6.75066 2.77721 6.76831 2.95027 6.9175L3.09174 7.03947C3.26399 7.18797 3.5324 7.09997 3.58327 6.87828L3.73415 6.22087C3.81455 5.87062 4.0713 5.58737 4.41205 5.47309L5.52555 5.09966C5.84355 4.993 5.97696 4.61616 5.7969 4.33322L5.29071 3.53781C5.15162 3.31925 4.87205 3.23766 4.63721 3.34709L4.21918 3.54194C4.00296 3.64275 3.73355 3.59953 3.58762 3.41081C3.39933 3.16737 3.47499 2.81762 3.74062 2.67181L4.79121 2.095C5.13971 1.90366 5.57649 2.00737 5.80174 2.33497L5.89937 2.47694C6.04371 2.68703 6.2823 2.8125 6.53721 2.8125H7.00996C7.32337 2.8125 7.60583 2.62356 7.72549 2.33394L8.00683 1.65297C8.1348 1.34319 8.10443 0.990593 7.92537 0.707281Z" fill="#98DB7C"/>
<path d="M4.7148 15.2966C5.0588 15.4518 5.41533 15.5829 5.78317 15.6888L5.53286 14.6423C5.12623 14.6197 4.72989 14.5671 4.3418 14.4858L4.7148 15.2966Z" fill="#77CC7D"/>
</g>
<defs>
<clipPath id="clip0_899_6753">
<rect width="16" height="16" fill="white"/>
</clipPath>
</defs>
</svg>
