<svg width="16" height="16" viewBox="0 0 16 16" fill="none" xmlns="http://www.w3.org/2000/svg">
<g clip-path="url(#clip0_899_6626)">
<path d="M8 16C12.4183 16 16 12.4183 16 8C16 3.58172 12.4183 0 8 0C3.58172 0 0 3.58172 0 8C0 12.4183 3.58172 16 8 16Z" fill="#1DA2F8"/>
<path d="M7.99991 1.18406C7.94603 1.18406 7.90234 1.14037 7.90234 1.0865V0.640058C7.90234 0.586183 7.94603 0.542496 7.99991 0.542496C8.05378 0.542496 8.09747 0.586183 8.09747 0.640058V1.0865C8.09747 1.14037 8.05378 1.18406 7.99991 1.18406Z" fill="#F2F2F2"/>
<path d="M7.99991 15.4575C7.94603 15.4575 7.90234 15.4138 7.90234 15.3599V14.9135C7.90234 14.8596 7.94603 14.8159 7.99991 14.8159C8.05378 14.8159 8.09747 14.8596 8.09747 14.9135V15.3599C8.09747 15.4138 8.05378 15.4575 7.99991 15.4575Z" fill="#F2F2F2"/>
<path d="M6.79929 1.28913C6.75279 1.28913 6.71164 1.25581 6.70329 1.20847L6.62576 0.768813C6.61642 0.715751 6.65186 0.665126 6.70489 0.655813C6.75811 0.646563 6.80861 0.681907 6.81792 0.734969L6.89545 1.17463C6.90479 1.22769 6.86936 1.27831 6.81632 1.28763C6.81057 1.28859 6.80492 1.28913 6.79929 1.28913Z" fill="#F2F2F2"/>
<path d="M9.27781 15.3457C9.23131 15.3457 9.19015 15.3124 9.18181 15.2651L9.10428 14.8254C9.09493 14.7723 9.13037 14.7217 9.1834 14.7124C9.23662 14.703 9.28712 14.7385 9.29643 14.7916L9.37397 15.2312C9.38331 15.2843 9.34787 15.3349 9.29484 15.3442C9.28909 15.3452 9.28343 15.3457 9.27781 15.3457Z" fill="#F2F2F2"/>
<path d="M5.63551 1.601C5.59567 1.601 5.55826 1.57638 5.54386 1.53678L5.39114 1.11728C5.37276 1.06663 5.39886 1.01066 5.44948 0.992222C5.49995 0.973878 5.55611 0.999878 5.57448 1.05053L5.72717 1.47003C5.74561 1.52069 5.71948 1.57666 5.66886 1.5951C5.65786 1.5991 5.64661 1.601 5.63551 1.601Z" fill="#F2F2F2"/>
<path d="M10.5173 15.0137C10.4775 15.0137 10.4401 14.989 10.4257 14.9494L10.273 14.5299C10.2546 14.4793 10.2807 14.4233 10.3313 14.4049C10.3818 14.3865 10.4379 14.4125 10.4563 14.4632L10.609 14.8827C10.6274 14.9333 10.6013 14.9893 10.5507 15.0078C10.5397 15.0118 10.5284 15.0137 10.5173 15.0137Z" fill="#F2F2F2"/>
<path d="M4.5433 2.11031C4.50958 2.11031 4.4768 2.09281 4.45871 2.06149L4.23549 1.67487C4.20858 1.62821 4.22452 1.56856 4.27121 1.54162C4.3178 1.51456 4.37752 1.53065 4.40449 1.57731L4.62771 1.96393C4.65461 2.01059 4.63867 2.07024 4.59199 2.09718C4.57667 2.10609 4.55986 2.11031 4.5433 2.11031Z" fill="#F2F2F2"/>
<path d="M11.68 14.4715C11.6463 14.4715 11.6135 14.454 11.5954 14.4227L11.3722 14.036C11.3453 13.9894 11.3612 13.9297 11.4079 13.9028C11.4545 13.8757 11.5142 13.8918 11.5412 13.9385L11.7644 14.3251C11.7913 14.3717 11.7754 14.4314 11.7287 14.4583C11.7134 14.4672 11.6966 14.4715 11.68 14.4715Z" fill="#F2F2F2"/>
<path d="M3.55621 2.8015C3.5284 2.8015 3.50071 2.78965 3.48143 2.76665L3.19446 2.42468C3.15981 2.3834 3.16521 2.32187 3.20653 2.28721C3.24774 2.25262 3.30931 2.25796 3.34396 2.29925L3.63093 2.64121C3.66559 2.6825 3.66018 2.74403 3.61887 2.77868C3.60062 2.79403 3.57837 2.8015 3.55621 2.8015Z" fill="#F2F2F2"/>
<path d="M12.731 13.7356C12.7032 13.7356 12.6755 13.7237 12.6562 13.7007L12.3693 13.3588C12.3346 13.3175 12.34 13.256 12.3813 13.2213C12.4225 13.1868 12.4841 13.1921 12.5188 13.2333L12.8057 13.5753C12.8403 13.6166 12.8349 13.6781 12.7936 13.7128C12.7754 13.7281 12.7531 13.7356 12.731 13.7356Z" fill="#F2F2F2"/>
<path d="M2.70388 3.65366C2.68176 3.65366 2.65947 3.64619 2.64126 3.63084L2.29929 3.34387C2.25797 3.30922 2.2526 3.24772 2.28722 3.20641C2.32188 3.16509 2.38344 3.15978 2.42466 3.19437L2.76663 3.48134C2.80794 3.516 2.81332 3.5775 2.77869 3.61881C2.75938 3.64178 2.73169 3.65366 2.70388 3.65366Z" fill="#F2F2F2"/>
<path d="M13.6379 12.8284C13.6158 12.8284 13.5935 12.821 13.5753 12.8056L13.2333 12.5186C13.1921 12.484 13.1867 12.4225 13.2213 12.3812C13.2559 12.3399 13.3174 12.3346 13.3588 12.3691L13.7007 12.6561C13.7419 12.6908 13.7473 12.7523 13.7127 12.7936C13.6934 12.8166 13.6658 12.8284 13.6379 12.8284Z" fill="#F2F2F2"/>
<path d="M2.01267 4.6408C1.99614 4.6408 1.97936 4.63658 1.96398 4.62771L1.57736 4.40449C1.53067 4.37755 1.51473 4.3179 1.54164 4.27124C1.56861 4.22461 1.62811 4.20852 1.67492 4.23555L2.06155 4.45877C2.10823 4.48571 2.12417 4.54536 2.09726 4.59202C2.0792 4.6233 2.04642 4.6408 2.01267 4.6408Z" fill="#F2F2F2"/>
<path d="M14.3737 11.7775C14.3572 11.7775 14.3404 11.7733 14.325 11.7644L13.9384 11.5412C13.8918 11.5143 13.8758 11.4546 13.9027 11.408C13.9296 11.3613 13.9893 11.3452 14.036 11.3723L14.4226 11.5955C14.4693 11.6224 14.4852 11.6821 14.4583 11.7287C14.4402 11.76 14.4074 11.7775 14.3737 11.7775Z" fill="#F2F2F2"/>
<path d="M1.50343 5.73302C1.49234 5.73302 1.48109 5.73112 1.47009 5.72712L1.05056 5.57443C0.9999 5.55599 0.973807 5.50002 0.992244 5.44937C1.01062 5.39871 1.06674 5.37271 1.11724 5.39106L1.53678 5.54374C1.58743 5.56218 1.61353 5.61815 1.59509 5.66881C1.58068 5.7084 1.54328 5.73302 1.50343 5.73302Z" fill="#F2F2F2"/>
<path d="M14.916 10.6148C14.9049 10.6148 14.8937 10.6129 14.8826 10.6089L14.4631 10.4562C14.4125 10.4378 14.3864 10.3818 14.4048 10.3311C14.4232 10.2805 14.4792 10.2545 14.5299 10.2728L14.9494 10.4255C15 10.444 15.0261 10.4999 15.0077 10.5506C14.9932 10.5902 14.9558 10.6148 14.916 10.6148Z" fill="#F2F2F2"/>
<path d="M1.1916 6.89705C1.18598 6.89705 1.18029 6.89655 1.17457 6.89555L0.734917 6.81802C0.681855 6.80865 0.646449 6.75805 0.655792 6.70502C0.665136 6.65199 0.715511 6.61659 0.768824 6.62587L1.20848 6.7034C1.26154 6.71277 1.29695 6.76337 1.2876 6.8164C1.27926 6.86374 1.2381 6.89705 1.1916 6.89705Z" fill="#F2F2F2"/>
<path d="M15.2482 9.37563C15.2426 9.37563 15.2369 9.37513 15.2312 9.37413L14.7916 9.2966C14.7385 9.28722 14.7031 9.23663 14.7124 9.1836C14.7218 9.13057 14.7721 9.09516 14.8255 9.10444L15.2651 9.18197C15.3182 9.19135 15.3536 9.24194 15.3442 9.29497C15.3359 9.34232 15.2947 9.37563 15.2482 9.37563Z" fill="#F2F2F2"/>
<path d="M1.08645 8.09756H0.640043C0.586168 8.09756 0.54248 8.05387 0.54248 8C0.54248 7.94612 0.586168 7.90244 0.640043 7.90244H1.08645C1.14032 7.90244 1.18401 7.94612 1.18401 8C1.18401 8.05387 1.14032 8.09756 1.08645 8.09756Z" fill="#F2F2F2"/>
<path d="M15.36 8.09756H14.9135C14.8596 8.09756 14.8159 8.05387 14.8159 8C14.8159 7.94612 14.8596 7.90244 14.9135 7.90244H15.36C15.4138 7.90244 15.4575 7.94612 15.4575 8C15.4575 8.05387 15.4138 8.09756 15.36 8.09756Z" fill="#F2F2F2"/>
<path d="M0.751792 9.37562C0.705292 9.37562 0.664136 9.34231 0.655792 9.29496C0.646449 9.24193 0.681855 9.19127 0.734917 9.18196L1.17457 9.10443C1.22782 9.09515 1.27829 9.13049 1.2876 9.18359C1.29695 9.23662 1.26154 9.28727 1.20848 9.29659L0.768824 9.37412C0.763074 9.37512 0.757386 9.37562 0.751792 9.37562Z" fill="#F2F2F2"/>
<path d="M14.8084 6.89706C14.7619 6.89706 14.7208 6.86374 14.7124 6.8164C14.7031 6.76337 14.7385 6.71271 14.7916 6.7034L15.2312 6.62587C15.2844 6.61659 15.3349 6.65193 15.3442 6.70503C15.3536 6.75806 15.3182 6.80871 15.2651 6.81803L14.8255 6.89556C14.8197 6.89656 14.8141 6.89706 14.8084 6.89706Z" fill="#F2F2F2"/>
<path d="M1.0839 10.6148C1.04405 10.6148 1.00665 10.5902 0.992241 10.5506C0.973803 10.4999 0.999928 10.444 1.05055 10.4255L1.47008 10.2728C1.52055 10.2545 1.57671 10.2805 1.59508 10.3312C1.61352 10.3818 1.5874 10.4378 1.53677 10.4562L1.11724 10.6089C1.10627 10.6129 1.09502 10.6148 1.0839 10.6148Z" fill="#F2F2F2"/>
<path d="M14.4965 5.73302C14.4567 5.73302 14.4192 5.7084 14.4048 5.6688C14.3864 5.61815 14.4125 5.56218 14.4631 5.54374L14.8826 5.39105C14.9333 5.37271 14.9892 5.39874 15.0077 5.44937C15.0261 5.50002 15 5.55599 14.9494 5.57443L14.5299 5.72712C14.5188 5.73112 14.5076 5.73302 14.4965 5.73302Z" fill="#F2F2F2"/>
<path d="M1.62623 11.7775C1.59251 11.7775 1.55973 11.76 1.54164 11.7287C1.51473 11.6821 1.53067 11.6224 1.57736 11.5955L1.96398 11.3722C2.0107 11.3452 2.07026 11.3613 2.09726 11.4079C2.12417 11.4546 2.10823 11.5142 2.06155 11.5412L1.67492 11.7644C1.65955 11.7733 1.6428 11.7775 1.62623 11.7775Z" fill="#F2F2F2"/>
<path d="M13.9873 4.6408C13.9536 4.6408 13.9208 4.6233 13.9027 4.59199C13.8758 4.54533 13.8918 4.48568 13.9384 4.45874L14.325 4.23552C14.3716 4.20849 14.4313 4.22458 14.4583 4.27121C14.4852 4.31787 14.4693 4.37752 14.4226 4.40446L14.036 4.62768C14.0207 4.63658 14.0038 4.6408 13.9873 4.6408Z" fill="#F2F2F2"/>
<path d="M2.36202 12.8284C2.33421 12.8284 2.30652 12.8166 2.28724 12.7936C2.25258 12.7523 2.25799 12.6908 2.2993 12.6561L2.64127 12.3692C2.68249 12.3346 2.74405 12.3399 2.77871 12.3812C2.81336 12.4225 2.80796 12.484 2.76664 12.5187L2.42467 12.8056C2.40642 12.821 2.38417 12.8284 2.36202 12.8284Z" fill="#F2F2F2"/>
<path d="M13.2961 3.65365C13.2683 3.65365 13.2406 3.6418 13.2213 3.6188C13.1867 3.57752 13.1921 3.51602 13.2334 3.48133L13.5753 3.19436C13.6166 3.15977 13.6781 3.16511 13.7128 3.2064C13.7474 3.24768 13.742 3.30918 13.7007 3.34386L13.3588 3.63083C13.3405 3.64615 13.3183 3.65365 13.2961 3.65365Z" fill="#F2F2F2"/>
<path d="M3.26914 13.7356C3.24701 13.7356 3.22473 13.7281 3.20651 13.7128C3.1652 13.6781 3.15983 13.6166 3.19445 13.5753L3.48142 13.2333C3.51611 13.1921 3.57767 13.1867 3.61886 13.2213C3.66017 13.256 3.66554 13.3175 3.63092 13.3588L3.34395 13.7007C3.32464 13.7237 3.29695 13.7356 3.26914 13.7356Z" fill="#F2F2F2"/>
<path d="M12.4439 2.8015C12.4218 2.8015 12.3995 2.79403 12.3813 2.77868C12.34 2.74403 12.3346 2.68253 12.3693 2.64121L12.6562 2.29925C12.6908 2.25796 12.7524 2.25262 12.7936 2.28721C12.8349 2.32187 12.8403 2.3834 12.8057 2.42468L12.5188 2.76665C12.4995 2.78965 12.4718 2.8015 12.4439 2.8015Z" fill="#F2F2F2"/>
<path d="M4.31989 14.4715C4.30336 14.4715 4.28658 14.4672 4.27121 14.4584C4.22452 14.4314 4.20858 14.3718 4.23549 14.3251L4.45871 13.9385C4.48567 13.8918 4.54517 13.8757 4.59199 13.9028C4.63867 13.9297 4.65461 13.9894 4.62771 14.0361L4.40449 14.4227C4.38639 14.454 4.35361 14.4715 4.31989 14.4715Z" fill="#F2F2F2"/>
<path d="M11.4566 2.1103C11.4401 2.1103 11.4233 2.10608 11.4079 2.09721C11.3612 2.07027 11.3453 2.01062 11.3722 1.96396L11.5954 1.57733C11.6224 1.53068 11.6819 1.51455 11.7287 1.54165C11.7754 1.56858 11.7913 1.62824 11.7644 1.6749L11.5412 2.06152C11.5231 2.0928 11.4903 2.1103 11.4566 2.1103Z" fill="#F2F2F2"/>
<path d="M5.48284 15.0137C5.47175 15.0137 5.4605 15.0118 5.4495 15.0078C5.39884 14.9893 5.37275 14.9333 5.39115 14.8827L5.54387 14.4632C5.56231 14.4125 5.61831 14.3864 5.66887 14.4049C5.71953 14.4233 5.74562 14.4793 5.72719 14.5299L5.5745 14.9494C5.56009 14.9891 5.52265 15.0137 5.48284 15.0137Z" fill="#F2F2F2"/>
<path d="M10.3647 1.60099C10.3536 1.60099 10.3423 1.59909 10.3313 1.59509C10.2807 1.57665 10.2546 1.52068 10.273 1.47002L10.4257 1.05052C10.4441 0.999835 10.5002 0.973866 10.5507 0.99221C10.6013 1.01065 10.6274 1.06662 10.609 1.11727L10.4563 1.53677C10.442 1.5764 10.4045 1.60099 10.3647 1.60099Z" fill="#F2F2F2"/>
<path d="M6.72216 15.3457C6.71654 15.3457 6.71085 15.3452 6.70513 15.3442C6.6521 15.3348 6.61666 15.2843 6.62601 15.2312L6.70354 14.7916C6.71288 14.7385 6.76326 14.7031 6.81657 14.7124C6.8696 14.7218 6.90504 14.7724 6.89569 14.8254L6.81816 15.2651C6.80979 15.3124 6.76866 15.3457 6.72216 15.3457Z" fill="#F2F2F2"/>
<path d="M9.20068 1.28912C9.19505 1.28912 9.18937 1.28862 9.18365 1.28762C9.13062 1.27825 9.09518 1.22769 9.10452 1.17462L9.18205 0.734968C9.1914 0.681936 9.24177 0.646624 9.29509 0.655811C9.34812 0.665186 9.38355 0.715749 9.37421 0.768811L9.29668 1.20847C9.2883 1.25578 9.24718 1.28912 9.20068 1.28912Z" fill="#F2F2F2"/>
<path d="M7.46046 1.9319C7.41039 1.9319 7.3678 1.89362 7.36339 1.84287L7.26136 0.676591C7.25667 0.622903 7.29636 0.575591 7.35005 0.570903C7.4038 0.565997 7.45105 0.605935 7.45571 0.659591L7.55774 1.82587C7.56243 1.87956 7.52274 1.92687 7.46905 1.93156C7.46617 1.93178 7.46327 1.9319 7.46046 1.9319Z" fill="#F2F2F2"/>
<path d="M8.64136 15.4295C8.5913 15.4295 8.54871 15.3912 8.5443 15.3405L8.44227 14.1742C8.43758 14.1205 8.47727 14.0732 8.53096 14.0685C8.58502 14.0636 8.6319 14.1035 8.63661 14.1572L8.73864 15.3235C8.74333 15.3771 8.70365 15.4245 8.64996 15.4291C8.64708 15.4293 8.64418 15.4295 8.64136 15.4295Z" fill="#F2F2F2"/>
<path d="M6.39809 2.11928C6.355 2.11928 6.31559 2.09053 6.30394 2.04697L6.00091 0.916124C5.98697 0.864062 6.01781 0.810593 6.06988 0.796655C6.12191 0.782437 6.17544 0.813593 6.18934 0.865624L6.49238 1.99647C6.50631 2.04853 6.47547 2.102 6.42341 2.11594C6.41497 2.11822 6.40644 2.11928 6.39809 2.11928Z" fill="#F2F2F2"/>
<path d="M9.9049 15.2067C9.8618 15.2067 9.8224 15.178 9.81074 15.1344L9.50774 14.0036C9.49381 13.9515 9.52465 13.898 9.57671 13.8841C9.62893 13.87 9.68221 13.901 9.69618 13.9531L9.99918 15.0839C10.0131 15.136 9.98227 15.1894 9.93021 15.2034C9.92168 15.2056 9.91324 15.2067 9.9049 15.2067Z" fill="#F2F2F2"/>
<path d="M5.3844 2.48824C5.34765 2.48824 5.31246 2.46737 5.29593 2.4319L4.80115 1.37084C4.7784 1.32202 4.79949 1.26396 4.84831 1.24121C4.89709 1.21846 4.95524 1.23956 4.97796 1.2884L5.47274 2.34946C5.49549 2.39828 5.4744 2.45634 5.42559 2.47909C5.41227 2.48531 5.39821 2.48824 5.3844 2.48824Z" fill="#F2F2F2"/>
<path d="M11.1104 14.7679C11.0737 14.7679 11.0385 14.7471 11.022 14.7116L10.5272 13.6505C10.5045 13.6017 10.5256 13.5437 10.5744 13.5209C10.6232 13.4982 10.6813 13.5193 10.704 13.5681L11.1988 14.6292C11.2215 14.678 11.2004 14.736 11.1516 14.7588C11.1383 14.765 11.1243 14.7679 11.1104 14.7679Z" fill="#F2F2F2"/>
<path d="M4.45009 3.02765C4.41934 3.02765 4.38906 3.01315 4.37006 2.98606L3.69853 2.02703C3.66768 1.98287 3.67837 1.92206 3.7225 1.89115C3.76681 1.86019 3.82753 1.87103 3.8584 1.91512L4.52993 2.87415C4.56078 2.91831 4.55009 2.97912 4.50596 3.01003C4.4889 3.02193 4.46937 3.02765 4.45009 3.02765Z" fill="#F2F2F2"/>
<path d="M12.2215 14.1265C12.1908 14.1265 12.1605 14.112 12.1415 14.0849L11.47 13.1258C11.4392 13.0817 11.4499 13.0209 11.494 12.99C11.5383 12.959 11.599 12.9698 11.6299 13.0139L12.3014 13.973C12.3322 14.0171 12.3215 14.0779 12.2774 14.1088C12.2604 14.1207 12.2408 14.1265 12.2215 14.1265Z" fill="#F2F2F2"/>
<path d="M3.62363 3.72116C3.59869 3.72116 3.57369 3.71163 3.55466 3.6926L2.72681 2.86472C2.68872 2.82666 2.68872 2.76485 2.72681 2.72675C2.76491 2.68866 2.82666 2.68866 2.86478 2.72675L3.69263 3.5546C3.73072 3.59266 3.73072 3.65447 3.69263 3.69256C3.67356 3.7116 3.64863 3.72116 3.62363 3.72116Z" fill="#F2F2F2"/>
<path d="M13.2042 13.3018C13.1793 13.3018 13.1543 13.2923 13.1352 13.2733L12.3074 12.4454C12.2693 12.4073 12.2693 12.3455 12.3074 12.3074C12.3455 12.2693 12.4072 12.2693 12.4453 12.3074L13.2732 13.1353C13.3113 13.1733 13.3113 13.2352 13.2732 13.2733C13.2541 13.2923 13.2292 13.3018 13.2042 13.3018Z" fill="#F2F2F2"/>
<path d="M2.93 4.54759C2.91069 4.54759 2.89119 4.54187 2.87412 4.52994L1.91512 3.85844C1.871 3.82756 1.86031 3.76672 1.89115 3.72256C1.92212 3.67841 1.98284 3.66769 2.02706 3.69859L2.98606 4.37006C3.03019 4.40094 3.04087 4.46178 3.01003 4.50594C2.99103 4.53306 2.96075 4.54759 2.93 4.54759Z" fill="#F2F2F2"/>
<path d="M14.0289 12.3191C14.0096 12.3191 13.9901 12.3133 13.973 12.3014L13.014 11.6299C12.9699 11.5991 12.9592 11.5382 12.99 11.4941C13.021 11.45 13.0817 11.4392 13.1259 11.4701L14.085 12.1416C14.1291 12.1725 14.1398 12.2333 14.1089 12.2775C14.0899 12.3045 14.0597 12.3191 14.0289 12.3191Z" fill="#F2F2F2"/>
<path d="M2.3905 5.4819C2.37668 5.4819 2.36268 5.47896 2.34934 5.47271L1.28831 4.97796C1.23943 4.95521 1.21834 4.89715 1.24109 4.84833C1.26384 4.79952 1.32193 4.77843 1.37071 4.80115L2.43178 5.2959C2.48065 5.31865 2.50175 5.37671 2.479 5.42552C2.46243 5.46102 2.42725 5.4819 2.3905 5.4819Z" fill="#F2F2F2"/>
<path d="M14.6703 11.208C14.6565 11.208 14.6425 11.2051 14.6291 11.1988L13.568 10.7041C13.5192 10.6813 13.4981 10.6233 13.5209 10.5745C13.5437 10.5257 13.6018 10.5045 13.6505 10.5273L14.7116 11.022C14.7604 11.0448 14.7815 11.1028 14.7587 11.1517C14.7422 11.1872 14.707 11.208 14.6703 11.208Z" fill="#F2F2F2"/>
<path d="M2.02173 6.49571C2.01342 6.49571 2.00492 6.49465 1.99642 6.49233L0.865543 6.18933C0.813449 6.1754 0.782605 6.1219 0.796574 6.06987C0.81048 6.01783 0.863886 5.9868 0.916043 6.0009L2.04692 6.3039C2.09901 6.31783 2.12985 6.37133 2.11589 6.42337C2.1042 6.46693 2.06476 6.49571 2.02173 6.49571Z" fill="#F2F2F2"/>
<path d="M15.1091 10.0025C15.1008 10.0025 15.0923 10.0014 15.0838 9.99909L13.9529 9.69606C13.9009 9.68212 13.87 9.62862 13.884 9.57659C13.8979 9.52456 13.9513 9.49359 14.0034 9.50762L15.1343 9.81065C15.1864 9.82459 15.2173 9.87809 15.2033 9.93012C15.1917 9.97375 15.1522 10.0025 15.1091 10.0025Z" fill="#F2F2F2"/>
<path d="M1.83449 7.55812C1.83162 7.55812 1.82878 7.558 1.82587 7.55772L0.659589 7.45568C0.605933 7.451 0.566245 7.40372 0.570933 7.35C0.575589 7.29631 0.623058 7.25647 0.67662 7.26131L1.8429 7.36334C1.89656 7.36803 1.93624 7.41531 1.93156 7.46903C1.92718 7.51984 1.88459 7.55812 1.83449 7.55812Z" fill="#F2F2F2"/>
<path d="M15.3321 8.73903C15.3293 8.73903 15.3264 8.7389 15.3235 8.73862L14.1572 8.63659C14.1035 8.6319 14.0638 8.58462 14.0685 8.5309C14.0732 8.47725 14.1201 8.43749 14.1742 8.44221L15.3405 8.54424C15.3942 8.54893 15.4339 8.59621 15.4292 8.64993C15.4247 8.70078 15.3821 8.73903 15.3321 8.73903Z" fill="#F2F2F2"/>
<path d="M0.667995 8.73903C0.617933 8.73903 0.575339 8.70075 0.570933 8.65C0.566245 8.59632 0.605933 8.549 0.659589 8.54432L1.82587 8.44229C1.8804 8.4376 1.9269 8.47735 1.93156 8.53097C1.93624 8.58466 1.89656 8.63197 1.8429 8.63666L0.67662 8.73869C0.673714 8.73891 0.670808 8.73903 0.667995 8.73903Z" fill="#F2F2F2"/>
<path d="M14.1656 7.55812C14.1155 7.55812 14.0729 7.51984 14.0685 7.46909C14.0638 7.4154 14.1035 7.36809 14.1572 7.3634L15.3235 7.26137C15.3775 7.25631 15.4244 7.29643 15.4291 7.35006C15.4338 7.40375 15.3941 7.45106 15.3405 7.45575L14.1741 7.55778C14.1712 7.558 14.1683 7.55812 14.1656 7.55812Z" fill="#F2F2F2"/>
<path d="M0.890717 10.0025C0.847623 10.0025 0.808217 9.97374 0.796561 9.93015C0.782624 9.87809 0.813467 9.82462 0.86553 9.81068L1.9964 9.50765C2.04831 9.49349 2.1019 9.52459 2.11587 9.57662C2.12981 9.62868 2.09897 9.68215 2.0469 9.69609L0.91603 9.99912C0.907592 10.0014 0.89903 10.0025 0.890717 10.0025Z" fill="#F2F2F2"/>
<path d="M13.9781 6.49571C13.935 6.49571 13.8956 6.46696 13.884 6.4234C13.87 6.37133 13.9009 6.31787 13.9529 6.30393L15.0838 6.00093C15.1358 5.98683 15.1893 6.01787 15.2033 6.0699C15.2172 6.12196 15.1864 6.17543 15.1343 6.18937L14.0034 6.49236C13.995 6.49461 13.9865 6.49571 13.9781 6.49571Z" fill="#F2F2F2"/>
<path d="M1.32956 11.208C1.29281 11.208 1.25762 11.1872 1.24109 11.1517C1.21834 11.1028 1.23943 11.0448 1.28831 11.022L2.34937 10.5273C2.39796 10.5045 2.45621 10.5257 2.479 10.5745C2.50178 10.6233 2.48065 10.6813 2.43178 10.7041L1.37071 11.1988C1.35743 11.2051 1.34337 11.208 1.32956 11.208Z" fill="#F2F2F2"/>
<path d="M13.6093 5.48189C13.5726 5.48189 13.5374 5.46102 13.5209 5.42555C13.4981 5.37674 13.5192 5.31868 13.568 5.29593L14.6291 4.80118C14.6779 4.77846 14.736 4.79955 14.7587 4.84836C14.7815 4.89718 14.7604 4.95524 14.7116 4.97799L13.6505 5.47274C13.6372 5.47896 13.6232 5.48189 13.6093 5.48189Z" fill="#F2F2F2"/>
<path d="M1.97119 12.3191C1.94044 12.3191 1.91015 12.3046 1.89115 12.2775C1.86031 12.2333 1.871 12.1725 1.91512 12.1416L2.87412 11.4701C2.91844 11.4391 2.97915 11.45 3.01003 11.4941C3.04087 11.5382 3.03019 11.599 2.98606 11.6299L2.02706 12.3014C2.01003 12.3133 1.9905 12.3191 1.97119 12.3191Z" fill="#F2F2F2"/>
<path d="M13.0701 4.54759C13.0393 4.54759 13.009 4.53309 12.99 4.50599C12.9592 4.46184 12.9699 4.40102 13.014 4.37012L13.973 3.69865C14.0173 3.66768 14.078 3.67852 14.1089 3.72262C14.1398 3.76677 14.1291 3.82759 14.085 3.85849L13.1259 4.52996C13.1089 4.54184 13.0894 4.54759 13.0701 4.54759Z" fill="#F2F2F2"/>
<path d="M2.79578 13.3018C2.77084 13.3018 2.74584 13.2923 2.72681 13.2733C2.68872 13.2352 2.68872 13.1734 2.72681 13.1353L3.55466 12.3074C3.59275 12.2693 3.6545 12.2693 3.69262 12.3074C3.73072 12.3455 3.73072 12.4073 3.69262 12.4454L2.86478 13.2733C2.84572 13.2923 2.82072 13.3018 2.79578 13.3018Z" fill="#F2F2F2"/>
<path d="M12.3763 3.72116C12.3514 3.72116 12.3264 3.71163 12.3074 3.69259C12.2693 3.65453 12.2693 3.59272 12.3074 3.55463L13.1352 2.72678C13.1733 2.68869 13.2351 2.68869 13.2732 2.72678C13.3113 2.76484 13.3113 2.82666 13.2732 2.86475L12.4453 3.69259C12.4262 3.71159 12.4013 3.72116 12.3763 3.72116Z" fill="#F2F2F2"/>
<path d="M3.77837 14.1265C3.75906 14.1265 3.73956 14.1207 3.7225 14.1088C3.67837 14.0779 3.66768 14.0171 3.69853 13.9729L4.37006 13.0139C4.40103 12.9698 4.46175 12.959 4.50596 12.9899C4.55009 13.0208 4.56078 13.0816 4.52993 13.1258L3.8584 14.0848C3.83937 14.112 3.80915 14.1265 3.77837 14.1265Z" fill="#F2F2F2"/>
<path d="M11.5499 3.02764C11.5305 3.02764 11.511 3.02193 11.494 3.00999C11.4499 2.97911 11.4392 2.91827 11.47 2.87411L12.1415 1.91508C12.1724 1.87093 12.2333 1.86021 12.2774 1.89111C12.3215 1.92199 12.3322 1.98283 12.3014 2.02699L11.6299 2.98602C11.6109 3.01314 11.5806 3.02764 11.5499 3.02764Z" fill="#F2F2F2"/>
<path d="M4.88954 14.7679C4.87573 14.7679 4.86169 14.765 4.84832 14.7587C4.79951 14.736 4.77838 14.6779 4.80116 14.6291L5.29594 13.5681C5.31866 13.5192 5.37682 13.4981 5.4256 13.5209C5.47441 13.5436 5.49554 13.6017 5.47276 13.6505L4.97798 14.7116C4.96148 14.7471 4.92629 14.7679 4.88954 14.7679Z" fill="#F2F2F2"/>
<path d="M10.6156 2.48824C10.6018 2.48824 10.5878 2.48531 10.5744 2.47906C10.5256 2.45631 10.5045 2.39824 10.5272 2.34943L11.022 1.28837C11.0447 1.23953 11.1029 1.21843 11.1516 1.24118C11.2005 1.26393 11.2216 1.32199 11.1988 1.37081L10.7041 2.43187C10.6875 2.4674 10.6523 2.48824 10.6156 2.48824Z" fill="#F2F2F2"/>
<path d="M6.0952 15.2067C6.08689 15.2067 6.07836 15.2056 6.06989 15.2033C6.01779 15.1894 5.98695 15.1359 6.00092 15.0839L6.30395 13.953C6.31789 13.9011 6.37145 13.87 6.42342 13.8841C6.47551 13.898 6.50636 13.9515 6.49239 14.0035L6.18936 15.1344C6.1777 15.178 6.13826 15.2067 6.0952 15.2067Z" fill="#F2F2F2"/>
<path d="M9.60204 2.11927C9.59372 2.11927 9.58522 2.11821 9.57672 2.1159C9.52463 2.10196 9.49379 2.04846 9.50776 1.99643L9.81076 0.865583C9.82469 0.813552 9.87797 0.782427 9.93022 0.796614C9.98232 0.810552 10.0132 0.864052 9.99919 0.916083L9.69619 2.04693C9.68454 2.09049 9.6451 2.11927 9.60204 2.11927Z" fill="#F2F2F2"/>
<path d="M7.35865 15.4295C7.35584 15.4295 7.35293 15.4294 7.35005 15.4291C7.29637 15.4244 7.25665 15.3771 7.26137 15.3234L7.3634 14.1571C7.36805 14.1035 7.41537 14.0635 7.46905 14.0684C7.52274 14.0731 7.56246 14.1204 7.55774 14.1741L7.45571 15.3404C7.45127 15.3912 7.40871 15.4295 7.35865 15.4295Z" fill="#F2F2F2"/>
<path d="M8.53956 1.93191C8.53674 1.93191 8.53384 1.93178 8.53096 1.9315C8.47728 1.92682 8.43756 1.87953 8.44228 1.82582L8.54431 0.659535C8.54896 0.605878 8.59577 0.56591 8.64996 0.570847C8.70365 0.575535 8.74337 0.622816 8.73865 0.676535L8.63662 1.84282C8.63221 1.89366 8.58965 1.93191 8.53956 1.93191Z" fill="#F2F2F2"/>
<path d="M8.96656 8.9665L13.2775 2.7226L7.03356 7.0335L2.72266 13.2774L8.96656 8.9665Z" fill="#F2F2F2"/>
<path d="M8.96656 8.9665L13.2775 2.7226L2.72266 13.2774L8.96656 8.9665Z" fill="#CCCCCC"/>
<path d="M8.96645 8.9665L13.2774 2.7226L7.03345 7.0335L8.96645 8.9665Z" fill="#FF525D"/>
<path d="M8.9665 8.9665L13.2774 2.7226L8 8L8.9665 8.9665Z" fill="#EF4152"/>
</g>
<defs>
<clipPath id="clip0_899_6626">
<rect width="16" height="16" fill="white"/>
</clipPath>
</defs>
</svg>
