<svg height="512" viewBox="0 0 176 176" width="512" xmlns="http://www.w3.org/2000/svg"><g id="Layer_2" data-name="Layer 2"><g id="dribbble"><rect id="background" fill="#ea4c88" height="176" rx="24" width="176"/><path id="icon" d="m88 143a55 55 0 1 0 -55-55 55.12 55.12 0 0 0 55 55zm0-10a44.49 44.49 0 0 1 -25.49-8 69 69 0 0 1 33.12-25.31 137.42 137.42 0 0 1 6 30.95 45 45 0 0 1 -13.63 2.36zm23.2-6.64a146.71 146.71 0 0 0 -5.95-29.36 68.54 68.54 0 0 1 26.81 0 45.09 45.09 0 0 1 -20.89 29.35zm21.69-39.36a79.24 79.24 0 0 0 -31 .44c-1.27-3.26-2.63-6.49-4.15-9.66a79.41 79.41 0 0 0 22.85-20.7 45 45 0 0 1 12.3 29.92zm-44.89-44a44.83 44.83 0 0 1 24.9 7.51 69.36 69.36 0 0 1 -19.76 18.37 145.54 145.54 0 0 0 -16.93-24.12 44.94 44.94 0 0 1 11.79-1.76zm-21.52 5.72a137.28 137.28 0 0 1 17.73 24.7 69.07 69.07 0 0 1 -39.94 4.4 44.91 44.91 0 0 1 22.21-29.1zm-9.48 40.47a78.76 78.76 0 0 0 31.84-6.83c1.26 2.63 2.38 5.22 3.46 8a78.69 78.69 0 0 0 -37.3 28 44.65 44.65 0 0 1 -12-30.36 102.92 102.92 0 0 0 14 1.19z" fill="#fff"/></g></g></svg>