<svg width="60" height="60" viewBox="0 0 60 60" fill="none" xmlns="http://www.w3.org/2000/svg">
<path d="M6.66665 56.6496H10.8333C12.6709 56.6496 14.1666 55.1538 14.1666 53.3162V47.5496C14.1666 45.7121 12.6709 44.2163 10.8333 44.2163H6.66665C4.82908 44.2163 3.33331 45.7121 3.33331 47.5496V53.3162C3.33331 55.1538 4.82908 56.6496 6.66665 56.6496ZM6.66665 47.5496H10.8333L10.8366 53.3162H6.66665V47.5496Z" fill="#4936F5"/>
<path d="M20.8333 56.6495H25C26.8376 56.6495 28.3333 55.1537 28.3333 53.3162V32.6505C28.3333 30.8129 26.8376 29.3171 25 29.3171H20.8333C18.9958 29.3171 17.5 30.8129 17.5 32.6505V53.3162C17.5 55.1537 18.9958 56.6495 20.8333 56.6495ZM20.8333 32.6505H25L25.0033 53.3162H20.8333V32.6505Z" fill="#4936F5"/>
<path d="M35 35.1162C33.1624 35.1162 31.6666 36.612 31.6666 38.4495V53.3161C31.6666 55.1536 33.1624 56.6494 35 56.6494H39.1666C41.0042 56.6494 42.5 55.1536 42.5 53.3161V38.4495C42.5 36.612 41.0042 35.1162 39.1666 35.1162H35ZM35 53.3161V38.4495H39.1666L39.1699 53.3161H35Z" fill="#4936F5"/>
<path d="M56.6666 53.3161V20.9495C56.6666 19.112 55.1709 17.6162 53.3333 17.6162H49.1666C47.3291 17.6162 45.8333 19.112 45.8333 20.9495V53.3161C45.8333 55.1536 47.3291 56.6494 49.1666 56.6494H53.3333C55.1709 56.6494 56.6666 55.1536 56.6666 53.3161ZM49.1666 20.9495H53.3333L53.3366 53.3161H49.1666V20.9495Z" fill="#4936F5"/>
<path d="M9.91207 27.8946L22.4886 15.3181C22.9834 14.825 23.7418 14.6882 24.3782 14.9893L34.305 19.6589C36.2028 20.559 38.4814 20.1602 39.969 18.671L52.4462 6.19539C53.0973 5.54435 53.0973 4.48966 52.4462 3.83862C51.7952 3.18758 50.7405 3.18758 50.0895 3.83862L37.6123 16.3142C37.1158 16.8106 36.3558 16.9441 35.7242 16.643L25.7975 11.9718C23.9013 11.0798 21.6194 11.4737 20.1318 12.9613L7.5553 25.5378C6.90426 26.1889 6.90426 27.2436 7.5553 27.8946C8.20632 28.5456 9.26101 28.5457 9.91207 27.8946Z" fill="#4936F5"/>
</svg>
