<svg width="71" height="70" viewBox="0 0 71 70" fill="none" xmlns="http://www.w3.org/2000/svg">
<g clip-path="url(#clip0_3021_5020)">
<path d="M67.4238 24.2335H65.5105L65.6994 17.5645L57.412 13.0882L52.9357 4.80086L43.5205 5.06774L35.5 0.128906L27.4795 5.0676L18.0643 4.80072L13.5879 13.0881L5.30061 17.5644L5.48969 24.2334H3.57617C1.8799 24.2334 0.5 25.6134 0.5 27.3096V42.6904C0.5 44.3865 1.8799 45.7666 3.57617 45.7666H5.48969L5.30061 52.4356L13.5879 56.9119L18.0644 65.1992L27.4797 64.9324L35.5 69.8713L43.5203 64.9326L52.9356 65.1995L57.4119 56.9122L65.6993 52.4359L65.5103 45.7669H67.4238C69.12 45.7669 70.5 44.3868 70.5 42.6907V27.3098C70.5 25.6136 69.12 24.2335 67.4238 24.2335ZM7.38639 18.7687L15.1013 14.6014L19.2685 6.8865L28.0335 7.13492L35.5 2.53734L42.9665 7.13506L51.7313 6.88664L55.8986 14.6015L63.6135 18.7689L63.4587 24.2337H58.768C54.5757 15.179 45.5171 9.36535 35.5 9.36535C30.8468 9.36535 26.2891 10.6259 22.3196 13.0105L23.3758 14.7683C27.0263 12.5754 31.2188 11.4161 35.5 11.4161C44.394 11.4161 52.4667 16.3978 56.4869 24.2335H14.5131C16.215 20.9221 18.6862 18.0464 21.7286 15.8538L20.5294 14.1899C16.9403 16.7767 14.0845 20.2397 12.2336 24.2335H7.54129L7.38639 18.7687ZM63.6136 51.2315L55.8987 55.3988L51.7314 63.1137L42.9666 62.8653L35.5 67.4629L28.0335 62.8652L19.2685 63.1136L15.1013 55.3987L7.38639 51.2314L7.54129 45.7666H12.232C16.4243 54.8212 25.4829 60.6349 35.5 60.6349C45.5172 60.6349 54.5757 54.8212 58.768 45.7667H63.4587L63.6136 51.2315ZM68.4492 42.6906C68.4492 43.256 67.9893 43.7159 67.4238 43.7159H38.5762V45.7667H56.4867C52.4667 53.6025 44.3941 58.5841 35.5 58.5841C26.6059 58.5841 18.5332 53.6025 14.5131 45.7667H32.4238V43.7159H3.57617C3.01084 43.7159 2.55078 43.256 2.55078 42.6906V27.3097C2.55078 26.7442 3.01084 26.2843 3.57617 26.2843H67.4238C67.9893 26.2843 68.4492 26.7442 68.4492 27.3097V42.6906Z" fill="#605DFF"/>
<path d="M34.4746 43.7158H36.5254V45.7666H34.4746V43.7158Z" fill="#605DFF"/>
<path d="M41.6522 15.5176H43.703V17.5684H41.6522V15.5176Z" fill="#605DFF"/>
<path d="M45.7538 17.5684H47.8045V19.6191H45.7538V17.5684Z" fill="#605DFF"/>
<path d="M33.6366 29.8312L29.9023 39.6363L31.8188 40.3663L32.7089 38.0294H36.3035L37.1846 40.3644L39.1033 39.6403L35.4007 29.8291L33.6366 29.8312ZM33.4898 35.9786L34.5142 33.2886L35.5294 35.9786H33.4898Z" fill="#605DFF"/>
<path d="M49.0222 36.0368L45.1224 29.8303L43.1658 29.8296V40.1695H45.2166V33.8349L49.1165 40.0416H51.073V29.8145H49.0222V36.0368Z" fill="#605DFF"/>
<path d="M58.3732 29.8145H55.0656V39.9237H58.4489L58.458 39.9236C60.8885 39.8808 62.6529 37.7552 62.6529 34.8689C62.6529 31.8458 60.933 29.8145 58.3732 29.8145ZM58.4299 37.8731H57.1163V31.8654H58.3732C59.4507 31.8654 60.6021 32.6544 60.6021 34.8692C60.6021 36.9015 59.4776 37.85 58.4299 37.8731Z" fill="#605DFF"/>
<path d="M14.2435 34.3713C14.5453 33.9096 14.7208 33.3583 14.7208 32.7667C14.7208 31.1477 13.4037 29.8306 11.7845 29.8306H8.34711V40.1855H12.206C14.0038 40.1855 15.4666 38.7184 15.4666 36.9149C15.4666 35.8873 14.9888 34.9693 14.2435 34.3713ZM10.3979 31.8813H11.7846C12.2728 31.8813 12.6702 32.2785 12.6702 32.7667C12.6702 33.2562 12.273 33.6545 11.7848 33.6545H10.3979V31.8813ZM12.206 38.1349H10.3979V35.7052H12.206C12.873 35.7052 13.4158 36.248 13.4158 36.9151C13.4158 37.5877 12.873 38.1349 12.206 38.1349Z" fill="#605DFF"/>
<path d="M25.9995 33.0141C25.9995 31.2586 24.5167 29.8306 22.694 29.8306H19.4607L19.4589 40.1854L21.5097 40.1856L21.5104 36.7463L24.6015 40.4004L26.1672 39.0759L23.6234 36.0688C24.9948 35.6809 25.9995 34.4588 25.9995 33.0141ZM21.5111 31.8812H22.6938C23.374 31.8812 23.9486 32.3999 23.9486 33.0139C23.9486 33.6279 23.374 34.1466 22.6882 34.1466L21.5105 34.1531L21.5111 31.8812Z" fill="#605DFF"/>
</g>
<defs>
<clipPath id="clip0_3021_5020">
<rect width="70" height="70" fill="white" transform="translate(0.5)"/>
</clipPath>
</defs>
</svg>
