<svg width="25" height="25" viewBox="0 0 25 25" fill="none" xmlns="http://www.w3.org/2000/svg">
<path d="M3.81841 11.5747C3.38694 11.576 2.96463 11.6993 2.60034 11.9305C2.23605 12.1617 1.94467 12.4913 1.75989 12.8812C1.57512 13.2711 1.50452 13.7054 1.55625 14.1337C1.60798 14.5621 1.77993 14.9671 2.05221 15.3018L7.85653 22.4121C8.06349 22.669 8.32877 22.8729 8.63034 23.0068C8.93191 23.1406 9.26107 23.2006 9.59048 23.1817C10.295 23.1439 10.9311 22.767 11.3366 22.1473L23.3936 2.72945C23.3956 2.72623 23.3977 2.72301 23.3998 2.71984C23.5129 2.54614 23.4762 2.20191 23.2427 1.98566C23.1786 1.92627 23.103 1.88065 23.0205 1.85159C22.9381 1.82254 22.8505 1.81067 22.7633 1.81672C22.6761 1.82277 22.5911 1.84661 22.5134 1.88676C22.4358 1.92692 22.3672 1.98255 22.3119 2.05022C22.3075 2.05554 22.3031 2.06078 22.2985 2.06594L10.1388 15.8046C10.0925 15.8569 10.0363 15.8994 9.97347 15.9298C9.91061 15.9602 9.84234 15.9778 9.77263 15.9816C9.70292 15.9853 9.63315 15.9752 9.56738 15.9518C9.50161 15.9284 9.44115 15.8921 9.38951 15.8451L5.35394 12.1727C4.93481 11.7885 4.38699 11.5752 3.81841 11.5747Z" fill="#605DFF"/>
</svg>
