<svg width="60" height="60" viewBox="0 0 60 60" fill="none" xmlns="http://www.w3.org/2000/svg">
<g clip-path="url(#clip0_3039_1364)">
<path d="M30 17.5781C25.1537 17.5781 21.2109 13.6354 21.2109 8.78906C21.2109 3.94277 25.1537 0 30 0C34.8463 0 38.7891 3.94277 38.7891 8.78906C38.7891 13.6354 34.8463 17.5781 30 17.5781ZM30 3.51562C27.0922 3.51562 24.7266 5.88129 24.7266 8.78906C24.7266 11.6968 27.0922 14.0625 30 14.0625C32.9078 14.0625 35.2734 11.6968 35.2734 8.78906C35.2734 5.88129 32.9078 3.51562 30 3.51562Z" fill="#4936F5"/>
<path d="M1.17631 50.2148C-1.2469 46.0177 0.196269 40.6319 4.39334 38.2087C8.59064 35.7856 13.9763 37.2288 16.3994 41.4257C18.8283 45.6325 17.3897 51.0028 13.1824 53.4318C8.95873 55.8704 3.58404 54.3851 1.17631 50.2148ZM6.15115 41.2533C3.63291 42.7072 2.76713 45.9387 4.22096 48.457C5.66787 50.963 8.8951 51.8476 11.4246 50.3872C13.9486 48.93 14.8122 45.7079 13.3549 43.1835C11.901 40.6654 8.66951 39.7994 6.15115 41.2533Z" fill="#4936F5"/>
<path d="M46.8176 53.4319C42.6108 51.0032 41.1715 45.633 43.6006 41.4258C46.0237 37.2288 51.4097 35.7855 55.6067 38.2088C59.8036 40.6318 61.2468 46.0178 58.8237 50.2148C56.4114 54.393 51.0319 55.865 46.8176 53.4319ZM46.6452 43.1836C45.188 45.7076 46.0511 48.9299 48.5755 50.3872C51.0936 51.8411 54.3252 50.9753 55.7792 48.457C57.233 45.9388 56.3672 42.7072 53.849 41.2534C51.3175 39.7918 48.0914 40.6786 46.6452 43.1836Z" fill="#4936F5"/>
<path d="M7.18345 32.2375L3.6731 32.0442C3.90255 27.877 5.13794 23.7764 7.24579 20.1857C9.29528 16.6942 12.1694 13.6741 15.5575 11.4521L17.4855 14.3919C11.4314 18.3625 7.58013 25.0337 7.18345 32.2375Z" fill="#4936F5"/>
<path d="M52.8165 32.2375C52.4198 25.0337 48.5685 18.3625 42.5144 14.3919L44.4424 11.4521C47.8305 13.6741 50.7046 16.6941 52.7541 20.1857C54.862 23.7764 56.0974 27.877 56.3268 32.0442L52.8165 32.2375Z" fill="#4936F5"/>
<path d="M30 60C25.8192 60 21.8203 59.0496 18.1143 57.1751L19.7011 54.0378C22.9105 55.6612 26.3756 56.4844 30 56.4844C33.6244 56.4844 37.0895 55.6612 40.2989 54.038L41.8857 57.1752C38.1797 59.0496 34.1808 60 30 60Z" fill="#4936F5"/>
</g>
<defs>
<clipPath id="clip0_3039_1364">
<rect width="60" height="60" fill="white"/>
</clipPath>
</defs>
</svg>
