<svg width="60" height="60" viewBox="0 0 60 60" fill="none" xmlns="http://www.w3.org/2000/svg">
<path d="M42.7838 6.66677C39.3938 3.96735 34.8538 2.48071 30 2.48071C25.1462 2.48071 20.6061 3.96735 17.2161 6.66677C13.3247 9.76544 11.2677 14.1734 11.2677 19.4141C11.2677 25.9191 13.9602 29.6752 16.3356 32.9893C18.249 35.6586 19.9015 37.9639 19.9015 41.3665V42.0867C19.9015 43.7797 21.2788 45.157 22.9718 45.157H37.0281C38.7211 45.157 40.0984 43.7797 40.0984 42.0867V41.3665C40.0984 37.964 41.7509 35.6587 43.6642 32.9894C46.0397 29.6754 48.7321 25.9191 48.7321 19.4141C48.7321 14.1734 46.6751 9.76556 42.7836 6.66677H42.7838ZM30 26.6741C28.6777 26.6741 27.6019 25.5983 27.6019 24.2759C27.6019 22.9536 28.6777 21.8778 30 21.8778C31.3223 21.8778 32.3981 22.9536 32.3981 24.2759C32.3981 25.5983 31.3223 26.6741 30 26.6741ZM41.2832 31.2826C39.2604 34.1046 37.1688 37.0225 37.1688 41.3666V42.0868C37.1688 42.1618 37.1031 42.2274 37.0282 42.2274H31.4648V29.3973C33.6922 28.7592 35.3278 26.7056 35.3278 24.2759C35.3278 21.3382 32.9377 18.9481 30 18.9481C27.0623 18.9481 24.6722 21.3382 24.6722 24.2759C24.6722 26.7056 26.3077 28.7592 28.5352 29.3973V42.2274H22.9718C22.8968 42.2274 22.8312 42.1617 22.8312 42.0868V41.3666C22.8312 37.0225 20.7395 34.1045 18.7168 31.2826C16.495 28.1829 14.1975 24.9777 14.1975 19.4142C14.1975 9.79263 22.389 5.4104 30.0001 5.4104C37.6112 5.4104 45.8026 9.79263 45.8026 19.4142C45.8026 24.9778 43.5052 28.183 41.2834 31.2826H41.2832ZM38.1984 48.8702C38.1984 49.6791 37.5425 50.335 36.7336 50.335H23.2664C22.4575 50.335 21.8016 49.6791 21.8016 48.8702C21.8016 48.0613 22.4575 47.4054 23.2664 47.4054H36.7336C37.5425 47.4054 38.1984 48.0613 38.1984 48.8702ZM35.0271 54.0481C35.0271 54.8571 34.3712 55.513 33.5623 55.513H31.4648V56.0545C31.4648 56.8634 30.8089 57.5193 30 57.5193C29.1911 57.5193 28.5352 56.8634 28.5352 56.0545V55.513H26.4377C25.6288 55.513 24.9729 54.8571 24.9729 54.0481C24.9729 53.2392 25.6288 52.5833 26.4377 52.5833H33.5624C34.3713 52.5833 35.0271 53.2392 35.0271 54.0481ZM49.6055 10.3377C49.2009 9.637 49.4411 8.7411 50.1416 8.33669L52.8981 6.74517C53.5985 6.34063 54.4945 6.58075 54.8991 7.2813C55.3036 7.98185 55.0635 8.87786 54.3629 9.28228L51.6064 10.8738C51.3758 11.0069 51.1239 11.0703 50.8754 11.0703C50.3692 11.0703 49.8769 10.8076 49.6055 10.3377ZM6.2298 21.8778H3.04688C2.23793 21.8778 1.58203 21.2219 1.58203 20.413C1.58203 19.604 2.23793 18.9481 3.04688 18.9481H6.2298C7.03875 18.9481 7.69465 19.604 7.69465 20.413C7.69465 21.2219 7.03875 21.8778 6.2298 21.8778ZM10.3943 30.4885C10.7988 31.1892 10.5587 32.085 9.85816 32.4895L7.10168 34.081C6.87105 34.2143 6.6191 34.2775 6.37066 34.2775C5.86441 34.2775 5.37211 34.0149 5.1007 33.5449C4.69617 32.8442 4.93629 31.9484 5.63684 31.5439L8.39332 29.9524C9.09375 29.5476 9.98977 29.7879 10.3943 30.4885ZM54.8992 33.5449C54.628 34.0148 54.1355 34.2775 53.6292 34.2775C53.3807 34.2775 53.1288 34.2143 52.8982 34.081L50.1417 32.4896C49.4411 32.0852 49.2011 31.1892 49.6056 30.4886C50.0099 29.788 50.9059 29.5479 51.6066 29.9525L54.363 31.5439C55.0637 31.9483 55.3037 32.8443 54.8992 33.5449ZM10.3944 10.3375C10.1231 10.8075 9.6307 11.0702 9.12445 11.0702C8.8759 11.0702 8.62406 11.0069 8.39344 10.8737L5.63695 9.28216C4.93629 8.87763 4.69629 7.98173 5.10082 7.28118C5.50523 6.58052 6.40113 6.3404 7.1018 6.74505L9.85828 8.33657C10.5589 8.7411 10.7989 9.637 10.3944 10.3375ZM58.418 20.4131C58.418 21.222 57.7621 21.8779 56.9531 21.8779H53.7701C52.9611 21.8779 52.3052 21.222 52.3052 20.4131C52.3052 19.6041 52.9611 18.9483 53.7701 18.9483H56.9531C57.7621 18.9483 58.418 19.6041 58.418 20.4131Z" fill="#4936F5"/>
</svg>
