<svg width="60" height="60" viewBox="0 0 60 60" fill="none" xmlns="http://www.w3.org/2000/svg">
<g clip-path="url(#clip0_3039_1354)">
<path d="M23.0304 59.9288H7.18321C5.2951 59.9288 3.48433 59.1788 2.14923 57.8437C0.814136 56.5086 0.0640869 54.6978 0.0640869 52.8097L0.0640869 7.11913C0.0640869 5.23102 0.814136 3.42024 2.14923 2.08514C3.48433 0.750049 5.2951 0 7.18321 0L40.1448 0C42.0329 0 43.8437 0.750049 45.1788 2.08514C46.5138 3.42024 47.2639 5.23102 47.2639 7.11913V25.0308C47.285 25.2539 47.2592 25.4789 47.1883 25.6914C47.1173 25.9039 47.0028 26.0993 46.852 26.2649C46.7012 26.4306 46.5175 26.563 46.3126 26.6536C46.1077 26.7442 45.8861 26.791 45.6621 26.791C45.4381 26.791 45.2165 26.7442 45.0116 26.6536C44.8067 26.563 44.623 26.4306 44.4722 26.2649C44.3214 26.0993 44.2068 25.9039 44.1359 25.6914C44.065 25.4789 44.0392 25.2539 44.0603 25.0308V7.11913C44.0603 6.61121 43.96 6.10829 43.7652 5.63922C43.5704 5.17015 43.2849 4.74415 42.9251 4.38566C42.5653 4.02717 42.1383 3.74325 41.6685 3.55018C41.1987 3.35711 40.6954 3.25869 40.1875 3.26056H7.18321C6.67292 3.25491 6.16657 3.35054 5.69348 3.54192C5.2204 3.7333 4.78998 4.01663 4.42714 4.37549C4.0643 4.73436 3.77626 5.16164 3.57968 5.63258C3.3831 6.10353 3.2819 6.6088 3.28193 7.11913V52.8524C3.2819 53.3627 3.3831 53.868 3.57968 54.3389C3.77626 54.8099 4.0643 55.2372 4.42714 55.596C4.78998 55.9549 5.2204 56.2382 5.69348 56.4296C6.16657 56.621 6.67292 56.7166 7.18321 56.711H23.0304C23.4571 56.711 23.8663 56.8805 24.1681 57.1822C24.4698 57.4839 24.6393 57.8932 24.6393 58.3199C24.6393 58.7466 24.4698 59.1558 24.1681 59.4576C23.8663 59.7593 23.4571 59.9288 23.0304 59.9288Z" fill="#4936F5"/>
<path d="M37.1547 17.1997H10.102C9.87899 17.2208 9.654 17.195 9.44149 17.1241C9.22898 17.0532 9.03363 16.9387 8.86793 16.7879C8.70224 16.6371 8.56987 16.4533 8.47929 16.2484C8.38871 16.0435 8.34192 15.822 8.34192 15.5979C8.34192 15.3739 8.38871 15.1523 8.47929 14.9474C8.56987 14.7425 8.70224 14.5588 8.86793 14.408C9.03363 14.2572 9.22898 14.1427 9.44149 14.0718C9.654 14.0008 9.87899 13.9751 10.102 13.9961H37.1547C37.5535 14.0338 37.9239 14.2188 38.1935 14.515C38.463 14.8113 38.6124 15.1974 38.6124 15.5979C38.6124 15.9985 38.463 16.3846 38.1935 16.6808C37.9239 16.9771 37.5535 17.1621 37.1547 17.1997Z" fill="#4936F5"/>
<path d="M25.0237 29.701H10.1448C9.71804 29.701 9.3088 29.5315 9.00707 29.2298C8.70534 28.928 8.53583 28.5188 8.53583 28.0921C8.53583 27.6654 8.70534 27.2561 9.00707 26.9544C9.3088 26.6527 9.71804 26.4832 10.1448 26.4832H25.0237C25.4504 26.4832 25.8597 26.6527 26.1614 26.9544C26.4631 27.2561 26.6326 27.6654 26.6326 28.0921C26.6326 28.5188 26.4631 28.928 26.1614 29.2298C25.8597 29.5315 25.4504 29.701 25.0237 29.701Z" fill="#4936F5"/>
<path d="M54.682 43.3838C54.4464 43.3843 54.2131 43.3379 53.9956 43.2475C53.778 43.157 53.5806 43.0243 53.4148 42.857L46.9364 36.3644C46.6022 36.0302 46.4144 35.5769 46.4144 35.1043C46.4144 34.6317 46.6022 34.1784 46.9364 33.8442C47.2706 33.51 47.7238 33.3223 48.1965 33.3223C48.6691 33.3223 49.1223 33.51 49.4565 33.8442L55.9492 40.3369C56.2771 40.6743 56.4605 41.1264 56.4605 41.5969C56.4605 42.0675 56.2771 42.5195 55.9492 42.857C55.7833 43.0243 55.5859 43.157 55.3684 43.2475C55.1509 43.3379 54.9176 43.3843 54.682 43.3838Z" fill="#4936F5"/>
<path d="M29.7936 59.9999L31.6018 49.1789L49.6417 31.139C50.4638 30.3191 51.5775 29.8586 52.7385 29.8586C53.8996 29.8586 55.0133 30.3191 55.8353 31.139L58.683 33.9866C59.5029 34.8087 59.9633 35.9224 59.9633 37.0835C59.9633 38.2445 59.5029 39.3582 58.683 40.1803L40.6147 58.1917L29.7936 59.9999ZM34.9336 50.8305L34.1505 55.5861L38.9061 54.7887L56.1486 37.5604C56.299 37.4062 56.3833 37.1993 56.3833 36.9838C56.3833 36.7683 56.299 36.5614 56.1486 36.4071L53.3009 33.5595C53.1467 33.409 52.9398 33.3248 52.7243 33.3248C52.5088 33.3248 52.3019 33.409 52.1476 33.5595L34.9336 50.8305Z" fill="#4936F5"/>
</g>
<defs>
<clipPath id="clip0_3039_1354">
<rect width="60" height="60" fill="white"/>
</clipPath>
</defs>
</svg>
