<svg width="70" height="70" viewBox="0 0 70 70" fill="none" xmlns="http://www.w3.org/2000/svg">
<path fill-rule="evenodd" clip-rule="evenodd" d="M63.348 43.8665C62.6845 42.1994 61.0143 42.7162 59.7191 43.3177L56.4142 44.5586C51.0465 46.2088 45.832 49.4176 40.186 49.7563C39.2338 52.7429 35.6151 51.3374 33.3942 51.0373C31.7006 50.6948 29.9497 50.5259 28.2221 50.6817C27.04 50.7794 25.5785 51.2271 24.5793 50.3902C24.6072 50.3468 24.6421 50.3196 24.6429 50.2468C24.6653 50.1964 24.7328 50.212 24.7374 50.1298C24.7893 49.9801 24.9669 49.988 25.0257 49.8113C27.3823 48.3188 30.254 48.2597 32.9282 48.9139C34.6876 49.0153 36.8361 50.4514 38.4521 49.8096C38.4854 49.7546 38.566 49.8004 38.6233 49.8026C38.783 49.7483 38.9132 49.653 39.0612 49.5709C39.1605 49.4988 39.31 49.4609 39.3643 49.3377C39.4108 49.2888 39.3976 49.1772 39.4713 49.1648C39.3115 48.516 39.7479 47.8356 39.3829 47.1884C39.1287 46.583 38.5831 46.1366 37.953 45.9684C35.2062 45.1136 32.0796 44.1781 29.3211 43.3122C25.7279 41.6203 22.3757 43.9509 19.1244 45.3762C17.5324 45.7328 15.9412 46.2769 14.3127 46.4388C14.3949 50.7188 14.4771 55.1607 14.4692 59.4521C19.1251 58.9445 23.8351 59.0964 28.4809 59.6792C33.2467 60.5636 37.3003 61.6115 41.898 59.3173C47.2731 56.7573 52.3793 52.8618 57.4327 49.7143C58.9201 48.5804 64.1587 46.0824 63.348 43.8665ZM14.305 46.046C14.4523 46.046 14.6708 45.9708 14.791 45.9941C14.6911 46.1268 14.3879 46.1723 14.7785 46.1413C14.6204 46.1894 14.4646 46.2358 14.3103 46.2823L14.305 46.046ZM23.5282 42.0374C23.4857 41.956 23.4136 41.8692 23.4143 41.7956C23.5398 41.818 23.6523 41.9653 23.5453 41.7382C23.6058 41.8118 23.6693 41.8816 23.7336 41.9506C23.6646 41.9784 23.5957 42.0078 23.5282 42.0374ZM23.5212 41.1933C12.0188 20.3025 47.1618 9.28984 49.3305 33.0023C49.4851 38.7995 46.0399 44.0174 41.0183 46.7264C40.11 44.1105 36.9229 44.1067 34.7023 43.2881C31.3455 42.4991 27.3203 40.2685 23.8863 41.8876C23.7701 41.6514 23.674 41.4235 23.5212 41.1933ZM53.7201 43.5456C53.703 43.4976 53.6813 43.4472 53.6589 43.3968C53.7031 43.3271 53.7457 43.2642 53.7899 43.2278C53.7875 43.3262 53.7581 43.4216 53.7597 43.5184C53.8228 43.4606 53.7819 43.4452 53.8024 43.3455L53.7978 43.3541L53.8001 43.251L53.8683 43.3705C53.8745 43.3604 53.8822 43.3518 53.8892 43.3418L53.8729 43.3766L53.924 43.4658L53.8062 43.5114L53.8728 43.3766L53.8683 43.3705C53.7812 43.5408 53.8181 43.5064 53.7201 43.5456ZM65.0353 46.108C64.3021 47.3442 63.1162 48.2464 61.9955 49.1665C54.8759 53.523 48.0887 59.4353 40.1101 62.1926C36.0376 63.5711 31.8059 62.2216 27.8042 61.3854C23.4113 60.4955 18.8792 60.548 14.4855 59.7724C15.2124 65.2477 10.895 63.7269 7.2486 64.036C4.898 63.9461 4.4213 62.0038 4.57936 60.0188C4.52504 57.2015 4.61884 54.202 4.64292 51.3939C4.8406 49.7305 4.26772 42.6658 7.24636 44.0958C5.81178 44.5694 6.40384 46.2745 6.37836 47.427C6.49302 50.2025 6.7705 52.9648 6.66354 55.7528C6.6844 57.2557 6.67754 59.9102 6.6844 61.3969C6.6837 61.9146 7.26498 62.0007 7.66636 61.9525C9.07154 61.9416 10.638 61.9781 12.0292 61.9501C12.509 61.8997 12.564 61.4068 12.5237 61.0147C12.6312 56.0714 12.7202 51.0616 12.7477 46.1195C12.7244 45.7072 12.8818 45.2351 12.5997 44.8965C12.0526 44.4353 11.0178 44.6135 10.321 44.5523C9.30268 44.5154 8.21978 44.6069 7.24636 44.2849C7.40218 44.2113 7.58348 44.226 7.75176 44.1927C7.57354 44.1539 7.71914 44.1337 7.77192 44.0517C7.72082 44.0006 7.6154 44.0245 7.55184 43.9897C9.89292 43.6961 14.5238 42.1033 14.3042 46.0165C15.7273 45.4824 17.3037 45.1678 18.7058 44.5547C20.3427 43.8494 21.8278 42.7953 23.4747 42.0606C9.37618 24.25 39.3929 6.50972 49.6984 26.0562C53.8918 33.614 50.1148 45.4014 41.1339 47.1023C41.2036 47.3822 41.2416 47.6704 41.2455 47.9611C45.2025 47.329 49.8422 44.8414 53.6737 43.5625C53.6358 43.5036 53.6001 43.4463 53.5621 43.3859C56.5345 36.9489 53.0499 39.7337 60.2261 36.8319C61.3282 36.5049 60.9981 35.2584 60.995 34.3874C60.954 33.2325 60.9299 32.0614 60.9183 30.8988C60.9694 30.1192 60.2316 29.9053 59.6225 29.744C58.3777 29.3541 56.4029 28.7209 55.1682 28.3303C54.4405 27.9901 54.5295 26.9553 54.1924 26.312C53.9011 25.6339 53.6251 24.9393 53.2802 24.2813C53.088 23.821 52.5679 23.3272 52.8423 22.8064C53.6429 21.2106 54.4791 19.5713 55.2644 17.9654C55.4141 17.612 55.2791 17.212 54.9869 16.9772L52.6206 14.6436C51.6436 13.7311 51.3973 12.9298 50.0312 13.8531C50.0312 13.853 45.9544 15.9387 45.9544 15.9387C45.0948 16.2743 43.9555 15.1148 43.0564 14.9071C42.2682 14.4056 40.6189 14.4467 40.2515 13.6042C39.7903 12.2014 39.3253 10.7985 38.8385 9.40576C38.6153 8.89812 38.6169 8.0262 37.882 8.04944C36.3928 8.05182 34.7005 8.06666 33.2106 8.0619C32.8533 8.02396 32.4921 8.17978 32.3876 8.53622C32.0257 9.6523 31.6428 10.8389 31.2877 11.9511C30.9335 12.7005 31.0048 13.9415 30.1135 14.2639C28.6185 14.7003 27.1838 15.3234 25.8305 16.0892C25.5173 16.2674 25.15 16.2637 24.8508 16.1094C24.7609 16.0721 20.2167 13.7773 20.1842 13.7648C19.6595 13.4152 19.327 13.9329 18.982 14.2687L16.9971 16.27C16.8141 16.5668 15.636 17.3356 15.8764 17.7968C16.4515 19.0555 17.7079 21.3784 18.3202 22.6556C18.7325 23.681 17.6421 24.543 17.3731 25.4908C16.7988 26.3837 16.8166 28.2306 15.8215 28.6306C14.8964 29.0828 10.135 29.9881 10.289 30.8253C10.2978 32.166 10.2282 33.8729 10.2271 35.2038C10.1945 35.7279 10.1798 36.3278 10.8238 36.4734C12.4569 37.0888 14.0946 37.7398 15.7455 38.3397C16.2307 38.5683 16.133 39.2295 16.3042 39.6627C16.6196 40.9144 17.1134 42.1351 17.6064 43.3226C17.3969 44.1186 16.5548 44.6079 16.1268 45.3827C16.3881 44.6557 16.6391 44.1132 16.867 43.4232C16.1012 42.0855 15.3673 40.8748 14.9851 39.3953C13.2297 38.8294 11.4013 38.4412 9.69762 37.7203C8.15916 36.8577 8.5723 34.8999 8.4505 33.4288C7.7981 27.5708 10.2026 28.6272 14.6781 26.8353C15.0803 25.5556 15.5779 24.3001 16.2143 23.1181C15.7376 22.188 14.9595 20.6727 14.4751 19.724C13.2664 17.8857 13.6063 16.3573 15.2891 14.9923C19.996 9.88078 19.6049 11.2959 25.3082 13.9901C26.4832 13.3685 27.7139 12.8538 28.9851 12.4624C30.6479 8.19798 29.7236 5.5412 35.3894 6.0536C41.1028 5.42906 40.3303 8.13736 41.9248 12.4586C43.1951 12.8608 44.4243 13.3918 45.5939 14.022C46.9533 13.3399 48.3135 12.6578 49.6738 11.9757C51.5894 10.8185 53.045 12.4247 54.2613 13.7508C55.2851 15.0073 57.1715 15.9694 57.0656 17.8018C56.703 19.5468 55.2591 21.5079 54.5605 23.1358C55.1945 24.355 55.723 25.6285 56.1136 26.9461C60.8343 28.7543 63.0506 27.6468 62.355 33.7582C62.3865 35.3073 62.5546 37.4479 60.6492 37.9295C59.048 38.4016 57.4445 38.8798 55.8734 39.4572C55.3866 40.7879 54.9294 42.1761 54.1605 43.3751C57.1785 42.5999 61.4412 39.107 64.2409 41.6751C65.4313 42.7892 65.8289 44.6555 65.0353 46.108ZM24.9505 39.1425C24.9814 39.1968 24.9529 39.2944 25.0427 39.2494C25.0009 39.3378 24.925 39.396 24.9202 39.5013C25.4143 39.4923 25.6214 38.9393 26.0425 38.806C27.2762 37.5616 28.7326 36.5126 29.9573 35.2198C30.7874 36.1064 31.6338 37.0653 32.484 37.9357C33.7101 39.4486 34.7813 37.4738 35.6834 36.6817C38.0822 34.2528 40.6312 31.8521 42.7312 29.1589C42.6854 29.484 42.7585 29.8385 42.8908 30.1069C42.9202 30.1308 42.9287 30.1549 42.9234 30.182C42.9149 30.2162 42.9839 30.2441 42.99 30.2774C43.0215 30.4758 43.0768 30.6935 43.1503 30.8595C43.3015 30.9145 43.2388 30.9921 43.355 31.0362C43.4287 31.0509 43.393 31.0757 43.4326 31.0967C43.5016 31.1083 43.5148 31.1284 43.5442 31.1478C45.2418 30.7717 44.8046 28.6321 44.7067 27.3445C44.7785 26.355 43.8597 26.0047 43.0271 26.2836C41.9064 26.3473 40.5167 26.2093 39.7773 27.2252C39.8448 27.2756 39.7712 27.3717 39.8083 27.4306C39.7734 27.4655 39.7493 27.4569 39.7292 27.522C39.8346 27.8692 39.9733 27.629 40.0779 27.7809C40.1058 27.8925 40.2221 27.732 40.2918 27.791C40.4406 27.9003 40.6436 27.8615 40.7841 27.9453C41.0547 28.0771 41.4814 28.0045 41.8118 28.0592C38.6317 30.2471 36.1354 33.3759 33.438 36.1106C32.7931 35.5278 31.8886 34.6031 31.2655 33.994C30.7686 33.5453 30.0889 32.6144 29.4114 33.3235C27.7435 35.1333 25.8298 36.9244 24.8238 39.1791C24.8738 39.1812 24.8955 39.1254 24.9505 39.1425ZM53.5543 43.4029V43.3751C53.5574 43.379 53.5598 43.3821 53.562 43.3859C53.5596 43.3922 53.5574 43.3983 53.5543 43.4029ZM53.7658 43.2681C53.7689 43.3209 53.7581 43.465 53.7371 43.5061L53.7411 43.2806C53.7558 43.2953 53.7713 43.2922 53.7658 43.2681Z" fill="#9135E8"/>
</svg>
