<svg width="60" height="60" viewBox="0 0 60 60" fill="none" xmlns="http://www.w3.org/2000/svg">
<g clip-path="url(#clip0_3021_5106)">
<path d="M10.6575 30.1548C10.4088 30.1548 10.1704 30.2536 9.99456 30.4294C9.81874 30.6052 9.71997 30.8436 9.71997 31.0923V44.5098C9.71997 44.7584 9.81874 44.9969 9.99456 45.1727C10.1704 45.3485 10.4088 45.4473 10.6575 45.4473H32.5212C32.7699 45.4473 33.0083 45.3485 33.1841 45.1727C33.36 44.9969 33.4587 44.7584 33.4587 44.5098V31.0923C33.4587 30.8436 33.36 30.6052 33.1841 30.4294C33.0083 30.2536 32.7699 30.1548 32.5212 30.1548H10.6575ZM31.5837 43.5723H11.595V32.0298H31.5837V43.5723Z" fill="#EE3E08"/>
<path d="M5.99162 24.9288C7.22625 25.0541 8.47121 24.8289 9.58373 24.279C10.6963 23.7292 11.6313 22.8769 12.2816 21.82C12.8378 22.8968 13.674 23.8038 14.7022 24.4453C15.7304 25.0869 16.9126 25.4393 18.1242 25.4656C19.3359 25.4918 20.5322 25.1908 21.5872 24.5944C22.6422 23.9979 23.5169 23.128 24.1191 22.0763C24.3845 22.5332 24.7012 22.9585 25.0629 23.3438C25.6984 24.0146 26.464 24.549 27.3129 24.9141C28.1618 25.2793 29.0763 25.4676 30.0004 25.4676C30.9245 25.4676 31.8389 25.2793 32.6878 24.9141C33.5367 24.549 34.3023 24.0146 34.9379 23.3438C35.2996 22.9585 35.6162 22.5332 35.8816 22.0763C36.4861 23.1252 37.3616 23.9922 38.4164 24.5865C39.4711 25.1807 40.6663 25.4804 41.8766 25.4541C43.087 25.4278 44.268 25.0764 45.2959 24.4368C46.3238 23.7972 47.1608 22.893 47.7191 21.8188C48.5604 23.1744 49.8616 24.1818 51.3847 24.6567C52.9079 25.1315 54.5511 25.0421 56.0137 24.4047C57.4763 23.7674 58.6605 22.6247 59.3497 21.1858C60.0388 19.7468 60.1868 18.1079 59.7666 16.5688L56.6254 4.98125V0.9375C56.6254 0.68886 56.5266 0.450403 56.3508 0.274587C56.175 0.0987721 55.9365 0 55.6879 0L4.30912 0C4.06113 0.000991969 3.82363 0.100202 3.64863 0.27591C3.47362 0.451618 3.37536 0.689508 3.37537 0.9375V4.99L0.234117 16.5725C-0.0186782 17.5046 -0.0653634 18.4806 0.0973086 19.4327C0.259981 20.3847 0.628104 21.2898 1.17607 22.0851C1.72404 22.8804 2.43869 23.5468 3.27032 24.0379C4.10195 24.5289 5.03058 24.833 5.99162 24.9288ZM18.2854 23.5925C17.5763 23.5927 16.8756 23.4387 16.2319 23.1412C15.5882 22.8438 15.0169 22.4099 14.5575 21.8698C14.0981 21.3296 13.7616 20.6961 13.5713 20.013C13.381 19.3299 13.3414 18.6136 13.4554 17.9138L15.3841 6.045H23.8754L23.2116 18.295L23.1754 18.9588C23.1082 20.2102 22.5637 21.3883 21.654 22.2503C20.7443 23.1123 19.5386 23.5927 18.2854 23.5925ZM33.5766 22.055C32.8834 22.7889 31.9815 23.2921 30.9929 23.4965C30.0043 23.701 28.9767 23.5967 28.0493 23.1979C27.1219 22.7992 26.3394 22.1251 25.8077 21.2669C25.276 20.4088 25.0208 19.408 25.0766 18.4L25.1154 17.6788L25.7404 6.045H34.2404L34.8654 17.6788L34.9041 18.4C34.9451 19.0677 34.8484 19.7367 34.62 20.3654C34.3917 20.9942 34.0365 21.5693 33.5766 22.055ZM45.4429 21.87C44.8083 22.6154 43.9648 23.1534 43.0214 23.4145C42.0779 23.6756 41.0779 23.6479 40.1504 23.3348C39.2229 23.0218 38.4105 22.4379 37.8182 21.6585C37.226 20.8791 36.881 19.94 36.8279 18.9625L36.7916 18.2988L36.1279 6.04875H44.6166L46.5454 17.9175C46.66 18.6176 46.6208 19.3344 46.4304 20.0178C46.24 20.7012 45.903 21.335 45.4429 21.875V21.87ZM57.2791 21.0213C56.7384 21.8059 55.9753 22.4108 55.0879 22.7582C54.2005 23.1055 53.2296 23.1795 52.2998 22.9704C51.3701 22.7614 50.5242 22.279 49.871 21.5852C49.2177 20.8914 48.7869 20.0181 48.6341 19.0775L46.5154 6.045H54.9729L57.9566 17.0625C58.1386 17.7319 58.1722 18.433 58.0552 19.1167C57.9382 19.8005 57.6733 20.4505 57.2791 21.0213ZM5.25037 1.875H54.7504V4.17H5.25037V1.875ZM2.04412 17.0625L5.02787 6.045H13.4854L12.1791 14.08L11.6041 17.6125L11.3666 19.0763C11.2624 19.7154 11.0293 20.3267 10.6814 20.873C10.3335 21.4192 9.87815 21.889 9.34301 22.2537C8.80786 22.6184 8.20411 22.8705 7.56849 22.9945C6.93287 23.1186 6.27865 23.1121 5.64564 22.9753C5.01262 22.8386 4.41404 22.5745 3.88629 22.1992C3.35854 21.8238 2.91267 21.345 2.57578 20.7919C2.23888 20.2388 2.01802 19.623 1.92662 18.9819C1.83523 18.3407 1.8752 17.6877 2.04412 17.0625Z" fill="#EE3E08"/>
<path d="M59.0625 53.9125H56.625V27.0112C56.625 26.7626 56.5262 26.5241 56.3504 26.3483C56.1746 26.1725 55.9361 26.0737 55.6875 26.0737C55.4389 26.0737 55.2004 26.1725 55.0246 26.3483C54.8488 26.5241 54.75 26.7626 54.75 27.0112V53.9125H51.6063V31.0925C51.6063 30.8438 51.5075 30.6054 51.3317 30.4296C51.1558 30.2538 50.9174 30.155 50.6688 30.155H38.5175C38.2689 30.155 38.0304 30.2538 37.8546 30.4296C37.6788 30.6054 37.58 30.8438 37.58 31.0925V53.9125H5.25V27.0212C5.25 26.7726 5.15123 26.5341 4.97541 26.3583C4.7996 26.1825 4.56114 26.0837 4.3125 26.0837C4.06386 26.0837 3.8254 26.1825 3.64959 26.3583C3.47377 26.5341 3.375 26.7726 3.375 27.0212V53.9125H0.9375C0.68886 53.9125 0.450403 54.0113 0.274587 54.1871C0.098772 54.3629 0 54.6013 0 54.85L0 59.0625C0 59.3111 0.098772 59.5496 0.274587 59.7254C0.450403 59.9012 0.68886 60 0.9375 60H59.0625C59.3111 60 59.5496 59.9012 59.7254 59.7254C59.9012 59.5496 60 59.3111 60 59.0625V54.85C60 54.6013 59.9012 54.3629 59.7254 54.1871C59.5496 54.0113 59.3111 53.9125 59.0625 53.9125ZM39.455 32.03H49.7313V53.9125H39.455V32.03ZM58.125 58.125H1.875V55.7875H58.125V58.125Z" fill="#EE3E08"/>
</g>
<defs>
<clipPath id="clip0_3021_5106">
<rect width="60" height="60" fill="white"/>
</clipPath>
</defs>
</svg>
