<svg width="62" height="70" viewBox="0 0 62 70" fill="none" xmlns="http://www.w3.org/2000/svg">
<path d="M53.966 13.6145C53.925 13.2454 53.5969 13.0814 53.3509 13.0814C53.1048 13.0814 47.7328 12.6713 47.7328 12.6713C47.7328 12.6713 44.0011 8.93965 43.5501 8.57058C43.14 8.16051 42.3608 8.28353 42.0328 8.36554C41.9918 8.36554 41.2126 8.61159 39.9414 9.02166C38.6702 5.37199 36.4968 2.05038 32.601 2.05038H32.232C31.1658 0.656121 29.7715 0 28.6233 0C19.6016 0 15.2548 11.2771 13.9016 17.0181C10.3749 18.1253 7.87346 18.8635 7.5864 18.9865C5.61804 19.6016 5.57703 19.6426 5.33099 21.488C5.12595 22.8822 0 62.5365 0 62.5365L39.9004 69.9999L61.5524 65.3251C61.5934 65.243 54.007 13.9836 53.966 13.6145ZM37.727 9.59577C36.7428 9.88282 35.5536 10.2519 34.3644 10.662V9.92383C34.3644 7.70942 34.0773 5.90509 33.5442 4.46982C35.5946 4.71587 36.8658 6.97129 37.727 9.59577ZM31.0427 4.92091C31.5758 6.31517 31.9449 8.28353 31.9449 10.99V11.4001C29.7305 12.0972 27.3931 12.7944 24.9736 13.5735C26.3269 8.40655 28.9104 5.86408 31.0427 4.92091ZM28.4183 2.37844C28.8283 2.37844 29.2384 2.54247 29.5665 2.78851C26.6549 4.14176 23.5794 7.54539 22.3081 14.4347C20.3808 15.0498 18.5354 15.5829 16.7721 16.157C18.2484 10.908 21.9391 2.37844 28.4183 2.37844Z" fill="#95BF47"/>
<path d="M53.3508 12.9996C53.1048 12.9996 47.7328 12.5895 47.7328 12.5895C47.7328 12.5895 44.0011 8.85779 43.55 8.48872C43.386 8.32469 43.181 8.24268 43.0169 8.24268L40.0234 70.0001L61.6754 65.3252C61.6754 65.3252 54.089 13.9837 54.048 13.6147C53.8839 13.2456 53.5969 13.0816 53.3508 12.9996Z" fill="#5E8E3E"/>
<path d="M32.601 24.9736L29.9765 32.8881C29.9765 32.8881 27.5981 31.6168 24.7686 31.6168C20.5448 31.6168 20.3397 34.2823 20.3397 34.9384C20.3397 38.5471 29.7715 39.9414 29.7715 48.4299C29.7715 55.1142 25.5477 59.42 19.8476 59.42C12.9584 59.42 9.51373 55.1552 9.51373 55.1552L11.3591 49.0861C11.3591 49.0861 14.9677 52.2026 18.0023 52.2026C20.0117 52.2026 20.8318 50.6443 20.8318 49.4961C20.8318 44.7803 13.1224 44.5752 13.1224 36.7838C13.1224 30.2636 17.7973 23.9484 27.27 23.9484C30.7967 23.9074 32.601 24.9736 32.601 24.9736Z" fill="white"/>
</svg>
